<svg xmlns="http://www.w3.org/2000/svg" xmlns:xlink="http://www.w3.org/1999/xlink" width="500" zoomAndPan="magnify" viewBox="0 0 375 374.999991" height="500" preserveAspectRatio="xMidYMid meet" version="1.0"><defs><g/><clipPath id="8b0535bb8f"><path d="M 0 25.566406 L 375 25.566406 L 375 349.566406 L 0 349.566406 Z M 0 25.566406 " clip-rule="nonzero"/></clipPath><clipPath id="b79faaf3e1"><path d="M 374.351562 187.519531 L 280.890625 349.472656 L 93.988281 349.472656 L 0.527344 187.519531 L 93.988281 25.566406 L 280.914062 25.566406 Z M 374.351562 187.519531 " clip-rule="nonzero"/></clipPath><linearGradient x1="8.011192" gradientTransform="matrix(2.431377, 0, 0, 2.432432, 0.527129, 25.568179)" y1="-7.452318" x2="145.742986" gradientUnits="userSpaceOnUse" y2="140.608434" id="75574f8bf6"><stop stop-opacity="1" stop-color="rgb(75.299072%, 75.299072%, 75.299072%)" offset="0"/><stop stop-opacity="1" stop-color="rgb(75.299072%, 75.299072%, 75.299072%)" offset="0.125"/><stop stop-opacity="1" stop-color="rgb(75.299072%, 75.299072%, 75.299072%)" offset="0.140625"/><stop stop-opacity="1" stop-color="rgb(75.157166%, 75.152588%, 75.152588%)" offset="0.148438"/><stop stop-opacity="1" stop-color="rgb(74.835205%, 74.815369%, 74.815369%)" offset="0.15625"/><stop stop-opacity="1" stop-color="rgb(74.473572%, 74.436951%, 74.436951%)" offset="0.164062"/><stop stop-opacity="1" stop-color="rgb(74.110413%, 74.058533%, 74.058533%)" offset="0.171875"/><stop stop-opacity="1" stop-color="rgb(73.747253%, 73.680115%, 73.680115%)" offset="0.179688"/><stop stop-opacity="1" stop-color="rgb(73.384094%, 73.301697%, 73.301697%)" offset="0.1875"/><stop stop-opacity="1" stop-color="rgb(73.022461%, 72.923279%, 72.923279%)" offset="0.195312"/><stop stop-opacity="1" stop-color="rgb(72.659302%, 72.544861%, 72.544861%)" offset="0.203125"/><stop stop-opacity="1" stop-color="rgb(72.296143%, 72.166443%, 72.166443%)" offset="0.210937"/><stop stop-opacity="1" stop-color="rgb(71.932983%, 71.788025%, 71.788025%)" offset="0.21875"/><stop stop-opacity="1" stop-color="rgb(71.57135%, 71.409607%, 71.409607%)" offset="0.226563"/><stop stop-opacity="1" stop-color="rgb(71.208191%, 71.031189%, 71.031189%)" offset="0.234375"/><stop stop-opacity="1" stop-color="rgb(70.845032%, 70.652771%, 70.652771%)" offset="0.242187"/><stop stop-opacity="1" stop-color="rgb(70.481873%, 70.274353%, 70.274353%)" offset="0.25"/><stop stop-opacity="1" stop-color="rgb(70.120239%, 69.895935%, 69.895935%)" offset="0.257812"/><stop stop-opacity="1" stop-color="rgb(69.75708%, 69.517517%, 69.517517%)" offset="0.265625"/><stop stop-opacity="1" stop-color="rgb(69.393921%, 69.139099%, 69.139099%)" offset="0.273438"/><stop stop-opacity="1" stop-color="rgb(69.030762%, 68.760681%, 68.760681%)" offset="0.28125"/><stop stop-opacity="1" stop-color="rgb(68.667603%, 68.382263%, 68.382263%)" offset="0.289062"/><stop stop-opacity="1" stop-color="rgb(68.305969%, 68.003845%, 68.003845%)" offset="0.296875"/><stop stop-opacity="1" stop-color="rgb(67.94281%, 67.625427%, 67.625427%)" offset="0.304688"/><stop stop-opacity="1" stop-color="rgb(67.579651%, 67.247009%, 67.247009%)" offset="0.3125"/><stop stop-opacity="1" stop-color="rgb(67.216492%, 66.868591%, 66.868591%)" offset="0.320312"/><stop stop-opacity="1" stop-color="rgb(66.854858%, 66.490173%, 66.490173%)" offset="0.328125"/><stop stop-opacity="1" stop-color="rgb(66.491699%, 66.111755%, 66.111755%)" offset="0.335937"/><stop stop-opacity="1" stop-color="rgb(66.12854%, 65.733337%, 65.733337%)" offset="0.34375"/><stop stop-opacity="1" stop-color="rgb(65.765381%, 65.354919%, 65.354919%)" offset="0.351562"/><stop stop-opacity="1" stop-color="rgb(65.403748%, 64.976501%, 64.976501%)" offset="0.359375"/><stop stop-opacity="1" stop-color="rgb(65.040588%, 64.598083%, 64.598083%)" offset="0.367187"/><stop stop-opacity="1" stop-color="rgb(64.677429%, 64.219666%, 64.219666%)" offset="0.375"/><stop stop-opacity="1" stop-color="rgb(64.31427%, 63.841248%, 63.841248%)" offset="0.382812"/><stop stop-opacity="1" stop-color="rgb(63.951111%, 63.46283%, 63.46283%)" offset="0.390625"/><stop stop-opacity="1" stop-color="rgb(63.589478%, 63.084412%, 63.084412%)" offset="0.398437"/><stop stop-opacity="1" stop-color="rgb(63.226318%, 62.705994%, 62.705994%)" offset="0.40625"/><stop stop-opacity="1" stop-color="rgb(62.863159%, 62.327576%, 62.327576%)" offset="0.414062"/><stop stop-opacity="1" stop-color="rgb(62.5%, 61.947632%, 61.947632%)" offset="0.421875"/><stop stop-opacity="1" stop-color="rgb(62.138367%, 61.569214%, 61.569214%)" offset="0.429687"/><stop stop-opacity="1" stop-color="rgb(61.775208%, 61.190796%, 61.190796%)" offset="0.4375"/><stop stop-opacity="1" stop-color="rgb(61.412048%, 60.812378%, 60.812378%)" offset="0.445312"/><stop stop-opacity="1" stop-color="rgb(61.048889%, 60.43396%, 60.43396%)" offset="0.453125"/><stop stop-opacity="1" stop-color="rgb(60.687256%, 60.055542%, 60.055542%)" offset="0.460938"/><stop stop-opacity="1" stop-color="rgb(60.324097%, 59.677124%, 59.677124%)" offset="0.46875"/><stop stop-opacity="1" stop-color="rgb(59.960938%, 59.298706%, 59.298706%)" offset="0.476562"/><stop stop-opacity="1" stop-color="rgb(59.597778%, 58.920288%, 58.920288%)" offset="0.482142"/><stop stop-opacity="1" stop-color="rgb(59.417725%, 58.731079%, 58.731079%)" offset="0.484375"/><stop stop-opacity="1" stop-color="rgb(59.236145%, 58.54187%, 58.54187%)" offset="0.492187"/><stop stop-opacity="1" stop-color="rgb(58.872986%, 58.163452%, 58.163452%)" offset="0.5"/><stop stop-opacity="1" stop-color="rgb(58.509827%, 57.785034%, 57.785034%)" offset="0.507812"/><stop stop-opacity="1" stop-color="rgb(58.146667%, 57.406616%, 57.406616%)" offset="0.515625"/><stop stop-opacity="1" stop-color="rgb(57.783508%, 57.028198%, 57.028198%)" offset="0.517858"/><stop stop-opacity="1" stop-color="rgb(57.603455%, 56.838989%, 56.838989%)" offset="0.523438"/><stop stop-opacity="1" stop-color="rgb(57.421875%, 56.64978%, 56.64978%)" offset="0.53125"/><stop stop-opacity="1" stop-color="rgb(57.058716%, 56.271362%, 56.271362%)" offset="0.539062"/><stop stop-opacity="1" stop-color="rgb(56.695557%, 55.892944%, 55.892944%)" offset="0.546875"/><stop stop-opacity="1" stop-color="rgb(56.332397%, 55.514526%, 55.514526%)" offset="0.554687"/><stop stop-opacity="1" stop-color="rgb(55.970764%, 55.136108%, 55.136108%)" offset="0.5625"/><stop stop-opacity="1" stop-color="rgb(55.607605%, 54.75769%, 54.75769%)" offset="0.570312"/><stop stop-opacity="1" stop-color="rgb(55.244446%, 54.379272%, 54.379272%)" offset="0.578125"/><stop stop-opacity="1" stop-color="rgb(54.881287%, 54.000854%, 54.000854%)" offset="0.585937"/><stop stop-opacity="1" stop-color="rgb(54.519653%, 53.622437%, 53.622437%)" offset="0.59375"/><stop stop-opacity="1" stop-color="rgb(54.156494%, 53.244019%, 53.244019%)" offset="0.601562"/><stop stop-opacity="1" stop-color="rgb(53.793335%, 52.865601%, 52.865601%)" offset="0.609375"/><stop stop-opacity="1" stop-color="rgb(53.430176%, 52.487183%, 52.487183%)" offset="0.617188"/><stop stop-opacity="1" stop-color="rgb(53.067017%, 52.108765%, 52.108765%)" offset="0.625"/><stop stop-opacity="1" stop-color="rgb(52.705383%, 51.730347%, 51.730347%)" offset="0.632812"/><stop stop-opacity="1" stop-color="rgb(52.342224%, 51.351929%, 51.351929%)" offset="0.640625"/><stop stop-opacity="1" stop-color="rgb(51.979065%, 50.973511%, 50.973511%)" offset="0.648437"/><stop stop-opacity="1" stop-color="rgb(51.615906%, 50.595093%, 50.595093%)" offset="0.65625"/><stop stop-opacity="1" stop-color="rgb(51.254272%, 50.216675%, 50.216675%)" offset="0.664062"/><stop stop-opacity="1" stop-color="rgb(50.891113%, 49.838257%, 49.838257%)" offset="0.671875"/><stop stop-opacity="1" stop-color="rgb(50.527954%, 49.458313%, 49.458313%)" offset="0.679688"/><stop stop-opacity="1" stop-color="rgb(50.164795%, 49.079895%, 49.079895%)" offset="0.6875"/><stop stop-opacity="1" stop-color="rgb(49.803162%, 48.701477%, 48.701477%)" offset="0.695312"/><stop stop-opacity="1" stop-color="rgb(49.440002%, 48.323059%, 48.323059%)" offset="0.703125"/><stop stop-opacity="1" stop-color="rgb(49.076843%, 47.944641%, 47.944641%)" offset="0.710937"/><stop stop-opacity="1" stop-color="rgb(48.713684%, 47.566223%, 47.566223%)" offset="0.71875"/><stop stop-opacity="1" stop-color="rgb(48.352051%, 47.187805%, 47.187805%)" offset="0.726562"/><stop stop-opacity="1" stop-color="rgb(47.988892%, 46.809387%, 46.809387%)" offset="0.734375"/><stop stop-opacity="1" stop-color="rgb(47.653198%, 46.459961%, 46.459961%)" offset="0.75"/><stop stop-opacity="1" stop-color="rgb(47.499084%, 46.299744%, 46.299744%)" offset="1"/></linearGradient></defs><g clip-path="url(#8b0535bb8f)"><g clip-path="url(#b79faaf3e1)"><path fill="url(#75574f8bf6)" d="M 0.527344 25.566406 L 0.527344 349.472656 L 374.351562 349.472656 L 374.351562 25.566406 Z M 0.527344 25.566406 " fill-rule="nonzero"/></g></g><path fill="#000000" d="M 180.175781 152.507812 C 180.386719 153.085938 180.617188 153.652344 180.875 154.199219 C 181.328125 155.160156 181.199219 156.289062 180.449219 157.042969 L 177.84375 159.648438 L 184.683594 166.488281 L 187.289062 163.882812 C 188.039062 163.132812 189.171875 163.003906 190.128906 163.457031 C 190.679688 163.714844 191.246094 163.949219 191.820312 164.152344 C 192.824219 164.515625 193.53125 165.402344 193.53125 166.464844 L 193.53125 170.152344 L 203.207031 170.152344 L 203.207031 166.464844 C 203.207031 165.40625 203.914062 164.511719 204.914062 164.15625 C 205.492188 163.949219 206.054688 163.714844 206.605469 163.457031 C 207.5625 163.003906 208.695312 163.132812 209.445312 163.886719 L 212.050781 166.488281 L 218.890625 159.648438 L 216.285156 157.042969 C 215.539062 156.296875 215.40625 155.164062 215.859375 154.203125 C 216.117188 153.652344 216.351562 153.085938 216.558594 152.511719 C 216.917969 151.511719 217.808594 150.800781 218.871094 150.800781 L 222.554688 150.800781 L 222.554688 141.128906 L 218.871094 141.128906 C 217.808594 141.128906 216.917969 140.417969 216.558594 139.421875 C 216.351562 138.84375 216.121094 138.277344 215.859375 137.730469 C 215.410156 136.769531 215.539062 135.640625 216.289062 134.886719 L 218.894531 132.28125 L 212.054688 125.441406 L 209.449219 128.046875 C 208.699219 128.796875 207.566406 128.925781 206.605469 128.472656 C 206.058594 128.214844 205.492188 127.980469 204.914062 127.777344 C 203.914062 127.414062 203.207031 126.523438 203.207031 125.464844 L 203.207031 121.777344 L 193.53125 121.777344 L 193.53125 125.464844 C 193.53125 126.523438 192.824219 127.417969 191.824219 127.773438 C 191.246094 127.980469 190.683594 128.214844 190.132812 128.472656 C 189.171875 128.925781 188.042969 128.796875 187.289062 128.042969 L 184.6875 125.441406 L 177.847656 132.28125 L 180.449219 134.886719 C 181.199219 135.632812 181.332031 136.765625 180.878906 137.726562 C 180.617188 138.277344 180.382812 138.84375 180.179688 139.417969 C 179.820312 140.417969 178.929688 141.128906 177.867188 141.128906 L 174.179688 141.128906 L 174.179688 150.800781 L 177.867188 150.800781 C 178.929688 150.800781 179.820312 151.511719 180.175781 152.507812 Z M 198.367188 136.289062 C 203.710938 136.289062 208.042969 140.621094 208.042969 145.964844 C 208.042969 151.308594 203.710938 155.640625 198.367188 155.640625 C 193.027344 155.640625 188.695312 151.308594 188.695312 145.964844 C 188.695312 140.621094 193.027344 136.289062 198.367188 136.289062 Z M 198.367188 136.289062 " fill-opacity="1" fill-rule="nonzero"/><path fill="#000000" d="M 176.601562 194.339844 C 176.601562 199.679688 172.269531 204.011719 166.925781 204.011719 C 161.582031 204.011719 157.25 199.679688 157.25 194.339844 C 157.25 188.996094 161.582031 184.664062 166.925781 184.664062 C 172.269531 184.664062 176.601562 188.996094 176.601562 194.339844 " fill-opacity="1" fill-rule="nonzero"/><path fill="#000000" d="M 210.460938 194.339844 C 210.460938 199.679688 206.128906 204.011719 200.789062 204.011719 C 195.445312 204.011719 191.113281 199.679688 191.113281 194.339844 C 191.113281 188.996094 195.445312 184.664062 200.789062 184.664062 C 206.128906 184.664062 210.460938 188.996094 210.460938 194.339844 " fill-opacity="1" fill-rule="nonzero"/><path fill="#000000" d="M 217.71875 220.945312 C 217.71875 211.59375 210.140625 204.011719 200.789062 204.011719 C 191.4375 204.011719 183.855469 211.59375 183.855469 220.945312 C 183.855469 211.59375 176.277344 204.011719 166.925781 204.011719 C 157.574219 204.011719 149.992188 211.59375 149.992188 220.945312 C 149.992188 211.59375 142.414062 204.011719 133.0625 204.011719 C 123.710938 204.011719 116.132812 211.59375 116.132812 220.945312 L 116.132812 228.199219 L 217.71875 228.199219 Z M 217.71875 220.945312 " fill-opacity="1" fill-rule="nonzero"/><path fill="#000000" d="M 142.738281 194.339844 C 142.738281 199.679688 138.40625 204.011719 133.0625 204.011719 C 127.71875 204.011719 123.386719 199.679688 123.386719 194.339844 C 123.386719 188.996094 127.71875 184.664062 133.0625 184.664062 C 138.40625 184.664062 142.738281 188.996094 142.738281 194.339844 " fill-opacity="1" fill-rule="nonzero"/><path fill="#000000" d="M 158.960938 158.058594 C 157.183594 155.164062 153.375 148.035156 154.125 138.707031 C 154.125 138.667969 154.132812 138.628906 154.132812 138.589844 C 154.578125 133.347656 157.09375 128.503906 160.882812 124.863281 L 161.503906 124.265625 L 164.925781 120.84375 L 170.054688 125.976562 L 171.761719 103.742188 L 149.53125 105.453125 L 154.660156 110.582031 L 149.53125 115.714844 C 144.285156 119.976562 142.628906 124.425781 142.03125 126.613281 C 139.152344 137.132812 145.765625 150.117188 158.960938 158.058594 Z M 158.960938 158.058594 " fill-opacity="1" fill-rule="nonzero"/><path fill="#000000" d="M 242.605469 159.496094 C 242.164062 164.734375 239.648438 169.578125 235.855469 173.222656 L 235.234375 173.816406 L 231.816406 177.238281 L 226.683594 172.109375 L 224.976562 194.339844 L 247.210938 192.628906 L 242.078125 187.5 L 247.210938 182.367188 C 252.457031 178.105469 254.109375 173.65625 254.710938 171.46875 C 257.585938 160.953125 250.972656 147.964844 237.777344 140.027344 C 239.554688 142.917969 243.363281 150.046875 242.617188 159.375 C 242.613281 159.414062 242.609375 159.453125 242.605469 159.496094 Z M 242.605469 159.496094 " fill-opacity="1" fill-rule="nonzero"/><path fill="#000000" d="M 241.90625 83.074219 C 231.222656 83.074219 222.554688 91.742188 222.554688 102.425781 C 222.554688 113.113281 231.222656 121.777344 241.90625 121.777344 C 252.59375 121.777344 261.257812 113.113281 261.257812 102.425781 C 261.257812 91.742188 252.59375 83.074219 241.90625 83.074219 Z M 241.34375 111.230469 C 240.910156 111.753906 240.277344 112.066406 239.597656 112.097656 C 239.558594 112.101562 239.523438 112.101562 239.488281 112.101562 C 238.847656 112.101562 238.230469 111.847656 237.777344 111.390625 L 230.519531 104.136719 L 233.941406 100.714844 L 239.324219 106.101562 L 249.722656 93.621094 L 253.4375 96.71875 Z M 241.34375 111.230469 " fill-opacity="1" fill-rule="nonzero"/><g fill="#000000" fill-opacity="1"><g transform="translate(114.462887, 297.112627)"><g><path d="M 12.640625 0.28125 C 10.585938 0.28125 8.75 -0.0507812 7.125 -0.71875 C 5.5 -1.382812 4.195312 -2.367188 3.21875 -3.671875 C 2.25 -4.984375 1.738281 -6.5625 1.6875 -8.40625 L 8.953125 -8.40625 C 9.066406 -7.363281 9.425781 -6.566406 10.03125 -6.015625 C 10.644531 -5.472656 11.445312 -5.203125 12.4375 -5.203125 C 13.445312 -5.203125 14.242188 -5.429688 14.828125 -5.890625 C 15.421875 -6.359375 15.71875 -7.007812 15.71875 -7.84375 C 15.71875 -8.53125 15.484375 -9.097656 15.015625 -9.546875 C 14.546875 -10.003906 13.972656 -10.378906 13.296875 -10.671875 C 12.617188 -10.972656 11.65625 -11.3125 10.40625 -11.6875 C 8.59375 -12.238281 7.109375 -12.796875 5.953125 -13.359375 C 4.804688 -13.921875 3.820312 -14.75 3 -15.84375 C 2.175781 -16.9375 1.765625 -18.363281 1.765625 -20.125 C 1.765625 -22.738281 2.707031 -24.785156 4.59375 -26.265625 C 6.488281 -27.742188 8.957031 -28.484375 12 -28.484375 C 15.09375 -28.484375 17.582031 -27.742188 19.46875 -26.265625 C 21.363281 -24.785156 22.378906 -22.722656 22.515625 -20.078125 L 15.125 -20.078125 C 15.070312 -20.984375 14.738281 -21.695312 14.125 -22.21875 C 13.507812 -22.738281 12.722656 -23 11.765625 -23 C 10.929688 -23 10.257812 -22.78125 9.75 -22.34375 C 9.25 -21.90625 9 -21.269531 9 -20.4375 C 9 -19.53125 9.425781 -18.820312 10.28125 -18.3125 C 11.132812 -17.8125 12.46875 -17.269531 14.28125 -16.6875 C 16.09375 -16.070312 17.566406 -15.484375 18.703125 -14.921875 C 19.835938 -14.359375 20.816406 -13.539062 21.640625 -12.46875 C 22.460938 -11.40625 22.875 -10.035156 22.875 -8.359375 C 22.875 -6.753906 22.46875 -5.300781 21.65625 -4 C 20.84375 -2.695312 19.660156 -1.65625 18.109375 -0.875 C 16.566406 -0.101562 14.742188 0.28125 12.640625 0.28125 Z M 12.640625 0.28125 "/></g></g></g><g fill="#000000" fill-opacity="1"><g transform="translate(139.060439, 297.112627)"><g><path d="M 1.3125 -14.078125 C 1.3125 -16.847656 1.910156 -19.320312 3.109375 -21.5 C 4.316406 -23.675781 5.992188 -25.367188 8.140625 -26.578125 C 10.285156 -27.796875 12.71875 -28.40625 15.4375 -28.40625 C 18.769531 -28.40625 21.625 -27.523438 24 -25.765625 C 26.375 -24.003906 27.960938 -21.601562 28.765625 -18.5625 L 21.234375 -18.5625 C 20.679688 -19.726562 19.890625 -20.617188 18.859375 -21.234375 C 17.828125 -21.847656 16.660156 -22.15625 15.359375 -22.15625 C 13.253906 -22.15625 11.546875 -21.421875 10.234375 -19.953125 C 8.929688 -18.492188 8.28125 -16.535156 8.28125 -14.078125 C 8.28125 -11.628906 8.929688 -9.671875 10.234375 -8.203125 C 11.546875 -6.734375 13.253906 -6 15.359375 -6 C 16.660156 -6 17.828125 -6.304688 18.859375 -6.921875 C 19.890625 -7.535156 20.679688 -8.425781 21.234375 -9.59375 L 28.765625 -9.59375 C 27.960938 -6.5625 26.375 -4.171875 24 -2.421875 C 21.625 -0.671875 18.769531 0.203125 15.4375 0.203125 C 12.71875 0.203125 10.285156 -0.398438 8.140625 -1.609375 C 5.992188 -2.828125 4.316406 -4.515625 3.109375 -6.671875 C 1.910156 -8.835938 1.3125 -11.304688 1.3125 -14.078125 Z M 1.3125 -14.078125 "/></g></g></g><g fill="#000000" fill-opacity="1"><g transform="translate(169.537416, 297.112627)"><g><path d="M 16.796875 0 L 10.953125 -10.59375 L 9.3125 -10.59375 L 9.3125 0 L 2.484375 0 L 2.484375 -28.078125 L 13.953125 -28.078125 C 16.171875 -28.078125 18.054688 -27.691406 19.609375 -26.921875 C 21.171875 -26.148438 22.335938 -25.085938 23.109375 -23.734375 C 23.890625 -22.390625 24.28125 -20.890625 24.28125 -19.234375 C 24.28125 -17.367188 23.753906 -15.703125 22.703125 -14.234375 C 21.648438 -12.773438 20.097656 -11.738281 18.046875 -11.125 L 24.515625 0 Z M 9.3125 -15.4375 L 13.5625 -15.4375 C 14.8125 -15.4375 15.75 -15.742188 16.375 -16.359375 C 17 -16.972656 17.3125 -17.835938 17.3125 -18.953125 C 17.3125 -20.023438 17 -20.867188 16.375 -21.484375 C 15.75 -22.097656 14.8125 -22.40625 13.5625 -22.40625 L 9.3125 -22.40625 Z M 9.3125 -15.4375 "/></g></g></g><g fill="#000000" fill-opacity="1"><g transform="translate(195.614825, 297.112627)"><g><path d="M 9.203125 -28.078125 L 9.203125 -11.28125 C 9.203125 -9.601562 9.613281 -8.3125 10.4375 -7.40625 C 11.269531 -6.5 12.484375 -6.046875 14.078125 -6.046875 C 15.679688 -6.046875 16.910156 -6.5 17.765625 -7.40625 C 18.617188 -8.3125 19.046875 -9.601562 19.046875 -11.28125 L 19.046875 -28.078125 L 25.875 -28.078125 L 25.875 -11.3125 C 25.875 -8.8125 25.34375 -6.691406 24.28125 -4.953125 C 23.21875 -3.222656 21.785156 -1.914062 19.984375 -1.03125 C 18.179688 -0.15625 16.171875 0.28125 13.953125 0.28125 C 11.742188 0.28125 9.765625 -0.148438 8.015625 -1.015625 C 6.273438 -1.878906 4.894531 -3.1875 3.875 -4.9375 C 2.863281 -6.6875 2.359375 -8.8125 2.359375 -11.3125 L 2.359375 -28.078125 Z M 9.203125 -28.078125 "/></g></g></g><g fill="#000000" fill-opacity="1"><g transform="translate(223.812024, 297.112627)"><g><path d="M 34.28125 -28.078125 L 34.28125 0 L 27.4375 0 L 27.4375 -16.84375 L 21.15625 0 L 15.640625 0 L 9.3125 -16.875 L 9.3125 0 L 2.484375 0 L 2.484375 -28.078125 L 10.5625 -28.078125 L 18.4375 -8.640625 L 26.234375 -28.078125 Z M 34.28125 -28.078125 "/></g></g></g></svg>