<svg xmlns="http://www.w3.org/2000/svg" xmlns:xlink="http://www.w3.org/1999/xlink" width="500" zoomAndPan="magnify" viewBox="0 0 375 374.999991" height="500" preserveAspectRatio="xMidYMid meet" version="1.0"><defs><g/><clipPath id="21080694da"><path d="M 0 25.566406 L 375 25.566406 L 375 349.566406 L 0 349.566406 Z M 0 25.566406 " clip-rule="nonzero"/></clipPath><clipPath id="95850b5381"><path d="M 374.351562 187.519531 L 280.890625 349.472656 L 93.988281 349.472656 L 0.527344 187.519531 L 93.988281 25.566406 L 280.914062 25.566406 Z M 374.351562 187.519531 " clip-rule="nonzero"/></clipPath><linearGradient x1="8.01119" gradientTransform="matrix(2.431377, 0, 0, 2.432432, 0.527129, 25.568209)" y1="-7.45232" x2="145.742984" gradientUnits="userSpaceOnUse" y2="140.608432" id="c70e02feb9"><stop stop-opacity="1" stop-color="rgb(75.299072%, 75.299072%, 75.299072%)" offset="0"/><stop stop-opacity="1" stop-color="rgb(75.299072%, 75.299072%, 75.299072%)" offset="0.125"/><stop stop-opacity="1" stop-color="rgb(75.299072%, 75.299072%, 75.299072%)" offset="0.140625"/><stop stop-opacity="1" stop-color="rgb(75.157166%, 75.152588%, 75.152588%)" offset="0.148438"/><stop stop-opacity="1" stop-color="rgb(74.835205%, 74.815369%, 74.815369%)" offset="0.15625"/><stop stop-opacity="1" stop-color="rgb(74.473572%, 74.436951%, 74.436951%)" offset="0.164062"/><stop stop-opacity="1" stop-color="rgb(74.110413%, 74.058533%, 74.058533%)" offset="0.171875"/><stop stop-opacity="1" stop-color="rgb(73.747253%, 73.680115%, 73.680115%)" offset="0.179688"/><stop stop-opacity="1" stop-color="rgb(73.384094%, 73.301697%, 73.301697%)" offset="0.1875"/><stop stop-opacity="1" stop-color="rgb(73.022461%, 72.923279%, 72.923279%)" offset="0.195312"/><stop stop-opacity="1" stop-color="rgb(72.659302%, 72.544861%, 72.544861%)" offset="0.203125"/><stop stop-opacity="1" stop-color="rgb(72.296143%, 72.166443%, 72.166443%)" offset="0.210938"/><stop stop-opacity="1" stop-color="rgb(71.932983%, 71.788025%, 71.788025%)" offset="0.21875"/><stop stop-opacity="1" stop-color="rgb(71.57135%, 71.409607%, 71.409607%)" offset="0.226563"/><stop stop-opacity="1" stop-color="rgb(71.208191%, 71.031189%, 71.031189%)" offset="0.234375"/><stop stop-opacity="1" stop-color="rgb(70.845032%, 70.652771%, 70.652771%)" offset="0.242188"/><stop stop-opacity="1" stop-color="rgb(70.481873%, 70.274353%, 70.274353%)" offset="0.25"/><stop stop-opacity="1" stop-color="rgb(70.120239%, 69.895935%, 69.895935%)" offset="0.257812"/><stop stop-opacity="1" stop-color="rgb(69.75708%, 69.517517%, 69.517517%)" offset="0.265625"/><stop stop-opacity="1" stop-color="rgb(69.393921%, 69.139099%, 69.139099%)" offset="0.273438"/><stop stop-opacity="1" stop-color="rgb(69.030762%, 68.760681%, 68.760681%)" offset="0.28125"/><stop stop-opacity="1" stop-color="rgb(68.667603%, 68.382263%, 68.382263%)" offset="0.289063"/><stop stop-opacity="1" stop-color="rgb(68.305969%, 68.003845%, 68.003845%)" offset="0.296875"/><stop stop-opacity="1" stop-color="rgb(67.94281%, 67.625427%, 67.625427%)" offset="0.304688"/><stop stop-opacity="1" stop-color="rgb(67.579651%, 67.247009%, 67.247009%)" offset="0.3125"/><stop stop-opacity="1" stop-color="rgb(67.216492%, 66.868591%, 66.868591%)" offset="0.320313"/><stop stop-opacity="1" stop-color="rgb(66.854858%, 66.490173%, 66.490173%)" offset="0.328125"/><stop stop-opacity="1" stop-color="rgb(66.491699%, 66.111755%, 66.111755%)" offset="0.335938"/><stop stop-opacity="1" stop-color="rgb(66.12854%, 65.733337%, 65.733337%)" offset="0.34375"/><stop stop-opacity="1" stop-color="rgb(65.765381%, 65.354919%, 65.354919%)" offset="0.351563"/><stop stop-opacity="1" stop-color="rgb(65.403748%, 64.976501%, 64.976501%)" offset="0.359375"/><stop stop-opacity="1" stop-color="rgb(65.040588%, 64.598083%, 64.598083%)" offset="0.367188"/><stop stop-opacity="1" stop-color="rgb(64.677429%, 64.219666%, 64.219666%)" offset="0.375"/><stop stop-opacity="1" stop-color="rgb(64.31427%, 63.841248%, 63.841248%)" offset="0.382813"/><stop stop-opacity="1" stop-color="rgb(63.951111%, 63.46283%, 63.46283%)" offset="0.390625"/><stop stop-opacity="1" stop-color="rgb(63.589478%, 63.084412%, 63.084412%)" offset="0.398438"/><stop stop-opacity="1" stop-color="rgb(63.226318%, 62.705994%, 62.705994%)" offset="0.40625"/><stop stop-opacity="1" stop-color="rgb(62.863159%, 62.327576%, 62.327576%)" offset="0.414063"/><stop stop-opacity="1" stop-color="rgb(62.5%, 61.947632%, 61.947632%)" offset="0.421875"/><stop stop-opacity="1" stop-color="rgb(62.138367%, 61.569214%, 61.569214%)" offset="0.429688"/><stop stop-opacity="1" stop-color="rgb(61.775208%, 61.190796%, 61.190796%)" offset="0.4375"/><stop stop-opacity="1" stop-color="rgb(61.412048%, 60.812378%, 60.812378%)" offset="0.445313"/><stop stop-opacity="1" stop-color="rgb(61.048889%, 60.43396%, 60.43396%)" offset="0.453125"/><stop stop-opacity="1" stop-color="rgb(60.687256%, 60.055542%, 60.055542%)" offset="0.460938"/><stop stop-opacity="1" stop-color="rgb(60.324097%, 59.677124%, 59.677124%)" offset="0.46875"/><stop stop-opacity="1" stop-color="rgb(59.960938%, 59.298706%, 59.298706%)" offset="0.476563"/><stop stop-opacity="1" stop-color="rgb(59.597778%, 58.920288%, 58.920288%)" offset="0.482142"/><stop stop-opacity="1" stop-color="rgb(59.417725%, 58.731079%, 58.731079%)" offset="0.484375"/><stop stop-opacity="1" stop-color="rgb(59.236145%, 58.54187%, 58.54187%)" offset="0.492188"/><stop stop-opacity="1" stop-color="rgb(58.872986%, 58.163452%, 58.163452%)" offset="0.5"/><stop stop-opacity="1" stop-color="rgb(58.509827%, 57.785034%, 57.785034%)" offset="0.507813"/><stop stop-opacity="1" stop-color="rgb(58.146667%, 57.406616%, 57.406616%)" offset="0.515625"/><stop stop-opacity="1" stop-color="rgb(57.783508%, 57.028198%, 57.028198%)" offset="0.517858"/><stop stop-opacity="1" stop-color="rgb(57.603455%, 56.838989%, 56.838989%)" offset="0.523438"/><stop stop-opacity="1" stop-color="rgb(57.421875%, 56.64978%, 56.64978%)" offset="0.53125"/><stop stop-opacity="1" stop-color="rgb(57.058716%, 56.271362%, 56.271362%)" offset="0.539063"/><stop stop-opacity="1" stop-color="rgb(56.695557%, 55.892944%, 55.892944%)" offset="0.546875"/><stop stop-opacity="1" stop-color="rgb(56.332397%, 55.514526%, 55.514526%)" offset="0.554688"/><stop stop-opacity="1" stop-color="rgb(55.970764%, 55.136108%, 55.136108%)" offset="0.5625"/><stop stop-opacity="1" stop-color="rgb(55.607605%, 54.75769%, 54.75769%)" offset="0.570312"/><stop stop-opacity="1" stop-color="rgb(55.244446%, 54.379272%, 54.379272%)" offset="0.578125"/><stop stop-opacity="1" stop-color="rgb(54.881287%, 54.000854%, 54.000854%)" offset="0.585938"/><stop stop-opacity="1" stop-color="rgb(54.519653%, 53.622437%, 53.622437%)" offset="0.59375"/><stop stop-opacity="1" stop-color="rgb(54.156494%, 53.244019%, 53.244019%)" offset="0.601563"/><stop stop-opacity="1" stop-color="rgb(53.793335%, 52.865601%, 52.865601%)" offset="0.609375"/><stop stop-opacity="1" stop-color="rgb(53.430176%, 52.487183%, 52.487183%)" offset="0.617188"/><stop stop-opacity="1" stop-color="rgb(53.067017%, 52.108765%, 52.108765%)" offset="0.625"/><stop stop-opacity="1" stop-color="rgb(52.705383%, 51.730347%, 51.730347%)" offset="0.632812"/><stop stop-opacity="1" stop-color="rgb(52.342224%, 51.351929%, 51.351929%)" offset="0.640625"/><stop stop-opacity="1" stop-color="rgb(51.979065%, 50.973511%, 50.973511%)" offset="0.648438"/><stop stop-opacity="1" stop-color="rgb(51.615906%, 50.595093%, 50.595093%)" offset="0.65625"/><stop stop-opacity="1" stop-color="rgb(51.254272%, 50.216675%, 50.216675%)" offset="0.664063"/><stop stop-opacity="1" stop-color="rgb(50.891113%, 49.838257%, 49.838257%)" offset="0.671875"/><stop stop-opacity="1" stop-color="rgb(50.527954%, 49.458313%, 49.458313%)" offset="0.679688"/><stop stop-opacity="1" stop-color="rgb(50.164795%, 49.079895%, 49.079895%)" offset="0.6875"/><stop stop-opacity="1" stop-color="rgb(49.803162%, 48.701477%, 48.701477%)" offset="0.695312"/><stop stop-opacity="1" stop-color="rgb(49.440002%, 48.323059%, 48.323059%)" offset="0.703125"/><stop stop-opacity="1" stop-color="rgb(49.076843%, 47.944641%, 47.944641%)" offset="0.710938"/><stop stop-opacity="1" stop-color="rgb(48.713684%, 47.566223%, 47.566223%)" offset="0.71875"/><stop stop-opacity="1" stop-color="rgb(48.352051%, 47.187805%, 47.187805%)" offset="0.726563"/><stop stop-opacity="1" stop-color="rgb(47.988892%, 46.809387%, 46.809387%)" offset="0.734375"/><stop stop-opacity="1" stop-color="rgb(47.653198%, 46.459961%, 46.459961%)" offset="0.75"/><stop stop-opacity="1" stop-color="rgb(47.499084%, 46.299744%, 46.299744%)" offset="1"/></linearGradient></defs><g clip-path="url(#21080694da)"><g clip-path="url(#95850b5381)"><path fill="url(#c70e02feb9)" d="M 0.527344 25.566406 L 0.527344 349.472656 L 374.351562 349.472656 L 374.351562 25.566406 Z M 0.527344 25.566406 " fill-rule="nonzero"/></g></g><path fill="#000000" d="M 126.023438 85.414062 L 248.90625 85.414062 L 237.726562 211.585938 L 187.328125 225.851562 L 137.21875 211.585938 Z M 167.164062 142.460938 L 165.8125 126.5625 L 224.664062 126.578125 L 226.015625 111.242188 L 148.90625 111.226562 L 152.984375 158.085938 L 206.382812 158.085938 L 204.484375 178.132812 L 187.460938 182.835938 L 170.164062 178.109375 L 169.0625 165.765625 L 153.796875 165.765625 L 155.726562 190.164062 L 187.460938 198.648438 L 218.929688 190.210938 L 223.289062 142.46875 L 167.164062 142.46875 Z M 167.164062 142.460938 " fill-opacity="1" fill-rule="nonzero"/><g fill="#000000" fill-opacity="1"><g transform="translate(120.164058, 293.072676)"><g><path d="M 26.796875 -28.078125 L 26.796875 0 L 19.953125 0 L 19.953125 -11.5625 L 9.3125 -11.5625 L 9.3125 0 L 2.484375 0 L 2.484375 -28.078125 L 9.3125 -28.078125 L 9.3125 -17.078125 L 19.953125 -17.078125 L 19.953125 -28.078125 Z M 26.796875 -28.078125 "/></g></g></g><g fill="#000000" fill-opacity="1"><g transform="translate(149.401147, 293.072676)"><g><path d="M 22.6875 -28.078125 L 22.6875 -22.59375 L 15.234375 -22.59375 L 15.234375 0 L 8.40625 0 L 8.40625 -22.59375 L 0.953125 -22.59375 L 0.953125 -28.078125 Z M 22.6875 -28.078125 "/></g></g></g><g fill="#000000" fill-opacity="1"><g transform="translate(173.038803, 293.072676)"><g><path d="M 34.28125 -28.078125 L 34.28125 0 L 27.4375 0 L 27.4375 -16.84375 L 21.15625 0 L 15.640625 0 L 9.3125 -16.875 L 9.3125 0 L 2.484375 0 L 2.484375 -28.078125 L 10.5625 -28.078125 L 18.4375 -8.640625 L 26.234375 -28.078125 Z M 34.28125 -28.078125 "/></g></g></g><g fill="#000000" fill-opacity="1"><g transform="translate(209.755155, 293.072676)"><g><path d="M 9.3125 -5.28125 L 18.28125 -5.28125 L 18.28125 0 L 2.484375 0 L 2.484375 -28.078125 L 9.3125 -28.078125 Z M 9.3125 -5.28125 "/></g></g></g><g fill="#000000" fill-opacity="1"><g transform="translate(228.833255, 293.072676)"><g><path d="M 22.359375 -23.234375 L 9.875 -23.234375 L 9.875 -17.71875 C 10.414062 -18.300781 11.164062 -18.78125 12.125 -19.15625 C 13.082031 -19.53125 14.117188 -19.71875 15.234375 -19.71875 C 17.234375 -19.71875 18.894531 -19.265625 20.21875 -18.359375 C 21.539062 -17.453125 22.507812 -16.28125 23.125 -14.84375 C 23.738281 -13.40625 24.046875 -11.84375 24.046875 -10.15625 C 24.046875 -7.039062 23.164062 -4.566406 21.40625 -2.734375 C 19.644531 -0.910156 17.160156 0 13.953125 0 C 11.828125 0 9.976562 -0.363281 8.40625 -1.09375 C 6.832031 -1.832031 5.617188 -2.851562 4.765625 -4.15625 C 3.910156 -5.46875 3.441406 -6.976562 3.359375 -8.6875 L 10.046875 -8.6875 C 10.203125 -7.851562 10.585938 -7.160156 11.203125 -6.609375 C 11.816406 -6.066406 12.65625 -5.796875 13.71875 -5.796875 C 14.96875 -5.796875 15.898438 -6.195312 16.515625 -7 C 17.128906 -7.800781 17.4375 -8.867188 17.4375 -10.203125 C 17.4375 -11.503906 17.113281 -12.5 16.46875 -13.1875 C 15.832031 -13.882812 14.90625 -14.234375 13.6875 -14.234375 C 12.769531 -14.234375 12.019531 -14.015625 11.4375 -13.578125 C 10.851562 -13.140625 10.46875 -12.5625 10.28125 -11.84375 L 3.6875 -11.84375 L 3.6875 -29.234375 L 22.359375 -29.234375 Z M 22.359375 -23.234375 "/></g></g></g></svg>