<svg xmlns="http://www.w3.org/2000/svg" xmlns:xlink="http://www.w3.org/1999/xlink" width="500" zoomAndPan="magnify" viewBox="0 0 375 374.999991" height="500" preserveAspectRatio="xMidYMid meet" version="1.0"><defs><g/><clipPath id="bf0c77f30f"><path d="M 0 25.566406 L 375 25.566406 L 375 349.566406 L 0 349.566406 Z M 0 25.566406 " clip-rule="nonzero"/></clipPath><clipPath id="ebd78c1d1b"><path d="M 374.351562 187.519531 L 280.890625 349.472656 L 93.988281 349.472656 L 0.527344 187.519531 L 93.988281 25.566406 L 280.914062 25.566406 Z M 374.351562 187.519531 " clip-rule="nonzero"/></clipPath><linearGradient x1="8.011192" gradientTransform="matrix(2.431377, 0, 0, 2.432432, 0.527129, 25.568179)" y1="-7.452318" x2="145.742986" gradientUnits="userSpaceOnUse" y2="140.608434" id="70736e5773"><stop stop-opacity="1" stop-color="rgb(75.299072%, 75.299072%, 75.299072%)" offset="0"/><stop stop-opacity="1" stop-color="rgb(75.299072%, 75.299072%, 75.299072%)" offset="0.125"/><stop stop-opacity="1" stop-color="rgb(75.299072%, 75.299072%, 75.299072%)" offset="0.140625"/><stop stop-opacity="1" stop-color="rgb(75.157166%, 75.152588%, 75.152588%)" offset="0.148438"/><stop stop-opacity="1" stop-color="rgb(74.835205%, 74.815369%, 74.815369%)" offset="0.15625"/><stop stop-opacity="1" stop-color="rgb(74.473572%, 74.436951%, 74.436951%)" offset="0.164062"/><stop stop-opacity="1" stop-color="rgb(74.110413%, 74.058533%, 74.058533%)" offset="0.171875"/><stop stop-opacity="1" stop-color="rgb(73.747253%, 73.680115%, 73.680115%)" offset="0.179688"/><stop stop-opacity="1" stop-color="rgb(73.384094%, 73.301697%, 73.301697%)" offset="0.1875"/><stop stop-opacity="1" stop-color="rgb(73.022461%, 72.923279%, 72.923279%)" offset="0.195312"/><stop stop-opacity="1" stop-color="rgb(72.659302%, 72.544861%, 72.544861%)" offset="0.203125"/><stop stop-opacity="1" stop-color="rgb(72.296143%, 72.166443%, 72.166443%)" offset="0.210937"/><stop stop-opacity="1" stop-color="rgb(71.932983%, 71.788025%, 71.788025%)" offset="0.21875"/><stop stop-opacity="1" stop-color="rgb(71.57135%, 71.409607%, 71.409607%)" offset="0.226563"/><stop stop-opacity="1" stop-color="rgb(71.208191%, 71.031189%, 71.031189%)" offset="0.234375"/><stop stop-opacity="1" stop-color="rgb(70.845032%, 70.652771%, 70.652771%)" offset="0.242187"/><stop stop-opacity="1" stop-color="rgb(70.481873%, 70.274353%, 70.274353%)" offset="0.25"/><stop stop-opacity="1" stop-color="rgb(70.120239%, 69.895935%, 69.895935%)" offset="0.257812"/><stop stop-opacity="1" stop-color="rgb(69.75708%, 69.517517%, 69.517517%)" offset="0.265625"/><stop stop-opacity="1" stop-color="rgb(69.393921%, 69.139099%, 69.139099%)" offset="0.273438"/><stop stop-opacity="1" stop-color="rgb(69.030762%, 68.760681%, 68.760681%)" offset="0.28125"/><stop stop-opacity="1" stop-color="rgb(68.667603%, 68.382263%, 68.382263%)" offset="0.289062"/><stop stop-opacity="1" stop-color="rgb(68.305969%, 68.003845%, 68.003845%)" offset="0.296875"/><stop stop-opacity="1" stop-color="rgb(67.94281%, 67.625427%, 67.625427%)" offset="0.304688"/><stop stop-opacity="1" stop-color="rgb(67.579651%, 67.247009%, 67.247009%)" offset="0.3125"/><stop stop-opacity="1" stop-color="rgb(67.216492%, 66.868591%, 66.868591%)" offset="0.320312"/><stop stop-opacity="1" stop-color="rgb(66.854858%, 66.490173%, 66.490173%)" offset="0.328125"/><stop stop-opacity="1" stop-color="rgb(66.491699%, 66.111755%, 66.111755%)" offset="0.335937"/><stop stop-opacity="1" stop-color="rgb(66.12854%, 65.733337%, 65.733337%)" offset="0.34375"/><stop stop-opacity="1" stop-color="rgb(65.765381%, 65.354919%, 65.354919%)" offset="0.351562"/><stop stop-opacity="1" stop-color="rgb(65.403748%, 64.976501%, 64.976501%)" offset="0.359375"/><stop stop-opacity="1" stop-color="rgb(65.040588%, 64.598083%, 64.598083%)" offset="0.367187"/><stop stop-opacity="1" stop-color="rgb(64.677429%, 64.219666%, 64.219666%)" offset="0.375"/><stop stop-opacity="1" stop-color="rgb(64.31427%, 63.841248%, 63.841248%)" offset="0.382812"/><stop stop-opacity="1" stop-color="rgb(63.951111%, 63.46283%, 63.46283%)" offset="0.390625"/><stop stop-opacity="1" stop-color="rgb(63.589478%, 63.084412%, 63.084412%)" offset="0.398437"/><stop stop-opacity="1" stop-color="rgb(63.226318%, 62.705994%, 62.705994%)" offset="0.40625"/><stop stop-opacity="1" stop-color="rgb(62.863159%, 62.327576%, 62.327576%)" offset="0.414062"/><stop stop-opacity="1" stop-color="rgb(62.5%, 61.947632%, 61.947632%)" offset="0.421875"/><stop stop-opacity="1" stop-color="rgb(62.138367%, 61.569214%, 61.569214%)" offset="0.429687"/><stop stop-opacity="1" stop-color="rgb(61.775208%, 61.190796%, 61.190796%)" offset="0.4375"/><stop stop-opacity="1" stop-color="rgb(61.412048%, 60.812378%, 60.812378%)" offset="0.445312"/><stop stop-opacity="1" stop-color="rgb(61.048889%, 60.43396%, 60.43396%)" offset="0.453125"/><stop stop-opacity="1" stop-color="rgb(60.687256%, 60.055542%, 60.055542%)" offset="0.460938"/><stop stop-opacity="1" stop-color="rgb(60.324097%, 59.677124%, 59.677124%)" offset="0.46875"/><stop stop-opacity="1" stop-color="rgb(59.960938%, 59.298706%, 59.298706%)" offset="0.476562"/><stop stop-opacity="1" stop-color="rgb(59.597778%, 58.920288%, 58.920288%)" offset="0.482142"/><stop stop-opacity="1" stop-color="rgb(59.417725%, 58.731079%, 58.731079%)" offset="0.484375"/><stop stop-opacity="1" stop-color="rgb(59.236145%, 58.54187%, 58.54187%)" offset="0.492187"/><stop stop-opacity="1" stop-color="rgb(58.872986%, 58.163452%, 58.163452%)" offset="0.5"/><stop stop-opacity="1" stop-color="rgb(58.509827%, 57.785034%, 57.785034%)" offset="0.507812"/><stop stop-opacity="1" stop-color="rgb(58.146667%, 57.406616%, 57.406616%)" offset="0.515625"/><stop stop-opacity="1" stop-color="rgb(57.783508%, 57.028198%, 57.028198%)" offset="0.517858"/><stop stop-opacity="1" stop-color="rgb(57.603455%, 56.838989%, 56.838989%)" offset="0.523438"/><stop stop-opacity="1" stop-color="rgb(57.421875%, 56.64978%, 56.64978%)" offset="0.53125"/><stop stop-opacity="1" stop-color="rgb(57.058716%, 56.271362%, 56.271362%)" offset="0.539062"/><stop stop-opacity="1" stop-color="rgb(56.695557%, 55.892944%, 55.892944%)" offset="0.546875"/><stop stop-opacity="1" stop-color="rgb(56.332397%, 55.514526%, 55.514526%)" offset="0.554687"/><stop stop-opacity="1" stop-color="rgb(55.970764%, 55.136108%, 55.136108%)" offset="0.5625"/><stop stop-opacity="1" stop-color="rgb(55.607605%, 54.75769%, 54.75769%)" offset="0.570312"/><stop stop-opacity="1" stop-color="rgb(55.244446%, 54.379272%, 54.379272%)" offset="0.578125"/><stop stop-opacity="1" stop-color="rgb(54.881287%, 54.000854%, 54.000854%)" offset="0.585937"/><stop stop-opacity="1" stop-color="rgb(54.519653%, 53.622437%, 53.622437%)" offset="0.59375"/><stop stop-opacity="1" stop-color="rgb(54.156494%, 53.244019%, 53.244019%)" offset="0.601562"/><stop stop-opacity="1" stop-color="rgb(53.793335%, 52.865601%, 52.865601%)" offset="0.609375"/><stop stop-opacity="1" stop-color="rgb(53.430176%, 52.487183%, 52.487183%)" offset="0.617188"/><stop stop-opacity="1" stop-color="rgb(53.067017%, 52.108765%, 52.108765%)" offset="0.625"/><stop stop-opacity="1" stop-color="rgb(52.705383%, 51.730347%, 51.730347%)" offset="0.632812"/><stop stop-opacity="1" stop-color="rgb(52.342224%, 51.351929%, 51.351929%)" offset="0.640625"/><stop stop-opacity="1" stop-color="rgb(51.979065%, 50.973511%, 50.973511%)" offset="0.648437"/><stop stop-opacity="1" stop-color="rgb(51.615906%, 50.595093%, 50.595093%)" offset="0.65625"/><stop stop-opacity="1" stop-color="rgb(51.254272%, 50.216675%, 50.216675%)" offset="0.664062"/><stop stop-opacity="1" stop-color="rgb(50.891113%, 49.838257%, 49.838257%)" offset="0.671875"/><stop stop-opacity="1" stop-color="rgb(50.527954%, 49.458313%, 49.458313%)" offset="0.679688"/><stop stop-opacity="1" stop-color="rgb(50.164795%, 49.079895%, 49.079895%)" offset="0.6875"/><stop stop-opacity="1" stop-color="rgb(49.803162%, 48.701477%, 48.701477%)" offset="0.695312"/><stop stop-opacity="1" stop-color="rgb(49.440002%, 48.323059%, 48.323059%)" offset="0.703125"/><stop stop-opacity="1" stop-color="rgb(49.076843%, 47.944641%, 47.944641%)" offset="0.710937"/><stop stop-opacity="1" stop-color="rgb(48.713684%, 47.566223%, 47.566223%)" offset="0.71875"/><stop stop-opacity="1" stop-color="rgb(48.352051%, 47.187805%, 47.187805%)" offset="0.726562"/><stop stop-opacity="1" stop-color="rgb(47.988892%, 46.809387%, 46.809387%)" offset="0.734375"/><stop stop-opacity="1" stop-color="rgb(47.653198%, 46.459961%, 46.459961%)" offset="0.75"/><stop stop-opacity="1" stop-color="rgb(47.499084%, 46.299744%, 46.299744%)" offset="1"/></linearGradient></defs><g clip-path="url(#bf0c77f30f)"><g clip-path="url(#ebd78c1d1b)"><path fill="url(#70736e5773)" d="M 0.527344 25.566406 L 0.527344 349.472656 L 374.351562 349.472656 L 374.351562 25.566406 Z M 0.527344 25.566406 " fill-rule="nonzero"/></g></g><path fill="#000000" d="M 248.972656 189.71875 C 230.453125 214.386719 190.914062 206.0625 165.554688 207.253906 C 165.554688 207.253906 161.0625 207.511719 156.546875 208.253906 C 156.546875 208.253906 158.257812 207.527344 160.441406 206.769531 C 178.246094 200.609375 186.660156 199.375 197.484375 193.816406 C 217.808594 183.40625 238.042969 160.71875 242.160156 137.152344 C 234.421875 159.816406 210.886719 179.324219 189.457031 187.246094 C 174.796875 192.660156 148.269531 197.925781 148.261719 197.925781 C 147.902344 197.742188 147.542969 197.550781 147.1875 197.355469 C 129.152344 188.582031 128.625 149.503906 161.394531 136.914062 C 175.761719 131.394531 189.496094 134.421875 205.027344 130.726562 C 221.589844 126.789062 240.773438 114.375 248.566406 98.144531 C 257.304688 124.082031 267.804688 164.640625 248.972656 189.71875 Z M 249.285156 90.121094 C 247.183594 95.160156 244.519531 99.886719 241.296875 104.296875 C 239.558594 102.5 237.730469 100.796875 235.820312 99.1875 C 233.910156 97.574219 231.921875 96.0625 229.859375 94.652344 C 227.796875 93.238281 225.667969 91.933594 223.472656 90.734375 C 221.28125 89.535156 219.03125 88.449219 216.730469 87.476562 C 214.425781 86.503906 212.082031 85.644531 209.691406 84.90625 C 207.304688 84.167969 204.882812 83.550781 202.433594 83.054688 C 199.984375 82.558594 197.515625 82.183594 195.027344 81.9375 C 192.539062 81.6875 190.046875 81.5625 187.546875 81.5625 C 146.125 81.5625 112.433594 115.253906 112.433594 156.667969 C 112.433594 159.242188 112.5625 161.8125 112.828125 164.375 C 113.089844 166.9375 113.488281 169.480469 114.011719 172 C 114.539062 174.523438 115.195312 177.011719 115.976562 179.464844 C 116.761719 181.917969 117.667969 184.324219 118.699219 186.683594 C 119.730469 189.046875 120.878906 191.347656 122.148438 193.585938 C 123.417969 195.828125 124.800781 198 126.292969 200.097656 C 127.785156 202.199219 129.382812 204.214844 131.082031 206.148438 C 132.785156 208.082031 134.578125 209.925781 136.472656 211.671875 L 138.121094 213.128906 C 137.921875 212.929688 137.738281 212.71875 137.566406 212.496094 C 137.398438 212.273438 137.242188 212.042969 137.101562 211.796875 C 136.960938 211.554688 136.835938 211.304688 136.730469 211.046875 C 136.625 210.785156 136.535156 210.519531 136.460938 210.25 C 136.386719 209.980469 136.332031 209.703125 136.296875 209.425781 C 136.261719 209.148438 136.242188 208.871094 136.242188 208.589844 C 136.242188 208.308594 136.261719 208.03125 136.296875 207.75 C 136.335938 207.472656 136.390625 207.199219 136.460938 206.929688 C 136.535156 206.65625 136.625 206.390625 136.730469 206.132812 C 136.839844 205.875 136.960938 205.621094 137.101562 205.378906 C 137.242188 205.136719 137.398438 204.90625 137.570312 204.683594 C 137.738281 204.460938 137.925781 204.25 138.121094 204.050781 C 138.320312 203.851562 138.53125 203.667969 138.753906 203.496094 C 138.976562 203.328125 139.210938 203.171875 139.453125 203.03125 C 139.695312 202.890625 139.945312 202.765625 140.207031 202.660156 C 140.464844 202.550781 140.730469 202.460938 141 202.390625 C 141.269531 202.316406 141.546875 202.261719 141.824219 202.226562 C 142.101562 202.1875 142.378906 202.171875 142.660156 202.171875 C 142.941406 202.171875 143.222656 202.1875 143.5 202.226562 C 143.777344 202.261719 144.050781 202.316406 144.324219 202.390625 C 144.59375 202.460938 144.859375 202.550781 145.117188 202.660156 C 145.375 202.765625 145.628906 202.890625 145.871094 203.03125 C 146.113281 203.167969 146.347656 203.324219 146.570312 203.496094 C 146.792969 203.667969 147 203.851562 147.199219 204.050781 C 147.398438 204.246094 147.582031 204.457031 147.753906 204.679688 C 147.925781 204.902344 148.082031 205.136719 148.222656 205.378906 C 148.359375 205.621094 148.484375 205.871094 148.59375 206.128906 C 148.699219 206.390625 148.789062 206.65625 148.863281 206.925781 C 148.9375 207.195312 148.992188 207.46875 149.027344 207.75 C 149.0625 208.027344 149.082031 208.304688 149.082031 208.585938 C 149.082031 208.867188 149.066406 209.144531 149.027344 209.425781 C 148.992188 209.703125 148.9375 209.976562 148.863281 210.246094 C 148.792969 210.519531 148.703125 210.785156 148.59375 211.042969 C 148.488281 211.300781 148.363281 211.554688 148.226562 211.796875 C 148.085938 212.039062 147.929688 212.273438 147.757812 212.496094 C 147.589844 212.71875 147.402344 212.929688 147.207031 213.125 C 147.007812 213.324219 146.796875 213.507812 146.574219 213.679688 C 146.351562 213.851562 146.121094 214.007812 145.878906 214.148438 C 145.632812 214.289062 145.382812 214.410156 145.125 214.519531 C 144.867188 214.628906 144.601562 214.71875 144.332031 214.789062 C 144.058594 214.863281 143.785156 214.917969 143.507812 214.953125 C 143.230469 214.992188 142.949219 215.011719 142.667969 215.011719 C 142.390625 215.011719 142.109375 214.992188 141.832031 214.957031 C 141.554688 214.921875 141.277344 214.867188 141.007812 214.792969 C 140.738281 214.722656 140.472656 214.632812 140.210938 214.523438 C 139.953125 214.417969 139.703125 214.292969 139.460938 214.152344 C 139.214844 214.015625 138.984375 213.859375 138.761719 213.6875 C 138.539062 213.519531 138.328125 213.332031 138.128906 213.136719 L 139.246094 214.125 C 142.59375 216.957031 146.167969 219.476562 149.960938 221.675781 C 153.753906 223.878906 157.710938 225.734375 161.828125 227.242188 C 165.949219 228.746094 170.167969 229.878906 174.488281 230.644531 C 178.808594 231.40625 183.160156 231.785156 187.546875 231.78125 C 227.132812 231.78125 259.644531 200.96875 262.425781 162.089844 C 264.480469 143.046875 258.855469 118.867188 249.285156 90.121094 " fill-opacity="1" fill-rule="nonzero"/><g fill="#000000" fill-opacity="1"><g transform="translate(73.388671, 293.069599)"><g><path d="M 11.0625 0.25 C 9.257812 0.25 7.644531 -0.0390625 6.21875 -0.625 C 4.800781 -1.207031 3.664062 -2.070312 2.8125 -3.21875 C 1.96875 -4.363281 1.519531 -5.738281 1.46875 -7.34375 L 7.84375 -7.34375 C 7.9375 -6.4375 8.25 -5.742188 8.78125 -5.265625 C 9.320312 -4.785156 10.023438 -4.546875 10.890625 -4.546875 C 11.773438 -4.546875 12.472656 -4.75 12.984375 -5.15625 C 13.492188 -5.570312 13.75 -6.140625 13.75 -6.859375 C 13.75 -7.460938 13.546875 -7.960938 13.140625 -8.359375 C 12.734375 -8.753906 12.234375 -9.082031 11.640625 -9.34375 C 11.046875 -9.601562 10.195312 -9.894531 9.09375 -10.21875 C 7.507812 -10.707031 6.210938 -11.195312 5.203125 -11.6875 C 4.203125 -12.175781 3.34375 -12.898438 2.625 -13.859375 C 1.90625 -14.816406 1.546875 -16.066406 1.546875 -17.609375 C 1.546875 -19.890625 2.375 -21.675781 4.03125 -22.96875 C 5.6875 -24.269531 7.84375 -24.921875 10.5 -24.921875 C 13.207031 -24.921875 15.390625 -24.269531 17.046875 -22.96875 C 18.703125 -21.675781 19.585938 -19.875 19.703125 -17.5625 L 13.234375 -17.5625 C 13.179688 -18.363281 12.882812 -18.988281 12.34375 -19.4375 C 11.8125 -19.894531 11.128906 -20.125 10.296875 -20.125 C 9.566406 -20.125 8.976562 -19.929688 8.53125 -19.546875 C 8.09375 -19.160156 7.875 -18.609375 7.875 -17.890625 C 7.875 -17.085938 8.242188 -16.460938 8.984375 -16.015625 C 9.734375 -15.578125 10.90625 -15.101562 12.5 -14.59375 C 14.082031 -14.0625 15.367188 -13.546875 16.359375 -13.046875 C 17.347656 -12.554688 18.203125 -11.84375 18.921875 -10.90625 C 19.648438 -9.976562 20.015625 -8.78125 20.015625 -7.3125 C 20.015625 -5.914062 19.660156 -4.644531 18.953125 -3.5 C 18.242188 -2.351562 17.210938 -1.441406 15.859375 -0.765625 C 14.503906 -0.0859375 12.90625 0.25 11.0625 0.25 Z M 11.0625 0.25 "/></g></g></g><g fill="#000000" fill-opacity="1"><g transform="translate(94.908815, 293.069599)"><g><path d="M 20.890625 -16.65625 C 20.890625 -15.238281 20.5625 -13.9375 19.90625 -12.75 C 19.257812 -11.570312 18.257812 -10.617188 16.90625 -9.890625 C 15.550781 -9.171875 13.867188 -8.8125 11.859375 -8.8125 L 8.15625 -8.8125 L 8.15625 0 L 2.171875 0 L 2.171875 -24.5625 L 11.859375 -24.5625 C 13.828125 -24.5625 15.484375 -24.222656 16.828125 -23.546875 C 18.179688 -22.878906 19.195312 -21.945312 19.875 -20.75 C 20.550781 -19.5625 20.890625 -18.195312 20.890625 -16.65625 Z M 11.40625 -13.578125 C 12.550781 -13.578125 13.40625 -13.84375 13.96875 -14.375 C 14.53125 -14.914062 14.8125 -15.675781 14.8125 -16.65625 C 14.8125 -17.632812 14.53125 -18.390625 13.96875 -18.921875 C 13.40625 -19.460938 12.550781 -19.734375 11.40625 -19.734375 L 8.15625 -19.734375 L 8.15625 -13.578125 Z M 11.40625 -13.578125 "/></g></g></g><g fill="#000000" fill-opacity="1"><g transform="translate(116.743889, 293.069599)"><g><path d="M 14.703125 0 L 9.59375 -9.28125 L 8.15625 -9.28125 L 8.15625 0 L 2.171875 0 L 2.171875 -24.5625 L 12.21875 -24.5625 C 14.15625 -24.5625 15.804688 -24.222656 17.171875 -23.546875 C 18.535156 -22.878906 19.554688 -21.953125 20.234375 -20.765625 C 20.910156 -19.585938 21.25 -18.273438 21.25 -16.828125 C 21.25 -15.203125 20.785156 -13.742188 19.859375 -12.453125 C 18.941406 -11.171875 17.582031 -10.265625 15.78125 -9.734375 L 21.453125 0 Z M 8.15625 -13.515625 L 11.859375 -13.515625 C 12.960938 -13.515625 13.785156 -13.78125 14.328125 -14.3125 C 14.878906 -14.851562 15.15625 -15.613281 15.15625 -16.59375 C 15.15625 -17.519531 14.878906 -18.25 14.328125 -18.78125 C 13.785156 -19.320312 12.960938 -19.59375 11.859375 -19.59375 L 8.15625 -19.59375 Z M 8.15625 -13.515625 "/></g></g></g><g fill="#000000" fill-opacity="1"><g transform="translate(139.558737, 293.069599)"><g><path d="M 8.15625 -24.5625 L 8.15625 0 L 2.171875 0 L 2.171875 -24.5625 Z M 8.15625 -24.5625 "/></g></g></g><g fill="#000000" fill-opacity="1"><g transform="translate(149.88141, 293.069599)"><g><path d="M 24.15625 0 L 18.171875 0 L 8.15625 -15.15625 L 8.15625 0 L 2.171875 0 L 2.171875 -24.5625 L 8.15625 -24.5625 L 18.171875 -9.34375 L 18.171875 -24.5625 L 24.15625 -24.5625 Z M 24.15625 0 "/></g></g></g><g fill="#000000" fill-opacity="1"><g transform="translate(176.195473, 293.069599)"><g><path d="M 18.484375 -16.796875 C 18.035156 -17.617188 17.394531 -18.242188 16.5625 -18.671875 C 15.738281 -19.097656 14.769531 -19.3125 13.65625 -19.3125 C 11.71875 -19.3125 10.164062 -18.675781 9 -17.40625 C 7.832031 -16.132812 7.25 -14.4375 7.25 -12.3125 C 7.25 -10.050781 7.859375 -8.285156 9.078125 -7.015625 C 10.304688 -5.742188 11.992188 -5.109375 14.140625 -5.109375 C 15.609375 -5.109375 16.847656 -5.476562 17.859375 -6.21875 C 18.878906 -6.96875 19.625 -8.046875 20.09375 -9.453125 L 12.5 -9.453125 L 12.5 -13.859375 L 25.515625 -13.859375 L 25.515625 -8.296875 C 25.066406 -6.804688 24.3125 -5.414062 23.25 -4.125 C 22.195312 -2.84375 20.851562 -1.804688 19.21875 -1.015625 C 17.582031 -0.222656 15.738281 0.171875 13.6875 0.171875 C 11.257812 0.171875 9.09375 -0.359375 7.1875 -1.421875 C 5.289062 -2.484375 3.8125 -3.957031 2.75 -5.84375 C 1.6875 -7.738281 1.15625 -9.894531 1.15625 -12.3125 C 1.15625 -14.738281 1.6875 -16.90625 2.75 -18.8125 C 3.8125 -20.71875 5.285156 -22.195312 7.171875 -23.25 C 9.066406 -24.3125 11.226562 -24.84375 13.65625 -24.84375 C 16.59375 -24.84375 19.066406 -24.128906 21.078125 -22.703125 C 23.097656 -21.285156 24.4375 -19.316406 25.09375 -16.796875 Z M 18.484375 -16.796875 "/></g></g></g><g fill="#000000" fill-opacity="1"><g transform="translate(202.859449, 293.069599)"><g><path d="M 17.046875 -12.59375 C 18.472656 -12.289062 19.613281 -11.582031 20.46875 -10.46875 C 21.332031 -9.363281 21.765625 -8.101562 21.765625 -6.6875 C 21.765625 -4.632812 21.046875 -3.003906 19.609375 -1.796875 C 18.179688 -0.597656 16.179688 0 13.609375 0 L 2.171875 0 L 2.171875 -24.5625 L 13.234375 -24.5625 C 15.722656 -24.5625 17.671875 -23.988281 19.078125 -22.84375 C 20.492188 -21.707031 21.203125 -20.160156 21.203125 -18.203125 C 21.203125 -16.753906 20.820312 -15.550781 20.0625 -14.59375 C 19.3125 -13.632812 18.304688 -12.96875 17.046875 -12.59375 Z M 8.15625 -14.625 L 12.078125 -14.625 C 13.054688 -14.625 13.804688 -14.835938 14.328125 -15.265625 C 14.859375 -15.703125 15.125 -16.34375 15.125 -17.1875 C 15.125 -18.019531 14.859375 -18.660156 14.328125 -19.109375 C 13.804688 -19.554688 13.054688 -19.78125 12.078125 -19.78125 L 8.15625 -19.78125 Z M 12.5625 -4.828125 C 13.5625 -4.828125 14.335938 -5.050781 14.890625 -5.5 C 15.441406 -5.957031 15.71875 -6.617188 15.71875 -7.484375 C 15.71875 -8.347656 15.429688 -9.023438 14.859375 -9.515625 C 14.285156 -10.003906 13.5 -10.25 12.5 -10.25 L 8.15625 -10.25 L 8.15625 -4.828125 Z M 12.5625 -4.828125 "/></g></g></g><g fill="#000000" fill-opacity="1"><g transform="translate(225.919236, 293.069599)"><g><path d="M 13.796875 0.25 C 11.484375 0.25 9.363281 -0.285156 7.4375 -1.359375 C 5.507812 -2.429688 3.976562 -3.929688 2.84375 -5.859375 C 1.71875 -7.785156 1.15625 -9.953125 1.15625 -12.359375 C 1.15625 -14.753906 1.71875 -16.910156 2.84375 -18.828125 C 3.976562 -20.742188 5.507812 -22.238281 7.4375 -23.3125 C 9.363281 -24.382812 11.484375 -24.921875 13.796875 -24.921875 C 16.097656 -24.921875 18.210938 -24.382812 20.140625 -23.3125 C 22.066406 -22.238281 23.582031 -20.742188 24.6875 -18.828125 C 25.800781 -16.910156 26.359375 -14.753906 26.359375 -12.359375 C 26.359375 -9.953125 25.796875 -7.785156 24.671875 -5.859375 C 23.554688 -3.929688 22.039062 -2.429688 20.125 -1.359375 C 18.207031 -0.285156 16.097656 0.25 13.796875 0.25 Z M 13.796875 -5.21875 C 15.753906 -5.21875 17.320312 -5.867188 18.5 -7.171875 C 19.675781 -8.484375 20.265625 -10.210938 20.265625 -12.359375 C 20.265625 -14.523438 19.675781 -16.253906 18.5 -17.546875 C 17.320312 -18.847656 15.753906 -19.5 13.796875 -19.5 C 11.804688 -19.5 10.222656 -18.851562 9.046875 -17.5625 C 7.867188 -16.28125 7.28125 -14.546875 7.28125 -12.359375 C 7.28125 -10.179688 7.867188 -8.445312 9.046875 -7.15625 C 10.222656 -5.863281 11.804688 -5.21875 13.796875 -5.21875 Z M 13.796875 -5.21875 "/></g></g></g><g fill="#000000" fill-opacity="1"><g transform="translate(253.423026, 293.069599)"><g><path d="M 13.796875 0.25 C 11.484375 0.25 9.363281 -0.285156 7.4375 -1.359375 C 5.507812 -2.429688 3.976562 -3.929688 2.84375 -5.859375 C 1.71875 -7.785156 1.15625 -9.953125 1.15625 -12.359375 C 1.15625 -14.753906 1.71875 -16.910156 2.84375 -18.828125 C 3.976562 -20.742188 5.507812 -22.238281 7.4375 -23.3125 C 9.363281 -24.382812 11.484375 -24.921875 13.796875 -24.921875 C 16.097656 -24.921875 18.210938 -24.382812 20.140625 -23.3125 C 22.066406 -22.238281 23.582031 -20.742188 24.6875 -18.828125 C 25.800781 -16.910156 26.359375 -14.753906 26.359375 -12.359375 C 26.359375 -9.953125 25.796875 -7.785156 24.671875 -5.859375 C 23.554688 -3.929688 22.039062 -2.429688 20.125 -1.359375 C 18.207031 -0.285156 16.097656 0.25 13.796875 0.25 Z M 13.796875 -5.21875 C 15.753906 -5.21875 17.320312 -5.867188 18.5 -7.171875 C 19.675781 -8.484375 20.265625 -10.210938 20.265625 -12.359375 C 20.265625 -14.523438 19.675781 -16.253906 18.5 -17.546875 C 17.320312 -18.847656 15.753906 -19.5 13.796875 -19.5 C 11.804688 -19.5 10.222656 -18.851562 9.046875 -17.5625 C 7.867188 -16.28125 7.28125 -14.546875 7.28125 -12.359375 C 7.28125 -10.179688 7.867188 -8.445312 9.046875 -7.15625 C 10.222656 -5.863281 11.804688 -5.21875 13.796875 -5.21875 Z M 13.796875 -5.21875 "/></g></g></g><g fill="#000000" fill-opacity="1"><g transform="translate(280.926804, 293.069599)"><g><path d="M 19.84375 -24.5625 L 19.84375 -19.78125 L 13.328125 -19.78125 L 13.328125 0 L 7.34375 0 L 7.34375 -19.78125 L 0.84375 -19.78125 L 0.84375 -24.5625 Z M 19.84375 -24.5625 "/></g></g></g></svg>