<svg xmlns="http://www.w3.org/2000/svg" xmlns:xlink="http://www.w3.org/1999/xlink" width="500" zoomAndPan="magnify" viewBox="0 0 375 374.999991" height="500" preserveAspectRatio="xMidYMid meet" version="1.0"><defs><g/><clipPath id="283b4d5870"><path d="M 0 25.566406 L 375 25.566406 L 375 349.566406 L 0 349.566406 Z M 0 25.566406 " clip-rule="nonzero"/></clipPath><clipPath id="a3f0cf7045"><path d="M 374.351562 187.519531 L 280.890625 349.472656 L 93.988281 349.472656 L 0.527344 187.519531 L 93.988281 25.566406 L 280.914062 25.566406 Z M 374.351562 187.519531 " clip-rule="nonzero"/></clipPath><linearGradient x1="8.01119" gradientTransform="matrix(2.431377, 0, 0, 2.432432, 0.527129, 25.568209)" y1="-7.45232" x2="145.742984" gradientUnits="userSpaceOnUse" y2="140.608432" id="1c2c720b56"><stop stop-opacity="1" stop-color="rgb(75.299072%, 75.299072%, 75.299072%)" offset="0"/><stop stop-opacity="1" stop-color="rgb(75.299072%, 75.299072%, 75.299072%)" offset="0.125"/><stop stop-opacity="1" stop-color="rgb(75.299072%, 75.299072%, 75.299072%)" offset="0.140625"/><stop stop-opacity="1" stop-color="rgb(75.157166%, 75.152588%, 75.152588%)" offset="0.148438"/><stop stop-opacity="1" stop-color="rgb(74.835205%, 74.815369%, 74.815369%)" offset="0.15625"/><stop stop-opacity="1" stop-color="rgb(74.473572%, 74.436951%, 74.436951%)" offset="0.164062"/><stop stop-opacity="1" stop-color="rgb(74.110413%, 74.058533%, 74.058533%)" offset="0.171875"/><stop stop-opacity="1" stop-color="rgb(73.747253%, 73.680115%, 73.680115%)" offset="0.179688"/><stop stop-opacity="1" stop-color="rgb(73.384094%, 73.301697%, 73.301697%)" offset="0.1875"/><stop stop-opacity="1" stop-color="rgb(73.022461%, 72.923279%, 72.923279%)" offset="0.195312"/><stop stop-opacity="1" stop-color="rgb(72.659302%, 72.544861%, 72.544861%)" offset="0.203125"/><stop stop-opacity="1" stop-color="rgb(72.296143%, 72.166443%, 72.166443%)" offset="0.210938"/><stop stop-opacity="1" stop-color="rgb(71.932983%, 71.788025%, 71.788025%)" offset="0.21875"/><stop stop-opacity="1" stop-color="rgb(71.57135%, 71.409607%, 71.409607%)" offset="0.226563"/><stop stop-opacity="1" stop-color="rgb(71.208191%, 71.031189%, 71.031189%)" offset="0.234375"/><stop stop-opacity="1" stop-color="rgb(70.845032%, 70.652771%, 70.652771%)" offset="0.242188"/><stop stop-opacity="1" stop-color="rgb(70.481873%, 70.274353%, 70.274353%)" offset="0.25"/><stop stop-opacity="1" stop-color="rgb(70.120239%, 69.895935%, 69.895935%)" offset="0.257812"/><stop stop-opacity="1" stop-color="rgb(69.75708%, 69.517517%, 69.517517%)" offset="0.265625"/><stop stop-opacity="1" stop-color="rgb(69.393921%, 69.139099%, 69.139099%)" offset="0.273438"/><stop stop-opacity="1" stop-color="rgb(69.030762%, 68.760681%, 68.760681%)" offset="0.28125"/><stop stop-opacity="1" stop-color="rgb(68.667603%, 68.382263%, 68.382263%)" offset="0.289063"/><stop stop-opacity="1" stop-color="rgb(68.305969%, 68.003845%, 68.003845%)" offset="0.296875"/><stop stop-opacity="1" stop-color="rgb(67.94281%, 67.625427%, 67.625427%)" offset="0.304688"/><stop stop-opacity="1" stop-color="rgb(67.579651%, 67.247009%, 67.247009%)" offset="0.3125"/><stop stop-opacity="1" stop-color="rgb(67.216492%, 66.868591%, 66.868591%)" offset="0.320313"/><stop stop-opacity="1" stop-color="rgb(66.854858%, 66.490173%, 66.490173%)" offset="0.328125"/><stop stop-opacity="1" stop-color="rgb(66.491699%, 66.111755%, 66.111755%)" offset="0.335938"/><stop stop-opacity="1" stop-color="rgb(66.12854%, 65.733337%, 65.733337%)" offset="0.34375"/><stop stop-opacity="1" stop-color="rgb(65.765381%, 65.354919%, 65.354919%)" offset="0.351563"/><stop stop-opacity="1" stop-color="rgb(65.403748%, 64.976501%, 64.976501%)" offset="0.359375"/><stop stop-opacity="1" stop-color="rgb(65.040588%, 64.598083%, 64.598083%)" offset="0.367188"/><stop stop-opacity="1" stop-color="rgb(64.677429%, 64.219666%, 64.219666%)" offset="0.375"/><stop stop-opacity="1" stop-color="rgb(64.31427%, 63.841248%, 63.841248%)" offset="0.382813"/><stop stop-opacity="1" stop-color="rgb(63.951111%, 63.46283%, 63.46283%)" offset="0.390625"/><stop stop-opacity="1" stop-color="rgb(63.589478%, 63.084412%, 63.084412%)" offset="0.398438"/><stop stop-opacity="1" stop-color="rgb(63.226318%, 62.705994%, 62.705994%)" offset="0.40625"/><stop stop-opacity="1" stop-color="rgb(62.863159%, 62.327576%, 62.327576%)" offset="0.414063"/><stop stop-opacity="1" stop-color="rgb(62.5%, 61.947632%, 61.947632%)" offset="0.421875"/><stop stop-opacity="1" stop-color="rgb(62.138367%, 61.569214%, 61.569214%)" offset="0.429688"/><stop stop-opacity="1" stop-color="rgb(61.775208%, 61.190796%, 61.190796%)" offset="0.4375"/><stop stop-opacity="1" stop-color="rgb(61.412048%, 60.812378%, 60.812378%)" offset="0.445313"/><stop stop-opacity="1" stop-color="rgb(61.048889%, 60.43396%, 60.43396%)" offset="0.453125"/><stop stop-opacity="1" stop-color="rgb(60.687256%, 60.055542%, 60.055542%)" offset="0.460938"/><stop stop-opacity="1" stop-color="rgb(60.324097%, 59.677124%, 59.677124%)" offset="0.46875"/><stop stop-opacity="1" stop-color="rgb(59.960938%, 59.298706%, 59.298706%)" offset="0.476563"/><stop stop-opacity="1" stop-color="rgb(59.597778%, 58.920288%, 58.920288%)" offset="0.482142"/><stop stop-opacity="1" stop-color="rgb(59.417725%, 58.731079%, 58.731079%)" offset="0.484375"/><stop stop-opacity="1" stop-color="rgb(59.236145%, 58.54187%, 58.54187%)" offset="0.492188"/><stop stop-opacity="1" stop-color="rgb(58.872986%, 58.163452%, 58.163452%)" offset="0.5"/><stop stop-opacity="1" stop-color="rgb(58.509827%, 57.785034%, 57.785034%)" offset="0.507813"/><stop stop-opacity="1" stop-color="rgb(58.146667%, 57.406616%, 57.406616%)" offset="0.515625"/><stop stop-opacity="1" stop-color="rgb(57.783508%, 57.028198%, 57.028198%)" offset="0.517858"/><stop stop-opacity="1" stop-color="rgb(57.603455%, 56.838989%, 56.838989%)" offset="0.523438"/><stop stop-opacity="1" stop-color="rgb(57.421875%, 56.64978%, 56.64978%)" offset="0.53125"/><stop stop-opacity="1" stop-color="rgb(57.058716%, 56.271362%, 56.271362%)" offset="0.539063"/><stop stop-opacity="1" stop-color="rgb(56.695557%, 55.892944%, 55.892944%)" offset="0.546875"/><stop stop-opacity="1" stop-color="rgb(56.332397%, 55.514526%, 55.514526%)" offset="0.554688"/><stop stop-opacity="1" stop-color="rgb(55.970764%, 55.136108%, 55.136108%)" offset="0.5625"/><stop stop-opacity="1" stop-color="rgb(55.607605%, 54.75769%, 54.75769%)" offset="0.570312"/><stop stop-opacity="1" stop-color="rgb(55.244446%, 54.379272%, 54.379272%)" offset="0.578125"/><stop stop-opacity="1" stop-color="rgb(54.881287%, 54.000854%, 54.000854%)" offset="0.585938"/><stop stop-opacity="1" stop-color="rgb(54.519653%, 53.622437%, 53.622437%)" offset="0.59375"/><stop stop-opacity="1" stop-color="rgb(54.156494%, 53.244019%, 53.244019%)" offset="0.601563"/><stop stop-opacity="1" stop-color="rgb(53.793335%, 52.865601%, 52.865601%)" offset="0.609375"/><stop stop-opacity="1" stop-color="rgb(53.430176%, 52.487183%, 52.487183%)" offset="0.617188"/><stop stop-opacity="1" stop-color="rgb(53.067017%, 52.108765%, 52.108765%)" offset="0.625"/><stop stop-opacity="1" stop-color="rgb(52.705383%, 51.730347%, 51.730347%)" offset="0.632812"/><stop stop-opacity="1" stop-color="rgb(52.342224%, 51.351929%, 51.351929%)" offset="0.640625"/><stop stop-opacity="1" stop-color="rgb(51.979065%, 50.973511%, 50.973511%)" offset="0.648438"/><stop stop-opacity="1" stop-color="rgb(51.615906%, 50.595093%, 50.595093%)" offset="0.65625"/><stop stop-opacity="1" stop-color="rgb(51.254272%, 50.216675%, 50.216675%)" offset="0.664063"/><stop stop-opacity="1" stop-color="rgb(50.891113%, 49.838257%, 49.838257%)" offset="0.671875"/><stop stop-opacity="1" stop-color="rgb(50.527954%, 49.458313%, 49.458313%)" offset="0.679688"/><stop stop-opacity="1" stop-color="rgb(50.164795%, 49.079895%, 49.079895%)" offset="0.6875"/><stop stop-opacity="1" stop-color="rgb(49.803162%, 48.701477%, 48.701477%)" offset="0.695312"/><stop stop-opacity="1" stop-color="rgb(49.440002%, 48.323059%, 48.323059%)" offset="0.703125"/><stop stop-opacity="1" stop-color="rgb(49.076843%, 47.944641%, 47.944641%)" offset="0.710938"/><stop stop-opacity="1" stop-color="rgb(48.713684%, 47.566223%, 47.566223%)" offset="0.71875"/><stop stop-opacity="1" stop-color="rgb(48.352051%, 47.187805%, 47.187805%)" offset="0.726563"/><stop stop-opacity="1" stop-color="rgb(47.988892%, 46.809387%, 46.809387%)" offset="0.734375"/><stop stop-opacity="1" stop-color="rgb(47.653198%, 46.459961%, 46.459961%)" offset="0.75"/><stop stop-opacity="1" stop-color="rgb(47.499084%, 46.299744%, 46.299744%)" offset="1"/></linearGradient></defs><g clip-path="url(#283b4d5870)"><g clip-path="url(#a3f0cf7045)"><path fill="url(#1c2c720b56)" d="M 0.527344 25.566406 L 0.527344 349.472656 L 374.351562 349.472656 L 374.351562 25.566406 Z M 0.527344 25.566406 " fill-rule="nonzero"/></g></g><path fill="#000000" d="M 250.136719 115.808594 C 250.136719 98.871094 221.519531 84.558594 187.636719 84.558594 C 153.753906 84.558594 125.136719 98.871094 125.136719 115.808594 L 125.136719 131.433594 C 125.136719 148.371094 153.753906 162.683594 187.636719 162.683594 C 221.519531 162.683594 250.136719 148.371094 250.136719 131.433594 Z M 187.636719 217.371094 C 153.753906 217.371094 125.136719 203.058594 125.136719 186.121094 L 125.136719 209.558594 C 125.136719 226.496094 153.753906 240.808594 187.636719 240.808594 C 221.519531 240.808594 250.136719 226.496094 250.136719 209.558594 L 250.136719 186.121094 C 250.136719 203.058594 221.519531 217.371094 187.636719 217.371094 Z M 187.636719 217.371094 " fill-opacity="1" fill-rule="nonzero"/><path fill="#000000" d="M 250.136719 147.058594 C 250.136719 163.996094 221.519531 178.308594 187.636719 178.308594 C 153.753906 178.308594 125.136719 163.996094 125.136719 147.058594 L 125.136719 170.496094 C 125.136719 187.433594 153.753906 201.746094 187.636719 201.746094 C 221.519531 201.746094 250.136719 187.433594 250.136719 170.496094 Z M 250.136719 147.058594 " fill-opacity="1" fill-rule="nonzero"/><g fill="#000000" fill-opacity="1"><g transform="translate(118.124997, 304.437402)"><g><path d="M 34.28125 -28.078125 L 34.28125 0 L 27.4375 0 L 27.4375 -16.84375 L 21.15625 0 L 15.640625 0 L 9.3125 -16.875 L 9.3125 0 L 2.484375 0 L 2.484375 -28.078125 L 10.5625 -28.078125 L 18.4375 -8.640625 L 26.234375 -28.078125 Z M 34.28125 -28.078125 "/></g></g></g><g fill="#000000" fill-opacity="1"><g transform="translate(154.841349, 304.437402)"><g><path d="M 26.5625 -28.078125 L 16.84375 -9.28125 L 16.84375 0 L 10 0 L 10 -9.28125 L 0.28125 -28.078125 L 8.046875 -28.078125 L 13.484375 -16.3125 L 18.875 -28.078125 Z M 26.5625 -28.078125 "/></g></g></g><g fill="#000000" fill-opacity="1"><g transform="translate(181.678681, 304.437402)"><g><path d="M 12.640625 0.28125 C 10.585938 0.28125 8.75 -0.0507812 7.125 -0.71875 C 5.5 -1.382812 4.195312 -2.367188 3.21875 -3.671875 C 2.25 -4.984375 1.738281 -6.5625 1.6875 -8.40625 L 8.953125 -8.40625 C 9.066406 -7.363281 9.425781 -6.566406 10.03125 -6.015625 C 10.644531 -5.472656 11.445312 -5.203125 12.4375 -5.203125 C 13.445312 -5.203125 14.242188 -5.429688 14.828125 -5.890625 C 15.421875 -6.359375 15.71875 -7.007812 15.71875 -7.84375 C 15.71875 -8.53125 15.484375 -9.097656 15.015625 -9.546875 C 14.546875 -10.003906 13.972656 -10.378906 13.296875 -10.671875 C 12.617188 -10.972656 11.65625 -11.3125 10.40625 -11.6875 C 8.59375 -12.238281 7.109375 -12.796875 5.953125 -13.359375 C 4.804688 -13.921875 3.820312 -14.75 3 -15.84375 C 2.175781 -16.9375 1.765625 -18.363281 1.765625 -20.125 C 1.765625 -22.738281 2.707031 -24.785156 4.59375 -26.265625 C 6.488281 -27.742188 8.957031 -28.484375 12 -28.484375 C 15.09375 -28.484375 17.582031 -27.742188 19.46875 -26.265625 C 21.363281 -24.785156 22.378906 -22.722656 22.515625 -20.078125 L 15.125 -20.078125 C 15.070312 -20.984375 14.738281 -21.695312 14.125 -22.21875 C 13.507812 -22.738281 12.722656 -23 11.765625 -23 C 10.929688 -23 10.257812 -22.78125 9.75 -22.34375 C 9.25 -21.90625 9 -21.269531 9 -20.4375 C 9 -19.53125 9.425781 -18.820312 10.28125 -18.3125 C 11.132812 -17.8125 12.46875 -17.269531 14.28125 -16.6875 C 16.09375 -16.070312 17.566406 -15.484375 18.703125 -14.921875 C 19.835938 -14.359375 20.816406 -13.539062 21.640625 -12.46875 C 22.460938 -11.40625 22.875 -10.035156 22.875 -8.359375 C 22.875 -6.753906 22.46875 -5.300781 21.65625 -4 C 20.84375 -2.695312 19.660156 -1.65625 18.109375 -0.875 C 16.566406 -0.101562 14.742188 0.28125 12.640625 0.28125 Z M 12.640625 0.28125 "/></g></g></g><g fill="#000000" fill-opacity="1"><g transform="translate(206.276233, 304.437402)"><g><path d="M 22.484375 4.796875 L 18.875 -0.046875 C 17.8125 0.171875 16.773438 0.28125 15.765625 0.28125 C 13.117188 0.28125 10.695312 -0.332031 8.5 -1.5625 C 6.300781 -2.789062 4.550781 -4.503906 3.25 -6.703125 C 1.957031 -8.898438 1.3125 -11.375 1.3125 -14.125 C 1.3125 -16.863281 1.957031 -19.328125 3.25 -21.515625 C 4.550781 -23.703125 6.300781 -25.410156 8.5 -26.640625 C 10.695312 -27.867188 13.117188 -28.484375 15.765625 -28.484375 C 18.398438 -28.484375 20.816406 -27.867188 23.015625 -26.640625 C 25.210938 -25.410156 26.945312 -23.703125 28.21875 -21.515625 C 29.488281 -19.328125 30.125 -16.863281 30.125 -14.125 C 30.125 -11.71875 29.632812 -9.519531 28.65625 -7.53125 C 27.6875 -5.550781 26.332031 -3.90625 24.59375 -2.59375 L 30.765625 4.796875 Z M 8.3125 -14.125 C 8.3125 -11.644531 8.984375 -9.660156 10.328125 -8.171875 C 11.679688 -6.691406 13.492188 -5.953125 15.765625 -5.953125 C 18.003906 -5.953125 19.796875 -6.695312 21.140625 -8.1875 C 22.484375 -9.6875 23.15625 -11.664062 23.15625 -14.125 C 23.15625 -16.601562 22.484375 -18.582031 21.140625 -20.0625 C 19.796875 -21.539062 18.003906 -22.28125 15.765625 -22.28125 C 13.492188 -22.28125 11.679688 -21.546875 10.328125 -20.078125 C 8.984375 -18.609375 8.3125 -16.625 8.3125 -14.125 Z M 8.3125 -14.125 "/></g></g></g><g fill="#000000" fill-opacity="1"><g transform="translate(237.793099, 304.437402)"><g><path d="M 9.3125 -5.28125 L 18.28125 -5.28125 L 18.28125 0 L 2.484375 0 L 2.484375 -28.078125 L 9.3125 -28.078125 Z M 9.3125 -5.28125 "/></g></g></g></svg>