<svg xmlns="http://www.w3.org/2000/svg" xmlns:xlink="http://www.w3.org/1999/xlink" width="500" zoomAndPan="magnify" viewBox="0 0 375 374.999991" height="500" preserveAspectRatio="xMidYMid meet" version="1.0"><defs><g/><clipPath id="2f9711c66c"><path d="M 0 25.566406 L 375 25.566406 L 375 349.566406 L 0 349.566406 Z M 0 25.566406 " clip-rule="nonzero"/></clipPath><clipPath id="c0937a2855"><path d="M 374.351562 187.519531 L 280.890625 349.472656 L 93.988281 349.472656 L 0.527344 187.519531 L 93.988281 25.566406 L 280.914062 25.566406 Z M 374.351562 187.519531 " clip-rule="nonzero"/></clipPath><linearGradient x1="8.011192" gradientTransform="matrix(2.431377, 0, 0, 2.432432, 0.527129, 25.568179)" y1="-7.452318" x2="145.742986" gradientUnits="userSpaceOnUse" y2="140.608434" id="cfc5853a32"><stop stop-opacity="1" stop-color="rgb(95.298767%, 45.098877%, 20.799255%)" offset="0"/><stop stop-opacity="1" stop-color="rgb(95.298767%, 45.098877%, 20.799255%)" offset="0.125"/><stop stop-opacity="1" stop-color="rgb(95.298767%, 45.098877%, 20.799255%)" offset="0.140625"/><stop stop-opacity="1" stop-color="rgb(95.195007%, 45.072937%, 20.71991%)" offset="0.148438"/><stop stop-opacity="1" stop-color="rgb(94.958496%, 45.013428%, 20.536804%)" offset="0.15625"/><stop stop-opacity="1" stop-color="rgb(94.692993%, 44.947815%, 20.332336%)" offset="0.164062"/><stop stop-opacity="1" stop-color="rgb(94.425964%, 44.880676%, 20.127869%)" offset="0.171875"/><stop stop-opacity="1" stop-color="rgb(94.160461%, 44.815063%, 19.923401%)" offset="0.179688"/><stop stop-opacity="1" stop-color="rgb(93.893433%, 44.747925%, 19.717407%)" offset="0.1875"/><stop stop-opacity="1" stop-color="rgb(93.62793%, 44.680786%, 19.512939%)" offset="0.195312"/><stop stop-opacity="1" stop-color="rgb(93.362427%, 44.615173%, 19.308472%)" offset="0.203125"/><stop stop-opacity="1" stop-color="rgb(93.095398%, 44.548035%, 19.104004%)" offset="0.210937"/><stop stop-opacity="1" stop-color="rgb(92.829895%, 44.480896%, 18.89801%)" offset="0.21875"/><stop stop-opacity="1" stop-color="rgb(92.562866%, 44.415283%, 18.693542%)" offset="0.226563"/><stop stop-opacity="1" stop-color="rgb(92.297363%, 44.348145%, 18.489075%)" offset="0.234375"/><stop stop-opacity="1" stop-color="rgb(92.030334%, 44.282532%, 18.283081%)" offset="0.242187"/><stop stop-opacity="1" stop-color="rgb(91.764832%, 44.215393%, 18.078613%)" offset="0.25"/><stop stop-opacity="1" stop-color="rgb(91.497803%, 44.148254%, 17.874146%)" offset="0.257812"/><stop stop-opacity="1" stop-color="rgb(91.2323%, 44.082642%, 17.669678%)" offset="0.265625"/><stop stop-opacity="1" stop-color="rgb(90.965271%, 44.015503%, 17.463684%)" offset="0.273438"/><stop stop-opacity="1" stop-color="rgb(90.699768%, 43.948364%, 17.259216%)" offset="0.28125"/><stop stop-opacity="1" stop-color="rgb(90.432739%, 43.882751%, 17.054749%)" offset="0.289062"/><stop stop-opacity="1" stop-color="rgb(90.167236%, 43.815613%, 16.848755%)" offset="0.296875"/><stop stop-opacity="1" stop-color="rgb(89.900208%, 43.75%, 16.644287%)" offset="0.304688"/><stop stop-opacity="1" stop-color="rgb(89.634705%, 43.682861%, 16.439819%)" offset="0.3125"/><stop stop-opacity="1" stop-color="rgb(89.367676%, 43.615723%, 16.235352%)" offset="0.320312"/><stop stop-opacity="1" stop-color="rgb(89.102173%, 43.55011%, 16.029358%)" offset="0.328125"/><stop stop-opacity="1" stop-color="rgb(88.835144%, 43.482971%, 15.82489%)" offset="0.335937"/><stop stop-opacity="1" stop-color="rgb(88.569641%, 43.417358%, 15.620422%)" offset="0.34375"/><stop stop-opacity="1" stop-color="rgb(88.302612%, 43.35022%, 15.414429%)" offset="0.351562"/><stop stop-opacity="1" stop-color="rgb(88.037109%, 43.283081%, 15.209961%)" offset="0.359375"/><stop stop-opacity="1" stop-color="rgb(87.771606%, 43.217468%, 15.005493%)" offset="0.367187"/><stop stop-opacity="1" stop-color="rgb(87.504578%, 43.15033%, 14.801025%)" offset="0.375"/><stop stop-opacity="1" stop-color="rgb(87.239075%, 43.083191%, 14.595032%)" offset="0.382812"/><stop stop-opacity="1" stop-color="rgb(86.972046%, 43.017578%, 14.390564%)" offset="0.390625"/><stop stop-opacity="1" stop-color="rgb(86.706543%, 42.950439%, 14.186096%)" offset="0.398437"/><stop stop-opacity="1" stop-color="rgb(86.439514%, 42.884827%, 13.981628%)" offset="0.40625"/><stop stop-opacity="1" stop-color="rgb(86.174011%, 42.817688%, 13.775635%)" offset="0.414062"/><stop stop-opacity="1" stop-color="rgb(85.906982%, 42.750549%, 13.571167%)" offset="0.421875"/><stop stop-opacity="1" stop-color="rgb(85.641479%, 42.684937%, 13.366699%)" offset="0.429687"/><stop stop-opacity="1" stop-color="rgb(85.374451%, 42.617798%, 13.160706%)" offset="0.4375"/><stop stop-opacity="1" stop-color="rgb(85.108948%, 42.550659%, 12.956238%)" offset="0.445312"/><stop stop-opacity="1" stop-color="rgb(84.841919%, 42.485046%, 12.75177%)" offset="0.453125"/><stop stop-opacity="1" stop-color="rgb(84.576416%, 42.417908%, 12.547302%)" offset="0.460938"/><stop stop-opacity="1" stop-color="rgb(84.309387%, 42.352295%, 12.341309%)" offset="0.46875"/><stop stop-opacity="1" stop-color="rgb(84.043884%, 42.285156%, 12.136841%)" offset="0.476562"/><stop stop-opacity="1" stop-color="rgb(83.776855%, 42.218018%, 11.932373%)" offset="0.482142"/><stop stop-opacity="1" stop-color="rgb(83.644104%, 42.185974%, 11.830139%)" offset="0.484375"/><stop stop-opacity="1" stop-color="rgb(83.511353%, 42.152405%, 11.726379%)" offset="0.492187"/><stop stop-opacity="1" stop-color="rgb(83.244324%, 42.085266%, 11.521912%)" offset="0.5"/><stop stop-opacity="1" stop-color="rgb(82.978821%, 42.019653%, 11.317444%)" offset="0.507812"/><stop stop-opacity="1" stop-color="rgb(82.711792%, 41.952515%, 11.112976%)" offset="0.515625"/><stop stop-opacity="1" stop-color="rgb(82.446289%, 41.885376%, 10.906982%)" offset="0.517858"/><stop stop-opacity="1" stop-color="rgb(82.313538%, 41.853333%, 10.804749%)" offset="0.523438"/><stop stop-opacity="1" stop-color="rgb(82.180786%, 41.819763%, 10.702515%)" offset="0.53125"/><stop stop-opacity="1" stop-color="rgb(81.913757%, 41.752625%, 10.498047%)" offset="0.539062"/><stop stop-opacity="1" stop-color="rgb(81.648254%, 41.685486%, 10.293579%)" offset="0.546875"/><stop stop-opacity="1" stop-color="rgb(81.381226%, 41.619873%, 10.087585%)" offset="0.554687"/><stop stop-opacity="1" stop-color="rgb(81.115723%, 41.552734%, 9.883118%)" offset="0.5625"/><stop stop-opacity="1" stop-color="rgb(80.848694%, 41.487122%, 9.67865%)" offset="0.570312"/><stop stop-opacity="1" stop-color="rgb(80.583191%, 41.419983%, 9.472656%)" offset="0.578125"/><stop stop-opacity="1" stop-color="rgb(80.316162%, 41.352844%, 9.268188%)" offset="0.585937"/><stop stop-opacity="1" stop-color="rgb(80.050659%, 41.287231%, 9.063721%)" offset="0.59375"/><stop stop-opacity="1" stop-color="rgb(79.78363%, 41.220093%, 8.859253%)" offset="0.601562"/><stop stop-opacity="1" stop-color="rgb(79.518127%, 41.152954%, 8.653259%)" offset="0.609375"/><stop stop-opacity="1" stop-color="rgb(79.251099%, 41.087341%, 8.448792%)" offset="0.617188"/><stop stop-opacity="1" stop-color="rgb(78.985596%, 41.020203%, 8.244324%)" offset="0.625"/><stop stop-opacity="1" stop-color="rgb(78.718567%, 40.95459%, 8.03833%)" offset="0.632812"/><stop stop-opacity="1" stop-color="rgb(78.453064%, 40.887451%, 7.833862%)" offset="0.640625"/><stop stop-opacity="1" stop-color="rgb(78.186035%, 40.820312%, 7.629395%)" offset="0.648437"/><stop stop-opacity="1" stop-color="rgb(77.920532%, 40.7547%, 7.424927%)" offset="0.65625"/><stop stop-opacity="1" stop-color="rgb(77.653503%, 40.687561%, 7.218933%)" offset="0.664062"/><stop stop-opacity="1" stop-color="rgb(77.388%, 40.621948%, 7.014465%)" offset="0.671875"/><stop stop-opacity="1" stop-color="rgb(77.120972%, 40.55481%, 6.809998%)" offset="0.679688"/><stop stop-opacity="1" stop-color="rgb(76.855469%, 40.487671%, 6.60553%)" offset="0.6875"/><stop stop-opacity="1" stop-color="rgb(76.58844%, 40.422058%, 6.399536%)" offset="0.695312"/><stop stop-opacity="1" stop-color="rgb(76.322937%, 40.354919%, 6.195068%)" offset="0.703125"/><stop stop-opacity="1" stop-color="rgb(76.057434%, 40.287781%, 5.990601%)" offset="0.710937"/><stop stop-opacity="1" stop-color="rgb(75.790405%, 40.222168%, 5.784607%)" offset="0.71875"/><stop stop-opacity="1" stop-color="rgb(75.524902%, 40.155029%, 5.580139%)" offset="0.726562"/><stop stop-opacity="1" stop-color="rgb(75.257874%, 40.089417%, 5.375671%)" offset="0.734375"/><stop stop-opacity="1" stop-color="rgb(75.012207%, 40.026855%, 5.186462%)" offset="0.75"/><stop stop-opacity="1" stop-color="rgb(74.899292%, 39.99939%, 5.099487%)" offset="1"/></linearGradient></defs><g clip-path="url(#2f9711c66c)"><g clip-path="url(#c0937a2855)"><path fill="url(#cfc5853a32)" d="M 0.527344 25.566406 L 0.527344 349.472656 L 374.351562 349.472656 L 374.351562 25.566406 Z M 0.527344 25.566406 " fill-rule="nonzero"/></g></g><path fill="#000000" d="M 167.089844 189.972656 C 142.949219 196.691406 181.699219 210.597656 212.402344 197.785156 C 209.417969 196.625 206.554688 195.21875 203.808594 193.566406 C 193.0625 196.011719 182.230469 196.480469 171.308594 194.972656 C 161.074219 193.800781 167.089844 189.972656 167.089844 189.972656 Z M 208.730469 176.847656 C 194.886719 179.859375 180.929688 180.535156 166.855469 178.878906 C 156.621094 177.785156 163.339844 172.863281 163.339844 172.863281 C 136.777344 181.613281 178.105469 191.613281 215.214844 180.675781 C 212.773438 179.875 210.613281 178.597656 208.730469 176.847656 Z M 222.949219 100.832031 C 222.949219 100.832031 169.277344 114.191406 194.902344 143.722656 C 195.402344 144.320312 195.839844 144.964844 196.207031 145.652344 C 196.574219 146.339844 196.871094 147.058594 197.09375 147.808594 C 197.316406 148.554688 197.460938 149.316406 197.527344 150.09375 C 197.59375 150.871094 197.582031 151.648438 197.492188 152.425781 C 197.398438 153.199219 197.230469 153.957031 196.984375 154.699219 C 196.738281 155.4375 196.421875 156.144531 196.03125 156.820312 C 195.640625 157.496094 195.1875 158.128906 194.667969 158.710938 C 194.148438 159.292969 193.578125 159.820312 192.949219 160.285156 C 192.949219 160.285156 212.167969 150.363281 203.339844 137.941406 C 194.511719 125.519531 188.808594 120.597656 222.949219 100.832031 Z M 222.949219 100.832031 " fill-opacity="1" fill-rule="nonzero"/><path fill="#000000" d="M 235.527344 202.707031 C 235.527344 202.707031 239.902344 206.300781 230.605469 209.113281 C 212.871094 214.503906 156.933594 216.144531 141.386719 209.113281 C 135.761719 206.691406 146.230469 203.332031 149.199219 202.628906 C 150.96875 202.171875 152.765625 201.964844 154.589844 202.003906 C 148.339844 197.628906 114.355469 210.597656 137.324219 214.347656 C 200.214844 225.050781 251.699219 209.972656 235.527344 202.707031 Z M 213.964844 164.582031 C 216.265625 163.128906 218.664062 161.851562 221.152344 160.753906 C 221.152344 160.753906 209.355469 162.863281 197.714844 163.878906 C 185.175781 165.089844 172.625 165.21875 160.058594 164.269531 C 141.464844 161.847656 169.980469 154.738281 169.980469 154.738281 C 165.691406 154.703125 161.457031 155.183594 157.285156 156.175781 C 153.109375 157.164062 149.113281 158.640625 145.292969 160.597656 C 129.199219 168.644531 185.058594 172.160156 213.964844 164.582031 Z M 221.074219 183.644531 C 220.902344 183.910156 220.695312 184.144531 220.449219 184.347656 C 259.511719 174.035156 245.292969 148.019531 226.542969 154.582031 C 225.488281 154.972656 224.628906 155.621094 223.964844 156.535156 C 223.964844 156.535156 225.058594 156.144531 227.324219 155.597656 C 236.855469 153.644531 250.136719 168.332031 221.074219 183.644531 Z M 187.636719 154.738281 C 181.855469 141.691406 162.167969 130.207031 187.636719 110.128906 C 219.589844 85.050781 203.261719 68.800781 203.261719 68.800781 C 209.824219 94.660156 179.824219 102.472656 169.355469 118.566406 C 162.089844 129.582031 173.027344 141.378906 187.636719 154.738281 Z M 187.636719 154.738281 " fill-opacity="1" fill-rule="nonzero"/><path fill="#000000" d="M 222.089844 219.738281 C 210.289062 221.757812 198.402344 222.859375 186.429688 223.042969 C 174.457031 223.226562 162.542969 222.488281 150.683594 220.832031 C 150.683594 220.832031 154.277344 223.800781 172.871094 224.972656 C 201.074219 226.769531 244.355469 224.035156 245.449219 210.675781 C 245.449219 210.675781 243.417969 215.675781 222.089844 219.738281 Z M 222.089844 219.738281 " fill-opacity="1" fill-rule="nonzero"/><g fill="#000000" fill-opacity="1"><g transform="translate(131.865231, 293.072705)"><g><path d="M 20.078125 -28.078125 L 20.078125 -8.953125 C 20.078125 -5.992188 19.242188 -3.710938 17.578125 -2.109375 C 15.910156 -0.515625 13.664062 0.28125 10.84375 0.28125 C 7.882812 0.28125 5.507812 -0.554688 3.71875 -2.234375 C 1.9375 -3.921875 1.046875 -6.3125 1.046875 -9.40625 L 7.84375 -9.40625 C 7.84375 -8.226562 8.082031 -7.335938 8.5625 -6.734375 C 9.039062 -6.140625 9.734375 -5.84375 10.640625 -5.84375 C 11.460938 -5.84375 12.097656 -6.109375 12.546875 -6.640625 C 13.003906 -7.171875 13.234375 -7.941406 13.234375 -8.953125 L 13.234375 -28.078125 Z M 20.078125 -28.078125 "/></g></g></g><g fill="#000000" fill-opacity="1"><g transform="translate(154.982936, 293.072705)"><g><path d="M 19.953125 -4.953125 L 9.484375 -4.953125 L 7.796875 0 L 0.640625 0 L 10.796875 -28.078125 L 18.71875 -28.078125 L 28.875 0 L 21.640625 0 Z M 18.203125 -10.234375 L 14.71875 -20.515625 L 11.28125 -10.234375 Z M 18.203125 -10.234375 "/></g></g></g><g fill="#000000" fill-opacity="1"><g transform="translate(184.460007, 293.072705)"><g><path d="M 28.84375 -28.078125 L 18.875 0 L 10.3125 0 L 0.359375 -28.078125 L 7.640625 -28.078125 L 14.59375 -6.875 L 21.59375 -28.078125 Z M 28.84375 -28.078125 "/></g></g></g><g fill="#000000" fill-opacity="1"><g transform="translate(213.657111, 293.072705)"><g><path d="M 19.953125 -4.953125 L 9.484375 -4.953125 L 7.796875 0 L 0.640625 0 L 10.796875 -28.078125 L 18.71875 -28.078125 L 28.875 0 L 21.640625 0 Z M 18.203125 -10.234375 L 14.71875 -20.515625 L 11.28125 -10.234375 Z M 18.203125 -10.234375 "/></g></g></g></svg>