<svg xmlns="http://www.w3.org/2000/svg" xmlns:xlink="http://www.w3.org/1999/xlink" width="500" zoomAndPan="magnify" viewBox="0 0 375 374.999991" height="500" preserveAspectRatio="xMidYMid meet" version="1.0"><defs><g/><clipPath id="ac38793e46"><path d="M 0 25.566406 L 375 25.566406 L 375 349.566406 L 0 349.566406 Z M 0 25.566406 " clip-rule="nonzero"/></clipPath><clipPath id="d6eec146c1"><path d="M 374.351562 187.519531 L 280.890625 349.472656 L 93.988281 349.472656 L 0.527344 187.519531 L 93.988281 25.566406 L 280.914062 25.566406 Z M 374.351562 187.519531 " clip-rule="nonzero"/></clipPath><linearGradient x1="8.011192" gradientTransform="matrix(2.431377, 0, 0, 2.432432, 0.527129, 25.568179)" y1="-7.452318" x2="145.742986" gradientUnits="userSpaceOnUse" y2="140.608434" id="aa08249deb"><stop stop-opacity="1" stop-color="rgb(95.298767%, 45.098877%, 20.799255%)" offset="0"/><stop stop-opacity="1" stop-color="rgb(95.298767%, 45.098877%, 20.799255%)" offset="0.125"/><stop stop-opacity="1" stop-color="rgb(95.298767%, 45.098877%, 20.799255%)" offset="0.140625"/><stop stop-opacity="1" stop-color="rgb(95.195007%, 45.072937%, 20.71991%)" offset="0.148438"/><stop stop-opacity="1" stop-color="rgb(94.958496%, 45.013428%, 20.536804%)" offset="0.15625"/><stop stop-opacity="1" stop-color="rgb(94.692993%, 44.947815%, 20.332336%)" offset="0.164062"/><stop stop-opacity="1" stop-color="rgb(94.425964%, 44.880676%, 20.127869%)" offset="0.171875"/><stop stop-opacity="1" stop-color="rgb(94.160461%, 44.815063%, 19.923401%)" offset="0.179688"/><stop stop-opacity="1" stop-color="rgb(93.893433%, 44.747925%, 19.717407%)" offset="0.1875"/><stop stop-opacity="1" stop-color="rgb(93.62793%, 44.680786%, 19.512939%)" offset="0.195312"/><stop stop-opacity="1" stop-color="rgb(93.362427%, 44.615173%, 19.308472%)" offset="0.203125"/><stop stop-opacity="1" stop-color="rgb(93.095398%, 44.548035%, 19.104004%)" offset="0.210937"/><stop stop-opacity="1" stop-color="rgb(92.829895%, 44.480896%, 18.89801%)" offset="0.21875"/><stop stop-opacity="1" stop-color="rgb(92.562866%, 44.415283%, 18.693542%)" offset="0.226563"/><stop stop-opacity="1" stop-color="rgb(92.297363%, 44.348145%, 18.489075%)" offset="0.234375"/><stop stop-opacity="1" stop-color="rgb(92.030334%, 44.282532%, 18.283081%)" offset="0.242187"/><stop stop-opacity="1" stop-color="rgb(91.764832%, 44.215393%, 18.078613%)" offset="0.25"/><stop stop-opacity="1" stop-color="rgb(91.497803%, 44.148254%, 17.874146%)" offset="0.257812"/><stop stop-opacity="1" stop-color="rgb(91.2323%, 44.082642%, 17.669678%)" offset="0.265625"/><stop stop-opacity="1" stop-color="rgb(90.965271%, 44.015503%, 17.463684%)" offset="0.273438"/><stop stop-opacity="1" stop-color="rgb(90.699768%, 43.948364%, 17.259216%)" offset="0.28125"/><stop stop-opacity="1" stop-color="rgb(90.432739%, 43.882751%, 17.054749%)" offset="0.289062"/><stop stop-opacity="1" stop-color="rgb(90.167236%, 43.815613%, 16.848755%)" offset="0.296875"/><stop stop-opacity="1" stop-color="rgb(89.900208%, 43.75%, 16.644287%)" offset="0.304688"/><stop stop-opacity="1" stop-color="rgb(89.634705%, 43.682861%, 16.439819%)" offset="0.3125"/><stop stop-opacity="1" stop-color="rgb(89.367676%, 43.615723%, 16.235352%)" offset="0.320312"/><stop stop-opacity="1" stop-color="rgb(89.102173%, 43.55011%, 16.029358%)" offset="0.328125"/><stop stop-opacity="1" stop-color="rgb(88.835144%, 43.482971%, 15.82489%)" offset="0.335937"/><stop stop-opacity="1" stop-color="rgb(88.569641%, 43.417358%, 15.620422%)" offset="0.34375"/><stop stop-opacity="1" stop-color="rgb(88.302612%, 43.35022%, 15.414429%)" offset="0.351562"/><stop stop-opacity="1" stop-color="rgb(88.037109%, 43.283081%, 15.209961%)" offset="0.359375"/><stop stop-opacity="1" stop-color="rgb(87.771606%, 43.217468%, 15.005493%)" offset="0.367187"/><stop stop-opacity="1" stop-color="rgb(87.504578%, 43.15033%, 14.801025%)" offset="0.375"/><stop stop-opacity="1" stop-color="rgb(87.239075%, 43.083191%, 14.595032%)" offset="0.382812"/><stop stop-opacity="1" stop-color="rgb(86.972046%, 43.017578%, 14.390564%)" offset="0.390625"/><stop stop-opacity="1" stop-color="rgb(86.706543%, 42.950439%, 14.186096%)" offset="0.398437"/><stop stop-opacity="1" stop-color="rgb(86.439514%, 42.884827%, 13.981628%)" offset="0.40625"/><stop stop-opacity="1" stop-color="rgb(86.174011%, 42.817688%, 13.775635%)" offset="0.414062"/><stop stop-opacity="1" stop-color="rgb(85.906982%, 42.750549%, 13.571167%)" offset="0.421875"/><stop stop-opacity="1" stop-color="rgb(85.641479%, 42.684937%, 13.366699%)" offset="0.429687"/><stop stop-opacity="1" stop-color="rgb(85.374451%, 42.617798%, 13.160706%)" offset="0.4375"/><stop stop-opacity="1" stop-color="rgb(85.108948%, 42.550659%, 12.956238%)" offset="0.445312"/><stop stop-opacity="1" stop-color="rgb(84.841919%, 42.485046%, 12.75177%)" offset="0.453125"/><stop stop-opacity="1" stop-color="rgb(84.576416%, 42.417908%, 12.547302%)" offset="0.460938"/><stop stop-opacity="1" stop-color="rgb(84.309387%, 42.352295%, 12.341309%)" offset="0.46875"/><stop stop-opacity="1" stop-color="rgb(84.043884%, 42.285156%, 12.136841%)" offset="0.476562"/><stop stop-opacity="1" stop-color="rgb(83.776855%, 42.218018%, 11.932373%)" offset="0.482142"/><stop stop-opacity="1" stop-color="rgb(83.644104%, 42.185974%, 11.830139%)" offset="0.484375"/><stop stop-opacity="1" stop-color="rgb(83.511353%, 42.152405%, 11.726379%)" offset="0.492187"/><stop stop-opacity="1" stop-color="rgb(83.244324%, 42.085266%, 11.521912%)" offset="0.5"/><stop stop-opacity="1" stop-color="rgb(82.978821%, 42.019653%, 11.317444%)" offset="0.507812"/><stop stop-opacity="1" stop-color="rgb(82.711792%, 41.952515%, 11.112976%)" offset="0.515625"/><stop stop-opacity="1" stop-color="rgb(82.446289%, 41.885376%, 10.906982%)" offset="0.517858"/><stop stop-opacity="1" stop-color="rgb(82.313538%, 41.853333%, 10.804749%)" offset="0.523438"/><stop stop-opacity="1" stop-color="rgb(82.180786%, 41.819763%, 10.702515%)" offset="0.53125"/><stop stop-opacity="1" stop-color="rgb(81.913757%, 41.752625%, 10.498047%)" offset="0.539062"/><stop stop-opacity="1" stop-color="rgb(81.648254%, 41.685486%, 10.293579%)" offset="0.546875"/><stop stop-opacity="1" stop-color="rgb(81.381226%, 41.619873%, 10.087585%)" offset="0.554687"/><stop stop-opacity="1" stop-color="rgb(81.115723%, 41.552734%, 9.883118%)" offset="0.5625"/><stop stop-opacity="1" stop-color="rgb(80.848694%, 41.487122%, 9.67865%)" offset="0.570312"/><stop stop-opacity="1" stop-color="rgb(80.583191%, 41.419983%, 9.472656%)" offset="0.578125"/><stop stop-opacity="1" stop-color="rgb(80.316162%, 41.352844%, 9.268188%)" offset="0.585937"/><stop stop-opacity="1" stop-color="rgb(80.050659%, 41.287231%, 9.063721%)" offset="0.59375"/><stop stop-opacity="1" stop-color="rgb(79.78363%, 41.220093%, 8.859253%)" offset="0.601562"/><stop stop-opacity="1" stop-color="rgb(79.518127%, 41.152954%, 8.653259%)" offset="0.609375"/><stop stop-opacity="1" stop-color="rgb(79.251099%, 41.087341%, 8.448792%)" offset="0.617188"/><stop stop-opacity="1" stop-color="rgb(78.985596%, 41.020203%, 8.244324%)" offset="0.625"/><stop stop-opacity="1" stop-color="rgb(78.718567%, 40.95459%, 8.03833%)" offset="0.632812"/><stop stop-opacity="1" stop-color="rgb(78.453064%, 40.887451%, 7.833862%)" offset="0.640625"/><stop stop-opacity="1" stop-color="rgb(78.186035%, 40.820312%, 7.629395%)" offset="0.648437"/><stop stop-opacity="1" stop-color="rgb(77.920532%, 40.7547%, 7.424927%)" offset="0.65625"/><stop stop-opacity="1" stop-color="rgb(77.653503%, 40.687561%, 7.218933%)" offset="0.664062"/><stop stop-opacity="1" stop-color="rgb(77.388%, 40.621948%, 7.014465%)" offset="0.671875"/><stop stop-opacity="1" stop-color="rgb(77.120972%, 40.55481%, 6.809998%)" offset="0.679688"/><stop stop-opacity="1" stop-color="rgb(76.855469%, 40.487671%, 6.60553%)" offset="0.6875"/><stop stop-opacity="1" stop-color="rgb(76.58844%, 40.422058%, 6.399536%)" offset="0.695312"/><stop stop-opacity="1" stop-color="rgb(76.322937%, 40.354919%, 6.195068%)" offset="0.703125"/><stop stop-opacity="1" stop-color="rgb(76.057434%, 40.287781%, 5.990601%)" offset="0.710937"/><stop stop-opacity="1" stop-color="rgb(75.790405%, 40.222168%, 5.784607%)" offset="0.71875"/><stop stop-opacity="1" stop-color="rgb(75.524902%, 40.155029%, 5.580139%)" offset="0.726562"/><stop stop-opacity="1" stop-color="rgb(75.257874%, 40.089417%, 5.375671%)" offset="0.734375"/><stop stop-opacity="1" stop-color="rgb(75.012207%, 40.026855%, 5.186462%)" offset="0.75"/><stop stop-opacity="1" stop-color="rgb(74.899292%, 39.99939%, 5.099487%)" offset="1"/></linearGradient></defs><g clip-path="url(#ac38793e46)"><g clip-path="url(#d6eec146c1)"><path fill="url(#aa08249deb)" d="M 0.527344 25.566406 L 0.527344 349.472656 L 374.351562 349.472656 L 374.351562 25.566406 Z M 0.527344 25.566406 " fill-rule="nonzero"/></g></g><path fill="#000000" d="M 180.175781 152.507812 C 180.386719 153.085938 180.617188 153.652344 180.875 154.199219 C 181.328125 155.160156 181.199219 156.289062 180.449219 157.042969 L 177.84375 159.648438 L 184.683594 166.488281 L 187.289062 163.882812 C 188.039062 163.132812 189.171875 163.003906 190.128906 163.457031 C 190.679688 163.714844 191.246094 163.949219 191.820312 164.152344 C 192.824219 164.515625 193.53125 165.402344 193.53125 166.464844 L 193.53125 170.152344 L 203.207031 170.152344 L 203.207031 166.464844 C 203.207031 165.40625 203.914062 164.511719 204.914062 164.15625 C 205.492188 163.949219 206.054688 163.714844 206.605469 163.457031 C 207.5625 163.003906 208.695312 163.132812 209.445312 163.886719 L 212.050781 166.488281 L 218.890625 159.648438 L 216.285156 157.042969 C 215.539062 156.296875 215.40625 155.164062 215.859375 154.203125 C 216.117188 153.652344 216.351562 153.085938 216.558594 152.511719 C 216.917969 151.511719 217.808594 150.800781 218.871094 150.800781 L 222.554688 150.800781 L 222.554688 141.128906 L 218.871094 141.128906 C 217.808594 141.128906 216.917969 140.417969 216.558594 139.421875 C 216.351562 138.84375 216.121094 138.277344 215.859375 137.730469 C 215.410156 136.769531 215.539062 135.640625 216.289062 134.886719 L 218.894531 132.28125 L 212.054688 125.441406 L 209.449219 128.046875 C 208.699219 128.796875 207.566406 128.925781 206.605469 128.472656 C 206.058594 128.214844 205.492188 127.980469 204.914062 127.777344 C 203.914062 127.414062 203.207031 126.523438 203.207031 125.464844 L 203.207031 121.777344 L 193.53125 121.777344 L 193.53125 125.464844 C 193.53125 126.523438 192.824219 127.417969 191.824219 127.773438 C 191.246094 127.980469 190.683594 128.214844 190.132812 128.472656 C 189.171875 128.925781 188.042969 128.796875 187.289062 128.042969 L 184.6875 125.441406 L 177.847656 132.28125 L 180.449219 134.886719 C 181.199219 135.632812 181.332031 136.765625 180.878906 137.726562 C 180.617188 138.277344 180.382812 138.84375 180.179688 139.417969 C 179.820312 140.417969 178.929688 141.128906 177.867188 141.128906 L 174.179688 141.128906 L 174.179688 150.800781 L 177.867188 150.800781 C 178.929688 150.800781 179.820312 151.511719 180.175781 152.507812 Z M 198.367188 136.289062 C 203.710938 136.289062 208.042969 140.621094 208.042969 145.964844 C 208.042969 151.308594 203.710938 155.640625 198.367188 155.640625 C 193.027344 155.640625 188.695312 151.308594 188.695312 145.964844 C 188.695312 140.621094 193.027344 136.289062 198.367188 136.289062 Z M 198.367188 136.289062 " fill-opacity="1" fill-rule="nonzero"/><path fill="#000000" d="M 176.601562 194.339844 C 176.601562 199.679688 172.269531 204.011719 166.925781 204.011719 C 161.582031 204.011719 157.25 199.679688 157.25 194.339844 C 157.25 188.996094 161.582031 184.664062 166.925781 184.664062 C 172.269531 184.664062 176.601562 188.996094 176.601562 194.339844 " fill-opacity="1" fill-rule="nonzero"/><path fill="#000000" d="M 210.460938 194.339844 C 210.460938 199.679688 206.128906 204.011719 200.789062 204.011719 C 195.445312 204.011719 191.113281 199.679688 191.113281 194.339844 C 191.113281 188.996094 195.445312 184.664062 200.789062 184.664062 C 206.128906 184.664062 210.460938 188.996094 210.460938 194.339844 " fill-opacity="1" fill-rule="nonzero"/><path fill="#000000" d="M 217.71875 220.945312 C 217.71875 211.59375 210.140625 204.011719 200.789062 204.011719 C 191.4375 204.011719 183.855469 211.59375 183.855469 220.945312 C 183.855469 211.59375 176.277344 204.011719 166.925781 204.011719 C 157.574219 204.011719 149.992188 211.59375 149.992188 220.945312 C 149.992188 211.59375 142.414062 204.011719 133.0625 204.011719 C 123.710938 204.011719 116.132812 211.59375 116.132812 220.945312 L 116.132812 228.199219 L 217.71875 228.199219 Z M 217.71875 220.945312 " fill-opacity="1" fill-rule="nonzero"/><path fill="#000000" d="M 142.738281 194.339844 C 142.738281 199.679688 138.40625 204.011719 133.0625 204.011719 C 127.71875 204.011719 123.386719 199.679688 123.386719 194.339844 C 123.386719 188.996094 127.71875 184.664062 133.0625 184.664062 C 138.40625 184.664062 142.738281 188.996094 142.738281 194.339844 " fill-opacity="1" fill-rule="nonzero"/><path fill="#000000" d="M 158.960938 158.058594 C 157.183594 155.164062 153.375 148.035156 154.125 138.707031 C 154.125 138.667969 154.132812 138.628906 154.132812 138.589844 C 154.578125 133.347656 157.09375 128.503906 160.882812 124.863281 L 161.503906 124.265625 L 164.925781 120.84375 L 170.054688 125.976562 L 171.761719 103.742188 L 149.53125 105.453125 L 154.660156 110.582031 L 149.53125 115.714844 C 144.285156 119.976562 142.628906 124.425781 142.03125 126.613281 C 139.152344 137.132812 145.765625 150.117188 158.960938 158.058594 Z M 158.960938 158.058594 " fill-opacity="1" fill-rule="nonzero"/><path fill="#000000" d="M 242.605469 159.496094 C 242.164062 164.734375 239.648438 169.578125 235.855469 173.222656 L 235.234375 173.816406 L 231.816406 177.238281 L 226.683594 172.109375 L 224.976562 194.339844 L 247.210938 192.628906 L 242.078125 187.5 L 247.210938 182.367188 C 252.457031 178.105469 254.109375 173.65625 254.710938 171.46875 C 257.585938 160.953125 250.972656 147.964844 237.777344 140.027344 C 239.554688 142.917969 243.363281 150.046875 242.617188 159.375 C 242.613281 159.414062 242.609375 159.453125 242.605469 159.496094 Z M 242.605469 159.496094 " fill-opacity="1" fill-rule="nonzero"/><path fill="#000000" d="M 241.90625 83.074219 C 231.222656 83.074219 222.554688 91.742188 222.554688 102.425781 C 222.554688 113.113281 231.222656 121.777344 241.90625 121.777344 C 252.59375 121.777344 261.257812 113.113281 261.257812 102.425781 C 261.257812 91.742188 252.59375 83.074219 241.90625 83.074219 Z M 241.34375 111.230469 C 240.910156 111.753906 240.277344 112.066406 239.597656 112.097656 C 239.558594 112.101562 239.523438 112.101562 239.488281 112.101562 C 238.847656 112.101562 238.230469 111.847656 237.777344 111.390625 L 230.519531 104.136719 L 233.941406 100.714844 L 239.324219 106.101562 L 249.722656 93.621094 L 253.4375 96.71875 Z M 241.34375 111.230469 " fill-opacity="1" fill-rule="nonzero"/><g fill="#000000" fill-opacity="1"><g transform="translate(114.462887, 297.112627)"><g><path d="M 12.640625 0.28125 C 10.585938 0.28125 8.75 -0.0507812 7.125 -0.71875 C 5.5 -1.382812 4.195312 -2.367188 3.21875 -3.671875 C 2.25 -4.984375 1.738281 -6.5625 1.6875 -8.40625 L 8.953125 -8.40625 C 9.066406 -7.363281 9.425781 -6.566406 10.03125 -6.015625 C 10.644531 -5.472656 11.445312 -5.203125 12.4375 -5.203125 C 13.445312 -5.203125 14.242188 -5.429688 14.828125 -5.890625 C 15.421875 -6.359375 15.71875 -7.007812 15.71875 -7.84375 C 15.71875 -8.53125 15.484375 -9.097656 15.015625 -9.546875 C 14.546875 -10.003906 13.972656 -10.378906 13.296875 -10.671875 C 12.617188 -10.972656 11.65625 -11.3125 10.40625 -11.6875 C 8.59375 -12.238281 7.109375 -12.796875 5.953125 -13.359375 C 4.804688 -13.921875 3.820312 -14.75 3 -15.84375 C 2.175781 -16.9375 1.765625 -18.363281 1.765625 -20.125 C 1.765625 -22.738281 2.707031 -24.785156 4.59375 -26.265625 C 6.488281 -27.742188 8.957031 -28.484375 12 -28.484375 C 15.09375 -28.484375 17.582031 -27.742188 19.46875 -26.265625 C 21.363281 -24.785156 22.378906 -22.722656 22.515625 -20.078125 L 15.125 -20.078125 C 15.070312 -20.984375 14.738281 -21.695312 14.125 -22.21875 C 13.507812 -22.738281 12.722656 -23 11.765625 -23 C 10.929688 -23 10.257812 -22.78125 9.75 -22.34375 C 9.25 -21.90625 9 -21.269531 9 -20.4375 C 9 -19.53125 9.425781 -18.820312 10.28125 -18.3125 C 11.132812 -17.8125 12.46875 -17.269531 14.28125 -16.6875 C 16.09375 -16.070312 17.566406 -15.484375 18.703125 -14.921875 C 19.835938 -14.359375 20.816406 -13.539062 21.640625 -12.46875 C 22.460938 -11.40625 22.875 -10.035156 22.875 -8.359375 C 22.875 -6.753906 22.46875 -5.300781 21.65625 -4 C 20.84375 -2.695312 19.660156 -1.65625 18.109375 -0.875 C 16.566406 -0.101562 14.742188 0.28125 12.640625 0.28125 Z M 12.640625 0.28125 "/></g></g></g><g fill="#000000" fill-opacity="1"><g transform="translate(139.060439, 297.112627)"><g><path d="M 1.3125 -14.078125 C 1.3125 -16.847656 1.910156 -19.320312 3.109375 -21.5 C 4.316406 -23.675781 5.992188 -25.367188 8.140625 -26.578125 C 10.285156 -27.796875 12.71875 -28.40625 15.4375 -28.40625 C 18.769531 -28.40625 21.625 -27.523438 24 -25.765625 C 26.375 -24.003906 27.960938 -21.601562 28.765625 -18.5625 L 21.234375 -18.5625 C 20.679688 -19.726562 19.890625 -20.617188 18.859375 -21.234375 C 17.828125 -21.847656 16.660156 -22.15625 15.359375 -22.15625 C 13.253906 -22.15625 11.546875 -21.421875 10.234375 -19.953125 C 8.929688 -18.492188 8.28125 -16.535156 8.28125 -14.078125 C 8.28125 -11.628906 8.929688 -9.671875 10.234375 -8.203125 C 11.546875 -6.734375 13.253906 -6 15.359375 -6 C 16.660156 -6 17.828125 -6.304688 18.859375 -6.921875 C 19.890625 -7.535156 20.679688 -8.425781 21.234375 -9.59375 L 28.765625 -9.59375 C 27.960938 -6.5625 26.375 -4.171875 24 -2.421875 C 21.625 -0.671875 18.769531 0.203125 15.4375 0.203125 C 12.71875 0.203125 10.285156 -0.398438 8.140625 -1.609375 C 5.992188 -2.828125 4.316406 -4.515625 3.109375 -6.671875 C 1.910156 -8.835938 1.3125 -11.304688 1.3125 -14.078125 Z M 1.3125 -14.078125 "/></g></g></g><g fill="#000000" fill-opacity="1"><g transform="translate(169.537416, 297.112627)"><g><path d="M 16.796875 0 L 10.953125 -10.59375 L 9.3125 -10.59375 L 9.3125 0 L 2.484375 0 L 2.484375 -28.078125 L 13.953125 -28.078125 C 16.171875 -28.078125 18.054688 -27.691406 19.609375 -26.921875 C 21.171875 -26.148438 22.335938 -25.085938 23.109375 -23.734375 C 23.890625 -22.390625 24.28125 -20.890625 24.28125 -19.234375 C 24.28125 -17.367188 23.753906 -15.703125 22.703125 -14.234375 C 21.648438 -12.773438 20.097656 -11.738281 18.046875 -11.125 L 24.515625 0 Z M 9.3125 -15.4375 L 13.5625 -15.4375 C 14.8125 -15.4375 15.75 -15.742188 16.375 -16.359375 C 17 -16.972656 17.3125 -17.835938 17.3125 -18.953125 C 17.3125 -20.023438 17 -20.867188 16.375 -21.484375 C 15.75 -22.097656 14.8125 -22.40625 13.5625 -22.40625 L 9.3125 -22.40625 Z M 9.3125 -15.4375 "/></g></g></g><g fill="#000000" fill-opacity="1"><g transform="translate(195.614825, 297.112627)"><g><path d="M 9.203125 -28.078125 L 9.203125 -11.28125 C 9.203125 -9.601562 9.613281 -8.3125 10.4375 -7.40625 C 11.269531 -6.5 12.484375 -6.046875 14.078125 -6.046875 C 15.679688 -6.046875 16.910156 -6.5 17.765625 -7.40625 C 18.617188 -8.3125 19.046875 -9.601562 19.046875 -11.28125 L 19.046875 -28.078125 L 25.875 -28.078125 L 25.875 -11.3125 C 25.875 -8.8125 25.34375 -6.691406 24.28125 -4.953125 C 23.21875 -3.222656 21.785156 -1.914062 19.984375 -1.03125 C 18.179688 -0.15625 16.171875 0.28125 13.953125 0.28125 C 11.742188 0.28125 9.765625 -0.148438 8.015625 -1.015625 C 6.273438 -1.878906 4.894531 -3.1875 3.875 -4.9375 C 2.863281 -6.6875 2.359375 -8.8125 2.359375 -11.3125 L 2.359375 -28.078125 Z M 9.203125 -28.078125 "/></g></g></g><g fill="#000000" fill-opacity="1"><g transform="translate(223.812024, 297.112627)"><g><path d="M 34.28125 -28.078125 L 34.28125 0 L 27.4375 0 L 27.4375 -16.84375 L 21.15625 0 L 15.640625 0 L 9.3125 -16.875 L 9.3125 0 L 2.484375 0 L 2.484375 -28.078125 L 10.5625 -28.078125 L 18.4375 -8.640625 L 26.234375 -28.078125 Z M 34.28125 -28.078125 "/></g></g></g></svg>