<svg xmlns="http://www.w3.org/2000/svg" xmlns:xlink="http://www.w3.org/1999/xlink" width="500" zoomAndPan="magnify" viewBox="0 0 375 374.999991" height="500" preserveAspectRatio="xMidYMid meet" version="1.0"><defs><g/><clipPath id="9495b863dc"><path d="M 0 25.566406 L 375 25.566406 L 375 349.566406 L 0 349.566406 Z M 0 25.566406 " clip-rule="nonzero"/></clipPath><clipPath id="800ebdbebc"><path d="M 374.351562 187.519531 L 280.890625 349.472656 L 93.988281 349.472656 L 0.527344 187.519531 L 93.988281 25.566406 L 280.914062 25.566406 Z M 374.351562 187.519531 " clip-rule="nonzero"/></clipPath><linearGradient x1="8.01119" gradientTransform="matrix(2.431377, 0, 0, 2.432432, 0.527129, 25.568209)" y1="-7.45232" x2="145.742984" gradientUnits="userSpaceOnUse" y2="140.608432" id="2db4b9434a"><stop stop-opacity="1" stop-color="rgb(95.298767%, 45.098877%, 20.799255%)" offset="0"/><stop stop-opacity="1" stop-color="rgb(95.298767%, 45.098877%, 20.799255%)" offset="0.125"/><stop stop-opacity="1" stop-color="rgb(95.298767%, 45.098877%, 20.799255%)" offset="0.140625"/><stop stop-opacity="1" stop-color="rgb(95.195007%, 45.072937%, 20.71991%)" offset="0.148438"/><stop stop-opacity="1" stop-color="rgb(94.958496%, 45.013428%, 20.536804%)" offset="0.15625"/><stop stop-opacity="1" stop-color="rgb(94.692993%, 44.947815%, 20.332336%)" offset="0.164062"/><stop stop-opacity="1" stop-color="rgb(94.425964%, 44.880676%, 20.127869%)" offset="0.171875"/><stop stop-opacity="1" stop-color="rgb(94.160461%, 44.815063%, 19.923401%)" offset="0.179688"/><stop stop-opacity="1" stop-color="rgb(93.893433%, 44.747925%, 19.717407%)" offset="0.1875"/><stop stop-opacity="1" stop-color="rgb(93.62793%, 44.680786%, 19.512939%)" offset="0.195312"/><stop stop-opacity="1" stop-color="rgb(93.362427%, 44.615173%, 19.308472%)" offset="0.203125"/><stop stop-opacity="1" stop-color="rgb(93.095398%, 44.548035%, 19.104004%)" offset="0.210938"/><stop stop-opacity="1" stop-color="rgb(92.829895%, 44.480896%, 18.89801%)" offset="0.21875"/><stop stop-opacity="1" stop-color="rgb(92.562866%, 44.415283%, 18.693542%)" offset="0.226563"/><stop stop-opacity="1" stop-color="rgb(92.297363%, 44.348145%, 18.489075%)" offset="0.234375"/><stop stop-opacity="1" stop-color="rgb(92.030334%, 44.282532%, 18.283081%)" offset="0.242188"/><stop stop-opacity="1" stop-color="rgb(91.764832%, 44.215393%, 18.078613%)" offset="0.25"/><stop stop-opacity="1" stop-color="rgb(91.497803%, 44.148254%, 17.874146%)" offset="0.257812"/><stop stop-opacity="1" stop-color="rgb(91.2323%, 44.082642%, 17.669678%)" offset="0.265625"/><stop stop-opacity="1" stop-color="rgb(90.965271%, 44.015503%, 17.463684%)" offset="0.273438"/><stop stop-opacity="1" stop-color="rgb(90.699768%, 43.948364%, 17.259216%)" offset="0.28125"/><stop stop-opacity="1" stop-color="rgb(90.432739%, 43.882751%, 17.054749%)" offset="0.289063"/><stop stop-opacity="1" stop-color="rgb(90.167236%, 43.815613%, 16.848755%)" offset="0.296875"/><stop stop-opacity="1" stop-color="rgb(89.900208%, 43.75%, 16.644287%)" offset="0.304688"/><stop stop-opacity="1" stop-color="rgb(89.634705%, 43.682861%, 16.439819%)" offset="0.3125"/><stop stop-opacity="1" stop-color="rgb(89.367676%, 43.615723%, 16.235352%)" offset="0.320313"/><stop stop-opacity="1" stop-color="rgb(89.102173%, 43.55011%, 16.029358%)" offset="0.328125"/><stop stop-opacity="1" stop-color="rgb(88.835144%, 43.482971%, 15.82489%)" offset="0.335938"/><stop stop-opacity="1" stop-color="rgb(88.569641%, 43.417358%, 15.620422%)" offset="0.34375"/><stop stop-opacity="1" stop-color="rgb(88.302612%, 43.35022%, 15.414429%)" offset="0.351563"/><stop stop-opacity="1" stop-color="rgb(88.037109%, 43.283081%, 15.209961%)" offset="0.359375"/><stop stop-opacity="1" stop-color="rgb(87.771606%, 43.217468%, 15.005493%)" offset="0.367188"/><stop stop-opacity="1" stop-color="rgb(87.504578%, 43.15033%, 14.801025%)" offset="0.375"/><stop stop-opacity="1" stop-color="rgb(87.239075%, 43.083191%, 14.595032%)" offset="0.382813"/><stop stop-opacity="1" stop-color="rgb(86.972046%, 43.017578%, 14.390564%)" offset="0.390625"/><stop stop-opacity="1" stop-color="rgb(86.706543%, 42.950439%, 14.186096%)" offset="0.398438"/><stop stop-opacity="1" stop-color="rgb(86.439514%, 42.884827%, 13.981628%)" offset="0.40625"/><stop stop-opacity="1" stop-color="rgb(86.174011%, 42.817688%, 13.775635%)" offset="0.414063"/><stop stop-opacity="1" stop-color="rgb(85.906982%, 42.750549%, 13.571167%)" offset="0.421875"/><stop stop-opacity="1" stop-color="rgb(85.641479%, 42.684937%, 13.366699%)" offset="0.429688"/><stop stop-opacity="1" stop-color="rgb(85.374451%, 42.617798%, 13.160706%)" offset="0.4375"/><stop stop-opacity="1" stop-color="rgb(85.108948%, 42.550659%, 12.956238%)" offset="0.445313"/><stop stop-opacity="1" stop-color="rgb(84.841919%, 42.485046%, 12.75177%)" offset="0.453125"/><stop stop-opacity="1" stop-color="rgb(84.576416%, 42.417908%, 12.547302%)" offset="0.460938"/><stop stop-opacity="1" stop-color="rgb(84.309387%, 42.352295%, 12.341309%)" offset="0.46875"/><stop stop-opacity="1" stop-color="rgb(84.043884%, 42.285156%, 12.136841%)" offset="0.476563"/><stop stop-opacity="1" stop-color="rgb(83.776855%, 42.218018%, 11.932373%)" offset="0.482142"/><stop stop-opacity="1" stop-color="rgb(83.644104%, 42.185974%, 11.830139%)" offset="0.484375"/><stop stop-opacity="1" stop-color="rgb(83.511353%, 42.152405%, 11.726379%)" offset="0.492188"/><stop stop-opacity="1" stop-color="rgb(83.244324%, 42.085266%, 11.521912%)" offset="0.5"/><stop stop-opacity="1" stop-color="rgb(82.978821%, 42.019653%, 11.317444%)" offset="0.507813"/><stop stop-opacity="1" stop-color="rgb(82.711792%, 41.952515%, 11.112976%)" offset="0.515625"/><stop stop-opacity="1" stop-color="rgb(82.446289%, 41.885376%, 10.906982%)" offset="0.517858"/><stop stop-opacity="1" stop-color="rgb(82.313538%, 41.853333%, 10.804749%)" offset="0.523438"/><stop stop-opacity="1" stop-color="rgb(82.180786%, 41.819763%, 10.702515%)" offset="0.53125"/><stop stop-opacity="1" stop-color="rgb(81.913757%, 41.752625%, 10.498047%)" offset="0.539063"/><stop stop-opacity="1" stop-color="rgb(81.648254%, 41.685486%, 10.293579%)" offset="0.546875"/><stop stop-opacity="1" stop-color="rgb(81.381226%, 41.619873%, 10.087585%)" offset="0.554688"/><stop stop-opacity="1" stop-color="rgb(81.115723%, 41.552734%, 9.883118%)" offset="0.5625"/><stop stop-opacity="1" stop-color="rgb(80.848694%, 41.487122%, 9.67865%)" offset="0.570312"/><stop stop-opacity="1" stop-color="rgb(80.583191%, 41.419983%, 9.472656%)" offset="0.578125"/><stop stop-opacity="1" stop-color="rgb(80.316162%, 41.352844%, 9.268188%)" offset="0.585938"/><stop stop-opacity="1" stop-color="rgb(80.050659%, 41.287231%, 9.063721%)" offset="0.59375"/><stop stop-opacity="1" stop-color="rgb(79.78363%, 41.220093%, 8.859253%)" offset="0.601563"/><stop stop-opacity="1" stop-color="rgb(79.518127%, 41.152954%, 8.653259%)" offset="0.609375"/><stop stop-opacity="1" stop-color="rgb(79.251099%, 41.087341%, 8.448792%)" offset="0.617188"/><stop stop-opacity="1" stop-color="rgb(78.985596%, 41.020203%, 8.244324%)" offset="0.625"/><stop stop-opacity="1" stop-color="rgb(78.718567%, 40.95459%, 8.03833%)" offset="0.632812"/><stop stop-opacity="1" stop-color="rgb(78.453064%, 40.887451%, 7.833862%)" offset="0.640625"/><stop stop-opacity="1" stop-color="rgb(78.186035%, 40.820312%, 7.629395%)" offset="0.648438"/><stop stop-opacity="1" stop-color="rgb(77.920532%, 40.7547%, 7.424927%)" offset="0.65625"/><stop stop-opacity="1" stop-color="rgb(77.653503%, 40.687561%, 7.218933%)" offset="0.664063"/><stop stop-opacity="1" stop-color="rgb(77.388%, 40.621948%, 7.014465%)" offset="0.671875"/><stop stop-opacity="1" stop-color="rgb(77.120972%, 40.55481%, 6.809998%)" offset="0.679688"/><stop stop-opacity="1" stop-color="rgb(76.855469%, 40.487671%, 6.60553%)" offset="0.6875"/><stop stop-opacity="1" stop-color="rgb(76.58844%, 40.422058%, 6.399536%)" offset="0.695312"/><stop stop-opacity="1" stop-color="rgb(76.322937%, 40.354919%, 6.195068%)" offset="0.703125"/><stop stop-opacity="1" stop-color="rgb(76.057434%, 40.287781%, 5.990601%)" offset="0.710938"/><stop stop-opacity="1" stop-color="rgb(75.790405%, 40.222168%, 5.784607%)" offset="0.71875"/><stop stop-opacity="1" stop-color="rgb(75.524902%, 40.155029%, 5.580139%)" offset="0.726563"/><stop stop-opacity="1" stop-color="rgb(75.257874%, 40.089417%, 5.375671%)" offset="0.734375"/><stop stop-opacity="1" stop-color="rgb(75.012207%, 40.026855%, 5.186462%)" offset="0.75"/><stop stop-opacity="1" stop-color="rgb(74.899292%, 39.99939%, 5.099487%)" offset="1"/></linearGradient></defs><g clip-path="url(#9495b863dc)"><g clip-path="url(#800ebdbebc)"><path fill="url(#2db4b9434a)" d="M 0.527344 25.566406 L 0.527344 349.472656 L 374.351562 349.472656 L 374.351562 25.566406 Z M 0.527344 25.566406 " fill-rule="nonzero"/></g></g><path fill="#000000" d="M 126.023438 85.414062 L 248.90625 85.414062 L 237.726562 211.585938 L 187.328125 225.851562 L 137.21875 211.585938 Z M 167.164062 142.460938 L 165.8125 126.5625 L 224.664062 126.578125 L 226.015625 111.242188 L 148.90625 111.226562 L 152.984375 158.085938 L 206.382812 158.085938 L 204.484375 178.132812 L 187.460938 182.835938 L 170.164062 178.109375 L 169.0625 165.765625 L 153.796875 165.765625 L 155.726562 190.164062 L 187.460938 198.648438 L 218.929688 190.210938 L 223.289062 142.46875 L 167.164062 142.46875 Z M 167.164062 142.460938 " fill-opacity="1" fill-rule="nonzero"/><g fill="#000000" fill-opacity="1"><g transform="translate(120.164058, 293.072676)"><g><path d="M 26.796875 -28.078125 L 26.796875 0 L 19.953125 0 L 19.953125 -11.5625 L 9.3125 -11.5625 L 9.3125 0 L 2.484375 0 L 2.484375 -28.078125 L 9.3125 -28.078125 L 9.3125 -17.078125 L 19.953125 -17.078125 L 19.953125 -28.078125 Z M 26.796875 -28.078125 "/></g></g></g><g fill="#000000" fill-opacity="1"><g transform="translate(149.401147, 293.072676)"><g><path d="M 22.6875 -28.078125 L 22.6875 -22.59375 L 15.234375 -22.59375 L 15.234375 0 L 8.40625 0 L 8.40625 -22.59375 L 0.953125 -22.59375 L 0.953125 -28.078125 Z M 22.6875 -28.078125 "/></g></g></g><g fill="#000000" fill-opacity="1"><g transform="translate(173.038803, 293.072676)"><g><path d="M 34.28125 -28.078125 L 34.28125 0 L 27.4375 0 L 27.4375 -16.84375 L 21.15625 0 L 15.640625 0 L 9.3125 -16.875 L 9.3125 0 L 2.484375 0 L 2.484375 -28.078125 L 10.5625 -28.078125 L 18.4375 -8.640625 L 26.234375 -28.078125 Z M 34.28125 -28.078125 "/></g></g></g><g fill="#000000" fill-opacity="1"><g transform="translate(209.755155, 293.072676)"><g><path d="M 9.3125 -5.28125 L 18.28125 -5.28125 L 18.28125 0 L 2.484375 0 L 2.484375 -28.078125 L 9.3125 -28.078125 Z M 9.3125 -5.28125 "/></g></g></g><g fill="#000000" fill-opacity="1"><g transform="translate(228.833255, 293.072676)"><g><path d="M 22.359375 -23.234375 L 9.875 -23.234375 L 9.875 -17.71875 C 10.414062 -18.300781 11.164062 -18.78125 12.125 -19.15625 C 13.082031 -19.53125 14.117188 -19.71875 15.234375 -19.71875 C 17.234375 -19.71875 18.894531 -19.265625 20.21875 -18.359375 C 21.539062 -17.453125 22.507812 -16.28125 23.125 -14.84375 C 23.738281 -13.40625 24.046875 -11.84375 24.046875 -10.15625 C 24.046875 -7.039062 23.164062 -4.566406 21.40625 -2.734375 C 19.644531 -0.910156 17.160156 0 13.953125 0 C 11.828125 0 9.976562 -0.363281 8.40625 -1.09375 C 6.832031 -1.832031 5.617188 -2.851562 4.765625 -4.15625 C 3.910156 -5.46875 3.441406 -6.976562 3.359375 -8.6875 L 10.046875 -8.6875 C 10.203125 -7.851562 10.585938 -7.160156 11.203125 -6.609375 C 11.816406 -6.066406 12.65625 -5.796875 13.71875 -5.796875 C 14.96875 -5.796875 15.898438 -6.195312 16.515625 -7 C 17.128906 -7.800781 17.4375 -8.867188 17.4375 -10.203125 C 17.4375 -11.503906 17.113281 -12.5 16.46875 -13.1875 C 15.832031 -13.882812 14.90625 -14.234375 13.6875 -14.234375 C 12.769531 -14.234375 12.019531 -14.015625 11.4375 -13.578125 C 10.851562 -13.140625 10.46875 -12.5625 10.28125 -11.84375 L 3.6875 -11.84375 L 3.6875 -29.234375 L 22.359375 -29.234375 Z M 22.359375 -23.234375 "/></g></g></g></svg>