<svg xmlns="http://www.w3.org/2000/svg" xmlns:xlink="http://www.w3.org/1999/xlink" width="500" zoomAndPan="magnify" viewBox="0 0 375 374.999991" height="500" preserveAspectRatio="xMidYMid meet" version="1.0"><defs><g/><clipPath id="0c4b757451"><path d="M 0 25.566406 L 375 25.566406 L 375 349.566406 L 0 349.566406 Z M 0 25.566406 " clip-rule="nonzero"/></clipPath><clipPath id="07b1b921cd"><path d="M 374.351562 187.519531 L 280.890625 349.472656 L 93.988281 349.472656 L 0.527344 187.519531 L 93.988281 25.566406 L 280.914062 25.566406 Z M 374.351562 187.519531 " clip-rule="nonzero"/></clipPath><linearGradient x1="8.01119" gradientTransform="matrix(2.431377, 0, 0, 2.432432, 0.527129, 25.568089)" y1="-7.452319" x2="145.742985" gradientUnits="userSpaceOnUse" y2="140.608432" id="d9548f8536"><stop stop-opacity="1" stop-color="rgb(95.298767%, 45.098877%, 20.799255%)" offset="0"/><stop stop-opacity="1" stop-color="rgb(95.298767%, 45.098877%, 20.799255%)" offset="0.125"/><stop stop-opacity="1" stop-color="rgb(95.298767%, 45.098877%, 20.799255%)" offset="0.140625"/><stop stop-opacity="1" stop-color="rgb(95.195007%, 45.072937%, 20.71991%)" offset="0.148438"/><stop stop-opacity="1" stop-color="rgb(94.958496%, 45.013428%, 20.536804%)" offset="0.15625"/><stop stop-opacity="1" stop-color="rgb(94.692993%, 44.947815%, 20.332336%)" offset="0.164062"/><stop stop-opacity="1" stop-color="rgb(94.425964%, 44.880676%, 20.127869%)" offset="0.171875"/><stop stop-opacity="1" stop-color="rgb(94.160461%, 44.815063%, 19.923401%)" offset="0.179688"/><stop stop-opacity="1" stop-color="rgb(93.893433%, 44.747925%, 19.717407%)" offset="0.1875"/><stop stop-opacity="1" stop-color="rgb(93.62793%, 44.680786%, 19.512939%)" offset="0.195312"/><stop stop-opacity="1" stop-color="rgb(93.362427%, 44.615173%, 19.308472%)" offset="0.203125"/><stop stop-opacity="1" stop-color="rgb(93.095398%, 44.548035%, 19.104004%)" offset="0.210938"/><stop stop-opacity="1" stop-color="rgb(92.829895%, 44.480896%, 18.89801%)" offset="0.21875"/><stop stop-opacity="1" stop-color="rgb(92.562866%, 44.415283%, 18.693542%)" offset="0.226563"/><stop stop-opacity="1" stop-color="rgb(92.297363%, 44.348145%, 18.489075%)" offset="0.234375"/><stop stop-opacity="1" stop-color="rgb(92.030334%, 44.282532%, 18.283081%)" offset="0.242188"/><stop stop-opacity="1" stop-color="rgb(91.764832%, 44.215393%, 18.078613%)" offset="0.25"/><stop stop-opacity="1" stop-color="rgb(91.497803%, 44.148254%, 17.874146%)" offset="0.257812"/><stop stop-opacity="1" stop-color="rgb(91.2323%, 44.082642%, 17.669678%)" offset="0.265625"/><stop stop-opacity="1" stop-color="rgb(90.965271%, 44.015503%, 17.463684%)" offset="0.273438"/><stop stop-opacity="1" stop-color="rgb(90.699768%, 43.948364%, 17.259216%)" offset="0.28125"/><stop stop-opacity="1" stop-color="rgb(90.432739%, 43.882751%, 17.054749%)" offset="0.289063"/><stop stop-opacity="1" stop-color="rgb(90.167236%, 43.815613%, 16.848755%)" offset="0.296875"/><stop stop-opacity="1" stop-color="rgb(89.900208%, 43.75%, 16.644287%)" offset="0.304688"/><stop stop-opacity="1" stop-color="rgb(89.634705%, 43.682861%, 16.439819%)" offset="0.3125"/><stop stop-opacity="1" stop-color="rgb(89.367676%, 43.615723%, 16.235352%)" offset="0.320313"/><stop stop-opacity="1" stop-color="rgb(89.102173%, 43.55011%, 16.029358%)" offset="0.328125"/><stop stop-opacity="1" stop-color="rgb(88.835144%, 43.482971%, 15.82489%)" offset="0.335938"/><stop stop-opacity="1" stop-color="rgb(88.569641%, 43.417358%, 15.620422%)" offset="0.34375"/><stop stop-opacity="1" stop-color="rgb(88.302612%, 43.35022%, 15.414429%)" offset="0.351563"/><stop stop-opacity="1" stop-color="rgb(88.037109%, 43.283081%, 15.209961%)" offset="0.359375"/><stop stop-opacity="1" stop-color="rgb(87.771606%, 43.217468%, 15.005493%)" offset="0.367188"/><stop stop-opacity="1" stop-color="rgb(87.504578%, 43.15033%, 14.801025%)" offset="0.375"/><stop stop-opacity="1" stop-color="rgb(87.239075%, 43.083191%, 14.595032%)" offset="0.382813"/><stop stop-opacity="1" stop-color="rgb(86.972046%, 43.017578%, 14.390564%)" offset="0.390625"/><stop stop-opacity="1" stop-color="rgb(86.706543%, 42.950439%, 14.186096%)" offset="0.398438"/><stop stop-opacity="1" stop-color="rgb(86.439514%, 42.884827%, 13.981628%)" offset="0.40625"/><stop stop-opacity="1" stop-color="rgb(86.174011%, 42.817688%, 13.775635%)" offset="0.414063"/><stop stop-opacity="1" stop-color="rgb(85.906982%, 42.750549%, 13.571167%)" offset="0.421875"/><stop stop-opacity="1" stop-color="rgb(85.641479%, 42.684937%, 13.366699%)" offset="0.429688"/><stop stop-opacity="1" stop-color="rgb(85.374451%, 42.617798%, 13.160706%)" offset="0.4375"/><stop stop-opacity="1" stop-color="rgb(85.108948%, 42.550659%, 12.956238%)" offset="0.445313"/><stop stop-opacity="1" stop-color="rgb(84.841919%, 42.485046%, 12.75177%)" offset="0.453125"/><stop stop-opacity="1" stop-color="rgb(84.576416%, 42.417908%, 12.547302%)" offset="0.460938"/><stop stop-opacity="1" stop-color="rgb(84.309387%, 42.352295%, 12.341309%)" offset="0.46875"/><stop stop-opacity="1" stop-color="rgb(84.043884%, 42.285156%, 12.136841%)" offset="0.476563"/><stop stop-opacity="1" stop-color="rgb(83.776855%, 42.218018%, 11.932373%)" offset="0.482142"/><stop stop-opacity="1" stop-color="rgb(83.644104%, 42.185974%, 11.830139%)" offset="0.484375"/><stop stop-opacity="1" stop-color="rgb(83.511353%, 42.152405%, 11.726379%)" offset="0.492188"/><stop stop-opacity="1" stop-color="rgb(83.244324%, 42.085266%, 11.521912%)" offset="0.5"/><stop stop-opacity="1" stop-color="rgb(82.978821%, 42.019653%, 11.317444%)" offset="0.507813"/><stop stop-opacity="1" stop-color="rgb(82.711792%, 41.952515%, 11.112976%)" offset="0.515625"/><stop stop-opacity="1" stop-color="rgb(82.446289%, 41.885376%, 10.906982%)" offset="0.517858"/><stop stop-opacity="1" stop-color="rgb(82.313538%, 41.853333%, 10.804749%)" offset="0.523438"/><stop stop-opacity="1" stop-color="rgb(82.180786%, 41.819763%, 10.702515%)" offset="0.53125"/><stop stop-opacity="1" stop-color="rgb(81.913757%, 41.752625%, 10.498047%)" offset="0.539063"/><stop stop-opacity="1" stop-color="rgb(81.648254%, 41.685486%, 10.293579%)" offset="0.546875"/><stop stop-opacity="1" stop-color="rgb(81.381226%, 41.619873%, 10.087585%)" offset="0.554688"/><stop stop-opacity="1" stop-color="rgb(81.115723%, 41.552734%, 9.883118%)" offset="0.5625"/><stop stop-opacity="1" stop-color="rgb(80.848694%, 41.487122%, 9.67865%)" offset="0.570312"/><stop stop-opacity="1" stop-color="rgb(80.583191%, 41.419983%, 9.472656%)" offset="0.578125"/><stop stop-opacity="1" stop-color="rgb(80.316162%, 41.352844%, 9.268188%)" offset="0.585938"/><stop stop-opacity="1" stop-color="rgb(80.050659%, 41.287231%, 9.063721%)" offset="0.59375"/><stop stop-opacity="1" stop-color="rgb(79.78363%, 41.220093%, 8.859253%)" offset="0.601563"/><stop stop-opacity="1" stop-color="rgb(79.518127%, 41.152954%, 8.653259%)" offset="0.609375"/><stop stop-opacity="1" stop-color="rgb(79.251099%, 41.087341%, 8.448792%)" offset="0.617188"/><stop stop-opacity="1" stop-color="rgb(78.985596%, 41.020203%, 8.244324%)" offset="0.625"/><stop stop-opacity="1" stop-color="rgb(78.718567%, 40.95459%, 8.03833%)" offset="0.632812"/><stop stop-opacity="1" stop-color="rgb(78.453064%, 40.887451%, 7.833862%)" offset="0.640625"/><stop stop-opacity="1" stop-color="rgb(78.186035%, 40.820312%, 7.629395%)" offset="0.648438"/><stop stop-opacity="1" stop-color="rgb(77.920532%, 40.7547%, 7.424927%)" offset="0.65625"/><stop stop-opacity="1" stop-color="rgb(77.653503%, 40.687561%, 7.218933%)" offset="0.664063"/><stop stop-opacity="1" stop-color="rgb(77.388%, 40.621948%, 7.014465%)" offset="0.671875"/><stop stop-opacity="1" stop-color="rgb(77.120972%, 40.55481%, 6.809998%)" offset="0.679688"/><stop stop-opacity="1" stop-color="rgb(76.855469%, 40.487671%, 6.60553%)" offset="0.6875"/><stop stop-opacity="1" stop-color="rgb(76.58844%, 40.422058%, 6.399536%)" offset="0.695312"/><stop stop-opacity="1" stop-color="rgb(76.322937%, 40.354919%, 6.195068%)" offset="0.703125"/><stop stop-opacity="1" stop-color="rgb(76.057434%, 40.287781%, 5.990601%)" offset="0.710938"/><stop stop-opacity="1" stop-color="rgb(75.790405%, 40.222168%, 5.784607%)" offset="0.71875"/><stop stop-opacity="1" stop-color="rgb(75.524902%, 40.155029%, 5.580139%)" offset="0.726563"/><stop stop-opacity="1" stop-color="rgb(75.257874%, 40.089417%, 5.375671%)" offset="0.734375"/><stop stop-opacity="1" stop-color="rgb(75.012207%, 40.026855%, 5.186462%)" offset="0.75"/><stop stop-opacity="1" stop-color="rgb(74.899292%, 39.99939%, 5.099487%)" offset="1"/></linearGradient></defs><g clip-path="url(#0c4b757451)"><g clip-path="url(#07b1b921cd)"><path fill="url(#d9548f8536)" d="M 0.527344 25.566406 L 0.527344 349.472656 L 374.351562 349.472656 L 374.351562 25.566406 Z M 0.527344 25.566406 " fill-rule="nonzero"/></g></g><path fill="#000000" d="M 126.636719 102.179688 L 248.628906 102.179688 L 237.535156 227.445312 L 187.503906 241.601562 L 137.746094 227.4375 Z M 225.917969 127.8125 L 149.355469 127.796875 L 150.589844 143.023438 L 209.410156 143.039062 L 207.933594 158.820312 L 169.355469 158.820312 L 170.753906 173.765625 L 206.667969 173.765625 L 204.542969 194.234375 L 187.636719 198.90625 L 170.472656 194.195312 L 169.371094 181.9375 L 154.214844 181.9375 L 155.902344 204.335938 L 187.636719 214.21875 L 218.847656 205.335938 Z M 225.917969 127.8125 " fill-opacity="1" fill-rule="nonzero"/><g fill="#000000" fill-opacity="1"><g transform="translate(135.562496, 302.096932)"><g><path d="M 1.3125 -14.078125 C 1.3125 -16.847656 1.910156 -19.320312 3.109375 -21.5 C 4.316406 -23.675781 5.992188 -25.367188 8.140625 -26.578125 C 10.285156 -27.796875 12.71875 -28.40625 15.4375 -28.40625 C 18.769531 -28.40625 21.625 -27.523438 24 -25.765625 C 26.375 -24.003906 27.960938 -21.601562 28.765625 -18.5625 L 21.234375 -18.5625 C 20.679688 -19.726562 19.890625 -20.617188 18.859375 -21.234375 C 17.828125 -21.847656 16.660156 -22.15625 15.359375 -22.15625 C 13.253906 -22.15625 11.546875 -21.421875 10.234375 -19.953125 C 8.929688 -18.492188 8.28125 -16.535156 8.28125 -14.078125 C 8.28125 -11.628906 8.929688 -9.671875 10.234375 -8.203125 C 11.546875 -6.734375 13.253906 -6 15.359375 -6 C 16.660156 -6 17.828125 -6.304688 18.859375 -6.921875 C 19.890625 -7.535156 20.679688 -8.425781 21.234375 -9.59375 L 28.765625 -9.59375 C 27.960938 -6.5625 26.375 -4.171875 24 -2.421875 C 21.625 -0.671875 18.769531 0.203125 15.4375 0.203125 C 12.71875 0.203125 10.285156 -0.398438 8.140625 -1.609375 C 5.992188 -2.828125 4.316406 -4.515625 3.109375 -6.671875 C 1.910156 -8.835938 1.3125 -11.304688 1.3125 -14.078125 Z M 1.3125 -14.078125 "/></g></g></g><g fill="#000000" fill-opacity="1"><g transform="translate(166.039472, 302.096932)"><g><path d="M 12.640625 0.28125 C 10.585938 0.28125 8.75 -0.0507812 7.125 -0.71875 C 5.5 -1.382812 4.195312 -2.367188 3.21875 -3.671875 C 2.25 -4.984375 1.738281 -6.5625 1.6875 -8.40625 L 8.953125 -8.40625 C 9.066406 -7.363281 9.425781 -6.566406 10.03125 -6.015625 C 10.644531 -5.472656 11.445312 -5.203125 12.4375 -5.203125 C 13.445312 -5.203125 14.242188 -5.429688 14.828125 -5.890625 C 15.421875 -6.359375 15.71875 -7.007812 15.71875 -7.84375 C 15.71875 -8.53125 15.484375 -9.097656 15.015625 -9.546875 C 14.546875 -10.003906 13.972656 -10.378906 13.296875 -10.671875 C 12.617188 -10.972656 11.65625 -11.3125 10.40625 -11.6875 C 8.59375 -12.238281 7.109375 -12.796875 5.953125 -13.359375 C 4.804688 -13.921875 3.820312 -14.75 3 -15.84375 C 2.175781 -16.9375 1.765625 -18.363281 1.765625 -20.125 C 1.765625 -22.738281 2.707031 -24.785156 4.59375 -26.265625 C 6.488281 -27.742188 8.957031 -28.484375 12 -28.484375 C 15.09375 -28.484375 17.582031 -27.742188 19.46875 -26.265625 C 21.363281 -24.785156 22.378906 -22.722656 22.515625 -20.078125 L 15.125 -20.078125 C 15.070312 -20.984375 14.738281 -21.695312 14.125 -22.21875 C 13.507812 -22.738281 12.722656 -23 11.765625 -23 C 10.929688 -23 10.257812 -22.78125 9.75 -22.34375 C 9.25 -21.90625 9 -21.269531 9 -20.4375 C 9 -19.53125 9.425781 -18.820312 10.28125 -18.3125 C 11.132812 -17.8125 12.46875 -17.269531 14.28125 -16.6875 C 16.09375 -16.070312 17.566406 -15.484375 18.703125 -14.921875 C 19.835938 -14.359375 20.816406 -13.539062 21.640625 -12.46875 C 22.460938 -11.40625 22.875 -10.035156 22.875 -8.359375 C 22.875 -6.753906 22.46875 -5.300781 21.65625 -4 C 20.84375 -2.695312 19.660156 -1.65625 18.109375 -0.875 C 16.566406 -0.101562 14.742188 0.28125 12.640625 0.28125 Z M 12.640625 0.28125 "/></g></g></g><g fill="#000000" fill-opacity="1"><g transform="translate(190.637024, 302.096932)"><g><path d="M 12.640625 0.28125 C 10.585938 0.28125 8.75 -0.0507812 7.125 -0.71875 C 5.5 -1.382812 4.195312 -2.367188 3.21875 -3.671875 C 2.25 -4.984375 1.738281 -6.5625 1.6875 -8.40625 L 8.953125 -8.40625 C 9.066406 -7.363281 9.425781 -6.566406 10.03125 -6.015625 C 10.644531 -5.472656 11.445312 -5.203125 12.4375 -5.203125 C 13.445312 -5.203125 14.242188 -5.429688 14.828125 -5.890625 C 15.421875 -6.359375 15.71875 -7.007812 15.71875 -7.84375 C 15.71875 -8.53125 15.484375 -9.097656 15.015625 -9.546875 C 14.546875 -10.003906 13.972656 -10.378906 13.296875 -10.671875 C 12.617188 -10.972656 11.65625 -11.3125 10.40625 -11.6875 C 8.59375 -12.238281 7.109375 -12.796875 5.953125 -13.359375 C 4.804688 -13.921875 3.820312 -14.75 3 -15.84375 C 2.175781 -16.9375 1.765625 -18.363281 1.765625 -20.125 C 1.765625 -22.738281 2.707031 -24.785156 4.59375 -26.265625 C 6.488281 -27.742188 8.957031 -28.484375 12 -28.484375 C 15.09375 -28.484375 17.582031 -27.742188 19.46875 -26.265625 C 21.363281 -24.785156 22.378906 -22.722656 22.515625 -20.078125 L 15.125 -20.078125 C 15.070312 -20.984375 14.738281 -21.695312 14.125 -22.21875 C 13.507812 -22.738281 12.722656 -23 11.765625 -23 C 10.929688 -23 10.257812 -22.78125 9.75 -22.34375 C 9.25 -21.90625 9 -21.269531 9 -20.4375 C 9 -19.53125 9.425781 -18.820312 10.28125 -18.3125 C 11.132812 -17.8125 12.46875 -17.269531 14.28125 -16.6875 C 16.09375 -16.070312 17.566406 -15.484375 18.703125 -14.921875 C 19.835938 -14.359375 20.816406 -13.539062 21.640625 -12.46875 C 22.460938 -11.40625 22.875 -10.035156 22.875 -8.359375 C 22.875 -6.753906 22.46875 -5.300781 21.65625 -4 C 20.84375 -2.695312 19.660156 -1.65625 18.109375 -0.875 C 16.566406 -0.101562 14.742188 0.28125 12.640625 0.28125 Z M 12.640625 0.28125 "/></g></g></g><g fill="#000000" fill-opacity="1"><g transform="translate(215.234576, 302.096932)"><g><path d="M 2.046875 -20.953125 C 2.148438 -23.804688 3.082031 -26.003906 4.84375 -27.546875 C 6.601562 -29.097656 8.988281 -29.875 12 -29.875 C 14 -29.875 15.710938 -29.523438 17.140625 -28.828125 C 18.566406 -28.140625 19.644531 -27.195312 20.375 -26 C 21.113281 -24.800781 21.484375 -23.453125 21.484375 -21.953125 C 21.484375 -20.191406 21.039062 -18.757812 20.15625 -17.65625 C 19.28125 -16.550781 18.253906 -15.800781 17.078125 -15.40625 L 17.078125 -15.234375 C 18.597656 -14.734375 19.796875 -13.894531 20.671875 -12.71875 C 21.554688 -11.539062 22 -10.035156 22 -8.203125 C 22 -6.546875 21.617188 -5.082031 20.859375 -3.8125 C 20.097656 -2.550781 18.988281 -1.5625 17.53125 -0.84375 C 16.082031 -0.125 14.359375 0.234375 12.359375 0.234375 C 9.160156 0.234375 6.609375 -0.550781 4.703125 -2.125 C 2.796875 -3.695312 1.789062 -6.066406 1.6875 -9.234375 L 8.3125 -9.234375 C 8.34375 -8.066406 8.675781 -7.140625 9.3125 -6.453125 C 9.957031 -5.773438 10.894531 -5.4375 12.125 -5.4375 C 13.164062 -5.4375 13.972656 -5.734375 14.546875 -6.328125 C 15.117188 -6.929688 15.40625 -7.726562 15.40625 -8.71875 C 15.40625 -10 14.992188 -10.925781 14.171875 -11.5 C 13.359375 -12.070312 12.0625 -12.359375 10.28125 -12.359375 L 9 -12.359375 L 9 -17.921875 L 10.28125 -17.921875 C 11.632812 -17.921875 12.734375 -18.148438 13.578125 -18.609375 C 14.421875 -19.078125 14.84375 -19.914062 14.84375 -21.125 C 14.84375 -22.082031 14.570312 -22.828125 14.03125 -23.359375 C 13.5 -23.890625 12.769531 -24.15625 11.84375 -24.15625 C 10.820312 -24.15625 10.066406 -23.847656 9.578125 -23.234375 C 9.085938 -22.617188 8.800781 -21.859375 8.71875 -20.953125 Z M 2.046875 -20.953125 "/></g></g></g></svg>