<svg xmlns="http://www.w3.org/2000/svg" xmlns:xlink="http://www.w3.org/1999/xlink" width="500" zoomAndPan="magnify" viewBox="0 0 375 374.999991" height="500" preserveAspectRatio="xMidYMid meet" version="1.0"><defs><g/><clipPath id="4c77ae5313"><path d="M 0 25.566406 L 375 25.566406 L 375 349.566406 L 0 349.566406 Z M 0 25.566406 " clip-rule="nonzero"/></clipPath><clipPath id="b554ed9dda"><path d="M 374.351562 187.519531 L 280.890625 349.472656 L 93.988281 349.472656 L 0.527344 187.519531 L 93.988281 25.566406 L 280.914062 25.566406 Z M 374.351562 187.519531 " clip-rule="nonzero"/></clipPath><linearGradient x1="8.01119" gradientTransform="matrix(2.431377, 0, 0, 2.432432, 0.527129, 25.568209)" y1="-7.45232" x2="145.742984" gradientUnits="userSpaceOnUse" y2="140.608432" id="0a47c98363"><stop stop-opacity="1" stop-color="rgb(95.298767%, 45.098877%, 20.799255%)" offset="0"/><stop stop-opacity="1" stop-color="rgb(95.298767%, 45.098877%, 20.799255%)" offset="0.125"/><stop stop-opacity="1" stop-color="rgb(95.298767%, 45.098877%, 20.799255%)" offset="0.140625"/><stop stop-opacity="1" stop-color="rgb(95.195007%, 45.072937%, 20.71991%)" offset="0.148438"/><stop stop-opacity="1" stop-color="rgb(94.958496%, 45.013428%, 20.536804%)" offset="0.15625"/><stop stop-opacity="1" stop-color="rgb(94.692993%, 44.947815%, 20.332336%)" offset="0.164062"/><stop stop-opacity="1" stop-color="rgb(94.425964%, 44.880676%, 20.127869%)" offset="0.171875"/><stop stop-opacity="1" stop-color="rgb(94.160461%, 44.815063%, 19.923401%)" offset="0.179688"/><stop stop-opacity="1" stop-color="rgb(93.893433%, 44.747925%, 19.717407%)" offset="0.1875"/><stop stop-opacity="1" stop-color="rgb(93.62793%, 44.680786%, 19.512939%)" offset="0.195312"/><stop stop-opacity="1" stop-color="rgb(93.362427%, 44.615173%, 19.308472%)" offset="0.203125"/><stop stop-opacity="1" stop-color="rgb(93.095398%, 44.548035%, 19.104004%)" offset="0.210938"/><stop stop-opacity="1" stop-color="rgb(92.829895%, 44.480896%, 18.89801%)" offset="0.21875"/><stop stop-opacity="1" stop-color="rgb(92.562866%, 44.415283%, 18.693542%)" offset="0.226563"/><stop stop-opacity="1" stop-color="rgb(92.297363%, 44.348145%, 18.489075%)" offset="0.234375"/><stop stop-opacity="1" stop-color="rgb(92.030334%, 44.282532%, 18.283081%)" offset="0.242188"/><stop stop-opacity="1" stop-color="rgb(91.764832%, 44.215393%, 18.078613%)" offset="0.25"/><stop stop-opacity="1" stop-color="rgb(91.497803%, 44.148254%, 17.874146%)" offset="0.257812"/><stop stop-opacity="1" stop-color="rgb(91.2323%, 44.082642%, 17.669678%)" offset="0.265625"/><stop stop-opacity="1" stop-color="rgb(90.965271%, 44.015503%, 17.463684%)" offset="0.273438"/><stop stop-opacity="1" stop-color="rgb(90.699768%, 43.948364%, 17.259216%)" offset="0.28125"/><stop stop-opacity="1" stop-color="rgb(90.432739%, 43.882751%, 17.054749%)" offset="0.289063"/><stop stop-opacity="1" stop-color="rgb(90.167236%, 43.815613%, 16.848755%)" offset="0.296875"/><stop stop-opacity="1" stop-color="rgb(89.900208%, 43.75%, 16.644287%)" offset="0.304688"/><stop stop-opacity="1" stop-color="rgb(89.634705%, 43.682861%, 16.439819%)" offset="0.3125"/><stop stop-opacity="1" stop-color="rgb(89.367676%, 43.615723%, 16.235352%)" offset="0.320313"/><stop stop-opacity="1" stop-color="rgb(89.102173%, 43.55011%, 16.029358%)" offset="0.328125"/><stop stop-opacity="1" stop-color="rgb(88.835144%, 43.482971%, 15.82489%)" offset="0.335938"/><stop stop-opacity="1" stop-color="rgb(88.569641%, 43.417358%, 15.620422%)" offset="0.34375"/><stop stop-opacity="1" stop-color="rgb(88.302612%, 43.35022%, 15.414429%)" offset="0.351563"/><stop stop-opacity="1" stop-color="rgb(88.037109%, 43.283081%, 15.209961%)" offset="0.359375"/><stop stop-opacity="1" stop-color="rgb(87.771606%, 43.217468%, 15.005493%)" offset="0.367188"/><stop stop-opacity="1" stop-color="rgb(87.504578%, 43.15033%, 14.801025%)" offset="0.375"/><stop stop-opacity="1" stop-color="rgb(87.239075%, 43.083191%, 14.595032%)" offset="0.382813"/><stop stop-opacity="1" stop-color="rgb(86.972046%, 43.017578%, 14.390564%)" offset="0.390625"/><stop stop-opacity="1" stop-color="rgb(86.706543%, 42.950439%, 14.186096%)" offset="0.398438"/><stop stop-opacity="1" stop-color="rgb(86.439514%, 42.884827%, 13.981628%)" offset="0.40625"/><stop stop-opacity="1" stop-color="rgb(86.174011%, 42.817688%, 13.775635%)" offset="0.414063"/><stop stop-opacity="1" stop-color="rgb(85.906982%, 42.750549%, 13.571167%)" offset="0.421875"/><stop stop-opacity="1" stop-color="rgb(85.641479%, 42.684937%, 13.366699%)" offset="0.429688"/><stop stop-opacity="1" stop-color="rgb(85.374451%, 42.617798%, 13.160706%)" offset="0.4375"/><stop stop-opacity="1" stop-color="rgb(85.108948%, 42.550659%, 12.956238%)" offset="0.445313"/><stop stop-opacity="1" stop-color="rgb(84.841919%, 42.485046%, 12.75177%)" offset="0.453125"/><stop stop-opacity="1" stop-color="rgb(84.576416%, 42.417908%, 12.547302%)" offset="0.460938"/><stop stop-opacity="1" stop-color="rgb(84.309387%, 42.352295%, 12.341309%)" offset="0.46875"/><stop stop-opacity="1" stop-color="rgb(84.043884%, 42.285156%, 12.136841%)" offset="0.476563"/><stop stop-opacity="1" stop-color="rgb(83.776855%, 42.218018%, 11.932373%)" offset="0.482142"/><stop stop-opacity="1" stop-color="rgb(83.644104%, 42.185974%, 11.830139%)" offset="0.484375"/><stop stop-opacity="1" stop-color="rgb(83.511353%, 42.152405%, 11.726379%)" offset="0.492188"/><stop stop-opacity="1" stop-color="rgb(83.244324%, 42.085266%, 11.521912%)" offset="0.5"/><stop stop-opacity="1" stop-color="rgb(82.978821%, 42.019653%, 11.317444%)" offset="0.507813"/><stop stop-opacity="1" stop-color="rgb(82.711792%, 41.952515%, 11.112976%)" offset="0.515625"/><stop stop-opacity="1" stop-color="rgb(82.446289%, 41.885376%, 10.906982%)" offset="0.517858"/><stop stop-opacity="1" stop-color="rgb(82.313538%, 41.853333%, 10.804749%)" offset="0.523438"/><stop stop-opacity="1" stop-color="rgb(82.180786%, 41.819763%, 10.702515%)" offset="0.53125"/><stop stop-opacity="1" stop-color="rgb(81.913757%, 41.752625%, 10.498047%)" offset="0.539063"/><stop stop-opacity="1" stop-color="rgb(81.648254%, 41.685486%, 10.293579%)" offset="0.546875"/><stop stop-opacity="1" stop-color="rgb(81.381226%, 41.619873%, 10.087585%)" offset="0.554688"/><stop stop-opacity="1" stop-color="rgb(81.115723%, 41.552734%, 9.883118%)" offset="0.5625"/><stop stop-opacity="1" stop-color="rgb(80.848694%, 41.487122%, 9.67865%)" offset="0.570312"/><stop stop-opacity="1" stop-color="rgb(80.583191%, 41.419983%, 9.472656%)" offset="0.578125"/><stop stop-opacity="1" stop-color="rgb(80.316162%, 41.352844%, 9.268188%)" offset="0.585938"/><stop stop-opacity="1" stop-color="rgb(80.050659%, 41.287231%, 9.063721%)" offset="0.59375"/><stop stop-opacity="1" stop-color="rgb(79.78363%, 41.220093%, 8.859253%)" offset="0.601563"/><stop stop-opacity="1" stop-color="rgb(79.518127%, 41.152954%, 8.653259%)" offset="0.609375"/><stop stop-opacity="1" stop-color="rgb(79.251099%, 41.087341%, 8.448792%)" offset="0.617188"/><stop stop-opacity="1" stop-color="rgb(78.985596%, 41.020203%, 8.244324%)" offset="0.625"/><stop stop-opacity="1" stop-color="rgb(78.718567%, 40.95459%, 8.03833%)" offset="0.632812"/><stop stop-opacity="1" stop-color="rgb(78.453064%, 40.887451%, 7.833862%)" offset="0.640625"/><stop stop-opacity="1" stop-color="rgb(78.186035%, 40.820312%, 7.629395%)" offset="0.648438"/><stop stop-opacity="1" stop-color="rgb(77.920532%, 40.7547%, 7.424927%)" offset="0.65625"/><stop stop-opacity="1" stop-color="rgb(77.653503%, 40.687561%, 7.218933%)" offset="0.664063"/><stop stop-opacity="1" stop-color="rgb(77.388%, 40.621948%, 7.014465%)" offset="0.671875"/><stop stop-opacity="1" stop-color="rgb(77.120972%, 40.55481%, 6.809998%)" offset="0.679688"/><stop stop-opacity="1" stop-color="rgb(76.855469%, 40.487671%, 6.60553%)" offset="0.6875"/><stop stop-opacity="1" stop-color="rgb(76.58844%, 40.422058%, 6.399536%)" offset="0.695312"/><stop stop-opacity="1" stop-color="rgb(76.322937%, 40.354919%, 6.195068%)" offset="0.703125"/><stop stop-opacity="1" stop-color="rgb(76.057434%, 40.287781%, 5.990601%)" offset="0.710938"/><stop stop-opacity="1" stop-color="rgb(75.790405%, 40.222168%, 5.784607%)" offset="0.71875"/><stop stop-opacity="1" stop-color="rgb(75.524902%, 40.155029%, 5.580139%)" offset="0.726563"/><stop stop-opacity="1" stop-color="rgb(75.257874%, 40.089417%, 5.375671%)" offset="0.734375"/><stop stop-opacity="1" stop-color="rgb(75.012207%, 40.026855%, 5.186462%)" offset="0.75"/><stop stop-opacity="1" stop-color="rgb(74.899292%, 39.99939%, 5.099487%)" offset="1"/></linearGradient></defs><g clip-path="url(#4c77ae5313)"><g clip-path="url(#b554ed9dda)"><path fill="url(#0a47c98363)" d="M 0.527344 25.566406 L 0.527344 349.472656 L 374.351562 349.472656 L 374.351562 25.566406 Z M 0.527344 25.566406 " fill-rule="nonzero"/></g></g><path fill="#000000" d="M 250.136719 115.808594 C 250.136719 98.871094 221.519531 84.558594 187.636719 84.558594 C 153.753906 84.558594 125.136719 98.871094 125.136719 115.808594 L 125.136719 131.433594 C 125.136719 148.371094 153.753906 162.683594 187.636719 162.683594 C 221.519531 162.683594 250.136719 148.371094 250.136719 131.433594 Z M 187.636719 217.371094 C 153.753906 217.371094 125.136719 203.058594 125.136719 186.121094 L 125.136719 209.558594 C 125.136719 226.496094 153.753906 240.808594 187.636719 240.808594 C 221.519531 240.808594 250.136719 226.496094 250.136719 209.558594 L 250.136719 186.121094 C 250.136719 203.058594 221.519531 217.371094 187.636719 217.371094 Z M 187.636719 217.371094 " fill-opacity="1" fill-rule="nonzero"/><path fill="#000000" d="M 250.136719 147.058594 C 250.136719 163.996094 221.519531 178.308594 187.636719 178.308594 C 153.753906 178.308594 125.136719 163.996094 125.136719 147.058594 L 125.136719 170.496094 C 125.136719 187.433594 153.753906 201.746094 187.636719 201.746094 C 221.519531 201.746094 250.136719 187.433594 250.136719 170.496094 Z M 250.136719 147.058594 " fill-opacity="1" fill-rule="nonzero"/><g fill="#000000" fill-opacity="1"><g transform="translate(118.124997, 304.437402)"><g><path d="M 34.28125 -28.078125 L 34.28125 0 L 27.4375 0 L 27.4375 -16.84375 L 21.15625 0 L 15.640625 0 L 9.3125 -16.875 L 9.3125 0 L 2.484375 0 L 2.484375 -28.078125 L 10.5625 -28.078125 L 18.4375 -8.640625 L 26.234375 -28.078125 Z M 34.28125 -28.078125 "/></g></g></g><g fill="#000000" fill-opacity="1"><g transform="translate(154.841349, 304.437402)"><g><path d="M 26.5625 -28.078125 L 16.84375 -9.28125 L 16.84375 0 L 10 0 L 10 -9.28125 L 0.28125 -28.078125 L 8.046875 -28.078125 L 13.484375 -16.3125 L 18.875 -28.078125 Z M 26.5625 -28.078125 "/></g></g></g><g fill="#000000" fill-opacity="1"><g transform="translate(181.678681, 304.437402)"><g><path d="M 12.640625 0.28125 C 10.585938 0.28125 8.75 -0.0507812 7.125 -0.71875 C 5.5 -1.382812 4.195312 -2.367188 3.21875 -3.671875 C 2.25 -4.984375 1.738281 -6.5625 1.6875 -8.40625 L 8.953125 -8.40625 C 9.066406 -7.363281 9.425781 -6.566406 10.03125 -6.015625 C 10.644531 -5.472656 11.445312 -5.203125 12.4375 -5.203125 C 13.445312 -5.203125 14.242188 -5.429688 14.828125 -5.890625 C 15.421875 -6.359375 15.71875 -7.007812 15.71875 -7.84375 C 15.71875 -8.53125 15.484375 -9.097656 15.015625 -9.546875 C 14.546875 -10.003906 13.972656 -10.378906 13.296875 -10.671875 C 12.617188 -10.972656 11.65625 -11.3125 10.40625 -11.6875 C 8.59375 -12.238281 7.109375 -12.796875 5.953125 -13.359375 C 4.804688 -13.921875 3.820312 -14.75 3 -15.84375 C 2.175781 -16.9375 1.765625 -18.363281 1.765625 -20.125 C 1.765625 -22.738281 2.707031 -24.785156 4.59375 -26.265625 C 6.488281 -27.742188 8.957031 -28.484375 12 -28.484375 C 15.09375 -28.484375 17.582031 -27.742188 19.46875 -26.265625 C 21.363281 -24.785156 22.378906 -22.722656 22.515625 -20.078125 L 15.125 -20.078125 C 15.070312 -20.984375 14.738281 -21.695312 14.125 -22.21875 C 13.507812 -22.738281 12.722656 -23 11.765625 -23 C 10.929688 -23 10.257812 -22.78125 9.75 -22.34375 C 9.25 -21.90625 9 -21.269531 9 -20.4375 C 9 -19.53125 9.425781 -18.820312 10.28125 -18.3125 C 11.132812 -17.8125 12.46875 -17.269531 14.28125 -16.6875 C 16.09375 -16.070312 17.566406 -15.484375 18.703125 -14.921875 C 19.835938 -14.359375 20.816406 -13.539062 21.640625 -12.46875 C 22.460938 -11.40625 22.875 -10.035156 22.875 -8.359375 C 22.875 -6.753906 22.46875 -5.300781 21.65625 -4 C 20.84375 -2.695312 19.660156 -1.65625 18.109375 -0.875 C 16.566406 -0.101562 14.742188 0.28125 12.640625 0.28125 Z M 12.640625 0.28125 "/></g></g></g><g fill="#000000" fill-opacity="1"><g transform="translate(206.276233, 304.437402)"><g><path d="M 22.484375 4.796875 L 18.875 -0.046875 C 17.8125 0.171875 16.773438 0.28125 15.765625 0.28125 C 13.117188 0.28125 10.695312 -0.332031 8.5 -1.5625 C 6.300781 -2.789062 4.550781 -4.503906 3.25 -6.703125 C 1.957031 -8.898438 1.3125 -11.375 1.3125 -14.125 C 1.3125 -16.863281 1.957031 -19.328125 3.25 -21.515625 C 4.550781 -23.703125 6.300781 -25.410156 8.5 -26.640625 C 10.695312 -27.867188 13.117188 -28.484375 15.765625 -28.484375 C 18.398438 -28.484375 20.816406 -27.867188 23.015625 -26.640625 C 25.210938 -25.410156 26.945312 -23.703125 28.21875 -21.515625 C 29.488281 -19.328125 30.125 -16.863281 30.125 -14.125 C 30.125 -11.71875 29.632812 -9.519531 28.65625 -7.53125 C 27.6875 -5.550781 26.332031 -3.90625 24.59375 -2.59375 L 30.765625 4.796875 Z M 8.3125 -14.125 C 8.3125 -11.644531 8.984375 -9.660156 10.328125 -8.171875 C 11.679688 -6.691406 13.492188 -5.953125 15.765625 -5.953125 C 18.003906 -5.953125 19.796875 -6.695312 21.140625 -8.1875 C 22.484375 -9.6875 23.15625 -11.664062 23.15625 -14.125 C 23.15625 -16.601562 22.484375 -18.582031 21.140625 -20.0625 C 19.796875 -21.539062 18.003906 -22.28125 15.765625 -22.28125 C 13.492188 -22.28125 11.679688 -21.546875 10.328125 -20.078125 C 8.984375 -18.609375 8.3125 -16.625 8.3125 -14.125 Z M 8.3125 -14.125 "/></g></g></g><g fill="#000000" fill-opacity="1"><g transform="translate(237.793099, 304.437402)"><g><path d="M 9.3125 -5.28125 L 18.28125 -5.28125 L 18.28125 0 L 2.484375 0 L 2.484375 -28.078125 L 9.3125 -28.078125 Z M 9.3125 -5.28125 "/></g></g></g></svg>