<svg xmlns="http://www.w3.org/2000/svg" xmlns:xlink="http://www.w3.org/1999/xlink" width="500" zoomAndPan="magnify" viewBox="0 0 375 374.999991" height="500" preserveAspectRatio="xMidYMid meet" version="1.0"><defs><g/><clipPath id="5358e09215"><path d="M 0 25.566406 L 375 25.566406 L 375 349.566406 L 0 349.566406 Z M 0 25.566406 " clip-rule="nonzero"/></clipPath><clipPath id="0c2ea103f3"><path d="M 374.351562 187.519531 L 280.890625 349.472656 L 93.988281 349.472656 L 0.527344 187.519531 L 93.988281 25.566406 L 280.914062 25.566406 Z M 374.351562 187.519531 " clip-rule="nonzero"/></clipPath><linearGradient x1="8.01119" gradientTransform="matrix(2.431377, 0, 0, 2.432432, 0.527129, 25.568209)" y1="-7.45232" x2="145.742984" gradientUnits="userSpaceOnUse" y2="140.608432" id="0669854de0"><stop stop-opacity="1" stop-color="rgb(95.298767%, 45.098877%, 20.799255%)" offset="0"/><stop stop-opacity="1" stop-color="rgb(95.298767%, 45.098877%, 20.799255%)" offset="0.125"/><stop stop-opacity="1" stop-color="rgb(95.298767%, 45.098877%, 20.799255%)" offset="0.140625"/><stop stop-opacity="1" stop-color="rgb(95.195007%, 45.072937%, 20.71991%)" offset="0.148438"/><stop stop-opacity="1" stop-color="rgb(94.958496%, 45.013428%, 20.536804%)" offset="0.15625"/><stop stop-opacity="1" stop-color="rgb(94.692993%, 44.947815%, 20.332336%)" offset="0.164062"/><stop stop-opacity="1" stop-color="rgb(94.425964%, 44.880676%, 20.127869%)" offset="0.171875"/><stop stop-opacity="1" stop-color="rgb(94.160461%, 44.815063%, 19.923401%)" offset="0.179688"/><stop stop-opacity="1" stop-color="rgb(93.893433%, 44.747925%, 19.717407%)" offset="0.1875"/><stop stop-opacity="1" stop-color="rgb(93.62793%, 44.680786%, 19.512939%)" offset="0.195312"/><stop stop-opacity="1" stop-color="rgb(93.362427%, 44.615173%, 19.308472%)" offset="0.203125"/><stop stop-opacity="1" stop-color="rgb(93.095398%, 44.548035%, 19.104004%)" offset="0.210938"/><stop stop-opacity="1" stop-color="rgb(92.829895%, 44.480896%, 18.89801%)" offset="0.21875"/><stop stop-opacity="1" stop-color="rgb(92.562866%, 44.415283%, 18.693542%)" offset="0.226563"/><stop stop-opacity="1" stop-color="rgb(92.297363%, 44.348145%, 18.489075%)" offset="0.234375"/><stop stop-opacity="1" stop-color="rgb(92.030334%, 44.282532%, 18.283081%)" offset="0.242188"/><stop stop-opacity="1" stop-color="rgb(91.764832%, 44.215393%, 18.078613%)" offset="0.25"/><stop stop-opacity="1" stop-color="rgb(91.497803%, 44.148254%, 17.874146%)" offset="0.257812"/><stop stop-opacity="1" stop-color="rgb(91.2323%, 44.082642%, 17.669678%)" offset="0.265625"/><stop stop-opacity="1" stop-color="rgb(90.965271%, 44.015503%, 17.463684%)" offset="0.273438"/><stop stop-opacity="1" stop-color="rgb(90.699768%, 43.948364%, 17.259216%)" offset="0.28125"/><stop stop-opacity="1" stop-color="rgb(90.432739%, 43.882751%, 17.054749%)" offset="0.289063"/><stop stop-opacity="1" stop-color="rgb(90.167236%, 43.815613%, 16.848755%)" offset="0.296875"/><stop stop-opacity="1" stop-color="rgb(89.900208%, 43.75%, 16.644287%)" offset="0.304688"/><stop stop-opacity="1" stop-color="rgb(89.634705%, 43.682861%, 16.439819%)" offset="0.3125"/><stop stop-opacity="1" stop-color="rgb(89.367676%, 43.615723%, 16.235352%)" offset="0.320313"/><stop stop-opacity="1" stop-color="rgb(89.102173%, 43.55011%, 16.029358%)" offset="0.328125"/><stop stop-opacity="1" stop-color="rgb(88.835144%, 43.482971%, 15.82489%)" offset="0.335938"/><stop stop-opacity="1" stop-color="rgb(88.569641%, 43.417358%, 15.620422%)" offset="0.34375"/><stop stop-opacity="1" stop-color="rgb(88.302612%, 43.35022%, 15.414429%)" offset="0.351563"/><stop stop-opacity="1" stop-color="rgb(88.037109%, 43.283081%, 15.209961%)" offset="0.359375"/><stop stop-opacity="1" stop-color="rgb(87.771606%, 43.217468%, 15.005493%)" offset="0.367188"/><stop stop-opacity="1" stop-color="rgb(87.504578%, 43.15033%, 14.801025%)" offset="0.375"/><stop stop-opacity="1" stop-color="rgb(87.239075%, 43.083191%, 14.595032%)" offset="0.382813"/><stop stop-opacity="1" stop-color="rgb(86.972046%, 43.017578%, 14.390564%)" offset="0.390625"/><stop stop-opacity="1" stop-color="rgb(86.706543%, 42.950439%, 14.186096%)" offset="0.398438"/><stop stop-opacity="1" stop-color="rgb(86.439514%, 42.884827%, 13.981628%)" offset="0.40625"/><stop stop-opacity="1" stop-color="rgb(86.174011%, 42.817688%, 13.775635%)" offset="0.414063"/><stop stop-opacity="1" stop-color="rgb(85.906982%, 42.750549%, 13.571167%)" offset="0.421875"/><stop stop-opacity="1" stop-color="rgb(85.641479%, 42.684937%, 13.366699%)" offset="0.429688"/><stop stop-opacity="1" stop-color="rgb(85.374451%, 42.617798%, 13.160706%)" offset="0.4375"/><stop stop-opacity="1" stop-color="rgb(85.108948%, 42.550659%, 12.956238%)" offset="0.445313"/><stop stop-opacity="1" stop-color="rgb(84.841919%, 42.485046%, 12.75177%)" offset="0.453125"/><stop stop-opacity="1" stop-color="rgb(84.576416%, 42.417908%, 12.547302%)" offset="0.460938"/><stop stop-opacity="1" stop-color="rgb(84.309387%, 42.352295%, 12.341309%)" offset="0.46875"/><stop stop-opacity="1" stop-color="rgb(84.043884%, 42.285156%, 12.136841%)" offset="0.476563"/><stop stop-opacity="1" stop-color="rgb(83.776855%, 42.218018%, 11.932373%)" offset="0.482142"/><stop stop-opacity="1" stop-color="rgb(83.644104%, 42.185974%, 11.830139%)" offset="0.484375"/><stop stop-opacity="1" stop-color="rgb(83.511353%, 42.152405%, 11.726379%)" offset="0.492188"/><stop stop-opacity="1" stop-color="rgb(83.244324%, 42.085266%, 11.521912%)" offset="0.5"/><stop stop-opacity="1" stop-color="rgb(82.978821%, 42.019653%, 11.317444%)" offset="0.507813"/><stop stop-opacity="1" stop-color="rgb(82.711792%, 41.952515%, 11.112976%)" offset="0.515625"/><stop stop-opacity="1" stop-color="rgb(82.446289%, 41.885376%, 10.906982%)" offset="0.517858"/><stop stop-opacity="1" stop-color="rgb(82.313538%, 41.853333%, 10.804749%)" offset="0.523438"/><stop stop-opacity="1" stop-color="rgb(82.180786%, 41.819763%, 10.702515%)" offset="0.53125"/><stop stop-opacity="1" stop-color="rgb(81.913757%, 41.752625%, 10.498047%)" offset="0.539063"/><stop stop-opacity="1" stop-color="rgb(81.648254%, 41.685486%, 10.293579%)" offset="0.546875"/><stop stop-opacity="1" stop-color="rgb(81.381226%, 41.619873%, 10.087585%)" offset="0.554688"/><stop stop-opacity="1" stop-color="rgb(81.115723%, 41.552734%, 9.883118%)" offset="0.5625"/><stop stop-opacity="1" stop-color="rgb(80.848694%, 41.487122%, 9.67865%)" offset="0.570312"/><stop stop-opacity="1" stop-color="rgb(80.583191%, 41.419983%, 9.472656%)" offset="0.578125"/><stop stop-opacity="1" stop-color="rgb(80.316162%, 41.352844%, 9.268188%)" offset="0.585938"/><stop stop-opacity="1" stop-color="rgb(80.050659%, 41.287231%, 9.063721%)" offset="0.59375"/><stop stop-opacity="1" stop-color="rgb(79.78363%, 41.220093%, 8.859253%)" offset="0.601563"/><stop stop-opacity="1" stop-color="rgb(79.518127%, 41.152954%, 8.653259%)" offset="0.609375"/><stop stop-opacity="1" stop-color="rgb(79.251099%, 41.087341%, 8.448792%)" offset="0.617188"/><stop stop-opacity="1" stop-color="rgb(78.985596%, 41.020203%, 8.244324%)" offset="0.625"/><stop stop-opacity="1" stop-color="rgb(78.718567%, 40.95459%, 8.03833%)" offset="0.632812"/><stop stop-opacity="1" stop-color="rgb(78.453064%, 40.887451%, 7.833862%)" offset="0.640625"/><stop stop-opacity="1" stop-color="rgb(78.186035%, 40.820312%, 7.629395%)" offset="0.648438"/><stop stop-opacity="1" stop-color="rgb(77.920532%, 40.7547%, 7.424927%)" offset="0.65625"/><stop stop-opacity="1" stop-color="rgb(77.653503%, 40.687561%, 7.218933%)" offset="0.664063"/><stop stop-opacity="1" stop-color="rgb(77.388%, 40.621948%, 7.014465%)" offset="0.671875"/><stop stop-opacity="1" stop-color="rgb(77.120972%, 40.55481%, 6.809998%)" offset="0.679688"/><stop stop-opacity="1" stop-color="rgb(76.855469%, 40.487671%, 6.60553%)" offset="0.6875"/><stop stop-opacity="1" stop-color="rgb(76.58844%, 40.422058%, 6.399536%)" offset="0.695312"/><stop stop-opacity="1" stop-color="rgb(76.322937%, 40.354919%, 6.195068%)" offset="0.703125"/><stop stop-opacity="1" stop-color="rgb(76.057434%, 40.287781%, 5.990601%)" offset="0.710938"/><stop stop-opacity="1" stop-color="rgb(75.790405%, 40.222168%, 5.784607%)" offset="0.71875"/><stop stop-opacity="1" stop-color="rgb(75.524902%, 40.155029%, 5.580139%)" offset="0.726563"/><stop stop-opacity="1" stop-color="rgb(75.257874%, 40.089417%, 5.375671%)" offset="0.734375"/><stop stop-opacity="1" stop-color="rgb(75.012207%, 40.026855%, 5.186462%)" offset="0.75"/><stop stop-opacity="1" stop-color="rgb(74.899292%, 39.99939%, 5.099487%)" offset="1"/></linearGradient></defs><g clip-path="url(#5358e09215)"><g clip-path="url(#0c2ea103f3)"><path fill="url(#0669854de0)" d="M 0.527344 25.566406 L 0.527344 349.472656 L 374.351562 349.472656 L 374.351562 25.566406 Z M 0.527344 25.566406 " fill-rule="nonzero"/></g></g><path fill="#000000" d="M 272.363281 149.238281 L 195.417969 72.3125 C 194.890625 71.785156 194.316406 71.316406 193.695312 70.90625 C 193.074219 70.492188 192.421875 70.140625 191.730469 69.859375 C 191.042969 69.574219 190.332031 69.359375 189.601562 69.214844 C 188.871094 69.070312 188.132812 68.996094 187.386719 68.996094 C 186.640625 68.996094 185.902344 69.070312 185.171875 69.214844 C 184.441406 69.359375 183.730469 69.574219 183.042969 69.859375 C 182.351562 70.140625 181.699219 70.492188 181.078125 70.90625 C 180.457031 71.316406 179.882812 71.785156 179.355469 72.3125 L 163.414062 88.273438 L 183.671875 108.542969 C 184.867188 108.136719 186.09375 107.90625 187.355469 107.847656 C 188.617188 107.785156 189.859375 107.902344 191.085938 108.191406 C 192.316406 108.480469 193.480469 108.929688 194.582031 109.546875 C 195.683594 110.164062 196.679688 110.917969 197.566406 111.8125 C 198.457031 112.707031 199.207031 113.707031 199.816406 114.8125 C 200.425781 115.914062 200.871094 117.082031 201.152344 118.3125 C 201.433594 119.542969 201.542969 120.785156 201.476562 122.046875 C 201.410156 123.304688 201.171875 124.53125 200.761719 125.726562 L 220.269531 145.261719 C 220.988281 145.011719 221.722656 144.820312 222.46875 144.695312 C 223.21875 144.566406 223.972656 144.503906 224.734375 144.503906 C 225.492188 144.503906 226.246094 144.566406 226.996094 144.691406 C 227.746094 144.820312 228.480469 145.011719 229.195312 145.261719 C 229.914062 145.511719 230.605469 145.824219 231.269531 146.191406 C 231.933594 146.558594 232.5625 146.980469 233.15625 147.457031 C 233.75 147.929688 234.296875 148.449219 234.804688 149.019531 C 235.308594 149.585938 235.761719 150.191406 236.167969 150.835938 C 236.570312 151.480469 236.914062 152.152344 237.203125 152.855469 C 237.492188 153.558594 237.722656 154.28125 237.886719 155.023438 C 238.054688 155.761719 238.160156 156.511719 238.199219 157.273438 C 238.238281 158.03125 238.214844 158.789062 238.128906 159.542969 C 238.039062 160.296875 237.890625 161.039062 237.675781 161.769531 C 237.464844 162.5 237.191406 163.203125 236.859375 163.886719 C 236.523438 164.570312 236.136719 165.222656 235.695312 165.839844 C 235.253906 166.457031 234.761719 167.03125 234.222656 167.566406 C 228.941406 172.855469 220.421875 172.855469 215.132812 167.566406 C 214.195312 166.628906 213.410156 165.570312 212.78125 164.402344 C 212.152344 163.230469 211.707031 161.992188 211.445312 160.691406 C 211.179688 159.390625 211.109375 158.074219 211.230469 156.753906 C 211.355469 155.429688 211.664062 154.152344 212.164062 152.921875 L 193.886719 134.742188 L 193.886719 182.652344 C 195.171875 183.28125 196.40625 184.144531 197.472656 185.210938 C 198.097656 185.839844 198.652344 186.519531 199.144531 187.257812 C 199.632812 187.996094 200.046875 188.773438 200.382812 189.59375 C 200.722656 190.410156 200.976562 191.253906 201.148438 192.121094 C 201.320312 192.992188 201.40625 193.867188 201.40625 194.753906 C 201.40625 195.640625 201.320312 196.515625 201.148438 197.382812 C 200.976562 198.253906 200.722656 199.097656 200.382812 199.914062 C 200.046875 200.734375 199.632812 201.511719 199.144531 202.25 C 198.652344 202.988281 198.097656 203.667969 197.472656 204.296875 C 196.84375 204.925781 196.160156 205.488281 195.421875 205.984375 C 194.679688 206.480469 193.902344 206.898438 193.078125 207.238281 C 192.257812 207.578125 191.410156 207.835938 190.539062 208.007812 C 189.664062 208.183594 188.785156 208.269531 187.894531 208.269531 C 187.003906 208.269531 186.121094 208.183594 185.25 208.007812 C 184.378906 207.835938 183.53125 207.578125 182.707031 207.238281 C 181.886719 206.898438 181.105469 206.480469 180.367188 205.984375 C 179.628906 205.488281 178.941406 204.925781 178.316406 204.296875 C 177.6875 203.671875 177.128906 202.992188 176.632812 202.253906 C 176.140625 201.519531 175.726562 200.742188 175.386719 199.925781 C 175.046875 199.105469 174.789062 198.261719 174.617188 197.394531 C 174.445312 196.527344 174.355469 195.648438 174.355469 194.761719 C 174.355469 193.875 174.445312 193 174.617188 192.132812 C 174.789062 191.261719 175.046875 190.417969 175.386719 189.601562 C 175.726562 188.78125 176.140625 188.003906 176.632812 187.269531 C 177.128906 186.535156 177.6875 185.851562 178.316406 185.226562 C 179.652344 183.90625 181.152344 182.902344 182.757812 182.238281 L 182.757812 133.859375 C 181.933594 133.523438 181.148438 133.105469 180.40625 132.613281 C 179.667969 132.121094 178.980469 131.5625 178.347656 130.933594 C 177.71875 130.304688 177.15625 129.621094 176.660156 128.882812 C 176.167969 128.140625 175.75 127.359375 175.410156 126.535156 C 175.070312 125.714844 174.8125 124.867188 174.640625 123.992188 C 174.46875 123.117188 174.382812 122.238281 174.386719 121.347656 C 174.390625 120.457031 174.480469 119.574219 174.65625 118.703125 C 174.835938 117.832031 175.097656 116.984375 175.441406 116.164062 L 155.527344 96.152344 L 102.765625 148.867188 C 98.359375 153.308594 98.359375 160.5 102.765625 164.941406 L 179.707031 241.867188 C 180.234375 242.394531 180.804688 242.863281 181.425781 243.277344 C 182.042969 243.695312 182.699219 244.042969 183.386719 244.328125 C 184.074219 244.613281 184.785156 244.832031 185.515625 244.976562 C 186.246094 245.121094 186.984375 245.195312 187.730469 245.195312 C 188.476562 245.195312 189.214844 245.121094 189.945312 244.976562 C 190.675781 244.832031 191.386719 244.613281 192.074219 244.328125 C 192.761719 244.042969 193.417969 243.695312 194.035156 243.277344 C 194.65625 242.863281 195.226562 242.394531 195.753906 241.867188 L 272.335938 165.292969 C 272.867188 164.769531 273.339844 164.195312 273.757812 163.578125 C 274.171875 162.960938 274.527344 162.304688 274.8125 161.617188 C 275.101562 160.929688 275.320312 160.21875 275.464844 159.488281 C 275.613281 158.757812 275.6875 158.015625 275.691406 157.269531 C 275.691406 156.523438 275.617188 155.785156 275.472656 155.054688 C 275.328125 154.320312 275.113281 153.609375 274.828125 152.921875 C 274.542969 152.230469 274.191406 151.578125 273.777344 150.957031 C 273.363281 150.335938 272.890625 149.765625 272.363281 149.238281 " fill-opacity="1" fill-rule="nonzero"/><g fill="#000000" fill-opacity="1"><g transform="translate(154.54101, 308.951231)"><g><path d="M 21.125 -19.203125 C 20.613281 -20.128906 19.882812 -20.835938 18.9375 -21.328125 C 17.988281 -21.828125 16.875 -22.078125 15.59375 -22.078125 C 13.382812 -22.078125 11.613281 -21.347656 10.28125 -19.890625 C 8.945312 -18.441406 8.28125 -16.503906 8.28125 -14.078125 C 8.28125 -11.492188 8.976562 -9.472656 10.375 -8.015625 C 11.78125 -6.566406 13.707031 -5.84375 16.15625 -5.84375 C 17.84375 -5.84375 19.265625 -6.269531 20.421875 -7.125 C 21.578125 -7.976562 22.421875 -9.203125 22.953125 -10.796875 L 14.28125 -10.796875 L 14.28125 -15.84375 L 29.15625 -15.84375 L 29.15625 -9.484375 C 28.65625 -7.773438 27.796875 -6.1875 26.578125 -4.71875 C 25.367188 -3.25 23.828125 -2.0625 21.953125 -1.15625 C 20.085938 -0.25 17.984375 0.203125 15.640625 0.203125 C 12.867188 0.203125 10.394531 -0.398438 8.21875 -1.609375 C 6.039062 -2.828125 4.34375 -4.515625 3.125 -6.671875 C 1.914062 -8.835938 1.3125 -11.304688 1.3125 -14.078125 C 1.3125 -16.847656 1.914062 -19.320312 3.125 -21.5 C 4.34375 -23.675781 6.03125 -25.367188 8.1875 -26.578125 C 10.351562 -27.796875 12.820312 -28.40625 15.59375 -28.40625 C 18.957031 -28.40625 21.789062 -27.585938 24.09375 -25.953125 C 26.40625 -24.328125 27.9375 -22.078125 28.6875 -19.203125 Z M 21.125 -19.203125 "/></g></g></g><g fill="#000000" fill-opacity="1"><g transform="translate(185.017987, 308.951231)"><g><path d="M 9.3125 -28.078125 L 9.3125 0 L 2.484375 0 L 2.484375 -28.078125 Z M 9.3125 -28.078125 "/></g></g></g><g fill="#000000" fill-opacity="1"><g transform="translate(196.81681, 308.951231)"><g><path d="M 22.6875 -28.078125 L 22.6875 -22.59375 L 15.234375 -22.59375 L 15.234375 0 L 8.40625 0 L 8.40625 -22.59375 L 0.953125 -22.59375 L 0.953125 -28.078125 Z M 22.6875 -28.078125 "/></g></g></g></svg>