<svg xmlns="http://www.w3.org/2000/svg" xmlns:xlink="http://www.w3.org/1999/xlink" width="500" zoomAndPan="magnify" viewBox="0 0 375 374.999991" height="500" preserveAspectRatio="xMidYMid meet" version="1.0"><defs><g/><clipPath id="594c4528cc"><path d="M 0 25.566406 L 375 25.566406 L 375 349.566406 L 0 349.566406 Z M 0 25.566406 " clip-rule="nonzero"/></clipPath><clipPath id="ebe30116ee"><path d="M 374.351562 187.519531 L 280.890625 349.472656 L 93.988281 349.472656 L 0.527344 187.519531 L 93.988281 25.566406 L 280.914062 25.566406 Z M 374.351562 187.519531 " clip-rule="nonzero"/></clipPath><linearGradient x1="8.01119" gradientTransform="matrix(2.431377, 0, 0, 2.432432, 0.527129, 25.568209)" y1="-7.45232" x2="145.742984" gradientUnits="userSpaceOnUse" y2="140.608432" id="02939a1e5f"><stop stop-opacity="1" stop-color="rgb(75.299072%, 75.299072%, 75.299072%)" offset="0"/><stop stop-opacity="1" stop-color="rgb(75.299072%, 75.299072%, 75.299072%)" offset="0.125"/><stop stop-opacity="1" stop-color="rgb(75.299072%, 75.299072%, 75.299072%)" offset="0.140625"/><stop stop-opacity="1" stop-color="rgb(75.157166%, 75.152588%, 75.152588%)" offset="0.148438"/><stop stop-opacity="1" stop-color="rgb(74.835205%, 74.815369%, 74.815369%)" offset="0.15625"/><stop stop-opacity="1" stop-color="rgb(74.473572%, 74.436951%, 74.436951%)" offset="0.164062"/><stop stop-opacity="1" stop-color="rgb(74.110413%, 74.058533%, 74.058533%)" offset="0.171875"/><stop stop-opacity="1" stop-color="rgb(73.747253%, 73.680115%, 73.680115%)" offset="0.179688"/><stop stop-opacity="1" stop-color="rgb(73.384094%, 73.301697%, 73.301697%)" offset="0.1875"/><stop stop-opacity="1" stop-color="rgb(73.022461%, 72.923279%, 72.923279%)" offset="0.195312"/><stop stop-opacity="1" stop-color="rgb(72.659302%, 72.544861%, 72.544861%)" offset="0.203125"/><stop stop-opacity="1" stop-color="rgb(72.296143%, 72.166443%, 72.166443%)" offset="0.210938"/><stop stop-opacity="1" stop-color="rgb(71.932983%, 71.788025%, 71.788025%)" offset="0.21875"/><stop stop-opacity="1" stop-color="rgb(71.57135%, 71.409607%, 71.409607%)" offset="0.226563"/><stop stop-opacity="1" stop-color="rgb(71.208191%, 71.031189%, 71.031189%)" offset="0.234375"/><stop stop-opacity="1" stop-color="rgb(70.845032%, 70.652771%, 70.652771%)" offset="0.242188"/><stop stop-opacity="1" stop-color="rgb(70.481873%, 70.274353%, 70.274353%)" offset="0.25"/><stop stop-opacity="1" stop-color="rgb(70.120239%, 69.895935%, 69.895935%)" offset="0.257812"/><stop stop-opacity="1" stop-color="rgb(69.75708%, 69.517517%, 69.517517%)" offset="0.265625"/><stop stop-opacity="1" stop-color="rgb(69.393921%, 69.139099%, 69.139099%)" offset="0.273438"/><stop stop-opacity="1" stop-color="rgb(69.030762%, 68.760681%, 68.760681%)" offset="0.28125"/><stop stop-opacity="1" stop-color="rgb(68.667603%, 68.382263%, 68.382263%)" offset="0.289063"/><stop stop-opacity="1" stop-color="rgb(68.305969%, 68.003845%, 68.003845%)" offset="0.296875"/><stop stop-opacity="1" stop-color="rgb(67.94281%, 67.625427%, 67.625427%)" offset="0.304688"/><stop stop-opacity="1" stop-color="rgb(67.579651%, 67.247009%, 67.247009%)" offset="0.3125"/><stop stop-opacity="1" stop-color="rgb(67.216492%, 66.868591%, 66.868591%)" offset="0.320313"/><stop stop-opacity="1" stop-color="rgb(66.854858%, 66.490173%, 66.490173%)" offset="0.328125"/><stop stop-opacity="1" stop-color="rgb(66.491699%, 66.111755%, 66.111755%)" offset="0.335938"/><stop stop-opacity="1" stop-color="rgb(66.12854%, 65.733337%, 65.733337%)" offset="0.34375"/><stop stop-opacity="1" stop-color="rgb(65.765381%, 65.354919%, 65.354919%)" offset="0.351563"/><stop stop-opacity="1" stop-color="rgb(65.403748%, 64.976501%, 64.976501%)" offset="0.359375"/><stop stop-opacity="1" stop-color="rgb(65.040588%, 64.598083%, 64.598083%)" offset="0.367188"/><stop stop-opacity="1" stop-color="rgb(64.677429%, 64.219666%, 64.219666%)" offset="0.375"/><stop stop-opacity="1" stop-color="rgb(64.31427%, 63.841248%, 63.841248%)" offset="0.382813"/><stop stop-opacity="1" stop-color="rgb(63.951111%, 63.46283%, 63.46283%)" offset="0.390625"/><stop stop-opacity="1" stop-color="rgb(63.589478%, 63.084412%, 63.084412%)" offset="0.398438"/><stop stop-opacity="1" stop-color="rgb(63.226318%, 62.705994%, 62.705994%)" offset="0.40625"/><stop stop-opacity="1" stop-color="rgb(62.863159%, 62.327576%, 62.327576%)" offset="0.414063"/><stop stop-opacity="1" stop-color="rgb(62.5%, 61.947632%, 61.947632%)" offset="0.421875"/><stop stop-opacity="1" stop-color="rgb(62.138367%, 61.569214%, 61.569214%)" offset="0.429688"/><stop stop-opacity="1" stop-color="rgb(61.775208%, 61.190796%, 61.190796%)" offset="0.4375"/><stop stop-opacity="1" stop-color="rgb(61.412048%, 60.812378%, 60.812378%)" offset="0.445313"/><stop stop-opacity="1" stop-color="rgb(61.048889%, 60.43396%, 60.43396%)" offset="0.453125"/><stop stop-opacity="1" stop-color="rgb(60.687256%, 60.055542%, 60.055542%)" offset="0.460938"/><stop stop-opacity="1" stop-color="rgb(60.324097%, 59.677124%, 59.677124%)" offset="0.46875"/><stop stop-opacity="1" stop-color="rgb(59.960938%, 59.298706%, 59.298706%)" offset="0.476563"/><stop stop-opacity="1" stop-color="rgb(59.597778%, 58.920288%, 58.920288%)" offset="0.482142"/><stop stop-opacity="1" stop-color="rgb(59.417725%, 58.731079%, 58.731079%)" offset="0.484375"/><stop stop-opacity="1" stop-color="rgb(59.236145%, 58.54187%, 58.54187%)" offset="0.492188"/><stop stop-opacity="1" stop-color="rgb(58.872986%, 58.163452%, 58.163452%)" offset="0.5"/><stop stop-opacity="1" stop-color="rgb(58.509827%, 57.785034%, 57.785034%)" offset="0.507813"/><stop stop-opacity="1" stop-color="rgb(58.146667%, 57.406616%, 57.406616%)" offset="0.515625"/><stop stop-opacity="1" stop-color="rgb(57.783508%, 57.028198%, 57.028198%)" offset="0.517858"/><stop stop-opacity="1" stop-color="rgb(57.603455%, 56.838989%, 56.838989%)" offset="0.523438"/><stop stop-opacity="1" stop-color="rgb(57.421875%, 56.64978%, 56.64978%)" offset="0.53125"/><stop stop-opacity="1" stop-color="rgb(57.058716%, 56.271362%, 56.271362%)" offset="0.539063"/><stop stop-opacity="1" stop-color="rgb(56.695557%, 55.892944%, 55.892944%)" offset="0.546875"/><stop stop-opacity="1" stop-color="rgb(56.332397%, 55.514526%, 55.514526%)" offset="0.554688"/><stop stop-opacity="1" stop-color="rgb(55.970764%, 55.136108%, 55.136108%)" offset="0.5625"/><stop stop-opacity="1" stop-color="rgb(55.607605%, 54.75769%, 54.75769%)" offset="0.570312"/><stop stop-opacity="1" stop-color="rgb(55.244446%, 54.379272%, 54.379272%)" offset="0.578125"/><stop stop-opacity="1" stop-color="rgb(54.881287%, 54.000854%, 54.000854%)" offset="0.585938"/><stop stop-opacity="1" stop-color="rgb(54.519653%, 53.622437%, 53.622437%)" offset="0.59375"/><stop stop-opacity="1" stop-color="rgb(54.156494%, 53.244019%, 53.244019%)" offset="0.601563"/><stop stop-opacity="1" stop-color="rgb(53.793335%, 52.865601%, 52.865601%)" offset="0.609375"/><stop stop-opacity="1" stop-color="rgb(53.430176%, 52.487183%, 52.487183%)" offset="0.617188"/><stop stop-opacity="1" stop-color="rgb(53.067017%, 52.108765%, 52.108765%)" offset="0.625"/><stop stop-opacity="1" stop-color="rgb(52.705383%, 51.730347%, 51.730347%)" offset="0.632812"/><stop stop-opacity="1" stop-color="rgb(52.342224%, 51.351929%, 51.351929%)" offset="0.640625"/><stop stop-opacity="1" stop-color="rgb(51.979065%, 50.973511%, 50.973511%)" offset="0.648438"/><stop stop-opacity="1" stop-color="rgb(51.615906%, 50.595093%, 50.595093%)" offset="0.65625"/><stop stop-opacity="1" stop-color="rgb(51.254272%, 50.216675%, 50.216675%)" offset="0.664063"/><stop stop-opacity="1" stop-color="rgb(50.891113%, 49.838257%, 49.838257%)" offset="0.671875"/><stop stop-opacity="1" stop-color="rgb(50.527954%, 49.458313%, 49.458313%)" offset="0.679688"/><stop stop-opacity="1" stop-color="rgb(50.164795%, 49.079895%, 49.079895%)" offset="0.6875"/><stop stop-opacity="1" stop-color="rgb(49.803162%, 48.701477%, 48.701477%)" offset="0.695312"/><stop stop-opacity="1" stop-color="rgb(49.440002%, 48.323059%, 48.323059%)" offset="0.703125"/><stop stop-opacity="1" stop-color="rgb(49.076843%, 47.944641%, 47.944641%)" offset="0.710938"/><stop stop-opacity="1" stop-color="rgb(48.713684%, 47.566223%, 47.566223%)" offset="0.71875"/><stop stop-opacity="1" stop-color="rgb(48.352051%, 47.187805%, 47.187805%)" offset="0.726563"/><stop stop-opacity="1" stop-color="rgb(47.988892%, 46.809387%, 46.809387%)" offset="0.734375"/><stop stop-opacity="1" stop-color="rgb(47.653198%, 46.459961%, 46.459961%)" offset="0.75"/><stop stop-opacity="1" stop-color="rgb(47.499084%, 46.299744%, 46.299744%)" offset="1"/></linearGradient></defs><g clip-path="url(#594c4528cc)"><g clip-path="url(#ebe30116ee)"><path fill="url(#02939a1e5f)" d="M 0.527344 25.566406 L 0.527344 349.472656 L 374.351562 349.472656 L 374.351562 25.566406 Z M 0.527344 25.566406 " fill-rule="nonzero"/></g></g><path fill="#000000" d="M 117.671875 83.738281 L 257.171875 83.738281 L 257.171875 223.238281 L 117.671875 223.238281 Z M 245.738281 189.96875 C 244.722656 183.605469 240.578125 178.257812 228.285156 173.265625 C 224.007812 171.257812 219.257812 169.871094 217.832031 166.648438 C 217.304688 164.726562 217.226562 163.6875 217.566406 162.546875 C 218.445312 158.796875 222.890625 157.671875 226.378906 158.710938 C 228.648438 159.410156 230.742188 161.152344 232.050781 163.949219 C 238.058594 160.023438 238.058594 160.023438 242.25 157.410156 C 240.679688 154.976562 239.894531 153.914062 238.847656 152.867188 C 235.183594 148.777344 230.300781 146.683594 222.371094 146.863281 L 218.28125 147.382812 C 214.351562 148.34375 210.601562 150.441406 208.335938 153.226562 C 201.710938 160.726562 203.625 173.800781 211.648438 179.21875 C 219.574219 185.148438 231.183594 186.449219 232.664062 192.027344 C 234.058594 198.832031 227.613281 201.011719 221.234375 200.230469 C 216.527344 199.175781 213.910156 196.828125 211.035156 192.464844 L 200.402344 198.570312 C 201.617188 201.351562 203.011719 202.578125 205.105469 205.019531 C 215.21875 215.21875 240.507812 214.699219 245.042969 199.175781 C 245.203125 198.65625 246.4375 195.082031 245.476562 189.585938 Z M 193.527344 147.855469 L 180.460938 147.855469 C 180.460938 159.113281 180.40625 170.3125 180.40625 181.597656 C 180.40625 188.757812 180.769531 195.332031 179.601562 197.351562 C 177.6875 201.359375 172.734375 200.847656 170.496094 200.136719 C 168.191406 199.003906 167.023438 197.429688 165.664062 195.167969 C 165.300781 194.5625 165.03125 194.035156 164.929688 194.035156 L 154.328125 200.578125 C 156.101562 204.242188 158.691406 207.390625 162.03125 209.390625 C 167 212.355469 173.671875 213.316406 180.664062 211.753906 C 185.21875 210.433594 189.148438 207.730469 191.1875 203.546875 C 194.164062 198.144531 193.527344 191.511719 193.503906 184.101562 C 193.566406 172.15625 193.503906 160.207031 193.503906 148.179688 Z M 193.527344 147.855469 " fill-opacity="1" fill-rule="nonzero"/><g fill="#000000" fill-opacity="1"><g transform="translate(76.904296, 291.166855)"><g><path d="M 17.5625 -24.5625 L 17.5625 -7.84375 C 17.5625 -5.25 16.832031 -3.25 15.375 -1.84375 C 13.914062 -0.445312 11.953125 0.25 9.484375 0.25 C 6.890625 0.25 4.8125 -0.484375 3.25 -1.953125 C 1.6875 -3.429688 0.90625 -5.519531 0.90625 -8.21875 L 6.859375 -8.21875 C 6.859375 -7.195312 7.066406 -6.421875 7.484375 -5.890625 C 7.910156 -5.367188 8.519531 -5.109375 9.3125 -5.109375 C 10.03125 -5.109375 10.585938 -5.34375 10.984375 -5.8125 C 11.378906 -6.28125 11.578125 -6.957031 11.578125 -7.84375 L 11.578125 -24.5625 Z M 17.5625 -24.5625 "/></g></g></g><g fill="#000000" fill-opacity="1"><g transform="translate(97.129724, 291.166855)"><g><path d="M 17.46875 -4.34375 L 8.296875 -4.34375 L 6.828125 0 L 0.5625 0 L 9.453125 -24.5625 L 16.375 -24.5625 L 25.265625 0 L 18.9375 0 Z M 15.921875 -8.953125 L 12.875 -17.953125 L 9.875 -8.953125 Z M 15.921875 -8.953125 "/></g></g></g><g fill="#000000" fill-opacity="1"><g transform="translate(122.918903, 291.166855)"><g><path d="M 25.234375 -24.5625 L 16.515625 0 L 9.03125 0 L 0.3125 -24.5625 L 6.6875 -24.5625 L 12.78125 -6.015625 L 18.90625 -24.5625 Z M 25.234375 -24.5625 "/></g></g></g><g fill="#000000" fill-opacity="1"><g transform="translate(148.463133, 291.166855)"><g><path d="M 17.46875 -4.34375 L 8.296875 -4.34375 L 6.828125 0 L 0.5625 0 L 9.453125 -24.5625 L 16.375 -24.5625 L 25.265625 0 L 18.9375 0 Z M 15.921875 -8.953125 L 12.875 -17.953125 L 9.875 -8.953125 Z M 15.921875 -8.953125 "/></g></g></g><g fill="#000000" fill-opacity="1"><g transform="translate(174.252311, 291.166855)"><g><path d="M 11.0625 0.25 C 9.257812 0.25 7.644531 -0.0390625 6.21875 -0.625 C 4.800781 -1.207031 3.664062 -2.070312 2.8125 -3.21875 C 1.96875 -4.363281 1.519531 -5.738281 1.46875 -7.34375 L 7.84375 -7.34375 C 7.9375 -6.4375 8.25 -5.742188 8.78125 -5.265625 C 9.320312 -4.785156 10.023438 -4.546875 10.890625 -4.546875 C 11.773438 -4.546875 12.472656 -4.75 12.984375 -5.15625 C 13.492188 -5.570312 13.75 -6.140625 13.75 -6.859375 C 13.75 -7.460938 13.546875 -7.960938 13.140625 -8.359375 C 12.734375 -8.753906 12.234375 -9.082031 11.640625 -9.34375 C 11.046875 -9.601562 10.195312 -9.894531 9.09375 -10.21875 C 7.507812 -10.707031 6.210938 -11.195312 5.203125 -11.6875 C 4.203125 -12.175781 3.34375 -12.898438 2.625 -13.859375 C 1.90625 -14.816406 1.546875 -16.066406 1.546875 -17.609375 C 1.546875 -19.890625 2.375 -21.675781 4.03125 -22.96875 C 5.6875 -24.269531 7.84375 -24.921875 10.5 -24.921875 C 13.207031 -24.921875 15.390625 -24.269531 17.046875 -22.96875 C 18.703125 -21.675781 19.585938 -19.875 19.703125 -17.5625 L 13.234375 -17.5625 C 13.179688 -18.363281 12.882812 -18.988281 12.34375 -19.4375 C 11.8125 -19.894531 11.128906 -20.125 10.296875 -20.125 C 9.566406 -20.125 8.976562 -19.929688 8.53125 -19.546875 C 8.09375 -19.160156 7.875 -18.609375 7.875 -17.890625 C 7.875 -17.085938 8.242188 -16.460938 8.984375 -16.015625 C 9.734375 -15.578125 10.90625 -15.101562 12.5 -14.59375 C 14.082031 -14.0625 15.367188 -13.546875 16.359375 -13.046875 C 17.347656 -12.554688 18.203125 -11.84375 18.921875 -10.90625 C 19.648438 -9.976562 20.015625 -8.78125 20.015625 -7.3125 C 20.015625 -5.914062 19.660156 -4.644531 18.953125 -3.5 C 18.242188 -2.351562 17.210938 -1.441406 15.859375 -0.765625 C 14.503906 -0.0859375 12.90625 0.25 11.0625 0.25 Z M 11.0625 0.25 "/></g></g></g><g fill="#000000" fill-opacity="1"><g transform="translate(195.772455, 291.166855)"><g><path d="M 1.15625 -12.3125 C 1.15625 -14.738281 1.679688 -16.90625 2.734375 -18.8125 C 3.785156 -20.71875 5.25 -22.195312 7.125 -23.25 C 9 -24.3125 11.128906 -24.84375 13.515625 -24.84375 C 16.429688 -24.84375 18.925781 -24.070312 21 -22.53125 C 23.070312 -21 24.460938 -18.898438 25.171875 -16.234375 L 18.578125 -16.234375 C 18.085938 -17.265625 17.394531 -18.046875 16.5 -18.578125 C 15.601562 -19.117188 14.582031 -19.390625 13.4375 -19.390625 C 11.59375 -19.390625 10.097656 -18.75 8.953125 -17.46875 C 7.816406 -16.1875 7.25 -14.46875 7.25 -12.3125 C 7.25 -10.164062 7.816406 -8.453125 8.953125 -7.171875 C 10.097656 -5.890625 11.59375 -5.25 13.4375 -5.25 C 14.582031 -5.25 15.601562 -5.515625 16.5 -6.046875 C 17.394531 -6.585938 18.085938 -7.375 18.578125 -8.40625 L 25.171875 -8.40625 C 24.460938 -5.738281 23.070312 -3.640625 21 -2.109375 C 18.925781 -0.585938 16.429688 0.171875 13.515625 0.171875 C 11.128906 0.171875 9 -0.359375 7.125 -1.421875 C 5.25 -2.484375 3.785156 -3.957031 2.734375 -5.84375 C 1.679688 -7.738281 1.15625 -9.894531 1.15625 -12.3125 Z M 1.15625 -12.3125 "/></g></g></g><g fill="#000000" fill-opacity="1"><g transform="translate(222.436432, 291.166855)"><g><path d="M 14.703125 0 L 9.59375 -9.28125 L 8.15625 -9.28125 L 8.15625 0 L 2.171875 0 L 2.171875 -24.5625 L 12.21875 -24.5625 C 14.15625 -24.5625 15.804688 -24.222656 17.171875 -23.546875 C 18.535156 -22.878906 19.554688 -21.953125 20.234375 -20.765625 C 20.910156 -19.585938 21.25 -18.273438 21.25 -16.828125 C 21.25 -15.203125 20.785156 -13.742188 19.859375 -12.453125 C 18.941406 -11.171875 17.582031 -10.265625 15.78125 -9.734375 L 21.453125 0 Z M 8.15625 -13.515625 L 11.859375 -13.515625 C 12.960938 -13.515625 13.785156 -13.78125 14.328125 -14.3125 C 14.878906 -14.851562 15.15625 -15.613281 15.15625 -16.59375 C 15.15625 -17.519531 14.878906 -18.25 14.328125 -18.78125 C 13.785156 -19.320312 12.960938 -19.59375 11.859375 -19.59375 L 8.15625 -19.59375 Z M 8.15625 -13.515625 "/></g></g></g><g fill="#000000" fill-opacity="1"><g transform="translate(245.25128, 291.166855)"><g><path d="M 8.15625 -24.5625 L 8.15625 0 L 2.171875 0 L 2.171875 -24.5625 Z M 8.15625 -24.5625 "/></g></g></g><g fill="#000000" fill-opacity="1"><g transform="translate(255.573953, 291.166855)"><g><path d="M 20.890625 -16.65625 C 20.890625 -15.238281 20.5625 -13.9375 19.90625 -12.75 C 19.257812 -11.570312 18.257812 -10.617188 16.90625 -9.890625 C 15.550781 -9.171875 13.867188 -8.8125 11.859375 -8.8125 L 8.15625 -8.8125 L 8.15625 0 L 2.171875 0 L 2.171875 -24.5625 L 11.859375 -24.5625 C 13.828125 -24.5625 15.484375 -24.222656 16.828125 -23.546875 C 18.179688 -22.878906 19.195312 -21.945312 19.875 -20.75 C 20.550781 -19.5625 20.890625 -18.195312 20.890625 -16.65625 Z M 11.40625 -13.578125 C 12.550781 -13.578125 13.40625 -13.84375 13.96875 -14.375 C 14.53125 -14.914062 14.8125 -15.675781 14.8125 -16.65625 C 14.8125 -17.632812 14.53125 -18.390625 13.96875 -18.921875 C 13.40625 -19.460938 12.550781 -19.734375 11.40625 -19.734375 L 8.15625 -19.734375 L 8.15625 -13.578125 Z M 11.40625 -13.578125 "/></g></g></g><g fill="#000000" fill-opacity="1"><g transform="translate(277.409027, 291.166855)"><g><path d="M 19.84375 -24.5625 L 19.84375 -19.78125 L 13.328125 -19.78125 L 13.328125 0 L 7.34375 0 L 7.34375 -19.78125 L 0.84375 -19.78125 L 0.84375 -24.5625 Z M 19.84375 -24.5625 "/></g></g></g></svg>