<svg xmlns="http://www.w3.org/2000/svg" xmlns:xlink="http://www.w3.org/1999/xlink" width="500" zoomAndPan="magnify" viewBox="0 0 375 374.999991" height="500" preserveAspectRatio="xMidYMid meet" version="1.0"><defs><g/><clipPath id="b97e34f4dc"><path d="M 0 25.566406 L 375 25.566406 L 375 349.566406 L 0 349.566406 Z M 0 25.566406 " clip-rule="nonzero"/></clipPath><clipPath id="c53446c45a"><path d="M 374.351562 187.519531 L 280.890625 349.472656 L 93.988281 349.472656 L 0.527344 187.519531 L 93.988281 25.566406 L 280.914062 25.566406 Z M 374.351562 187.519531 " clip-rule="nonzero"/></clipPath></defs><g clip-path="url(#b97e34f4dc)"><g clip-path="url(#c53446c45a)"><path fill="#000000" d="M 0.527344 25.566406 L 0.527344 349.472656 L 374.351562 349.472656 L 374.351562 25.566406 Z M 0.527344 25.566406 " fill-opacity="1" fill-rule="nonzero"/></g></g><path fill="#ffffff" d="M 167.089844 189.972656 C 142.949219 196.691406 181.699219 210.597656 212.402344 197.785156 C 209.417969 196.625 206.554688 195.21875 203.808594 193.566406 C 193.0625 196.011719 182.230469 196.480469 171.308594 194.972656 C 161.074219 193.800781 167.089844 189.972656 167.089844 189.972656 Z M 208.730469 176.847656 C 194.886719 179.859375 180.929688 180.535156 166.855469 178.878906 C 156.621094 177.785156 163.339844 172.863281 163.339844 172.863281 C 136.777344 181.613281 178.105469 191.613281 215.214844 180.675781 C 212.773438 179.875 210.613281 178.597656 208.730469 176.847656 Z M 222.949219 100.832031 C 222.949219 100.832031 169.277344 114.191406 194.902344 143.722656 C 195.402344 144.320312 195.839844 144.964844 196.207031 145.652344 C 196.574219 146.339844 196.871094 147.058594 197.09375 147.808594 C 197.316406 148.554688 197.460938 149.316406 197.527344 150.09375 C 197.59375 150.871094 197.582031 151.648438 197.492188 152.425781 C 197.398438 153.199219 197.230469 153.957031 196.984375 154.699219 C 196.738281 155.4375 196.421875 156.144531 196.03125 156.820312 C 195.640625 157.496094 195.1875 158.128906 194.667969 158.710938 C 194.148438 159.292969 193.578125 159.820312 192.949219 160.285156 C 192.949219 160.285156 212.167969 150.363281 203.339844 137.941406 C 194.511719 125.519531 188.808594 120.597656 222.949219 100.832031 Z M 222.949219 100.832031 " fill-opacity="1" fill-rule="nonzero"/><path fill="#ffffff" d="M 235.527344 202.707031 C 235.527344 202.707031 239.902344 206.300781 230.605469 209.113281 C 212.871094 214.503906 156.933594 216.144531 141.386719 209.113281 C 135.761719 206.691406 146.230469 203.332031 149.199219 202.628906 C 150.96875 202.171875 152.765625 201.964844 154.589844 202.003906 C 148.339844 197.628906 114.355469 210.597656 137.324219 214.347656 C 200.214844 225.050781 251.699219 209.972656 235.527344 202.707031 Z M 213.964844 164.582031 C 216.265625 163.128906 218.664062 161.851562 221.152344 160.753906 C 221.152344 160.753906 209.355469 162.863281 197.714844 163.878906 C 185.175781 165.089844 172.625 165.21875 160.058594 164.269531 C 141.464844 161.847656 169.980469 154.738281 169.980469 154.738281 C 165.691406 154.703125 161.457031 155.183594 157.285156 156.175781 C 153.109375 157.164062 149.113281 158.640625 145.292969 160.597656 C 129.199219 168.644531 185.058594 172.160156 213.964844 164.582031 Z M 221.074219 183.644531 C 220.902344 183.910156 220.695312 184.144531 220.449219 184.347656 C 259.511719 174.035156 245.292969 148.019531 226.542969 154.582031 C 225.488281 154.972656 224.628906 155.621094 223.964844 156.535156 C 223.964844 156.535156 225.058594 156.144531 227.324219 155.597656 C 236.855469 153.644531 250.136719 168.332031 221.074219 183.644531 Z M 187.636719 154.738281 C 181.855469 141.691406 162.167969 130.207031 187.636719 110.128906 C 219.589844 85.050781 203.261719 68.800781 203.261719 68.800781 C 209.824219 94.660156 179.824219 102.472656 169.355469 118.566406 C 162.089844 129.582031 173.027344 141.378906 187.636719 154.738281 Z M 187.636719 154.738281 " fill-opacity="1" fill-rule="nonzero"/><path fill="#ffffff" d="M 222.089844 219.738281 C 210.289062 221.757812 198.402344 222.859375 186.429688 223.042969 C 174.457031 223.226562 162.542969 222.488281 150.683594 220.832031 C 150.683594 220.832031 154.277344 223.800781 172.871094 224.972656 C 201.074219 226.769531 244.355469 224.035156 245.449219 210.675781 C 245.449219 210.675781 243.417969 215.675781 222.089844 219.738281 Z M 222.089844 219.738281 " fill-opacity="1" fill-rule="nonzero"/><g fill="#ffffff" fill-opacity="1"><g transform="translate(131.865231, 293.072705)"><g><path d="M 20.078125 -28.078125 L 20.078125 -8.953125 C 20.078125 -5.992188 19.242188 -3.710938 17.578125 -2.109375 C 15.910156 -0.515625 13.664062 0.28125 10.84375 0.28125 C 7.882812 0.28125 5.507812 -0.554688 3.71875 -2.234375 C 1.9375 -3.921875 1.046875 -6.3125 1.046875 -9.40625 L 7.84375 -9.40625 C 7.84375 -8.226562 8.082031 -7.335938 8.5625 -6.734375 C 9.039062 -6.140625 9.734375 -5.84375 10.640625 -5.84375 C 11.460938 -5.84375 12.097656 -6.109375 12.546875 -6.640625 C 13.003906 -7.171875 13.234375 -7.941406 13.234375 -8.953125 L 13.234375 -28.078125 Z M 20.078125 -28.078125 "/></g></g></g><g fill="#ffffff" fill-opacity="1"><g transform="translate(154.982936, 293.072705)"><g><path d="M 19.953125 -4.953125 L 9.484375 -4.953125 L 7.796875 0 L 0.640625 0 L 10.796875 -28.078125 L 18.71875 -28.078125 L 28.875 0 L 21.640625 0 Z M 18.203125 -10.234375 L 14.71875 -20.515625 L 11.28125 -10.234375 Z M 18.203125 -10.234375 "/></g></g></g><g fill="#ffffff" fill-opacity="1"><g transform="translate(184.460007, 293.072705)"><g><path d="M 28.84375 -28.078125 L 18.875 0 L 10.3125 0 L 0.359375 -28.078125 L 7.640625 -28.078125 L 14.59375 -6.875 L 21.59375 -28.078125 Z M 28.84375 -28.078125 "/></g></g></g><g fill="#ffffff" fill-opacity="1"><g transform="translate(213.657111, 293.072705)"><g><path d="M 19.953125 -4.953125 L 9.484375 -4.953125 L 7.796875 0 L 0.640625 0 L 10.796875 -28.078125 L 18.71875 -28.078125 L 28.875 0 L 21.640625 0 Z M 18.203125 -10.234375 L 14.71875 -20.515625 L 11.28125 -10.234375 Z M 18.203125 -10.234375 "/></g></g></g></svg>