<svg xmlns="http://www.w3.org/2000/svg" xmlns:xlink="http://www.w3.org/1999/xlink" width="500" zoomAndPan="magnify" viewBox="0 0 375 374.999991" height="500" preserveAspectRatio="xMidYMid meet" version="1.0"><defs><g/><clipPath id="d7fdf9afad"><path d="M 0 25.566406 L 375 25.566406 L 375 349.566406 L 0 349.566406 Z M 0 25.566406 " clip-rule="nonzero"/></clipPath><clipPath id="6f28b7e5f9"><path d="M 374.351562 187.519531 L 280.890625 349.472656 L 93.988281 349.472656 L 0.527344 187.519531 L 93.988281 25.566406 L 280.914062 25.566406 Z M 374.351562 187.519531 " clip-rule="nonzero"/></clipPath></defs><g clip-path="url(#d7fdf9afad)"><g clip-path="url(#6f28b7e5f9)"><path fill="#000000" d="M 0.527344 25.566406 L 0.527344 349.472656 L 374.351562 349.472656 L 374.351562 25.566406 Z M 0.527344 25.566406 " fill-opacity="1" fill-rule="nonzero"/></g></g><path fill="#ffffff" d="M 202.328125 164.085938 C 202.328125 165.058594 202.234375 166.019531 202.046875 166.972656 C 201.855469 167.921875 201.574219 168.847656 201.203125 169.746094 C 200.832031 170.640625 200.378906 171.492188 199.839844 172.300781 C 199.300781 173.105469 198.6875 173.855469 198 174.539062 C 197.3125 175.226562 196.566406 175.839844 195.761719 176.378906 C 194.953125 176.917969 194.101562 177.375 193.203125 177.746094 C 192.308594 178.117188 191.382812 178.394531 190.429688 178.585938 C 189.480469 178.773438 188.519531 178.871094 187.546875 178.871094 C 186.578125 178.871094 185.617188 178.773438 184.664062 178.585938 C 183.710938 178.394531 182.789062 178.117188 181.890625 177.746094 C 180.992188 177.375 180.140625 176.917969 179.335938 176.378906 C 178.527344 175.839844 177.78125 175.226562 177.09375 174.539062 C 176.410156 173.855469 175.796875 173.105469 175.257812 172.300781 C 174.71875 171.492188 174.261719 170.640625 173.890625 169.746094 C 173.519531 168.847656 173.238281 167.921875 173.050781 166.972656 C 172.859375 166.019531 172.765625 165.058594 172.765625 164.085938 C 172.765625 163.117188 172.859375 162.15625 173.050781 161.203125 C 173.238281 160.253906 173.519531 159.328125 173.890625 158.429688 C 174.261719 157.535156 174.71875 156.683594 175.257812 155.875 C 175.796875 155.066406 176.410156 154.320312 177.09375 153.636719 C 177.78125 152.949219 178.527344 152.335938 179.335938 151.796875 C 180.140625 151.257812 180.992188 150.800781 181.890625 150.429688 C 182.789062 150.058594 183.710938 149.777344 184.664062 149.589844 C 185.617188 149.402344 186.578125 149.304688 187.546875 149.304688 C 188.519531 149.304688 189.480469 149.402344 190.429688 149.589844 C 191.382812 149.777344 192.308594 150.058594 193.203125 150.429688 C 194.101562 150.800781 194.953125 151.257812 195.761719 151.796875 C 196.566406 152.335938 197.3125 152.949219 198 153.636719 C 198.6875 154.320312 199.300781 155.066406 199.839844 155.875 C 200.378906 156.683594 200.832031 157.535156 201.203125 158.429688 C 201.574219 159.328125 201.855469 160.253906 202.046875 161.203125 C 202.234375 162.15625 202.328125 163.117188 202.328125 164.085938 Z M 202.328125 164.085938 " fill-opacity="1" fill-rule="nonzero"/><path fill="#ffffff" d="M 146.15625 193.476562 L 142.886719 192.640625 C 118.589844 186.503906 104.652344 176.070312 104.652344 164.054688 C 104.652344 152.03125 118.597656 141.605469 142.886719 135.46875 L 146.15625 134.640625 L 147.078125 137.878906 C 149.535156 146.371094 152.671875 154.605469 156.484375 162.582031 L 157.1875 164.054688 L 156.484375 165.527344 C 152.675781 173.503906 149.519531 181.769531 147.078125 190.25 Z M 141.378906 143.003906 C 122.921875 148.203125 111.582031 156.136719 111.582031 164.054688 C 111.582031 171.953125 122.914062 179.898438 141.378906 185.089844 C 143.640625 177.902344 146.375 170.871094 149.535156 164.054688 C 146.347656 157.21875 143.628906 150.203125 141.378906 143.003906 Z M 228.929688 193.476562 L 228.019531 190.230469 C 225.550781 181.738281 222.414062 173.5 218.601562 165.519531 L 217.898438 164.054688 L 218.601562 162.574219 C 222.410156 154.613281 225.550781 146.339844 228.019531 137.859375 L 228.929688 134.632812 L 232.199219 135.460938 C 256.503906 141.597656 270.433594 152.023438 270.433594 164.054688 C 270.433594 176.078125 256.496094 186.503906 232.199219 192.640625 Z M 225.535156 164.054688 C 228.847656 171.226562 231.605469 178.28125 233.707031 185.089844 C 252.175781 179.898438 263.511719 171.953125 263.511719 164.054688 C 263.511719 156.136719 252.183594 148.210938 233.707031 143.003906 C 231.445312 150.199219 228.722656 157.21875 225.535156 164.054688 Z M 225.535156 164.054688 " fill-opacity="1" fill-rule="nonzero"/><path fill="#ffffff" d="M 141.328125 142.96875 L 140.417969 139.742188 C 133.578125 115.660156 135.648438 98.410156 146.109375 92.398438 C 156.335938 86.476562 172.789062 93.472656 190.023438 111.152344 L 192.375 113.570312 L 190.023438 115.980469 C 183.894531 122.359375 178.316406 129.1875 173.296875 136.46875 L 172.359375 137.8125 L 170.738281 137.945312 C 161.90625 138.636719 153.191406 140.042969 144.59375 142.160156 Z M 154.429688 97.183594 C 152.574219 97.183594 150.9375 97.589844 149.554688 98.382812 C 142.695312 102.335938 141.488281 116.089844 146.207031 134.65625 C 153.585938 133.023438 161.03125 131.855469 168.535156 131.203125 C 172.882812 125.035156 177.609375 119.175781 182.71875 113.621094 C 171.929688 103.128906 161.742188 97.183594 154.429688 97.183594 Z M 220.65625 237.832031 C 210.816406 237.832031 198.179688 230.414062 185.0625 216.945312 L 182.71875 214.539062 L 185.0625 212.136719 C 191.195312 205.75 196.773438 198.910156 201.800781 191.621094 L 202.726562 190.296875 L 204.332031 190.140625 C 213.167969 189.460938 221.882812 188.058594 230.484375 185.941406 L 233.757812 185.113281 L 234.675781 188.351562 C 241.484375 212.417969 239.421875 229.691406 228.980469 235.703125 C 226.398438 237.167969 223.621094 237.875 220.65625 237.832031 Z M 192.375 214.480469 C 203.15625 224.972656 213.351562 230.925781 220.65625 230.925781 C 222.519531 230.925781 224.160156 230.511719 225.535156 229.726562 C 232.398438 225.765625 233.617188 211.988281 228.878906 193.421875 C 221.507812 195.058594 214.054688 196.234375 206.535156 196.890625 C 202.207031 203.066406 197.484375 208.929688 192.375 214.480469 Z M 192.375 214.480469 " fill-opacity="1" fill-rule="nonzero"/><path fill="#ffffff" d="M 233.757812 142.96875 L 230.484375 142.152344 C 221.882812 140.027344 213.167969 138.621094 204.332031 137.9375 L 202.726562 137.792969 L 201.800781 136.453125 C 196.78125 129.167969 191.203125 122.335938 185.0625 115.964844 L 182.71875 113.554688 L 185.0625 111.152344 C 202.289062 93.480469 218.734375 86.484375 228.980469 92.398438 C 239.429688 98.417969 241.507812 115.667969 234.675781 139.742188 Z M 206.535156 131.203125 C 214.4375 131.90625 221.921875 133.089844 228.878906 134.65625 C 233.609375 116.089844 232.398438 102.335938 225.535156 98.375 C 218.710938 94.425781 205.867188 100.472656 192.375 113.621094 C 197.476562 119.171875 202.214844 125.035156 206.535156 131.203125 Z M 154.429688 237.832031 C 151.464844 237.875 148.691406 237.164062 146.109375 235.703125 C 135.648438 229.691406 133.578125 212.425781 140.410156 188.351562 L 141.304688 185.113281 L 144.574219 185.941406 C 152.558594 187.953125 161.355469 189.371094 170.726562 190.140625 L 172.335938 190.296875 L 173.269531 191.621094 C 178.273438 198.894531 183.871094 205.757812 190 212.136719 L 192.351562 214.539062 L 190 216.945312 C 176.890625 230.421875 164.253906 237.832031 154.429688 237.832031 Z M 146.207031 193.429688 C 141.488281 211.996094 142.695312 225.773438 149.554688 229.734375 C 156.386719 233.625 169.1875 227.621094 182.71875 214.480469 C 177.613281 208.925781 172.882812 203.0625 168.535156 196.898438 C 161.015625 196.234375 153.574219 195.078125 146.207031 193.429688 Z M 146.207031 193.429688 " fill-opacity="1" fill-rule="nonzero"/><path fill="#ffffff" d="M 187.546875 197.777344 C 181.859375 197.777344 176.019531 197.535156 170.15625 197.046875 L 168.535156 196.90625 L 167.597656 195.566406 C 164.289062 190.808594 161.183594 185.925781 158.273438 180.914062 C 155.386719 175.890625 152.707031 170.761719 150.230469 165.519531 L 149.535156 164.054688 L 150.230469 162.574219 C 152.707031 157.339844 155.382812 152.203125 158.273438 147.1875 C 161.148438 142.25 164.285156 137.316406 167.597656 132.527344 L 168.535156 131.203125 L 170.15625 131.054688 C 181.746094 130.082031 193.332031 130.082031 204.921875 131.054688 L 206.527344 131.210938 L 207.464844 132.535156 C 214.097656 142.066406 219.894531 152.082031 224.855469 162.582031 L 225.542969 164.0625 L 224.855469 165.527344 C 219.910156 176.035156 214.113281 186.050781 207.464844 195.574219 L 206.527344 196.914062 L 204.921875 197.054688 C 199.074219 197.527344 193.226562 197.777344 187.546875 197.777344 Z M 172.359375 190.289062 C 182.585938 191.058594 192.507812 191.058594 202.726562 190.289062 C 208.441406 181.925781 213.496094 173.179688 217.898438 164.054688 C 213.511719 154.921875 208.457031 146.175781 202.726562 137.820312 C 192.605469 137.039062 182.480469 137.039062 172.359375 137.820312 C 166.625 146.171875 161.570312 154.917969 157.1875 164.054688 C 161.597656 173.171875 166.65625 181.917969 172.359375 190.289062 Z M 172.359375 190.289062 " fill-opacity="1" fill-rule="nonzero"/><g fill="#ffffff" fill-opacity="1"><g transform="translate(121.8457, 293.072734)"><g><path d="M 16.796875 0 L 10.953125 -10.59375 L 9.3125 -10.59375 L 9.3125 0 L 2.484375 0 L 2.484375 -28.078125 L 13.953125 -28.078125 C 16.171875 -28.078125 18.054688 -27.691406 19.609375 -26.921875 C 21.171875 -26.148438 22.335938 -25.085938 23.109375 -23.734375 C 23.890625 -22.390625 24.28125 -20.890625 24.28125 -19.234375 C 24.28125 -17.367188 23.753906 -15.703125 22.703125 -14.234375 C 21.648438 -12.773438 20.097656 -11.738281 18.046875 -11.125 L 24.515625 0 Z M 9.3125 -15.4375 L 13.5625 -15.4375 C 14.8125 -15.4375 15.75 -15.742188 16.375 -16.359375 C 17 -16.972656 17.3125 -17.835938 17.3125 -18.953125 C 17.3125 -20.023438 17 -20.867188 16.375 -21.484375 C 15.75 -22.097656 14.8125 -22.40625 13.5625 -22.40625 L 9.3125 -22.40625 Z M 9.3125 -15.4375 "/></g></g></g><g fill="#ffffff" fill-opacity="1"><g transform="translate(147.923109, 293.072734)"><g><path d="M 9.3125 -22.59375 L 9.3125 -16.921875 L 18.484375 -16.921875 L 18.484375 -11.640625 L 9.3125 -11.640625 L 9.3125 -5.484375 L 19.6875 -5.484375 L 19.6875 0 L 2.484375 0 L 2.484375 -28.078125 L 19.6875 -28.078125 L 19.6875 -22.59375 Z M 9.3125 -22.59375 "/></g></g></g><g fill="#ffffff" fill-opacity="1"><g transform="translate(169.560956, 293.072734)"><g><path d="M 19.953125 -4.953125 L 9.484375 -4.953125 L 7.796875 0 L 0.640625 0 L 10.796875 -28.078125 L 18.71875 -28.078125 L 28.875 0 L 21.640625 0 Z M 18.203125 -10.234375 L 14.71875 -20.515625 L 11.28125 -10.234375 Z M 18.203125 -10.234375 "/></g></g></g><g fill="#ffffff" fill-opacity="1"><g transform="translate(199.038028, 293.072734)"><g><path d="M 1.3125 -14.078125 C 1.3125 -16.847656 1.910156 -19.320312 3.109375 -21.5 C 4.316406 -23.675781 5.992188 -25.367188 8.140625 -26.578125 C 10.285156 -27.796875 12.71875 -28.40625 15.4375 -28.40625 C 18.769531 -28.40625 21.625 -27.523438 24 -25.765625 C 26.375 -24.003906 27.960938 -21.601562 28.765625 -18.5625 L 21.234375 -18.5625 C 20.679688 -19.726562 19.890625 -20.617188 18.859375 -21.234375 C 17.828125 -21.847656 16.660156 -22.15625 15.359375 -22.15625 C 13.253906 -22.15625 11.546875 -21.421875 10.234375 -19.953125 C 8.929688 -18.492188 8.28125 -16.535156 8.28125 -14.078125 C 8.28125 -11.628906 8.929688 -9.671875 10.234375 -8.203125 C 11.546875 -6.734375 13.253906 -6 15.359375 -6 C 16.660156 -6 17.828125 -6.304688 18.859375 -6.921875 C 19.890625 -7.535156 20.679688 -8.425781 21.234375 -9.59375 L 28.765625 -9.59375 C 27.960938 -6.5625 26.375 -4.171875 24 -2.421875 C 21.625 -0.671875 18.769531 0.203125 15.4375 0.203125 C 12.71875 0.203125 10.285156 -0.398438 8.140625 -1.609375 C 5.992188 -2.828125 4.316406 -4.515625 3.109375 -6.671875 C 1.910156 -8.835938 1.3125 -11.304688 1.3125 -14.078125 Z M 1.3125 -14.078125 "/></g></g></g><g fill="#ffffff" fill-opacity="1"><g transform="translate(229.515004, 293.072734)"><g><path d="M 22.6875 -28.078125 L 22.6875 -22.59375 L 15.234375 -22.59375 L 15.234375 0 L 8.40625 0 L 8.40625 -22.59375 L 0.953125 -22.59375 L 0.953125 -28.078125 Z M 22.6875 -28.078125 "/></g></g></g></svg>