<svg xmlns="http://www.w3.org/2000/svg" xmlns:xlink="http://www.w3.org/1999/xlink" width="500" zoomAndPan="magnify" viewBox="0 0 375 374.999991" height="500" preserveAspectRatio="xMidYMid meet" version="1.0"><defs><g/><clipPath id="b263d1d514"><path d="M 0 25.566406 L 375 25.566406 L 375 349.566406 L 0 349.566406 Z M 0 25.566406 " clip-rule="nonzero"/></clipPath><clipPath id="8c70b6381d"><path d="M 374.351562 187.519531 L 280.890625 349.472656 L 93.988281 349.472656 L 0.527344 187.519531 L 93.988281 25.566406 L 280.914062 25.566406 Z M 374.351562 187.519531 " clip-rule="nonzero"/></clipPath></defs><g clip-path="url(#b263d1d514)"><g clip-path="url(#8c70b6381d)"><path fill="#000000" d="M 0.527344 25.566406 L 0.527344 349.472656 L 374.351562 349.472656 L 374.351562 25.566406 Z M 0.527344 25.566406 " fill-opacity="1" fill-rule="nonzero"/></g></g><path fill="#ffffff" d="M 126.023438 85.414062 L 248.90625 85.414062 L 237.726562 211.585938 L 187.328125 225.851562 L 137.21875 211.585938 Z M 167.164062 142.460938 L 165.8125 126.5625 L 224.664062 126.578125 L 226.015625 111.242188 L 148.90625 111.226562 L 152.984375 158.085938 L 206.382812 158.085938 L 204.484375 178.132812 L 187.460938 182.835938 L 170.164062 178.109375 L 169.0625 165.765625 L 153.796875 165.765625 L 155.726562 190.164062 L 187.460938 198.648438 L 218.929688 190.210938 L 223.289062 142.46875 L 167.164062 142.46875 Z M 167.164062 142.460938 " fill-opacity="1" fill-rule="nonzero"/><g fill="#ffffff" fill-opacity="1"><g transform="translate(120.164058, 293.072676)"><g><path d="M 26.796875 -28.078125 L 26.796875 0 L 19.953125 0 L 19.953125 -11.5625 L 9.3125 -11.5625 L 9.3125 0 L 2.484375 0 L 2.484375 -28.078125 L 9.3125 -28.078125 L 9.3125 -17.078125 L 19.953125 -17.078125 L 19.953125 -28.078125 Z M 26.796875 -28.078125 "/></g></g></g><g fill="#ffffff" fill-opacity="1"><g transform="translate(149.401147, 293.072676)"><g><path d="M 22.6875 -28.078125 L 22.6875 -22.59375 L 15.234375 -22.59375 L 15.234375 0 L 8.40625 0 L 8.40625 -22.59375 L 0.953125 -22.59375 L 0.953125 -28.078125 Z M 22.6875 -28.078125 "/></g></g></g><g fill="#ffffff" fill-opacity="1"><g transform="translate(173.038803, 293.072676)"><g><path d="M 34.28125 -28.078125 L 34.28125 0 L 27.4375 0 L 27.4375 -16.84375 L 21.15625 0 L 15.640625 0 L 9.3125 -16.875 L 9.3125 0 L 2.484375 0 L 2.484375 -28.078125 L 10.5625 -28.078125 L 18.4375 -8.640625 L 26.234375 -28.078125 Z M 34.28125 -28.078125 "/></g></g></g><g fill="#ffffff" fill-opacity="1"><g transform="translate(209.755155, 293.072676)"><g><path d="M 9.3125 -5.28125 L 18.28125 -5.28125 L 18.28125 0 L 2.484375 0 L 2.484375 -28.078125 L 9.3125 -28.078125 Z M 9.3125 -5.28125 "/></g></g></g><g fill="#ffffff" fill-opacity="1"><g transform="translate(228.833255, 293.072676)"><g><path d="M 22.359375 -23.234375 L 9.875 -23.234375 L 9.875 -17.71875 C 10.414062 -18.300781 11.164062 -18.78125 12.125 -19.15625 C 13.082031 -19.53125 14.117188 -19.71875 15.234375 -19.71875 C 17.234375 -19.71875 18.894531 -19.265625 20.21875 -18.359375 C 21.539062 -17.453125 22.507812 -16.28125 23.125 -14.84375 C 23.738281 -13.40625 24.046875 -11.84375 24.046875 -10.15625 C 24.046875 -7.039062 23.164062 -4.566406 21.40625 -2.734375 C 19.644531 -0.910156 17.160156 0 13.953125 0 C 11.828125 0 9.976562 -0.363281 8.40625 -1.09375 C 6.832031 -1.832031 5.617188 -2.851562 4.765625 -4.15625 C 3.910156 -5.46875 3.441406 -6.976562 3.359375 -8.6875 L 10.046875 -8.6875 C 10.203125 -7.851562 10.585938 -7.160156 11.203125 -6.609375 C 11.816406 -6.066406 12.65625 -5.796875 13.71875 -5.796875 C 14.96875 -5.796875 15.898438 -6.195312 16.515625 -7 C 17.128906 -7.800781 17.4375 -8.867188 17.4375 -10.203125 C 17.4375 -11.503906 17.113281 -12.5 16.46875 -13.1875 C 15.832031 -13.882812 14.90625 -14.234375 13.6875 -14.234375 C 12.769531 -14.234375 12.019531 -14.015625 11.4375 -13.578125 C 10.851562 -13.140625 10.46875 -12.5625 10.28125 -11.84375 L 3.6875 -11.84375 L 3.6875 -29.234375 L 22.359375 -29.234375 Z M 22.359375 -23.234375 "/></g></g></g></svg>