<svg xmlns="http://www.w3.org/2000/svg" xmlns:xlink="http://www.w3.org/1999/xlink" width="500" zoomAndPan="magnify" viewBox="0 0 375 374.999991" height="500" preserveAspectRatio="xMidYMid meet" version="1.0"><defs><g/><clipPath id="e19d8a6084"><path d="M 0 25.566406 L 375 25.566406 L 375 349.566406 L 0 349.566406 Z M 0 25.566406 " clip-rule="nonzero"/></clipPath><clipPath id="5c25e44240"><path d="M 374.351562 187.519531 L 280.890625 349.472656 L 93.988281 349.472656 L 0.527344 187.519531 L 93.988281 25.566406 L 280.914062 25.566406 Z M 374.351562 187.519531 " clip-rule="nonzero"/></clipPath></defs><g clip-path="url(#e19d8a6084)"><g clip-path="url(#5c25e44240)"><path fill="#000000" d="M 0.527344 25.566406 L 0.527344 349.472656 L 374.351562 349.472656 L 374.351562 25.566406 Z M 0.527344 25.566406 " fill-opacity="1" fill-rule="nonzero"/></g></g><g fill="#ffffff" fill-opacity="1"><g transform="translate(121.8457, 258.331272)"><g><path d="M 16.796875 0 L 10.953125 -10.59375 L 9.3125 -10.59375 L 9.3125 0 L 2.484375 0 L 2.484375 -28.078125 L 13.953125 -28.078125 C 16.171875 -28.078125 18.054688 -27.691406 19.609375 -26.921875 C 21.171875 -26.148438 22.335938 -25.085938 23.109375 -23.734375 C 23.890625 -22.390625 24.28125 -20.890625 24.28125 -19.234375 C 24.28125 -17.367188 23.753906 -15.703125 22.703125 -14.234375 C 21.648438 -12.773438 20.097656 -11.738281 18.046875 -11.125 L 24.515625 0 Z M 9.3125 -15.4375 L 13.5625 -15.4375 C 14.8125 -15.4375 15.75 -15.742188 16.375 -16.359375 C 17 -16.972656 17.3125 -17.835938 17.3125 -18.953125 C 17.3125 -20.023438 17 -20.867188 16.375 -21.484375 C 15.75 -22.097656 14.8125 -22.40625 13.5625 -22.40625 L 9.3125 -22.40625 Z M 9.3125 -15.4375 "/></g></g></g><g fill="#ffffff" fill-opacity="1"><g transform="translate(147.923109, 258.331272)"><g><path d="M 9.3125 -22.59375 L 9.3125 -16.921875 L 18.484375 -16.921875 L 18.484375 -11.640625 L 9.3125 -11.640625 L 9.3125 -5.484375 L 19.6875 -5.484375 L 19.6875 0 L 2.484375 0 L 2.484375 -28.078125 L 19.6875 -28.078125 L 19.6875 -22.59375 Z M 9.3125 -22.59375 "/></g></g></g><g fill="#ffffff" fill-opacity="1"><g transform="translate(169.560956, 258.331272)"><g><path d="M 19.953125 -4.953125 L 9.484375 -4.953125 L 7.796875 0 L 0.640625 0 L 10.796875 -28.078125 L 18.71875 -28.078125 L 28.875 0 L 21.640625 0 Z M 18.203125 -10.234375 L 14.71875 -20.515625 L 11.28125 -10.234375 Z M 18.203125 -10.234375 "/></g></g></g><g fill="#ffffff" fill-opacity="1"><g transform="translate(199.038028, 258.331272)"><g><path d="M 1.3125 -14.078125 C 1.3125 -16.847656 1.910156 -19.320312 3.109375 -21.5 C 4.316406 -23.675781 5.992188 -25.367188 8.140625 -26.578125 C 10.285156 -27.796875 12.71875 -28.40625 15.4375 -28.40625 C 18.769531 -28.40625 21.625 -27.523438 24 -25.765625 C 26.375 -24.003906 27.960938 -21.601562 28.765625 -18.5625 L 21.234375 -18.5625 C 20.679688 -19.726562 19.890625 -20.617188 18.859375 -21.234375 C 17.828125 -21.847656 16.660156 -22.15625 15.359375 -22.15625 C 13.253906 -22.15625 11.546875 -21.421875 10.234375 -19.953125 C 8.929688 -18.492188 8.28125 -16.535156 8.28125 -14.078125 C 8.28125 -11.628906 8.929688 -9.671875 10.234375 -8.203125 C 11.546875 -6.734375 13.253906 -6 15.359375 -6 C 16.660156 -6 17.828125 -6.304688 18.859375 -6.921875 C 19.890625 -7.535156 20.679688 -8.425781 21.234375 -9.59375 L 28.765625 -9.59375 C 27.960938 -6.5625 26.375 -4.171875 24 -2.421875 C 21.625 -0.671875 18.769531 0.203125 15.4375 0.203125 C 12.71875 0.203125 10.285156 -0.398438 8.140625 -1.609375 C 5.992188 -2.828125 4.316406 -4.515625 3.109375 -6.671875 C 1.910156 -8.835938 1.3125 -11.304688 1.3125 -14.078125 Z M 1.3125 -14.078125 "/></g></g></g><g fill="#ffffff" fill-opacity="1"><g transform="translate(229.515004, 258.331272)"><g><path d="M 22.6875 -28.078125 L 22.6875 -22.59375 L 15.234375 -22.59375 L 15.234375 0 L 8.40625 0 L 8.40625 -22.59375 L 0.953125 -22.59375 L 0.953125 -28.078125 Z M 22.6875 -28.078125 "/></g></g></g><g fill="#ffffff" fill-opacity="1"><g transform="translate(114.585935, 300.818711)"><g><path d="M 27.59375 0 L 20.765625 0 L 9.3125 -17.3125 L 9.3125 0 L 2.484375 0 L 2.484375 -28.078125 L 9.3125 -28.078125 L 20.765625 -10.6875 L 20.765625 -28.078125 L 27.59375 -28.078125 Z M 27.59375 0 "/></g></g></g><g fill="#ffffff" fill-opacity="1"><g transform="translate(144.662952, 300.818711)"><g><path d="M 19.953125 -4.953125 L 9.484375 -4.953125 L 7.796875 0 L 0.640625 0 L 10.796875 -28.078125 L 18.71875 -28.078125 L 28.875 0 L 21.640625 0 Z M 18.203125 -10.234375 L 14.71875 -20.515625 L 11.28125 -10.234375 Z M 18.203125 -10.234375 "/></g></g></g><g fill="#ffffff" fill-opacity="1"><g transform="translate(174.140024, 300.818711)"><g><path d="M 22.6875 -28.078125 L 22.6875 -22.59375 L 15.234375 -22.59375 L 15.234375 0 L 8.40625 0 L 8.40625 -22.59375 L 0.953125 -22.59375 L 0.953125 -28.078125 Z M 22.6875 -28.078125 "/></g></g></g><g fill="#ffffff" fill-opacity="1"><g transform="translate(197.77768, 300.818711)"><g><path d="M 9.3125 -28.078125 L 9.3125 0 L 2.484375 0 L 2.484375 -28.078125 Z M 9.3125 -28.078125 "/></g></g></g><g fill="#ffffff" fill-opacity="1"><g transform="translate(209.576503, 300.818711)"><g><path d="M 28.84375 -28.078125 L 18.875 0 L 10.3125 0 L 0.359375 -28.078125 L 7.640625 -28.078125 L 14.59375 -6.875 L 21.59375 -28.078125 Z M 28.84375 -28.078125 "/></g></g></g><g fill="#ffffff" fill-opacity="1"><g transform="translate(238.773607, 300.818711)"><g><path d="M 9.3125 -22.59375 L 9.3125 -16.921875 L 18.484375 -16.921875 L 18.484375 -11.640625 L 9.3125 -11.640625 L 9.3125 -5.484375 L 19.6875 -5.484375 L 19.6875 0 L 2.484375 0 L 2.484375 -28.078125 L 19.6875 -28.078125 L 19.6875 -22.59375 Z M 9.3125 -22.59375 "/></g></g></g><path fill="#ffffff" d="M 202.328125 130.621094 C 202.328125 131.59375 202.234375 132.554688 202.046875 133.507812 C 201.855469 134.457031 201.574219 135.382812 201.203125 136.28125 C 200.832031 137.175781 200.378906 138.027344 199.839844 138.835938 C 199.300781 139.640625 198.6875 140.390625 198 141.074219 C 197.3125 141.761719 196.566406 142.375 195.761719 142.914062 C 194.953125 143.453125 194.101562 143.90625 193.203125 144.28125 C 192.308594 144.652344 191.382812 144.929688 190.429688 145.121094 C 189.480469 145.308594 188.519531 145.40625 187.546875 145.40625 C 186.578125 145.40625 185.617188 145.308594 184.664062 145.121094 C 183.710938 144.929688 182.789062 144.652344 181.890625 144.28125 C 180.992188 143.90625 180.140625 143.453125 179.335938 142.914062 C 178.527344 142.375 177.78125 141.761719 177.09375 141.074219 C 176.410156 140.390625 175.796875 139.640625 175.257812 138.835938 C 174.71875 138.027344 174.261719 137.175781 173.890625 136.28125 C 173.519531 135.382812 173.238281 134.457031 173.050781 133.507812 C 172.859375 132.554688 172.765625 131.59375 172.765625 130.621094 C 172.765625 129.652344 172.859375 128.691406 173.050781 127.738281 C 173.238281 126.785156 173.519531 125.863281 173.890625 124.964844 C 174.261719 124.070312 174.71875 123.21875 175.257812 122.410156 C 175.796875 121.601562 176.410156 120.855469 177.09375 120.171875 C 177.78125 119.484375 178.527344 118.871094 179.335938 118.332031 C 180.140625 117.792969 180.992188 117.335938 181.890625 116.964844 C 182.789062 116.59375 183.710938 116.3125 184.664062 116.125 C 185.617188 115.933594 186.578125 115.839844 187.546875 115.839844 C 188.519531 115.839844 189.480469 115.933594 190.429688 116.125 C 191.382812 116.3125 192.308594 116.59375 193.203125 116.964844 C 194.101562 117.335938 194.953125 117.792969 195.761719 118.332031 C 196.566406 118.871094 197.3125 119.484375 198 120.171875 C 198.6875 120.855469 199.300781 121.601562 199.839844 122.410156 C 200.378906 123.21875 200.832031 124.070312 201.203125 124.964844 C 201.574219 125.863281 201.855469 126.785156 202.046875 127.738281 C 202.234375 128.691406 202.328125 129.652344 202.328125 130.621094 Z M 202.328125 130.621094 " fill-opacity="1" fill-rule="nonzero"/><path fill="#ffffff" d="M 146.15625 160.011719 L 142.886719 159.175781 C 118.589844 153.039062 104.652344 142.605469 104.652344 130.589844 C 104.652344 118.566406 118.597656 108.140625 142.886719 102.003906 L 146.15625 101.175781 L 147.078125 104.414062 C 149.535156 112.902344 152.671875 121.136719 156.484375 129.117188 L 157.1875 130.589844 L 156.484375 132.0625 C 152.675781 140.039062 149.519531 148.304688 147.078125 156.78125 Z M 141.378906 109.539062 C 122.921875 114.738281 111.582031 122.671875 111.582031 130.589844 C 111.582031 138.488281 122.914062 146.429688 141.378906 151.625 C 143.640625 144.4375 146.375 137.40625 149.535156 130.589844 C 146.347656 123.753906 143.628906 116.738281 141.378906 109.539062 Z M 228.929688 160.011719 L 228.019531 156.765625 C 225.550781 148.273438 222.414062 140.035156 218.601562 132.054688 L 217.898438 130.589844 L 218.601562 129.105469 C 222.410156 121.148438 225.550781 112.875 228.019531 104.394531 L 228.929688 101.167969 L 232.199219 101.996094 C 256.503906 108.128906 270.433594 118.558594 270.433594 130.589844 C 270.433594 142.613281 256.496094 153.039062 232.199219 159.175781 Z M 225.535156 130.589844 C 228.847656 137.761719 231.605469 144.816406 233.707031 151.625 C 252.175781 146.429688 263.511719 138.488281 263.511719 130.589844 C 263.511719 122.671875 252.183594 114.746094 233.707031 109.539062 C 231.445312 116.734375 228.722656 123.753906 225.535156 130.589844 Z M 225.535156 130.589844 " fill-opacity="1" fill-rule="nonzero"/><path fill="#ffffff" d="M 141.328125 109.503906 L 140.417969 106.277344 C 133.578125 82.195312 135.648438 64.945312 146.109375 58.933594 C 156.335938 53.011719 172.789062 60.007812 190.023438 77.6875 L 192.375 80.105469 L 190.023438 82.515625 C 183.894531 88.894531 178.316406 95.722656 173.296875 103.003906 L 172.359375 104.347656 L 170.738281 104.480469 C 161.90625 105.171875 153.191406 106.578125 144.59375 108.695312 Z M 154.429688 63.71875 C 152.574219 63.71875 150.9375 64.125 149.554688 64.917969 C 142.695312 68.871094 141.488281 82.625 146.207031 101.191406 C 153.585938 99.558594 161.03125 98.390625 168.535156 97.738281 C 172.882812 91.570312 177.609375 85.710938 182.71875 80.15625 C 171.929688 69.664062 161.742188 63.71875 154.429688 63.71875 Z M 220.65625 204.367188 C 210.816406 204.367188 198.179688 196.945312 185.0625 183.480469 L 182.71875 181.070312 L 185.0625 178.671875 C 191.195312 172.285156 196.773438 165.445312 201.800781 158.15625 L 202.726562 156.832031 L 204.332031 156.675781 C 213.167969 155.996094 221.882812 154.59375 230.484375 152.476562 L 233.757812 151.648438 L 234.675781 154.886719 C 241.484375 178.953125 239.421875 196.226562 228.980469 202.238281 C 226.398438 203.703125 223.621094 204.410156 220.65625 204.367188 Z M 192.375 181.015625 C 203.15625 191.507812 213.351562 197.460938 220.65625 197.460938 C 222.519531 197.460938 224.160156 197.046875 225.535156 196.261719 C 232.398438 192.300781 233.617188 178.519531 228.878906 159.953125 C 221.507812 161.59375 214.054688 162.769531 206.535156 163.425781 C 202.207031 169.601562 197.484375 175.464844 192.375 181.015625 Z M 192.375 181.015625 " fill-opacity="1" fill-rule="nonzero"/><path fill="#ffffff" d="M 233.757812 109.503906 L 230.484375 108.6875 C 221.882812 106.5625 213.167969 105.15625 204.332031 104.46875 L 202.726562 104.328125 L 201.800781 102.988281 C 196.78125 95.703125 191.203125 88.871094 185.0625 82.5 L 182.71875 80.089844 L 185.0625 77.6875 C 202.289062 60.015625 218.734375 53.019531 228.980469 58.933594 C 239.429688 64.953125 241.507812 82.203125 234.675781 106.277344 Z M 206.535156 97.738281 C 214.4375 98.441406 221.921875 99.625 228.878906 101.191406 C 233.609375 82.625 232.398438 68.871094 225.535156 64.910156 C 218.710938 60.960938 205.867188 67.007812 192.375 80.15625 C 197.476562 85.707031 202.214844 91.566406 206.535156 97.738281 Z M 154.429688 204.367188 C 151.464844 204.410156 148.691406 203.699219 146.109375 202.238281 C 135.648438 196.226562 133.578125 178.960938 140.410156 154.886719 L 141.304688 151.648438 L 144.574219 152.476562 C 152.558594 154.488281 161.355469 155.90625 170.726562 156.675781 L 172.335938 156.832031 L 173.269531 158.15625 C 178.273438 165.429688 183.871094 172.292969 190 178.671875 L 192.351562 181.070312 L 190 183.480469 C 176.890625 196.957031 164.253906 204.367188 154.429688 204.367188 Z M 146.207031 159.964844 C 141.488281 178.53125 142.695312 192.308594 149.554688 196.269531 C 156.386719 200.160156 169.1875 194.15625 182.71875 181.015625 C 177.613281 175.460938 172.882812 169.597656 168.535156 163.433594 C 161.015625 162.769531 153.574219 161.613281 146.207031 159.964844 Z M 146.207031 159.964844 " fill-opacity="1" fill-rule="nonzero"/><path fill="#ffffff" d="M 187.546875 164.3125 C 181.859375 164.3125 176.019531 164.070312 170.15625 163.582031 L 168.535156 163.441406 L 167.597656 162.101562 C 164.289062 157.34375 161.183594 152.460938 158.273438 147.449219 C 155.386719 142.425781 152.707031 137.296875 150.230469 132.054688 L 149.535156 130.589844 L 150.230469 129.105469 C 152.707031 123.875 155.382812 118.738281 158.273438 113.71875 C 161.148438 108.785156 164.285156 103.847656 167.597656 99.0625 L 168.535156 97.738281 L 170.15625 97.589844 C 181.746094 96.617188 193.332031 96.617188 204.921875 97.589844 L 206.527344 97.746094 L 207.464844 99.070312 C 214.097656 108.601562 219.894531 118.617188 224.855469 129.117188 L 225.542969 130.597656 L 224.855469 132.0625 C 219.910156 142.570312 214.113281 152.585938 207.464844 162.109375 L 206.527344 163.449219 L 204.921875 163.589844 C 199.074219 164.0625 193.226562 164.3125 187.546875 164.3125 Z M 172.359375 156.824219 C 182.585938 157.59375 192.507812 157.59375 202.726562 156.824219 C 208.441406 148.457031 213.496094 139.714844 217.898438 130.589844 C 213.511719 121.457031 208.457031 112.710938 202.726562 104.355469 C 192.605469 103.574219 182.480469 103.574219 172.359375 104.355469 C 166.625 112.707031 161.570312 121.453125 157.1875 130.589844 C 161.597656 139.707031 166.65625 148.453125 172.359375 156.824219 Z M 172.359375 156.824219 " fill-opacity="1" fill-rule="nonzero"/></svg>