<svg xmlns="http://www.w3.org/2000/svg" xmlns:xlink="http://www.w3.org/1999/xlink" width="500" zoomAndPan="magnify" viewBox="0 0 375 374.999991" height="500" preserveAspectRatio="xMidYMid meet" version="1.0"><path fill="#ff3131" d="M 337.8125 173.5625 L 201.390625 37.171875 C 200.921875 36.707031 200.433594 36.265625 199.925781 35.847656 C 199.414062 35.429688 198.882812 35.039062 198.335938 34.675781 C 197.785156 34.308594 197.222656 33.972656 196.640625 33.660156 C 196.058594 33.351562 195.460938 33.070312 194.851562 32.820312 C 194.242188 32.566406 193.625 32.347656 192.992188 32.15625 C 192.359375 31.964844 191.722656 31.804688 191.074219 31.675781 C 190.429688 31.550781 189.777344 31.453125 189.121094 31.386719 C 188.464844 31.324219 187.808594 31.292969 187.148438 31.292969 C 186.488281 31.292969 185.832031 31.324219 185.175781 31.386719 C 184.519531 31.453125 183.867188 31.550781 183.222656 31.675781 C 182.574219 31.804688 181.9375 31.964844 181.304688 32.15625 C 180.671875 32.347656 180.054688 32.566406 179.445312 32.820312 C 178.835938 33.070312 178.238281 33.351562 177.65625 33.660156 C 177.074219 33.972656 176.511719 34.308594 175.960938 34.675781 C 175.414062 35.039062 174.882812 35.429688 174.371094 35.847656 C 173.863281 36.265625 173.375 36.707031 172.90625 37.171875 L 144.640625 65.46875 L 180.5625 101.40625 C 181.617188 101.050781 182.691406 100.769531 183.785156 100.5625 C 184.878906 100.355469 185.980469 100.226562 187.09375 100.171875 C 188.203125 100.121094 189.3125 100.144531 190.421875 100.246094 C 191.53125 100.351562 192.625 100.527344 193.710938 100.785156 C 194.792969 101.039062 195.855469 101.367188 196.890625 101.769531 C 197.929688 102.171875 198.933594 102.644531 199.90625 103.1875 C 200.875 103.734375 201.804688 104.339844 202.691406 105.011719 C 203.578125 105.6875 204.414062 106.417969 205.199219 107.207031 C 205.984375 107.996094 206.710938 108.835938 207.378906 109.726562 C 208.046875 110.617188 208.648438 111.546875 209.1875 112.523438 C 209.722656 113.496094 210.191406 114.503906 210.585938 115.542969 C 210.984375 116.585938 211.308594 117.644531 211.554688 118.730469 C 211.804688 119.816406 211.976562 120.914062 212.074219 122.023438 C 212.167969 123.128906 212.1875 124.242188 212.128906 125.351562 C 212.070312 126.464844 211.933594 127.566406 211.722656 128.65625 C 211.507812 129.75 211.222656 130.824219 210.859375 131.875 L 245.453125 166.515625 C 246.722656 166.070312 248.023438 165.734375 249.351562 165.507812 C 250.679688 165.28125 252.019531 165.167969 253.367188 165.167969 C 254.710938 165.167969 256.050781 165.28125 257.378906 165.507812 C 258.707031 165.730469 260.007812 166.066406 261.277344 166.511719 C 262.550781 166.960938 263.773438 167.507812 264.953125 168.160156 C 266.132812 168.8125 267.246094 169.5625 268.300781 170.402344 C 269.351562 171.246094 270.324219 172.167969 271.222656 173.175781 C 272.117188 174.179688 272.921875 175.253906 273.636719 176.398438 C 274.351562 177.539062 274.964844 178.734375 275.476562 179.980469 C 275.988281 181.226562 276.394531 182.503906 276.691406 183.820312 C 276.984375 185.132812 277.171875 186.464844 277.242188 187.808594 C 277.3125 189.15625 277.269531 190.496094 277.113281 191.835938 C 276.960938 193.171875 276.691406 194.488281 276.3125 195.78125 C 275.9375 197.074219 275.453125 198.328125 274.863281 199.539062 C 274.273438 200.75 273.585938 201.902344 272.800781 202.996094 C 272.015625 204.09375 271.144531 205.113281 270.1875 206.0625 C 260.828125 215.4375 245.71875 215.4375 236.34375 206.0625 C 235.515625 205.234375 234.753906 204.347656 234.054688 203.40625 C 233.355469 202.46875 232.730469 201.480469 232.175781 200.449219 C 231.621094 199.414062 231.144531 198.347656 230.746094 197.246094 C 230.351562 196.144531 230.035156 195.019531 229.800781 193.871094 C 229.570312 192.722656 229.421875 191.5625 229.359375 190.394531 C 229.296875 189.222656 229.316406 188.054688 229.425781 186.886719 C 229.535156 185.722656 229.726562 184.570312 230.003906 183.429688 C 230.28125 182.292969 230.636719 181.179688 231.078125 180.09375 L 198.671875 147.859375 L 198.671875 232.8125 C 200.953125 233.921875 203.140625 235.453125 205.03125 237.34375 C 205.582031 237.898438 206.105469 238.480469 206.601562 239.085938 C 207.097656 239.695312 207.558594 240.324219 207.992188 240.976562 C 208.425781 241.628906 208.828125 242.300781 209.195312 242.992188 C 209.5625 243.683594 209.894531 244.390625 210.195312 245.113281 C 210.492188 245.839844 210.753906 246.574219 210.980469 247.324219 C 211.207031 248.074219 211.394531 248.832031 211.546875 249.601562 C 211.699219 250.371094 211.816406 251.144531 211.890625 251.921875 C 211.96875 252.703125 212.003906 253.484375 212.003906 254.265625 C 212.003906 255.046875 211.96875 255.828125 211.890625 256.609375 C 211.816406 257.386719 211.699219 258.160156 211.546875 258.929688 C 211.394531 259.699219 211.207031 260.457031 210.980469 261.207031 C 210.753906 261.957031 210.492188 262.691406 210.195312 263.417969 C 209.894531 264.140625 209.5625 264.847656 209.195312 265.539062 C 208.828125 266.230469 208.425781 266.902344 207.992188 267.554688 C 207.558594 268.207031 207.097656 268.835938 206.601562 269.445312 C 206.105469 270.050781 205.582031 270.632812 205.03125 271.1875 C 204.476562 271.746094 203.894531 272.273438 203.285156 272.773438 C 202.675781 273.273438 202.046875 273.742188 201.394531 274.179688 C 200.738281 274.617188 200.066406 275.019531 199.371094 275.390625 C 198.675781 275.761719 197.96875 276.097656 197.242188 276.398438 C 196.511719 276.703125 195.773438 276.964844 195.019531 277.195312 C 194.269531 277.421875 193.503906 277.613281 192.734375 277.769531 C 191.960938 277.921875 191.183594 278.039062 190.402344 278.113281 C 189.617188 278.191406 188.832031 278.230469 188.046875 278.230469 C 187.261719 278.230469 186.476562 278.191406 185.691406 278.113281 C 184.910156 278.039062 184.132812 277.921875 183.359375 277.769531 C 182.589844 277.613281 181.824219 277.421875 181.074219 277.195312 C 180.320312 276.964844 179.582031 276.703125 178.851562 276.398438 C 178.125 276.097656 177.417969 275.761719 176.722656 275.390625 C 176.027344 275.019531 175.355469 274.617188 174.699219 274.179688 C 174.046875 273.742188 173.417969 273.273438 172.808594 272.773438 C 172.199219 272.273438 171.617188 271.746094 171.0625 271.1875 C 170.507812 270.632812 169.980469 270.054688 169.484375 269.449219 C 168.984375 268.84375 168.519531 268.21875 168.082031 267.566406 C 167.648438 266.914062 167.246094 266.246094 166.875 265.554688 C 166.503906 264.863281 166.167969 264.15625 165.871094 263.433594 C 165.570312 262.710938 165.304688 261.972656 165.078125 261.222656 C 164.847656 260.472656 164.660156 259.714844 164.507812 258.949219 C 164.351562 258.179688 164.238281 257.40625 164.160156 256.625 C 164.085938 255.847656 164.046875 255.066406 164.046875 254.28125 C 164.046875 253.496094 164.085938 252.714844 164.160156 251.9375 C 164.238281 251.15625 164.351562 250.382812 164.507812 249.613281 C 164.660156 248.847656 164.847656 248.089844 165.078125 247.339844 C 165.304688 246.589844 165.570312 245.851562 165.871094 245.128906 C 166.167969 244.40625 166.503906 243.699219 166.875 243.007812 C 167.246094 242.316406 167.648438 241.648438 168.082031 240.996094 C 168.519531 240.34375 168.984375 239.71875 169.484375 239.113281 C 169.980469 238.507812 170.507812 237.929688 171.0625 237.375 C 173.4375 235.03125 176.09375 233.25 178.9375 232.078125 L 178.9375 146.296875 C 178.207031 146 177.496094 145.664062 176.800781 145.296875 C 176.105469 144.925781 175.429688 144.527344 174.773438 144.089844 C 174.117188 143.65625 173.484375 143.1875 172.875 142.691406 C 172.265625 142.191406 171.683594 141.664062 171.125 141.109375 C 170.566406 140.554688 170.039062 139.972656 169.539062 139.363281 C 169.039062 138.753906 168.570312 138.125 168.132812 137.46875 C 167.695312 136.816406 167.289062 136.140625 166.917969 135.445312 C 166.546875 134.753906 166.210938 134.042969 165.910156 133.3125 C 165.609375 132.585938 165.347656 131.84375 165.117188 131.09375 C 164.890625 130.339844 164.699219 129.574219 164.546875 128.800781 C 164.398438 128.03125 164.28125 127.253906 164.207031 126.46875 C 164.132812 125.683594 164.097656 124.898438 164.097656 124.113281 C 164.101562 123.324219 164.144531 122.539062 164.222656 121.757812 C 164.304688 120.972656 164.421875 120.195312 164.578125 119.425781 C 164.734375 118.652344 164.929688 117.890625 165.164062 117.140625 C 165.394531 116.386719 165.664062 115.648438 165.96875 114.921875 L 130.65625 79.4375 L 37.109375 172.90625 C 29.296875 180.78125 29.296875 193.53125 37.109375 201.40625 L 173.53125 337.796875 C 173.996094 338.261719 174.484375 338.707031 174.992188 339.125 C 175.503906 339.542969 176.03125 339.9375 176.578125 340.304688 C 177.125 340.671875 177.691406 341.007812 178.273438 341.320312 C 178.851562 341.632812 179.449219 341.914062 180.054688 342.164062 C 180.664062 342.417969 181.285156 342.640625 181.914062 342.832031 C 182.546875 343.023438 183.183594 343.183594 183.832031 343.3125 C 184.476562 343.441406 185.128906 343.539062 185.785156 343.601562 C 186.441406 343.667969 187.097656 343.699219 187.757812 343.699219 C 188.417969 343.699219 189.074219 343.667969 189.730469 343.601562 C 190.386719 343.539062 191.039062 343.441406 191.683594 343.3125 C 192.332031 343.183594 192.96875 343.023438 193.601562 342.832031 C 194.230469 342.640625 194.851562 342.417969 195.460938 342.164062 C 196.066406 341.914062 196.664062 341.632812 197.242188 341.320312 C 197.824219 341.007812 198.390625 340.671875 198.9375 340.304688 C 199.484375 339.9375 200.011719 339.542969 200.523438 339.125 C 201.03125 338.707031 201.519531 338.261719 201.984375 337.796875 L 337.765625 202.03125 C 338.234375 201.566406 338.679688 201.082031 339.101562 200.574219 C 339.523438 200.0625 339.917969 199.535156 340.285156 198.988281 C 340.65625 198.441406 340.996094 197.878906 341.308594 197.296875 C 341.621094 196.714844 341.90625 196.121094 342.160156 195.511719 C 342.414062 194.902344 342.640625 194.285156 342.832031 193.652344 C 343.027344 193.023438 343.1875 192.382812 343.316406 191.738281 C 343.449219 191.089844 343.546875 190.4375 343.613281 189.78125 C 343.679688 189.125 343.710938 188.464844 343.714844 187.804688 C 343.714844 187.148438 343.683594 186.488281 343.621094 185.832031 C 343.554688 185.175781 343.460938 184.523438 343.332031 183.875 C 343.203125 183.226562 343.042969 182.589844 342.851562 181.957031 C 342.660156 181.324219 342.4375 180.703125 342.1875 180.09375 C 341.933594 179.484375 341.652344 178.890625 341.339844 178.308594 C 341.027344 177.726562 340.6875 177.160156 340.324219 176.613281 C 339.957031 176.0625 339.5625 175.535156 339.144531 175.027344 C 338.722656 174.515625 338.28125 174.027344 337.8125 173.5625 " fill-opacity="1" fill-rule="nonzero"/></svg>