<svg xmlns="http://www.w3.org/2000/svg" xmlns:xlink="http://www.w3.org/1999/xlink" width="500" zoomAndPan="magnify" viewBox="0 0 375 374.999991" height="500" preserveAspectRatio="xMidYMid meet" version="1.0"><path fill="#ff8800" d="M 186.339844 31.25 C 100.261719 31.25 30.496094 101.015625 30.496094 187.09375 C 30.496094 255.9375 75.136719 314.359375 137.074219 334.984375 C 144.871094 336.390625 147.683594 331.59375 147.683594 327.46875 C 147.683594 323.765625 147.558594 313.953125 147.511719 300.96875 C 104.152344 310.375 94.996094 280.0625 94.996094 280.0625 C 87.933594 262.0625 77.699219 257.265625 77.699219 257.265625 C 63.558594 247.59375 78.777344 247.8125 78.777344 247.8125 C 94.433594 248.90625 102.636719 263.875 102.636719 263.875 C 116.542969 287.6875 139.136719 280.8125 147.980469 276.828125 C 149.402344 266.75 153.464844 259.875 157.902344 255.984375 C 123.308594 252.0625 86.933594 238.6875 86.933594 178.953125 C 86.933594 161.96875 93.011719 148.03125 102.933594 137.15625 C 101.355469 133.203125 95.964844 117.34375 104.480469 95.90625 C 104.480469 95.90625 117.558594 91.703125 147.324219 111.859375 C 160.09375 108.386719 173.09375 106.636719 186.324219 106.609375 C 199.558594 106.628906 212.558594 108.378906 225.324219 111.859375 C 255.105469 91.6875 268.167969 95.90625 268.167969 95.90625 C 276.683594 117.34375 271.339844 133.203125 269.714844 137.15625 C 279.714844 148.03125 285.714844 161.953125 285.714844 178.953125 C 285.714844 238.84375 249.308594 252 214.589844 255.859375 C 220.136719 260.671875 225.136719 270.171875 225.136719 284.703125 C 225.136719 305.546875 224.949219 322.359375 224.949219 327.46875 C 224.949219 331.640625 227.730469 336.484375 235.683594 334.953125 C 297.589844 314.296875 342.183594 255.921875 342.183594 187.09375 C 342.183594 101.015625 272.417969 31.25 186.339844 31.25 Z M 186.339844 31.25 " fill-opacity="1" fill-rule="evenodd"/></svg>