<svg xmlns="http://www.w3.org/2000/svg" xmlns:xlink="http://www.w3.org/1999/xlink" width="500" zoomAndPan="magnify" viewBox="0 0 375 374.999991" height="500" preserveAspectRatio="xMidYMid meet" version="1.0"><path fill="#ff3131" d="M 190.160156 27.113281 C 103.050781 27.113281 32.445312 97.714844 32.445312 184.828125 C 32.445312 254.496094 77.625 313.621094 140.304688 334.492188 C 148.195312 335.914062 151.039062 331.0625 151.039062 326.886719 C 151.039062 323.140625 150.914062 313.210938 150.867188 300.070312 C 106.988281 309.589844 97.722656 278.910156 97.722656 278.910156 C 90.574219 260.695312 80.21875 255.839844 80.21875 255.839844 C 65.90625 246.054688 81.308594 246.273438 81.308594 246.273438 C 97.152344 247.382812 105.453125 262.53125 105.453125 262.53125 C 119.527344 286.628906 142.390625 279.671875 151.339844 275.636719 C 152.78125 265.441406 156.890625 258.480469 161.382812 254.542969 C 126.375 250.574219 89.5625 237.039062 89.5625 176.589844 C 89.5625 159.402344 95.714844 145.296875 105.753906 134.289062 C 104.15625 130.289062 98.703125 114.242188 107.320312 92.546875 C 107.320312 92.546875 120.554688 88.292969 150.675781 108.691406 C 163.597656 105.175781 176.753906 103.402344 190.144531 103.378906 C 203.535156 103.398438 216.691406 105.167969 229.613281 108.691406 C 259.753906 88.277344 272.972656 92.546875 272.972656 92.546875 C 281.589844 114.242188 276.179688 130.289062 274.535156 134.289062 C 284.65625 145.296875 290.730469 159.386719 290.730469 176.589844 C 290.730469 237.199219 253.886719 250.511719 218.75 254.417969 C 224.363281 259.289062 229.421875 268.902344 229.421875 283.609375 C 229.421875 304.703125 229.234375 321.714844 229.234375 326.886719 C 229.234375 331.109375 232.046875 336.011719 240.097656 334.460938 C 302.746094 313.558594 347.875 254.480469 347.875 184.828125 C 347.875 97.714844 277.273438 27.113281 190.160156 27.113281 Z M 190.160156 27.113281 " fill-opacity="1" fill-rule="evenodd"/></svg>