<svg xmlns="http://www.w3.org/2000/svg" xmlns:xlink="http://www.w3.org/1999/xlink" width="500" zoomAndPan="magnify" viewBox="0 0 375 374.999991" height="500" preserveAspectRatio="xMidYMid meet" version="1.0"><path fill="#ff8800" d="M 146.40625 273.59375 C 98.125 287.03125 175.625 314.84375 237.03125 289.21875 C 231.0625 286.898438 225.332031 284.085938 219.84375 280.78125 C 209.183594 283.207031 198.394531 284.65625 187.472656 285.128906 C 176.550781 285.601562 165.671875 285.089844 154.84375 283.59375 C 134.375 281.25 146.40625 273.59375 146.40625 273.59375 Z M 229.6875 247.34375 C 215.9375 250.332031 202.035156 252.171875 187.980469 252.851562 C 173.925781 253.535156 159.910156 253.050781 145.9375 251.40625 C 125.46875 249.21875 138.90625 239.375 138.90625 239.375 C 85.78125 256.875 168.4375 276.875 242.65625 255 C 237.773438 253.394531 233.449219 250.84375 229.6875 247.34375 Z M 258.125 95.3125 C 258.125 95.3125 150.78125 122.03125 202.03125 181.09375 C 202.53125 181.691406 202.996094 182.3125 203.433594 182.957031 C 203.867188 183.601562 204.269531 184.269531 204.636719 184.953125 C 205.003906 185.640625 205.335938 186.34375 205.632812 187.0625 C 205.929688 187.785156 206.1875 188.515625 206.410156 189.261719 C 206.632812 190.007812 206.816406 190.765625 206.960938 191.527344 C 207.105469 192.292969 207.210938 193.0625 207.277344 193.839844 C 207.34375 194.613281 207.371094 195.390625 207.359375 196.167969 C 207.347656 196.949219 207.296875 197.722656 207.203125 198.496094 C 207.113281 199.269531 206.984375 200.035156 206.8125 200.796875 C 206.644531 201.554688 206.4375 202.304688 206.191406 203.042969 C 205.945312 203.78125 205.664062 204.507812 205.347656 205.214844 C 205.027344 205.925781 204.671875 206.617188 204.285156 207.292969 C 203.894531 207.96875 203.472656 208.621094 203.015625 209.25 C 202.5625 209.882812 202.074219 210.488281 201.558594 211.070312 C 201.039062 211.652344 200.496094 212.207031 199.921875 212.730469 C 199.347656 213.257812 198.75 213.753906 198.125 214.21875 C 198.125 214.21875 236.5625 194.375 218.90625 169.53125 C 201.25 144.6875 189.84375 134.84375 258.125 95.3125 Z M 258.125 95.3125 " fill-opacity="1" fill-rule="nonzero"/><path fill="#ff8800" d="M 283.28125 299.0625 C 283.28125 299.0625 292.03125 306.25 273.4375 311.875 C 237.96875 322.65625 126.09375 325.9375 95 311.875 C 83.75 307.03125 104.6875 300.3125 110.625 298.90625 C 114.160156 297.992188 117.753906 297.578125 121.40625 297.65625 C 108.90625 288.90625 40.9375 314.84375 86.875 322.34375 C 212.65625 343.75 315.625 313.59375 283.28125 299.0625 Z M 240.15625 222.8125 C 244.757812 219.902344 249.550781 217.351562 254.53125 215.15625 C 254.53125 215.15625 230.9375 219.375 207.65625 221.40625 C 182.574219 223.828125 157.46875 224.085938 132.34375 222.1875 C 95.15625 217.34375 152.1875 203.125 152.1875 203.125 C 143.605469 203.058594 135.140625 204.015625 126.792969 205.996094 C 118.441406 207.980469 110.449219 210.929688 102.8125 214.84375 C 70.625 230.9375 182.34375 237.96875 240.15625 222.8125 Z M 254.375 260.9375 C 254.03125 261.472656 253.613281 261.941406 253.125 262.34375 C 331.25 241.71875 302.8125 189.6875 265.3125 202.8125 C 263.195312 203.589844 261.476562 204.894531 260.15625 206.71875 C 260.15625 206.71875 262.34375 205.9375 266.875 204.84375 C 285.9375 200.9375 312.5 230.3125 254.375 260.9375 Z M 187.5 203.125 C 175.9375 177.03125 136.5625 154.0625 187.5 113.90625 C 251.40625 63.75 218.75 31.25 218.75 31.25 C 231.875 82.96875 171.875 98.59375 150.9375 130.78125 C 136.40625 152.8125 158.28125 176.40625 187.5 203.125 Z M 187.5 203.125 " fill-opacity="1" fill-rule="nonzero"/><path fill="#ff8800" d="M 256.40625 333.125 C 232.800781 337.164062 209.027344 339.371094 185.085938 339.738281 C 161.140625 340.101562 137.308594 338.628906 113.59375 335.3125 C 113.59375 335.3125 120.78125 341.25 157.96875 343.59375 C 214.375 347.1875 300.9375 341.71875 303.125 315 C 303.125 315 299.0625 325 256.40625 333.125 Z M 256.40625 333.125 " fill-opacity="1" fill-rule="nonzero"/></svg>