<svg xmlns="http://www.w3.org/2000/svg" xmlns:xlink="http://www.w3.org/1999/xlink" width="500" zoomAndPan="magnify" viewBox="0 0 375 374.999991" height="500" preserveAspectRatio="xMidYMid meet" version="1.0"><path fill="#ff3131" d="M 211.40625 0 C 232.03125 47.722656 137.460938 77.195312 128.671875 116.953125 C 120.613281 153.484375 184.863281 195.9375 184.921875 195.9375 C 175.164062 180.820312 167.988281 168.367188 158.203125 144.84375 C 141.648438 105.058594 259.011719 69.050781 211.40625 0 Z M 274.21875 66.09375 C 274.21875 66.09375 191.25 71.425781 187.03125 124.453125 C 185.15625 148.066406 208.855469 160.488281 209.53125 177.65625 C 210.085938 191.6875 195.46875 203.4375 195.46875 203.4375 C 195.46875 203.4375 222.070312 198.367188 230.390625 176.953125 C 239.617188 153.191406 212.402344 137.136719 215.15625 118.125 C 217.792969 99.929688 274.21875 66.09375 274.21875 66.09375 Z M 143.90625 188.671875 C 143.90625 188.671875 67.96875 187.585938 67.96875 209.0625 C 67.96875 231.503906 167.371094 233.171875 238.359375 219.375 C 238.359375 219.375 257.226562 206.394531 262.265625 201.5625 C 215.742188 211.054688 109.6875 212.109375 109.6875 203.90625 C 109.6875 196.347656 143.90625 188.671875 143.90625 188.671875 Z M 289.921875 188.671875 C 282.480469 189.257812 274.453125 192.128906 267.1875 197.34375 C 284.296875 193.652344 298.828125 204.257812 298.828125 216.328125 C 298.828125 243.515625 259.453125 269.0625 259.453125 269.0625 C 259.453125 269.0625 320.390625 262.148438 320.390625 217.5 C 320.390625 197.226562 306.296875 187.382812 289.921875 188.671875 Z M 125.625 230.390625 C 113.964844 230.390625 96.5625 239.53125 96.5625 248.203125 C 96.5625 265.632812 184.21875 279.050781 249.140625 253.59375 L 226.640625 239.765625 C 182.636719 253.855469 101.601562 249.257812 125.625 230.390625 Z M 136.40625 269.53125 C 120.4375 269.53125 109.921875 279.167969 109.921875 286.40625 C 109.921875 308.789062 205.28125 311.042969 243.046875 288.28125 L 219.140625 273.046875 C 190.925781 284.96875 120.117188 286.785156 136.40625 269.53125 Z M 83.203125 289.6875 C 57.1875 289.160156 40.3125 300.847656 40.3125 310.546875 C 40.3125 362.109375 306.5625 359.734375 306.5625 307.03125 C 306.5625 298.269531 296.453125 294.023438 292.734375 292.03125 C 314.5 342.421875 74.765625 338.40625 74.765625 308.671875 C 74.765625 301.902344 92.402344 295.429688 108.75 298.59375 L 94.921875 290.625 C 90.847656 290.007812 86.921875 289.773438 83.203125 289.6875 Z M 334.6875 324.375 C 294.199219 362.753906 191.601562 376.667969 88.359375 352.96875 C 191.570312 395.214844 334.1875 371.511719 334.6875 324.375 Z M 334.6875 324.375 " fill-opacity="1" fill-rule="nonzero"/></svg>