<svg xmlns="http://www.w3.org/2000/svg" xmlns:xlink="http://www.w3.org/1999/xlink" width="500" zoomAndPan="magnify" viewBox="0 0 375 374.999991" height="500" preserveAspectRatio="xMidYMid meet" version="1.0"><path fill="#ff8800" d="M 310.796875 51.660156 C 309.640625 50.398438 308.015625 49.679688 306.300781 49.679688 L 68.355469 49.679688 C 66.644531 49.679688 65.015625 50.398438 63.859375 51.660156 C 62.703125 52.917969 62.136719 54.613281 62.289062 56.3125 L 83.726562 296.421875 C 83.949219 298.929688 85.699219 301.042969 88.121094 301.738281 L 185.625 329.589844 C 186.164062 329.742188 186.730469 329.820312 187.292969 329.820312 C 187.851562 329.820312 188.417969 329.742188 188.960938 329.589844 L 286.546875 301.738281 C 288.96875 301.042969 290.71875 298.929688 290.945312 296.421875 L 312.367188 56.3125 C 312.519531 54.613281 311.949219 52.917969 310.796875 51.660156 Z M 108.160156 214.132812 L 150.789062 225.960938 L 150.789062 104.488281 L 175.148438 104.488281 L 175.148438 262.828125 L 108.160156 244.25 Z M 266.828125 171.480469 L 260.410156 246.082031 L 199.507812 262.828125 L 199.507812 234.808594 L 240.617188 223.511719 L 242.136719 200.675781 L 199.507812 208.019531 L 199.507812 104.488281 L 272.589844 104.488281 L 270.488281 128.851562 L 223.867188 128.851562 L 223.867188 177.570312 Z M 266.828125 171.480469 " fill-opacity="1" fill-rule="nonzero"/></svg>