<svg xmlns="http://www.w3.org/2000/svg" xmlns:xlink="http://www.w3.org/1999/xlink" width="500" zoomAndPan="magnify" viewBox="0 0 375 374.999991" height="500" preserveAspectRatio="xMidYMid meet" version="1.0"><path fill="#ff3131" d="M 319.96875 39.082031 C 318.726562 37.730469 316.980469 36.957031 315.144531 36.957031 L 59.613281 36.957031 C 57.773438 36.957031 56.027344 37.730469 54.785156 39.082031 C 53.542969 40.4375 52.933594 42.253906 53.097656 44.078125 L 76.117188 301.933594 C 76.359375 304.625 78.238281 306.894531 80.839844 307.640625 L 185.546875 337.546875 C 186.128906 337.710938 186.738281 337.796875 187.339844 337.796875 C 187.941406 337.796875 188.546875 337.710938 189.128906 337.546875 L 293.925781 307.640625 C 296.53125 306.894531 298.40625 304.625 298.648438 301.933594 L 321.65625 44.078125 C 321.820312 42.253906 321.207031 40.4375 319.96875 39.082031 Z M 102.355469 213.5625 L 148.136719 226.265625 L 148.136719 95.816406 L 174.296875 95.816406 L 174.296875 265.855469 L 102.355469 245.902344 Z M 272.75 167.757812 L 265.855469 247.871094 L 200.457031 265.855469 L 200.457031 235.765625 L 244.601562 223.636719 L 246.238281 199.109375 L 200.457031 206.996094 L 200.457031 95.816406 L 278.9375 95.816406 L 276.679688 121.976562 L 226.617188 121.976562 L 226.617188 174.296875 Z M 272.75 167.757812 " fill-opacity="1" fill-rule="nonzero"/></svg>