<svg xmlns="http://www.w3.org/2000/svg" xmlns:xlink="http://www.w3.org/1999/xlink" width="500" zoomAndPan="magnify" viewBox="0 0 375 374.999991" height="500" preserveAspectRatio="xMidYMid meet" version="1.0"><path fill="#ff3131" d="M 312.5 93.75 C 312.5 59.875 255.265625 31.25 187.5 31.25 C 119.734375 31.25 62.5 59.875 62.5 93.75 L 62.5 125 C 62.5 158.875 119.734375 187.5 187.5 187.5 C 255.265625 187.5 312.5 158.875 312.5 125 Z M 187.5 296.875 C 119.734375 296.875 62.5 268.25 62.5 234.375 L 62.5 281.25 C 62.5 315.125 119.734375 343.75 187.5 343.75 C 255.265625 343.75 312.5 315.125 312.5 281.25 L 312.5 234.375 C 312.5 268.25 255.265625 296.875 187.5 296.875 Z M 187.5 296.875 " fill-opacity="1" fill-rule="nonzero"/><path fill="#ff3131" d="M 312.5 156.25 C 312.5 190.125 255.265625 218.75 187.5 218.75 C 119.734375 218.75 62.5 190.125 62.5 156.25 L 62.5 203.125 C 62.5 237 119.734375 265.625 187.5 265.625 C 255.265625 265.625 312.5 237 312.5 203.125 Z M 312.5 156.25 " fill-opacity="1" fill-rule="nonzero"/></svg>