<svg xmlns="http://www.w3.org/2000/svg" xmlns:xlink="http://www.w3.org/1999/xlink" width="500" zoomAndPan="magnify" viewBox="0 0 375 374.999991" height="500" preserveAspectRatio="xMidYMid meet" version="1.0"><path fill="#ff3131" d="M 172.953125 156.164062 C 173.367188 157.3125 173.828125 158.4375 174.34375 159.53125 C 175.246094 161.445312 174.988281 163.695312 173.492188 165.195312 L 168.304688 170.382812 L 181.929688 184.011719 L 187.121094 178.820312 C 188.613281 177.328125 190.871094 177.070312 192.78125 177.96875 C 193.875 178.484375 195.003906 178.953125 196.148438 179.363281 C 198.144531 180.078125 199.554688 181.851562 199.554688 183.96875 L 199.554688 191.3125 L 218.832031 191.3125 L 218.832031 183.96875 C 218.832031 181.851562 220.242188 180.078125 222.230469 179.367188 C 223.382812 178.949219 224.503906 178.488281 225.601562 177.972656 C 227.511719 177.074219 229.761719 177.328125 231.261719 178.824219 L 236.453125 184.015625 L 250.078125 170.386719 L 244.890625 165.199219 C 243.398438 163.703125 243.136719 161.449219 244.039062 159.535156 C 244.554688 158.441406 245.023438 157.3125 245.429688 156.167969 C 246.148438 154.171875 247.921875 152.761719 250.035156 152.761719 L 257.378906 152.761719 L 257.378906 133.488281 L 250.035156 133.488281 C 247.921875 133.488281 246.148438 132.074219 245.433594 130.085938 C 245.019531 128.933594 244.558594 127.8125 244.042969 126.71875 C 243.140625 124.804688 243.398438 122.554688 244.894531 121.054688 L 250.082031 115.867188 L 236.457031 102.238281 L 231.265625 107.425781 C 229.773438 108.921875 227.515625 109.179688 225.605469 108.277344 C 224.511719 107.761719 223.382812 107.296875 222.234375 106.886719 C 220.242188 106.167969 218.832031 104.394531 218.832031 102.28125 L 218.832031 94.9375 L 199.554688 94.9375 L 199.554688 102.28125 C 199.554688 104.394531 198.144531 106.171875 196.15625 106.882812 C 195.003906 107.296875 193.878906 107.761719 192.785156 108.273438 C 190.875 109.175781 188.625 108.921875 187.125 107.421875 L 181.933594 102.234375 L 168.308594 115.863281 L 173.496094 121.050781 C 174.988281 122.542969 175.25 124.800781 174.347656 126.710938 C 173.832031 127.804688 173.363281 128.933594 172.957031 130.082031 C 172.238281 132.074219 170.464844 133.488281 168.351562 133.488281 L 161.007812 133.488281 L 161.007812 152.761719 L 168.351562 152.761719 C 170.464844 152.761719 172.238281 154.171875 172.953125 156.164062 Z M 209.195312 123.847656 C 219.835938 123.847656 228.46875 132.480469 228.46875 143.125 C 228.46875 153.769531 219.835938 162.398438 209.195312 162.398438 C 198.550781 162.398438 189.917969 153.769531 189.917969 143.125 C 189.917969 132.480469 198.550781 123.847656 209.195312 123.847656 Z M 209.195312 123.847656 " fill-opacity="1" fill-rule="nonzero"/><path fill="#ff3131" d="M 165.824219 239.496094 C 165.824219 250.140625 157.195312 258.773438 146.550781 258.773438 C 135.90625 258.773438 127.277344 250.140625 127.277344 239.496094 C 127.277344 228.851562 135.90625 220.222656 146.550781 220.222656 C 157.195312 220.222656 165.824219 228.851562 165.824219 239.496094 " fill-opacity="1" fill-rule="nonzero"/><path fill="#ff3131" d="M 233.289062 239.496094 C 233.289062 250.140625 224.65625 258.773438 214.011719 258.773438 C 203.367188 258.773438 194.738281 250.140625 194.738281 239.496094 C 194.738281 228.851562 203.367188 220.222656 214.011719 220.222656 C 224.65625 220.222656 233.289062 228.851562 233.289062 239.496094 " fill-opacity="1" fill-rule="nonzero"/><path fill="#ff3131" d="M 247.746094 292.503906 C 247.746094 273.875 232.640625 258.773438 214.011719 258.773438 C 195.382812 258.773438 180.28125 273.875 180.28125 292.503906 C 180.28125 273.875 165.179688 258.773438 146.550781 258.773438 C 127.921875 258.773438 112.820312 273.875 112.820312 292.503906 C 112.820312 273.875 97.71875 258.773438 79.089844 258.773438 C 60.457031 258.773438 45.355469 273.875 45.355469 292.503906 L 45.355469 306.960938 L 247.746094 306.960938 Z M 247.746094 292.503906 " fill-opacity="1" fill-rule="nonzero"/><path fill="#ff3131" d="M 98.363281 239.496094 C 98.363281 250.140625 89.730469 258.773438 79.089844 258.773438 C 68.445312 258.773438 59.8125 250.140625 59.8125 239.496094 C 59.8125 228.851562 68.445312 220.222656 79.089844 220.222656 C 89.730469 220.222656 98.363281 228.851562 98.363281 239.496094 " fill-opacity="1" fill-rule="nonzero"/><path fill="#ff3131" d="M 130.683594 167.214844 C 127.144531 161.453125 119.554688 147.253906 121.046875 128.664062 C 121.050781 128.585938 121.0625 128.507812 121.066406 128.429688 C 121.949219 117.992188 126.960938 108.339844 134.511719 101.082031 L 135.75 99.894531 L 142.5625 93.082031 L 152.785156 103.300781 L 156.191406 59.007812 L 111.894531 62.414062 L 122.117188 72.636719 L 111.894531 82.855469 C 101.441406 91.347656 98.148438 100.210938 96.953125 104.570312 C 91.222656 125.527344 104.390625 151.394531 130.683594 167.21875 Z M 130.683594 167.214844 " fill-opacity="1" fill-rule="nonzero"/><path fill="#ff3131" d="M 297.324219 170.078125 C 296.441406 180.515625 291.429688 190.167969 283.878906 197.425781 L 282.640625 198.617188 L 275.828125 205.429688 L 265.605469 195.207031 L 262.203125 239.496094 L 306.496094 236.089844 L 296.273438 225.867188 L 306.496094 215.648438 C 316.949219 207.15625 320.246094 198.292969 321.4375 193.9375 C 327.167969 172.984375 313.996094 147.113281 287.707031 131.292969 C 291.246094 137.054688 298.835938 151.253906 297.34375 169.84375 C 297.339844 169.917969 297.332031 169.996094 297.324219 170.078125 Z M 297.324219 170.078125 " fill-opacity="1" fill-rule="nonzero"/><path fill="#ff3131" d="M 295.933594 17.835938 C 274.644531 17.835938 257.382812 35.097656 257.382812 56.382812 C 257.382812 77.671875 274.644531 94.933594 295.933594 94.933594 C 317.21875 94.933594 334.480469 77.671875 334.480469 56.382812 C 334.480469 35.097656 317.21875 17.835938 295.933594 17.835938 Z M 294.8125 73.925781 C 293.945312 74.964844 292.683594 75.59375 291.328125 75.65625 C 291.257812 75.660156 291.1875 75.660156 291.113281 75.660156 C 289.835938 75.660156 288.609375 75.152344 287.707031 74.246094 L 273.25 59.792969 L 280.0625 52.976562 L 290.789062 63.703125 L 311.503906 38.84375 L 318.90625 45.011719 Z M 294.8125 73.925781 " fill-opacity="1" fill-rule="nonzero"/></svg>