<svg xmlns="http://www.w3.org/2000/svg" xmlns:xlink="http://www.w3.org/1999/xlink" width="500" zoomAndPan="magnify" viewBox="0 0 375 374.999991" height="500" preserveAspectRatio="xMidYMid meet" version="1.0"><path fill="#ff8800" d="M 174.414062 162.640625 C 174.828125 163.78125 175.285156 164.894531 175.796875 165.984375 C 176.691406 167.878906 176.4375 170.113281 174.949219 171.601562 L 169.800781 176.75 L 183.324219 190.269531 L 188.472656 185.121094 C 189.953125 183.640625 192.191406 183.382812 194.089844 184.277344 C 195.175781 184.789062 196.296875 185.253906 197.433594 185.65625 C 199.410156 186.371094 200.8125 188.128906 200.8125 190.226562 L 200.8125 197.515625 L 219.9375 197.515625 L 219.9375 190.226562 C 219.9375 188.128906 221.335938 186.367188 223.3125 185.664062 C 224.453125 185.25 225.566406 184.792969 226.652344 184.28125 C 228.550781 183.386719 230.785156 183.640625 232.273438 185.125 L 237.421875 190.273438 L 250.941406 176.753906 L 245.792969 171.605469 C 244.3125 170.125 244.054688 167.882812 244.949219 165.988281 C 245.460938 164.902344 245.921875 163.78125 246.328125 162.644531 C 247.042969 160.664062 248.800781 159.265625 250.898438 159.265625 L 258.1875 159.265625 L 258.1875 140.140625 L 250.898438 140.140625 C 248.800781 140.140625 247.039062 138.742188 246.332031 136.765625 C 245.921875 135.625 245.460938 134.507812 244.953125 133.421875 C 244.058594 131.527344 244.3125 129.292969 245.796875 127.804688 L 250.945312 122.65625 L 237.425781 109.136719 L 232.277344 114.285156 C 230.792969 115.765625 228.554688 116.023438 226.65625 115.128906 C 225.574219 114.617188 224.453125 114.152344 223.316406 113.746094 C 221.335938 113.035156 219.9375 111.277344 219.9375 109.179688 L 219.9375 101.890625 L 200.8125 101.890625 L 200.8125 109.179688 C 200.8125 111.277344 199.410156 113.035156 197.4375 113.742188 C 196.296875 114.15625 195.179688 114.613281 194.09375 115.125 C 192.195312 116.019531 189.964844 115.765625 188.476562 114.277344 L 183.328125 109.128906 L 169.804688 122.652344 L 174.953125 127.800781 C 176.4375 129.28125 176.695312 131.523438 175.800781 133.417969 C 175.289062 134.503906 174.824219 135.625 174.417969 136.761719 C 173.707031 138.742188 171.945312 140.140625 169.847656 140.140625 L 162.5625 140.140625 L 162.5625 159.265625 L 169.847656 159.265625 C 171.945312 159.265625 173.707031 160.664062 174.414062 162.640625 Z M 210.375 130.578125 C 220.9375 130.578125 229.5 139.140625 229.5 149.703125 C 229.5 160.265625 220.9375 168.828125 210.375 168.828125 C 199.8125 168.828125 191.25 160.265625 191.25 149.703125 C 191.25 139.140625 199.8125 130.578125 210.375 130.578125 Z M 210.375 130.578125 " fill-opacity="1" fill-rule="nonzero"/><path fill="#ff8800" d="M 167.34375 245.324219 C 167.34375 255.886719 158.78125 264.449219 148.21875 264.449219 C 137.65625 264.449219 129.09375 255.886719 129.09375 245.324219 C 129.09375 234.765625 137.65625 226.199219 148.21875 226.199219 C 158.78125 226.199219 167.34375 234.765625 167.34375 245.324219 " fill-opacity="1" fill-rule="nonzero"/><path fill="#ff8800" d="M 234.28125 245.324219 C 234.28125 255.886719 225.71875 264.449219 215.15625 264.449219 C 204.59375 264.449219 196.03125 255.886719 196.03125 245.324219 C 196.03125 234.765625 204.59375 226.199219 215.15625 226.199219 C 225.71875 226.199219 234.28125 234.765625 234.28125 245.324219 " fill-opacity="1" fill-rule="nonzero"/><path fill="#ff8800" d="M 248.625 297.917969 C 248.625 279.433594 233.640625 264.449219 215.15625 264.449219 C 196.671875 264.449219 181.6875 279.433594 181.6875 297.917969 C 181.6875 279.433594 166.703125 264.449219 148.21875 264.449219 C 129.734375 264.449219 114.75 279.433594 114.75 297.917969 C 114.75 279.433594 99.765625 264.449219 81.28125 264.449219 C 62.796875 264.449219 47.8125 279.433594 47.8125 297.917969 L 47.8125 312.261719 L 248.625 312.261719 Z M 248.625 297.917969 " fill-opacity="1" fill-rule="nonzero"/><path fill="#ff8800" d="M 100.40625 245.324219 C 100.40625 255.886719 91.84375 264.449219 81.28125 264.449219 C 70.71875 264.449219 62.15625 255.886719 62.15625 245.324219 C 62.15625 234.765625 70.71875 226.199219 81.28125 226.199219 C 91.84375 226.199219 100.40625 234.765625 100.40625 245.324219 " fill-opacity="1" fill-rule="nonzero"/><path fill="#ff8800" d="M 132.476562 173.605469 C 128.960938 167.886719 121.433594 153.800781 122.914062 135.355469 C 122.917969 135.277344 122.929688 135.199219 122.933594 135.121094 C 123.808594 124.765625 128.78125 115.1875 136.273438 107.988281 L 137.503906 106.808594 L 144.261719 100.046875 L 154.402344 110.191406 L 157.78125 66.242188 L 113.832031 69.621094 L 123.976562 79.761719 L 113.832031 89.902344 C 103.460938 98.328125 100.191406 107.125 99.007812 111.445312 C 93.320312 132.242188 106.386719 157.910156 132.476562 173.609375 Z M 132.476562 173.605469 " fill-opacity="1" fill-rule="nonzero"/><path fill="#ff8800" d="M 297.820312 176.449219 C 296.945312 186.804688 291.972656 196.382812 284.480469 203.582031 L 283.25 204.761719 L 276.488281 211.523438 L 266.347656 201.382812 L 262.96875 245.324219 L 306.917969 241.945312 L 296.777344 231.804688 L 306.917969 221.664062 C 317.289062 213.238281 320.5625 204.441406 321.746094 200.117188 C 327.429688 179.328125 314.363281 153.660156 288.277344 137.960938 C 291.789062 143.679688 299.320312 157.769531 297.839844 176.210938 C 297.835938 176.289062 297.828125 176.363281 297.820312 176.449219 Z M 297.820312 176.449219 " fill-opacity="1" fill-rule="nonzero"/><path fill="#ff8800" d="M 296.4375 25.386719 C 275.316406 25.386719 258.1875 42.515625 258.1875 63.636719 C 258.1875 84.761719 275.316406 101.886719 296.4375 101.886719 C 317.558594 101.886719 334.6875 84.761719 334.6875 63.636719 C 334.6875 42.515625 317.558594 25.386719 296.4375 25.386719 Z M 295.328125 81.042969 C 294.46875 82.074219 293.214844 82.695312 291.871094 82.757812 C 291.800781 82.761719 291.730469 82.761719 291.65625 82.761719 C 290.386719 82.761719 289.171875 82.261719 288.273438 81.363281 L 273.929688 67.019531 L 280.691406 60.257812 L 291.335938 70.902344 L 311.890625 46.234375 L 319.234375 52.355469 Z M 295.328125 81.042969 " fill-opacity="1" fill-rule="nonzero"/></svg>