<svg xmlns="http://www.w3.org/2000/svg" xmlns:xlink="http://www.w3.org/1999/xlink" width="500" zoomAndPan="magnify" viewBox="0 0 375 374.999991" height="500" preserveAspectRatio="xMidYMid meet" version="1.0"><defs><g/><clipPath id="7c450ba947"><path d="M 0 25.566406 L 375 25.566406 L 375 349.566406 L 0 349.566406 Z M 0 25.566406 " clip-rule="nonzero"/></clipPath><clipPath id="524ba79312"><path d="M 374.351562 187.519531 L 280.890625 349.472656 L 93.988281 349.472656 L 0.527344 187.519531 L 93.988281 25.566406 L 280.914062 25.566406 Z M 374.351562 187.519531 " clip-rule="nonzero"/></clipPath><linearGradient x1="8.01119" gradientTransform="matrix(2.431377, 0, 0, 2.432433, 0.527129, 25.568089)" y1="-7.452319" x2="145.742984" gradientUnits="userSpaceOnUse" y2="140.608431" id="4e5b660d22"><stop stop-opacity="1" stop-color="rgb(95.298767%, 45.098877%, 20.799255%)" offset="0"/><stop stop-opacity="1" stop-color="rgb(95.298767%, 45.098877%, 20.799255%)" offset="0.125"/><stop stop-opacity="1" stop-color="rgb(95.298767%, 45.098877%, 20.799255%)" offset="0.140625"/><stop stop-opacity="1" stop-color="rgb(95.318604%, 45.266724%, 20.788574%)" offset="0.148437"/><stop stop-opacity="1" stop-color="rgb(95.36438%, 45.652771%, 20.765686%)" offset="0.152344"/><stop stop-opacity="1" stop-color="rgb(95.39032%, 45.870972%, 20.753479%)" offset="0.15625"/><stop stop-opacity="1" stop-color="rgb(95.414734%, 46.087646%, 20.739746%)" offset="0.160156"/><stop stop-opacity="1" stop-color="rgb(95.440674%, 46.305847%, 20.726013%)" offset="0.164062"/><stop stop-opacity="1" stop-color="rgb(95.465088%, 46.522522%, 20.71228%)" offset="0.167969"/><stop stop-opacity="1" stop-color="rgb(95.491028%, 46.740723%, 20.700073%)" offset="0.171875"/><stop stop-opacity="1" stop-color="rgb(95.516968%, 46.957397%, 20.68634%)" offset="0.175781"/><stop stop-opacity="1" stop-color="rgb(95.542908%, 47.175598%, 20.674133%)" offset="0.179688"/><stop stop-opacity="1" stop-color="rgb(95.567322%, 47.392273%, 20.6604%)" offset="0.183594"/><stop stop-opacity="1" stop-color="rgb(95.593262%, 47.608948%, 20.648193%)" offset="0.1875"/><stop stop-opacity="1" stop-color="rgb(95.617676%, 47.825623%, 20.63446%)" offset="0.191406"/><stop stop-opacity="1" stop-color="rgb(95.643616%, 48.043823%, 20.622253%)" offset="0.195312"/><stop stop-opacity="1" stop-color="rgb(95.669556%, 48.260498%, 20.608521%)" offset="0.199219"/><stop stop-opacity="1" stop-color="rgb(95.695496%, 48.478699%, 20.596313%)" offset="0.203125"/><stop stop-opacity="1" stop-color="rgb(95.71991%, 48.695374%, 20.582581%)" offset="0.207031"/><stop stop-opacity="1" stop-color="rgb(95.74585%, 48.913574%, 20.570374%)" offset="0.210938"/><stop stop-opacity="1" stop-color="rgb(95.770264%, 49.130249%, 20.556641%)" offset="0.214844"/><stop stop-opacity="1" stop-color="rgb(95.796204%, 49.34845%, 20.544434%)" offset="0.21875"/><stop stop-opacity="1" stop-color="rgb(95.822144%, 49.565125%, 20.530701%)" offset="0.222656"/><stop stop-opacity="1" stop-color="rgb(95.848083%, 49.781799%, 20.518494%)" offset="0.226562"/><stop stop-opacity="1" stop-color="rgb(95.872498%, 49.998474%, 20.504761%)" offset="0.230469"/><stop stop-opacity="1" stop-color="rgb(95.898438%, 50.216675%, 20.492554%)" offset="0.234375"/><stop stop-opacity="1" stop-color="rgb(95.922852%, 50.43335%, 20.478821%)" offset="0.238281"/><stop stop-opacity="1" stop-color="rgb(95.948792%, 50.65155%, 20.465088%)" offset="0.242188"/><stop stop-opacity="1" stop-color="rgb(95.974731%, 50.868225%, 20.451355%)" offset="0.246094"/><stop stop-opacity="1" stop-color="rgb(96.000671%, 51.086426%, 20.439148%)" offset="0.25"/><stop stop-opacity="1" stop-color="rgb(96.025085%, 51.303101%, 20.425415%)" offset="0.253906"/><stop stop-opacity="1" stop-color="rgb(96.051025%, 51.521301%, 20.413208%)" offset="0.257812"/><stop stop-opacity="1" stop-color="rgb(96.076965%, 51.737976%, 20.399475%)" offset="0.261719"/><stop stop-opacity="1" stop-color="rgb(96.102905%, 51.954651%, 20.387268%)" offset="0.265625"/><stop stop-opacity="1" stop-color="rgb(96.127319%, 52.171326%, 20.373535%)" offset="0.269531"/><stop stop-opacity="1" stop-color="rgb(96.153259%, 52.389526%, 20.361328%)" offset="0.273437"/><stop stop-opacity="1" stop-color="rgb(96.177673%, 52.606201%, 20.347595%)" offset="0.277344"/><stop stop-opacity="1" stop-color="rgb(96.203613%, 52.824402%, 20.335388%)" offset="0.28125"/><stop stop-opacity="1" stop-color="rgb(96.229553%, 53.041077%, 20.321655%)" offset="0.285156"/><stop stop-opacity="1" stop-color="rgb(96.255493%, 53.259277%, 20.309448%)" offset="0.289062"/><stop stop-opacity="1" stop-color="rgb(96.279907%, 53.475952%, 20.295715%)" offset="0.292969"/><stop stop-opacity="1" stop-color="rgb(96.305847%, 53.694153%, 20.283508%)" offset="0.296875"/><stop stop-opacity="1" stop-color="rgb(96.330261%, 53.910828%, 20.269775%)" offset="0.300781"/><stop stop-opacity="1" stop-color="rgb(96.356201%, 54.129028%, 20.257568%)" offset="0.304688"/><stop stop-opacity="1" stop-color="rgb(96.382141%, 54.345703%, 20.243835%)" offset="0.308594"/><stop stop-opacity="1" stop-color="rgb(96.408081%, 54.562378%, 20.230103%)" offset="0.3125"/><stop stop-opacity="1" stop-color="rgb(96.432495%, 54.779053%, 20.21637%)" offset="0.316406"/><stop stop-opacity="1" stop-color="rgb(96.458435%, 54.997253%, 20.204163%)" offset="0.320312"/><stop stop-opacity="1" stop-color="rgb(96.482849%, 55.213928%, 20.19043%)" offset="0.324219"/><stop stop-opacity="1" stop-color="rgb(96.508789%, 55.432129%, 20.178223%)" offset="0.328125"/><stop stop-opacity="1" stop-color="rgb(96.534729%, 55.648804%, 20.16449%)" offset="0.332031"/><stop stop-opacity="1" stop-color="rgb(96.560669%, 55.867004%, 20.152283%)" offset="0.335937"/><stop stop-opacity="1" stop-color="rgb(96.585083%, 56.083679%, 20.13855%)" offset="0.339844"/><stop stop-opacity="1" stop-color="rgb(96.611023%, 56.30188%, 20.126343%)" offset="0.34375"/><stop stop-opacity="1" stop-color="rgb(96.635437%, 56.518555%, 20.11261%)" offset="0.347656"/><stop stop-opacity="1" stop-color="rgb(96.661377%, 56.735229%, 20.100403%)" offset="0.351562"/><stop stop-opacity="1" stop-color="rgb(96.687317%, 56.951904%, 20.08667%)" offset="0.355469"/><stop stop-opacity="1" stop-color="rgb(96.713257%, 57.170105%, 20.074463%)" offset="0.359375"/><stop stop-opacity="1" stop-color="rgb(96.737671%, 57.38678%, 20.06073%)" offset="0.363281"/><stop stop-opacity="1" stop-color="rgb(96.763611%, 57.60498%, 20.048523%)" offset="0.367187"/><stop stop-opacity="1" stop-color="rgb(96.789551%, 57.821655%, 20.03479%)" offset="0.371094"/><stop stop-opacity="1" stop-color="rgb(96.815491%, 58.039856%, 20.022583%)" offset="0.375"/><stop stop-opacity="1" stop-color="rgb(96.839905%, 58.256531%, 20.00885%)" offset="0.378906"/><stop stop-opacity="1" stop-color="rgb(96.865845%, 58.474731%, 19.996643%)" offset="0.382812"/><stop stop-opacity="1" stop-color="rgb(96.890259%, 58.691406%, 19.98291%)" offset="0.386719"/><stop stop-opacity="1" stop-color="rgb(96.916199%, 58.908081%, 19.969177%)" offset="0.390625"/><stop stop-opacity="1" stop-color="rgb(96.942139%, 59.124756%, 19.955444%)" offset="0.394531"/><stop stop-opacity="1" stop-color="rgb(96.968079%, 59.342957%, 19.943237%)" offset="0.398437"/><stop stop-opacity="1" stop-color="rgb(96.992493%, 59.559631%, 19.929504%)" offset="0.402344"/><stop stop-opacity="1" stop-color="rgb(97.018433%, 59.777832%, 19.917297%)" offset="0.40625"/><stop stop-opacity="1" stop-color="rgb(97.042847%, 59.994507%, 19.903564%)" offset="0.410156"/><stop stop-opacity="1" stop-color="rgb(97.068787%, 60.212708%, 19.891357%)" offset="0.414062"/><stop stop-opacity="1" stop-color="rgb(97.094727%, 60.429382%, 19.877625%)" offset="0.417969"/><stop stop-opacity="1" stop-color="rgb(97.120667%, 60.647583%, 19.865417%)" offset="0.421875"/><stop stop-opacity="1" stop-color="rgb(97.145081%, 60.864258%, 19.851685%)" offset="0.425781"/><stop stop-opacity="1" stop-color="rgb(97.171021%, 61.080933%, 19.839478%)" offset="0.429687"/><stop stop-opacity="1" stop-color="rgb(97.195435%, 61.297607%, 19.825745%)" offset="0.433594"/><stop stop-opacity="1" stop-color="rgb(97.221375%, 61.515808%, 19.813538%)" offset="0.4375"/><stop stop-opacity="1" stop-color="rgb(97.247314%, 61.732483%, 19.799805%)" offset="0.441406"/><stop stop-opacity="1" stop-color="rgb(97.273254%, 61.950684%, 19.787598%)" offset="0.445312"/><stop stop-opacity="1" stop-color="rgb(97.297668%, 62.167358%, 19.773865%)" offset="0.449219"/><stop stop-opacity="1" stop-color="rgb(97.323608%, 62.385559%, 19.761658%)" offset="0.453125"/><stop stop-opacity="1" stop-color="rgb(97.348022%, 62.602234%, 19.747925%)" offset="0.457031"/><stop stop-opacity="1" stop-color="rgb(97.373962%, 62.820435%, 19.734192%)" offset="0.460938"/><stop stop-opacity="1" stop-color="rgb(97.399902%, 63.037109%, 19.720459%)" offset="0.464844"/><stop stop-opacity="1" stop-color="rgb(97.425842%, 63.253784%, 19.708252%)" offset="0.46875"/><stop stop-opacity="1" stop-color="rgb(97.450256%, 63.470459%, 19.694519%)" offset="0.472656"/><stop stop-opacity="1" stop-color="rgb(97.476196%, 63.68866%, 19.682312%)" offset="0.476562"/><stop stop-opacity="1" stop-color="rgb(97.502136%, 63.905334%, 19.668579%)" offset="0.480469"/><stop stop-opacity="1" stop-color="rgb(97.528076%, 64.123535%, 19.656372%)" offset="0.484375"/><stop stop-opacity="1" stop-color="rgb(97.55249%, 64.34021%, 19.642639%)" offset="0.488281"/><stop stop-opacity="1" stop-color="rgb(97.57843%, 64.558411%, 19.630432%)" offset="0.492187"/><stop stop-opacity="1" stop-color="rgb(97.602844%, 64.775085%, 19.616699%)" offset="0.496094"/><stop stop-opacity="1" stop-color="rgb(97.628784%, 64.993286%, 19.604492%)" offset="0.5"/><stop stop-opacity="1" stop-color="rgb(97.654724%, 65.209961%, 19.590759%)" offset="0.503906"/><stop stop-opacity="1" stop-color="rgb(97.680664%, 65.426636%, 19.578552%)" offset="0.507812"/><stop stop-opacity="1" stop-color="rgb(97.705078%, 65.643311%, 19.564819%)" offset="0.511719"/><stop stop-opacity="1" stop-color="rgb(97.731018%, 65.861511%, 19.552612%)" offset="0.515625"/><stop stop-opacity="1" stop-color="rgb(97.755432%, 66.078186%, 19.538879%)" offset="0.519531"/><stop stop-opacity="1" stop-color="rgb(97.781372%, 66.296387%, 19.526672%)" offset="0.523438"/><stop stop-opacity="1" stop-color="rgb(97.807312%, 66.513062%, 19.512939%)" offset="0.527344"/><stop stop-opacity="1" stop-color="rgb(97.833252%, 66.731262%, 19.500732%)" offset="0.53125"/><stop stop-opacity="1" stop-color="rgb(97.857666%, 66.947937%, 19.487%)" offset="0.535156"/><stop stop-opacity="1" stop-color="rgb(97.883606%, 67.166138%, 19.473267%)" offset="0.539062"/><stop stop-opacity="1" stop-color="rgb(97.90802%, 67.382812%, 19.459534%)" offset="0.542969"/><stop stop-opacity="1" stop-color="rgb(97.93396%, 67.601013%, 19.447327%)" offset="0.546875"/><stop stop-opacity="1" stop-color="rgb(97.9599%, 67.817688%, 19.433594%)" offset="0.550781"/><stop stop-opacity="1" stop-color="rgb(97.98584%, 68.034363%, 19.421387%)" offset="0.554687"/><stop stop-opacity="1" stop-color="rgb(98.010254%, 68.251038%, 19.407654%)" offset="0.558594"/><stop stop-opacity="1" stop-color="rgb(98.036194%, 68.469238%, 19.395447%)" offset="0.5625"/><stop stop-opacity="1" stop-color="rgb(98.060608%, 68.685913%, 19.381714%)" offset="0.566406"/><stop stop-opacity="1" stop-color="rgb(98.086548%, 68.904114%, 19.369507%)" offset="0.570312"/><stop stop-opacity="1" stop-color="rgb(98.112488%, 69.120789%, 19.355774%)" offset="0.574219"/><stop stop-opacity="1" stop-color="rgb(98.138428%, 69.338989%, 19.343567%)" offset="0.578125"/><stop stop-opacity="1" stop-color="rgb(98.162842%, 69.555664%, 19.329834%)" offset="0.582031"/><stop stop-opacity="1" stop-color="rgb(98.188782%, 69.773865%, 19.317627%)" offset="0.585938"/><stop stop-opacity="1" stop-color="rgb(98.213196%, 69.99054%, 19.303894%)" offset="0.589844"/><stop stop-opacity="1" stop-color="rgb(98.239136%, 70.207214%, 19.291687%)" offset="0.59375"/><stop stop-opacity="1" stop-color="rgb(98.265076%, 70.423889%, 19.277954%)" offset="0.597656"/><stop stop-opacity="1" stop-color="rgb(98.291016%, 70.64209%, 19.265747%)" offset="0.601562"/><stop stop-opacity="1" stop-color="rgb(98.31543%, 70.858765%, 19.252014%)" offset="0.605469"/><stop stop-opacity="1" stop-color="rgb(98.34137%, 71.076965%, 19.238281%)" offset="0.609375"/><stop stop-opacity="1" stop-color="rgb(98.36731%, 71.29364%, 19.224548%)" offset="0.613281"/><stop stop-opacity="1" stop-color="rgb(98.39325%, 71.511841%, 19.212341%)" offset="0.617188"/><stop stop-opacity="1" stop-color="rgb(98.417664%, 71.728516%, 19.198608%)" offset="0.621094"/><stop stop-opacity="1" stop-color="rgb(98.443604%, 71.946716%, 19.186401%)" offset="0.625"/><stop stop-opacity="1" stop-color="rgb(98.468018%, 72.163391%, 19.172668%)" offset="0.628906"/><stop stop-opacity="1" stop-color="rgb(98.493958%, 72.380066%, 19.160461%)" offset="0.632812"/><stop stop-opacity="1" stop-color="rgb(98.519897%, 72.596741%, 19.146729%)" offset="0.636719"/><stop stop-opacity="1" stop-color="rgb(98.545837%, 72.814941%, 19.134521%)" offset="0.640625"/><stop stop-opacity="1" stop-color="rgb(98.570251%, 73.031616%, 19.120789%)" offset="0.644531"/><stop stop-opacity="1" stop-color="rgb(98.596191%, 73.249817%, 19.108582%)" offset="0.648438"/><stop stop-opacity="1" stop-color="rgb(98.620605%, 73.466492%, 19.094849%)" offset="0.652344"/><stop stop-opacity="1" stop-color="rgb(98.646545%, 73.684692%, 19.082642%)" offset="0.65625"/><stop stop-opacity="1" stop-color="rgb(98.672485%, 73.901367%, 19.068909%)" offset="0.660156"/><stop stop-opacity="1" stop-color="rgb(98.698425%, 74.119568%, 19.056702%)" offset="0.664062"/><stop stop-opacity="1" stop-color="rgb(98.722839%, 74.336243%, 19.042969%)" offset="0.667969"/><stop stop-opacity="1" stop-color="rgb(98.748779%, 74.552917%, 19.030762%)" offset="0.671875"/><stop stop-opacity="1" stop-color="rgb(98.773193%, 74.769592%, 19.017029%)" offset="0.675781"/><stop stop-opacity="1" stop-color="rgb(98.799133%, 74.987793%, 19.004822%)" offset="0.679687"/><stop stop-opacity="1" stop-color="rgb(98.825073%, 75.204468%, 18.991089%)" offset="0.683594"/><stop stop-opacity="1" stop-color="rgb(98.851013%, 75.422668%, 18.977356%)" offset="0.6875"/><stop stop-opacity="1" stop-color="rgb(98.875427%, 75.639343%, 18.963623%)" offset="0.691406"/><stop stop-opacity="1" stop-color="rgb(98.901367%, 75.857544%, 18.951416%)" offset="0.695312"/><stop stop-opacity="1" stop-color="rgb(98.925781%, 76.074219%, 18.937683%)" offset="0.699219"/><stop stop-opacity="1" stop-color="rgb(98.951721%, 76.292419%, 18.925476%)" offset="0.703125"/><stop stop-opacity="1" stop-color="rgb(98.977661%, 76.509094%, 18.911743%)" offset="0.707031"/><stop stop-opacity="1" stop-color="rgb(99.003601%, 76.725769%, 18.899536%)" offset="0.710938"/><stop stop-opacity="1" stop-color="rgb(99.028015%, 76.942444%, 18.885803%)" offset="0.714844"/><stop stop-opacity="1" stop-color="rgb(99.053955%, 77.160645%, 18.873596%)" offset="0.71875"/><stop stop-opacity="1" stop-color="rgb(99.079895%, 77.377319%, 18.859863%)" offset="0.722656"/><stop stop-opacity="1" stop-color="rgb(99.105835%, 77.59552%, 18.847656%)" offset="0.726562"/><stop stop-opacity="1" stop-color="rgb(99.130249%, 77.812195%, 18.833923%)" offset="0.730469"/><stop stop-opacity="1" stop-color="rgb(99.156189%, 78.030396%, 18.821716%)" offset="0.734375"/><stop stop-opacity="1" stop-color="rgb(99.177551%, 78.215027%, 18.809509%)" offset="0.75"/><stop stop-opacity="1" stop-color="rgb(99.198914%, 78.399658%, 18.798828%)" offset="1"/></linearGradient></defs><g clip-path="url(#7c450ba947)"><g clip-path="url(#524ba79312)"><path fill="url(#4e5b660d22)" d="M 0.527344 25.566406 L 0.527344 349.472656 L 374.351562 349.472656 L 374.351562 25.566406 Z M 0.527344 25.566406 " fill-rule="nonzero"/></g></g><path fill="#000000" d="M 126.636719 102.179688 L 248.628906 102.179688 L 237.535156 227.445312 L 187.503906 241.601562 L 137.746094 227.4375 Z M 225.917969 127.8125 L 149.355469 127.796875 L 150.589844 143.023438 L 209.410156 143.039062 L 207.933594 158.820312 L 169.355469 158.820312 L 170.753906 173.765625 L 206.667969 173.765625 L 204.542969 194.234375 L 187.636719 198.90625 L 170.472656 194.195312 L 169.371094 181.9375 L 154.214844 181.9375 L 155.902344 204.335938 L 187.636719 214.21875 L 218.847656 205.335938 Z M 225.917969 127.8125 " fill-opacity="1" fill-rule="nonzero"/><g fill="#000000" fill-opacity="1"><g transform="translate(135.562496, 302.096932)"><g><path d="M 1.3125 -14.078125 C 1.3125 -16.847656 1.910156 -19.320312 3.109375 -21.5 C 4.316406 -23.675781 5.992188 -25.367188 8.140625 -26.578125 C 10.285156 -27.796875 12.71875 -28.40625 15.4375 -28.40625 C 18.769531 -28.40625 21.625 -27.523438 24 -25.765625 C 26.375 -24.003906 27.960938 -21.601562 28.765625 -18.5625 L 21.234375 -18.5625 C 20.679688 -19.726562 19.890625 -20.617188 18.859375 -21.234375 C 17.828125 -21.847656 16.660156 -22.15625 15.359375 -22.15625 C 13.253906 -22.15625 11.546875 -21.421875 10.234375 -19.953125 C 8.929688 -18.492188 8.28125 -16.535156 8.28125 -14.078125 C 8.28125 -11.628906 8.929688 -9.671875 10.234375 -8.203125 C 11.546875 -6.734375 13.253906 -6 15.359375 -6 C 16.660156 -6 17.828125 -6.304688 18.859375 -6.921875 C 19.890625 -7.535156 20.679688 -8.425781 21.234375 -9.59375 L 28.765625 -9.59375 C 27.960938 -6.5625 26.375 -4.171875 24 -2.421875 C 21.625 -0.671875 18.769531 0.203125 15.4375 0.203125 C 12.71875 0.203125 10.285156 -0.398438 8.140625 -1.609375 C 5.992188 -2.828125 4.316406 -4.515625 3.109375 -6.671875 C 1.910156 -8.835938 1.3125 -11.304688 1.3125 -14.078125 Z M 1.3125 -14.078125 "/></g></g></g><g fill="#000000" fill-opacity="1"><g transform="translate(166.039472, 302.096932)"><g><path d="M 12.640625 0.28125 C 10.585938 0.28125 8.75 -0.0507812 7.125 -0.71875 C 5.5 -1.382812 4.195312 -2.367188 3.21875 -3.671875 C 2.25 -4.984375 1.738281 -6.5625 1.6875 -8.40625 L 8.953125 -8.40625 C 9.066406 -7.363281 9.425781 -6.566406 10.03125 -6.015625 C 10.644531 -5.472656 11.445312 -5.203125 12.4375 -5.203125 C 13.445312 -5.203125 14.242188 -5.429688 14.828125 -5.890625 C 15.421875 -6.359375 15.71875 -7.007812 15.71875 -7.84375 C 15.71875 -8.53125 15.484375 -9.097656 15.015625 -9.546875 C 14.546875 -10.003906 13.972656 -10.378906 13.296875 -10.671875 C 12.617188 -10.972656 11.65625 -11.3125 10.40625 -11.6875 C 8.59375 -12.238281 7.109375 -12.796875 5.953125 -13.359375 C 4.804688 -13.921875 3.820312 -14.75 3 -15.84375 C 2.175781 -16.9375 1.765625 -18.363281 1.765625 -20.125 C 1.765625 -22.738281 2.707031 -24.785156 4.59375 -26.265625 C 6.488281 -27.742188 8.957031 -28.484375 12 -28.484375 C 15.09375 -28.484375 17.582031 -27.742188 19.46875 -26.265625 C 21.363281 -24.785156 22.378906 -22.722656 22.515625 -20.078125 L 15.125 -20.078125 C 15.070312 -20.984375 14.738281 -21.695312 14.125 -22.21875 C 13.507812 -22.738281 12.722656 -23 11.765625 -23 C 10.929688 -23 10.257812 -22.78125 9.75 -22.34375 C 9.25 -21.90625 9 -21.269531 9 -20.4375 C 9 -19.53125 9.425781 -18.820312 10.28125 -18.3125 C 11.132812 -17.8125 12.46875 -17.269531 14.28125 -16.6875 C 16.09375 -16.070312 17.566406 -15.484375 18.703125 -14.921875 C 19.835938 -14.359375 20.816406 -13.539062 21.640625 -12.46875 C 22.460938 -11.40625 22.875 -10.035156 22.875 -8.359375 C 22.875 -6.753906 22.46875 -5.300781 21.65625 -4 C 20.84375 -2.695312 19.660156 -1.65625 18.109375 -0.875 C 16.566406 -0.101562 14.742188 0.28125 12.640625 0.28125 Z M 12.640625 0.28125 "/></g></g></g><g fill="#000000" fill-opacity="1"><g transform="translate(190.637024, 302.096932)"><g><path d="M 12.640625 0.28125 C 10.585938 0.28125 8.75 -0.0507812 7.125 -0.71875 C 5.5 -1.382812 4.195312 -2.367188 3.21875 -3.671875 C 2.25 -4.984375 1.738281 -6.5625 1.6875 -8.40625 L 8.953125 -8.40625 C 9.066406 -7.363281 9.425781 -6.566406 10.03125 -6.015625 C 10.644531 -5.472656 11.445312 -5.203125 12.4375 -5.203125 C 13.445312 -5.203125 14.242188 -5.429688 14.828125 -5.890625 C 15.421875 -6.359375 15.71875 -7.007812 15.71875 -7.84375 C 15.71875 -8.53125 15.484375 -9.097656 15.015625 -9.546875 C 14.546875 -10.003906 13.972656 -10.378906 13.296875 -10.671875 C 12.617188 -10.972656 11.65625 -11.3125 10.40625 -11.6875 C 8.59375 -12.238281 7.109375 -12.796875 5.953125 -13.359375 C 4.804688 -13.921875 3.820312 -14.75 3 -15.84375 C 2.175781 -16.9375 1.765625 -18.363281 1.765625 -20.125 C 1.765625 -22.738281 2.707031 -24.785156 4.59375 -26.265625 C 6.488281 -27.742188 8.957031 -28.484375 12 -28.484375 C 15.09375 -28.484375 17.582031 -27.742188 19.46875 -26.265625 C 21.363281 -24.785156 22.378906 -22.722656 22.515625 -20.078125 L 15.125 -20.078125 C 15.070312 -20.984375 14.738281 -21.695312 14.125 -22.21875 C 13.507812 -22.738281 12.722656 -23 11.765625 -23 C 10.929688 -23 10.257812 -22.78125 9.75 -22.34375 C 9.25 -21.90625 9 -21.269531 9 -20.4375 C 9 -19.53125 9.425781 -18.820312 10.28125 -18.3125 C 11.132812 -17.8125 12.46875 -17.269531 14.28125 -16.6875 C 16.09375 -16.070312 17.566406 -15.484375 18.703125 -14.921875 C 19.835938 -14.359375 20.816406 -13.539062 21.640625 -12.46875 C 22.460938 -11.40625 22.875 -10.035156 22.875 -8.359375 C 22.875 -6.753906 22.46875 -5.300781 21.65625 -4 C 20.84375 -2.695312 19.660156 -1.65625 18.109375 -0.875 C 16.566406 -0.101562 14.742188 0.28125 12.640625 0.28125 Z M 12.640625 0.28125 "/></g></g></g><g fill="#000000" fill-opacity="1"><g transform="translate(215.234576, 302.096932)"><g><path d="M 2.046875 -20.953125 C 2.148438 -23.804688 3.082031 -26.003906 4.84375 -27.546875 C 6.601562 -29.097656 8.988281 -29.875 12 -29.875 C 14 -29.875 15.710938 -29.523438 17.140625 -28.828125 C 18.566406 -28.140625 19.644531 -27.195312 20.375 -26 C 21.113281 -24.800781 21.484375 -23.453125 21.484375 -21.953125 C 21.484375 -20.191406 21.039062 -18.757812 20.15625 -17.65625 C 19.28125 -16.550781 18.253906 -15.800781 17.078125 -15.40625 L 17.078125 -15.234375 C 18.597656 -14.734375 19.796875 -13.894531 20.671875 -12.71875 C 21.554688 -11.539062 22 -10.035156 22 -8.203125 C 22 -6.546875 21.617188 -5.082031 20.859375 -3.8125 C 20.097656 -2.550781 18.988281 -1.5625 17.53125 -0.84375 C 16.082031 -0.125 14.359375 0.234375 12.359375 0.234375 C 9.160156 0.234375 6.609375 -0.550781 4.703125 -2.125 C 2.796875 -3.695312 1.789062 -6.066406 1.6875 -9.234375 L 8.3125 -9.234375 C 8.34375 -8.066406 8.675781 -7.140625 9.3125 -6.453125 C 9.957031 -5.773438 10.894531 -5.4375 12.125 -5.4375 C 13.164062 -5.4375 13.972656 -5.734375 14.546875 -6.328125 C 15.117188 -6.929688 15.40625 -7.726562 15.40625 -8.71875 C 15.40625 -10 14.992188 -10.925781 14.171875 -11.5 C 13.359375 -12.070312 12.0625 -12.359375 10.28125 -12.359375 L 9 -12.359375 L 9 -17.921875 L 10.28125 -17.921875 C 11.632812 -17.921875 12.734375 -18.148438 13.578125 -18.609375 C 14.421875 -19.078125 14.84375 -19.914062 14.84375 -21.125 C 14.84375 -22.082031 14.570312 -22.828125 14.03125 -23.359375 C 13.5 -23.890625 12.769531 -24.15625 11.84375 -24.15625 C 10.820312 -24.15625 10.066406 -23.847656 9.578125 -23.234375 C 9.085938 -22.617188 8.800781 -21.859375 8.71875 -20.953125 Z M 2.046875 -20.953125 "/></g></g></g></svg>