<svg xmlns="http://www.w3.org/2000/svg" xmlns:xlink="http://www.w3.org/1999/xlink" width="500" zoomAndPan="magnify" viewBox="0 0 375 374.999991" height="500" preserveAspectRatio="xMidYMid meet" version="1.0"><defs><g/><clipPath id="5b41cba9f7"><path d="M 0 25.566406 L 375 25.566406 L 375 349.566406 L 0 349.566406 Z M 0 25.566406 " clip-rule="nonzero"/></clipPath><clipPath id="2f5c2c425d"><path d="M 374.351562 187.519531 L 280.890625 349.472656 L 93.988281 349.472656 L 0.527344 187.519531 L 93.988281 25.566406 L 280.914062 25.566406 Z M 374.351562 187.519531 " clip-rule="nonzero"/></clipPath></defs><g clip-path="url(#5b41cba9f7)"><g clip-path="url(#2f5c2c425d)"><path fill="#000000" d="M 0.527344 25.566406 L 0.527344 349.472656 L 374.351562 349.472656 L 374.351562 25.566406 Z M 0.527344 25.566406 " fill-opacity="1" fill-rule="nonzero"/></g></g><path fill="#ffffff" d="M 250.136719 115.808594 C 250.136719 98.871094 221.519531 84.558594 187.636719 84.558594 C 153.753906 84.558594 125.136719 98.871094 125.136719 115.808594 L 125.136719 131.433594 C 125.136719 148.371094 153.753906 162.683594 187.636719 162.683594 C 221.519531 162.683594 250.136719 148.371094 250.136719 131.433594 Z M 187.636719 217.371094 C 153.753906 217.371094 125.136719 203.058594 125.136719 186.121094 L 125.136719 209.558594 C 125.136719 226.496094 153.753906 240.808594 187.636719 240.808594 C 221.519531 240.808594 250.136719 226.496094 250.136719 209.558594 L 250.136719 186.121094 C 250.136719 203.058594 221.519531 217.371094 187.636719 217.371094 Z M 187.636719 217.371094 " fill-opacity="1" fill-rule="nonzero"/><path fill="#ffffff" d="M 250.136719 147.058594 C 250.136719 163.996094 221.519531 178.308594 187.636719 178.308594 C 153.753906 178.308594 125.136719 163.996094 125.136719 147.058594 L 125.136719 170.496094 C 125.136719 187.433594 153.753906 201.746094 187.636719 201.746094 C 221.519531 201.746094 250.136719 187.433594 250.136719 170.496094 Z M 250.136719 147.058594 " fill-opacity="1" fill-rule="nonzero"/><g fill="#ffffff" fill-opacity="1"><g transform="translate(118.124997, 304.437402)"><g><path d="M 34.28125 -28.078125 L 34.28125 0 L 27.4375 0 L 27.4375 -16.84375 L 21.15625 0 L 15.640625 0 L 9.3125 -16.875 L 9.3125 0 L 2.484375 0 L 2.484375 -28.078125 L 10.5625 -28.078125 L 18.4375 -8.640625 L 26.234375 -28.078125 Z M 34.28125 -28.078125 "/></g></g></g><g fill="#ffffff" fill-opacity="1"><g transform="translate(154.841349, 304.437402)"><g><path d="M 26.5625 -28.078125 L 16.84375 -9.28125 L 16.84375 0 L 10 0 L 10 -9.28125 L 0.28125 -28.078125 L 8.046875 -28.078125 L 13.484375 -16.3125 L 18.875 -28.078125 Z M 26.5625 -28.078125 "/></g></g></g><g fill="#ffffff" fill-opacity="1"><g transform="translate(181.678681, 304.437402)"><g><path d="M 12.640625 0.28125 C 10.585938 0.28125 8.75 -0.0507812 7.125 -0.71875 C 5.5 -1.382812 4.195312 -2.367188 3.21875 -3.671875 C 2.25 -4.984375 1.738281 -6.5625 1.6875 -8.40625 L 8.953125 -8.40625 C 9.066406 -7.363281 9.425781 -6.566406 10.03125 -6.015625 C 10.644531 -5.472656 11.445312 -5.203125 12.4375 -5.203125 C 13.445312 -5.203125 14.242188 -5.429688 14.828125 -5.890625 C 15.421875 -6.359375 15.71875 -7.007812 15.71875 -7.84375 C 15.71875 -8.53125 15.484375 -9.097656 15.015625 -9.546875 C 14.546875 -10.003906 13.972656 -10.378906 13.296875 -10.671875 C 12.617188 -10.972656 11.65625 -11.3125 10.40625 -11.6875 C 8.59375 -12.238281 7.109375 -12.796875 5.953125 -13.359375 C 4.804688 -13.921875 3.820312 -14.75 3 -15.84375 C 2.175781 -16.9375 1.765625 -18.363281 1.765625 -20.125 C 1.765625 -22.738281 2.707031 -24.785156 4.59375 -26.265625 C 6.488281 -27.742188 8.957031 -28.484375 12 -28.484375 C 15.09375 -28.484375 17.582031 -27.742188 19.46875 -26.265625 C 21.363281 -24.785156 22.378906 -22.722656 22.515625 -20.078125 L 15.125 -20.078125 C 15.070312 -20.984375 14.738281 -21.695312 14.125 -22.21875 C 13.507812 -22.738281 12.722656 -23 11.765625 -23 C 10.929688 -23 10.257812 -22.78125 9.75 -22.34375 C 9.25 -21.90625 9 -21.269531 9 -20.4375 C 9 -19.53125 9.425781 -18.820312 10.28125 -18.3125 C 11.132812 -17.8125 12.46875 -17.269531 14.28125 -16.6875 C 16.09375 -16.070312 17.566406 -15.484375 18.703125 -14.921875 C 19.835938 -14.359375 20.816406 -13.539062 21.640625 -12.46875 C 22.460938 -11.40625 22.875 -10.035156 22.875 -8.359375 C 22.875 -6.753906 22.46875 -5.300781 21.65625 -4 C 20.84375 -2.695312 19.660156 -1.65625 18.109375 -0.875 C 16.566406 -0.101562 14.742188 0.28125 12.640625 0.28125 Z M 12.640625 0.28125 "/></g></g></g><g fill="#ffffff" fill-opacity="1"><g transform="translate(206.276233, 304.437402)"><g><path d="M 22.484375 4.796875 L 18.875 -0.046875 C 17.8125 0.171875 16.773438 0.28125 15.765625 0.28125 C 13.117188 0.28125 10.695312 -0.332031 8.5 -1.5625 C 6.300781 -2.789062 4.550781 -4.503906 3.25 -6.703125 C 1.957031 -8.898438 1.3125 -11.375 1.3125 -14.125 C 1.3125 -16.863281 1.957031 -19.328125 3.25 -21.515625 C 4.550781 -23.703125 6.300781 -25.410156 8.5 -26.640625 C 10.695312 -27.867188 13.117188 -28.484375 15.765625 -28.484375 C 18.398438 -28.484375 20.816406 -27.867188 23.015625 -26.640625 C 25.210938 -25.410156 26.945312 -23.703125 28.21875 -21.515625 C 29.488281 -19.328125 30.125 -16.863281 30.125 -14.125 C 30.125 -11.71875 29.632812 -9.519531 28.65625 -7.53125 C 27.6875 -5.550781 26.332031 -3.90625 24.59375 -2.59375 L 30.765625 4.796875 Z M 8.3125 -14.125 C 8.3125 -11.644531 8.984375 -9.660156 10.328125 -8.171875 C 11.679688 -6.691406 13.492188 -5.953125 15.765625 -5.953125 C 18.003906 -5.953125 19.796875 -6.695312 21.140625 -8.1875 C 22.484375 -9.6875 23.15625 -11.664062 23.15625 -14.125 C 23.15625 -16.601562 22.484375 -18.582031 21.140625 -20.0625 C 19.796875 -21.539062 18.003906 -22.28125 15.765625 -22.28125 C 13.492188 -22.28125 11.679688 -21.546875 10.328125 -20.078125 C 8.984375 -18.609375 8.3125 -16.625 8.3125 -14.125 Z M 8.3125 -14.125 "/></g></g></g><g fill="#ffffff" fill-opacity="1"><g transform="translate(237.793099, 304.437402)"><g><path d="M 9.3125 -5.28125 L 18.28125 -5.28125 L 18.28125 0 L 2.484375 0 L 2.484375 -28.078125 L 9.3125 -28.078125 Z M 9.3125 -5.28125 "/></g></g></g></svg>