<svg xmlns="http://www.w3.org/2000/svg" xmlns:xlink="http://www.w3.org/1999/xlink" width="500" zoomAndPan="magnify" viewBox="0 0 375 374.999991" height="500" preserveAspectRatio="xMidYMid meet" version="1.0"><defs><g/><clipPath id="0f627c1d41"><path d="M 0 25.566406 L 375 25.566406 L 375 349.566406 L 0 349.566406 Z M 0 25.566406 " clip-rule="nonzero"/></clipPath><clipPath id="97f02d3eed"><path d="M 374.351562 187.519531 L 280.890625 349.472656 L 93.988281 349.472656 L 0.527344 187.519531 L 93.988281 25.566406 L 280.914062 25.566406 Z M 374.351562 187.519531 " clip-rule="nonzero"/></clipPath><linearGradient x1="8.011192" gradientTransform="matrix(2.431377, 0, 0, 2.432433, 0.527129, 25.568179)" y1="-7.452318" x2="145.742985" gradientUnits="userSpaceOnUse" y2="140.608432" id="e3bff1ff39"><stop stop-opacity="1" stop-color="rgb(95.298767%, 45.098877%, 20.799255%)" offset="0"/><stop stop-opacity="1" stop-color="rgb(95.298767%, 45.098877%, 20.799255%)" offset="0.125"/><stop stop-opacity="1" stop-color="rgb(95.298767%, 45.098877%, 20.799255%)" offset="0.140625"/><stop stop-opacity="1" stop-color="rgb(95.318604%, 45.266724%, 20.788574%)" offset="0.148437"/><stop stop-opacity="1" stop-color="rgb(95.36438%, 45.652771%, 20.765686%)" offset="0.152344"/><stop stop-opacity="1" stop-color="rgb(95.39032%, 45.870972%, 20.753479%)" offset="0.15625"/><stop stop-opacity="1" stop-color="rgb(95.414734%, 46.087646%, 20.739746%)" offset="0.160156"/><stop stop-opacity="1" stop-color="rgb(95.440674%, 46.305847%, 20.726013%)" offset="0.164062"/><stop stop-opacity="1" stop-color="rgb(95.465088%, 46.522522%, 20.71228%)" offset="0.167969"/><stop stop-opacity="1" stop-color="rgb(95.491028%, 46.740723%, 20.700073%)" offset="0.171875"/><stop stop-opacity="1" stop-color="rgb(95.516968%, 46.957397%, 20.68634%)" offset="0.175781"/><stop stop-opacity="1" stop-color="rgb(95.542908%, 47.175598%, 20.674133%)" offset="0.179688"/><stop stop-opacity="1" stop-color="rgb(95.567322%, 47.392273%, 20.6604%)" offset="0.183594"/><stop stop-opacity="1" stop-color="rgb(95.593262%, 47.608948%, 20.648193%)" offset="0.1875"/><stop stop-opacity="1" stop-color="rgb(95.617676%, 47.825623%, 20.63446%)" offset="0.191406"/><stop stop-opacity="1" stop-color="rgb(95.643616%, 48.043823%, 20.622253%)" offset="0.195312"/><stop stop-opacity="1" stop-color="rgb(95.669556%, 48.260498%, 20.608521%)" offset="0.199219"/><stop stop-opacity="1" stop-color="rgb(95.695496%, 48.478699%, 20.596313%)" offset="0.203125"/><stop stop-opacity="1" stop-color="rgb(95.71991%, 48.695374%, 20.582581%)" offset="0.207031"/><stop stop-opacity="1" stop-color="rgb(95.74585%, 48.913574%, 20.570374%)" offset="0.210938"/><stop stop-opacity="1" stop-color="rgb(95.770264%, 49.130249%, 20.556641%)" offset="0.214844"/><stop stop-opacity="1" stop-color="rgb(95.796204%, 49.34845%, 20.544434%)" offset="0.21875"/><stop stop-opacity="1" stop-color="rgb(95.822144%, 49.565125%, 20.530701%)" offset="0.222656"/><stop stop-opacity="1" stop-color="rgb(95.848083%, 49.781799%, 20.518494%)" offset="0.226562"/><stop stop-opacity="1" stop-color="rgb(95.872498%, 49.998474%, 20.504761%)" offset="0.230469"/><stop stop-opacity="1" stop-color="rgb(95.898438%, 50.216675%, 20.492554%)" offset="0.234375"/><stop stop-opacity="1" stop-color="rgb(95.922852%, 50.43335%, 20.478821%)" offset="0.238281"/><stop stop-opacity="1" stop-color="rgb(95.948792%, 50.65155%, 20.465088%)" offset="0.242188"/><stop stop-opacity="1" stop-color="rgb(95.974731%, 50.868225%, 20.451355%)" offset="0.246094"/><stop stop-opacity="1" stop-color="rgb(96.000671%, 51.086426%, 20.439148%)" offset="0.25"/><stop stop-opacity="1" stop-color="rgb(96.025085%, 51.303101%, 20.425415%)" offset="0.253906"/><stop stop-opacity="1" stop-color="rgb(96.051025%, 51.521301%, 20.413208%)" offset="0.257812"/><stop stop-opacity="1" stop-color="rgb(96.076965%, 51.737976%, 20.399475%)" offset="0.261719"/><stop stop-opacity="1" stop-color="rgb(96.102905%, 51.954651%, 20.387268%)" offset="0.265625"/><stop stop-opacity="1" stop-color="rgb(96.127319%, 52.171326%, 20.373535%)" offset="0.269531"/><stop stop-opacity="1" stop-color="rgb(96.153259%, 52.389526%, 20.361328%)" offset="0.273437"/><stop stop-opacity="1" stop-color="rgb(96.177673%, 52.606201%, 20.347595%)" offset="0.277344"/><stop stop-opacity="1" stop-color="rgb(96.203613%, 52.824402%, 20.335388%)" offset="0.28125"/><stop stop-opacity="1" stop-color="rgb(96.229553%, 53.041077%, 20.321655%)" offset="0.285156"/><stop stop-opacity="1" stop-color="rgb(96.255493%, 53.259277%, 20.309448%)" offset="0.289062"/><stop stop-opacity="1" stop-color="rgb(96.279907%, 53.475952%, 20.295715%)" offset="0.292969"/><stop stop-opacity="1" stop-color="rgb(96.305847%, 53.694153%, 20.283508%)" offset="0.296875"/><stop stop-opacity="1" stop-color="rgb(96.330261%, 53.910828%, 20.269775%)" offset="0.300781"/><stop stop-opacity="1" stop-color="rgb(96.356201%, 54.129028%, 20.257568%)" offset="0.304688"/><stop stop-opacity="1" stop-color="rgb(96.382141%, 54.345703%, 20.243835%)" offset="0.308594"/><stop stop-opacity="1" stop-color="rgb(96.408081%, 54.562378%, 20.230103%)" offset="0.3125"/><stop stop-opacity="1" stop-color="rgb(96.432495%, 54.779053%, 20.21637%)" offset="0.316406"/><stop stop-opacity="1" stop-color="rgb(96.458435%, 54.997253%, 20.204163%)" offset="0.320312"/><stop stop-opacity="1" stop-color="rgb(96.482849%, 55.213928%, 20.19043%)" offset="0.324219"/><stop stop-opacity="1" stop-color="rgb(96.508789%, 55.432129%, 20.178223%)" offset="0.328125"/><stop stop-opacity="1" stop-color="rgb(96.534729%, 55.648804%, 20.16449%)" offset="0.332031"/><stop stop-opacity="1" stop-color="rgb(96.560669%, 55.867004%, 20.152283%)" offset="0.335938"/><stop stop-opacity="1" stop-color="rgb(96.585083%, 56.083679%, 20.13855%)" offset="0.339844"/><stop stop-opacity="1" stop-color="rgb(96.611023%, 56.30188%, 20.126343%)" offset="0.34375"/><stop stop-opacity="1" stop-color="rgb(96.635437%, 56.518555%, 20.11261%)" offset="0.347656"/><stop stop-opacity="1" stop-color="rgb(96.661377%, 56.735229%, 20.100403%)" offset="0.351563"/><stop stop-opacity="1" stop-color="rgb(96.687317%, 56.951904%, 20.08667%)" offset="0.355469"/><stop stop-opacity="1" stop-color="rgb(96.713257%, 57.170105%, 20.074463%)" offset="0.359375"/><stop stop-opacity="1" stop-color="rgb(96.737671%, 57.38678%, 20.06073%)" offset="0.363281"/><stop stop-opacity="1" stop-color="rgb(96.763611%, 57.60498%, 20.048523%)" offset="0.367187"/><stop stop-opacity="1" stop-color="rgb(96.789551%, 57.821655%, 20.03479%)" offset="0.371094"/><stop stop-opacity="1" stop-color="rgb(96.815491%, 58.039856%, 20.022583%)" offset="0.375"/><stop stop-opacity="1" stop-color="rgb(96.839905%, 58.256531%, 20.00885%)" offset="0.378906"/><stop stop-opacity="1" stop-color="rgb(96.865845%, 58.474731%, 19.996643%)" offset="0.382812"/><stop stop-opacity="1" stop-color="rgb(96.890259%, 58.691406%, 19.98291%)" offset="0.386719"/><stop stop-opacity="1" stop-color="rgb(96.916199%, 58.908081%, 19.969177%)" offset="0.390625"/><stop stop-opacity="1" stop-color="rgb(96.942139%, 59.124756%, 19.955444%)" offset="0.394531"/><stop stop-opacity="1" stop-color="rgb(96.968079%, 59.342957%, 19.943237%)" offset="0.398438"/><stop stop-opacity="1" stop-color="rgb(96.992493%, 59.559631%, 19.929504%)" offset="0.402344"/><stop stop-opacity="1" stop-color="rgb(97.018433%, 59.777832%, 19.917297%)" offset="0.40625"/><stop stop-opacity="1" stop-color="rgb(97.042847%, 59.994507%, 19.903564%)" offset="0.410156"/><stop stop-opacity="1" stop-color="rgb(97.068787%, 60.212708%, 19.891357%)" offset="0.414062"/><stop stop-opacity="1" stop-color="rgb(97.094727%, 60.429382%, 19.877625%)" offset="0.417969"/><stop stop-opacity="1" stop-color="rgb(97.120667%, 60.647583%, 19.865417%)" offset="0.421875"/><stop stop-opacity="1" stop-color="rgb(97.145081%, 60.864258%, 19.851685%)" offset="0.425781"/><stop stop-opacity="1" stop-color="rgb(97.171021%, 61.080933%, 19.839478%)" offset="0.429687"/><stop stop-opacity="1" stop-color="rgb(97.195435%, 61.297607%, 19.825745%)" offset="0.433594"/><stop stop-opacity="1" stop-color="rgb(97.221375%, 61.515808%, 19.813538%)" offset="0.4375"/><stop stop-opacity="1" stop-color="rgb(97.247314%, 61.732483%, 19.799805%)" offset="0.441406"/><stop stop-opacity="1" stop-color="rgb(97.273254%, 61.950684%, 19.787598%)" offset="0.445312"/><stop stop-opacity="1" stop-color="rgb(97.297668%, 62.167358%, 19.773865%)" offset="0.449219"/><stop stop-opacity="1" stop-color="rgb(97.323608%, 62.385559%, 19.761658%)" offset="0.453125"/><stop stop-opacity="1" stop-color="rgb(97.348022%, 62.602234%, 19.747925%)" offset="0.457031"/><stop stop-opacity="1" stop-color="rgb(97.373962%, 62.820435%, 19.734192%)" offset="0.460938"/><stop stop-opacity="1" stop-color="rgb(97.399902%, 63.037109%, 19.720459%)" offset="0.464844"/><stop stop-opacity="1" stop-color="rgb(97.425842%, 63.253784%, 19.708252%)" offset="0.46875"/><stop stop-opacity="1" stop-color="rgb(97.450256%, 63.470459%, 19.694519%)" offset="0.472656"/><stop stop-opacity="1" stop-color="rgb(97.476196%, 63.68866%, 19.682312%)" offset="0.476562"/><stop stop-opacity="1" stop-color="rgb(97.502136%, 63.905334%, 19.668579%)" offset="0.480469"/><stop stop-opacity="1" stop-color="rgb(97.528076%, 64.123535%, 19.656372%)" offset="0.484375"/><stop stop-opacity="1" stop-color="rgb(97.55249%, 64.34021%, 19.642639%)" offset="0.488281"/><stop stop-opacity="1" stop-color="rgb(97.57843%, 64.558411%, 19.630432%)" offset="0.492187"/><stop stop-opacity="1" stop-color="rgb(97.602844%, 64.775085%, 19.616699%)" offset="0.496094"/><stop stop-opacity="1" stop-color="rgb(97.628784%, 64.993286%, 19.604492%)" offset="0.5"/><stop stop-opacity="1" stop-color="rgb(97.654724%, 65.209961%, 19.590759%)" offset="0.503906"/><stop stop-opacity="1" stop-color="rgb(97.680664%, 65.426636%, 19.578552%)" offset="0.507812"/><stop stop-opacity="1" stop-color="rgb(97.705078%, 65.643311%, 19.564819%)" offset="0.511719"/><stop stop-opacity="1" stop-color="rgb(97.731018%, 65.861511%, 19.552612%)" offset="0.515625"/><stop stop-opacity="1" stop-color="rgb(97.755432%, 66.078186%, 19.538879%)" offset="0.519531"/><stop stop-opacity="1" stop-color="rgb(97.781372%, 66.296387%, 19.526672%)" offset="0.523438"/><stop stop-opacity="1" stop-color="rgb(97.807312%, 66.513062%, 19.512939%)" offset="0.527344"/><stop stop-opacity="1" stop-color="rgb(97.833252%, 66.731262%, 19.500732%)" offset="0.53125"/><stop stop-opacity="1" stop-color="rgb(97.857666%, 66.947937%, 19.487%)" offset="0.535156"/><stop stop-opacity="1" stop-color="rgb(97.883606%, 67.166138%, 19.473267%)" offset="0.539062"/><stop stop-opacity="1" stop-color="rgb(97.90802%, 67.382812%, 19.459534%)" offset="0.542969"/><stop stop-opacity="1" stop-color="rgb(97.93396%, 67.601013%, 19.447327%)" offset="0.546875"/><stop stop-opacity="1" stop-color="rgb(97.9599%, 67.817688%, 19.433594%)" offset="0.550781"/><stop stop-opacity="1" stop-color="rgb(97.98584%, 68.034363%, 19.421387%)" offset="0.554688"/><stop stop-opacity="1" stop-color="rgb(98.010254%, 68.251038%, 19.407654%)" offset="0.558594"/><stop stop-opacity="1" stop-color="rgb(98.036194%, 68.469238%, 19.395447%)" offset="0.5625"/><stop stop-opacity="1" stop-color="rgb(98.060608%, 68.685913%, 19.381714%)" offset="0.566406"/><stop stop-opacity="1" stop-color="rgb(98.086548%, 68.904114%, 19.369507%)" offset="0.570312"/><stop stop-opacity="1" stop-color="rgb(98.112488%, 69.120789%, 19.355774%)" offset="0.574219"/><stop stop-opacity="1" stop-color="rgb(98.138428%, 69.338989%, 19.343567%)" offset="0.578125"/><stop stop-opacity="1" stop-color="rgb(98.162842%, 69.555664%, 19.329834%)" offset="0.582031"/><stop stop-opacity="1" stop-color="rgb(98.188782%, 69.773865%, 19.317627%)" offset="0.585938"/><stop stop-opacity="1" stop-color="rgb(98.213196%, 69.99054%, 19.303894%)" offset="0.589844"/><stop stop-opacity="1" stop-color="rgb(98.239136%, 70.207214%, 19.291687%)" offset="0.59375"/><stop stop-opacity="1" stop-color="rgb(98.265076%, 70.423889%, 19.277954%)" offset="0.597656"/><stop stop-opacity="1" stop-color="rgb(98.291016%, 70.64209%, 19.265747%)" offset="0.601562"/><stop stop-opacity="1" stop-color="rgb(98.31543%, 70.858765%, 19.252014%)" offset="0.605469"/><stop stop-opacity="1" stop-color="rgb(98.34137%, 71.076965%, 19.238281%)" offset="0.609375"/><stop stop-opacity="1" stop-color="rgb(98.36731%, 71.29364%, 19.224548%)" offset="0.613281"/><stop stop-opacity="1" stop-color="rgb(98.39325%, 71.511841%, 19.212341%)" offset="0.617188"/><stop stop-opacity="1" stop-color="rgb(98.417664%, 71.728516%, 19.198608%)" offset="0.621094"/><stop stop-opacity="1" stop-color="rgb(98.443604%, 71.946716%, 19.186401%)" offset="0.625"/><stop stop-opacity="1" stop-color="rgb(98.468018%, 72.163391%, 19.172668%)" offset="0.628906"/><stop stop-opacity="1" stop-color="rgb(98.493958%, 72.380066%, 19.160461%)" offset="0.632812"/><stop stop-opacity="1" stop-color="rgb(98.519897%, 72.596741%, 19.146729%)" offset="0.636719"/><stop stop-opacity="1" stop-color="rgb(98.545837%, 72.814941%, 19.134521%)" offset="0.640625"/><stop stop-opacity="1" stop-color="rgb(98.570251%, 73.031616%, 19.120789%)" offset="0.644531"/><stop stop-opacity="1" stop-color="rgb(98.596191%, 73.249817%, 19.108582%)" offset="0.648438"/><stop stop-opacity="1" stop-color="rgb(98.620605%, 73.466492%, 19.094849%)" offset="0.652344"/><stop stop-opacity="1" stop-color="rgb(98.646545%, 73.684692%, 19.082642%)" offset="0.65625"/><stop stop-opacity="1" stop-color="rgb(98.672485%, 73.901367%, 19.068909%)" offset="0.660156"/><stop stop-opacity="1" stop-color="rgb(98.698425%, 74.119568%, 19.056702%)" offset="0.664063"/><stop stop-opacity="1" stop-color="rgb(98.722839%, 74.336243%, 19.042969%)" offset="0.667969"/><stop stop-opacity="1" stop-color="rgb(98.748779%, 74.552917%, 19.030762%)" offset="0.671875"/><stop stop-opacity="1" stop-color="rgb(98.773193%, 74.769592%, 19.017029%)" offset="0.675781"/><stop stop-opacity="1" stop-color="rgb(98.799133%, 74.987793%, 19.004822%)" offset="0.679688"/><stop stop-opacity="1" stop-color="rgb(98.825073%, 75.204468%, 18.991089%)" offset="0.683594"/><stop stop-opacity="1" stop-color="rgb(98.851013%, 75.422668%, 18.977356%)" offset="0.6875"/><stop stop-opacity="1" stop-color="rgb(98.875427%, 75.639343%, 18.963623%)" offset="0.691406"/><stop stop-opacity="1" stop-color="rgb(98.901367%, 75.857544%, 18.951416%)" offset="0.695313"/><stop stop-opacity="1" stop-color="rgb(98.925781%, 76.074219%, 18.937683%)" offset="0.699219"/><stop stop-opacity="1" stop-color="rgb(98.951721%, 76.292419%, 18.925476%)" offset="0.703125"/><stop stop-opacity="1" stop-color="rgb(98.977661%, 76.509094%, 18.911743%)" offset="0.707031"/><stop stop-opacity="1" stop-color="rgb(99.003601%, 76.725769%, 18.899536%)" offset="0.710938"/><stop stop-opacity="1" stop-color="rgb(99.028015%, 76.942444%, 18.885803%)" offset="0.714844"/><stop stop-opacity="1" stop-color="rgb(99.053955%, 77.160645%, 18.873596%)" offset="0.71875"/><stop stop-opacity="1" stop-color="rgb(99.079895%, 77.377319%, 18.859863%)" offset="0.722656"/><stop stop-opacity="1" stop-color="rgb(99.105835%, 77.59552%, 18.847656%)" offset="0.726562"/><stop stop-opacity="1" stop-color="rgb(99.130249%, 77.812195%, 18.833923%)" offset="0.730469"/><stop stop-opacity="1" stop-color="rgb(99.156189%, 78.030396%, 18.821716%)" offset="0.734375"/><stop stop-opacity="1" stop-color="rgb(99.177551%, 78.215027%, 18.809509%)" offset="0.75"/><stop stop-opacity="1" stop-color="rgb(99.198914%, 78.399658%, 18.798828%)" offset="1"/></linearGradient></defs><g clip-path="url(#0f627c1d41)"><g clip-path="url(#97f02d3eed)"><path fill="url(#e3bff1ff39)" d="M 0.527344 25.566406 L 0.527344 349.472656 L 374.351562 349.472656 L 374.351562 25.566406 Z M 0.527344 25.566406 " fill-rule="nonzero"/></g></g><path fill="#000000" d="M 180.175781 152.507812 C 180.386719 153.085938 180.617188 153.652344 180.875 154.199219 C 181.328125 155.160156 181.199219 156.289062 180.449219 157.042969 L 177.84375 159.648438 L 184.683594 166.488281 L 187.289062 163.882812 C 188.039062 163.132812 189.171875 163.003906 190.128906 163.457031 C 190.679688 163.714844 191.246094 163.949219 191.820312 164.152344 C 192.824219 164.515625 193.53125 165.402344 193.53125 166.464844 L 193.53125 170.152344 L 203.207031 170.152344 L 203.207031 166.464844 C 203.207031 165.40625 203.914062 164.511719 204.914062 164.15625 C 205.492188 163.949219 206.054688 163.714844 206.605469 163.457031 C 207.5625 163.003906 208.695312 163.132812 209.445312 163.886719 L 212.050781 166.488281 L 218.890625 159.648438 L 216.285156 157.042969 C 215.539062 156.296875 215.40625 155.164062 215.859375 154.203125 C 216.117188 153.652344 216.351562 153.085938 216.558594 152.511719 C 216.917969 151.511719 217.808594 150.800781 218.871094 150.800781 L 222.554688 150.800781 L 222.554688 141.128906 L 218.871094 141.128906 C 217.808594 141.128906 216.917969 140.417969 216.558594 139.421875 C 216.351562 138.84375 216.121094 138.277344 215.859375 137.730469 C 215.410156 136.769531 215.539062 135.640625 216.289062 134.886719 L 218.894531 132.28125 L 212.054688 125.441406 L 209.449219 128.046875 C 208.699219 128.796875 207.566406 128.925781 206.605469 128.472656 C 206.058594 128.214844 205.492188 127.980469 204.914062 127.777344 C 203.914062 127.414062 203.207031 126.523438 203.207031 125.464844 L 203.207031 121.777344 L 193.53125 121.777344 L 193.53125 125.464844 C 193.53125 126.523438 192.824219 127.417969 191.824219 127.773438 C 191.246094 127.980469 190.683594 128.214844 190.132812 128.472656 C 189.171875 128.925781 188.042969 128.796875 187.289062 128.042969 L 184.6875 125.441406 L 177.847656 132.28125 L 180.449219 134.886719 C 181.199219 135.632812 181.332031 136.765625 180.878906 137.726562 C 180.617188 138.277344 180.382812 138.84375 180.179688 139.417969 C 179.820312 140.417969 178.929688 141.128906 177.867188 141.128906 L 174.179688 141.128906 L 174.179688 150.800781 L 177.867188 150.800781 C 178.929688 150.800781 179.820312 151.511719 180.175781 152.507812 Z M 198.367188 136.289062 C 203.710938 136.289062 208.042969 140.621094 208.042969 145.964844 C 208.042969 151.308594 203.710938 155.640625 198.367188 155.640625 C 193.027344 155.640625 188.695312 151.308594 188.695312 145.964844 C 188.695312 140.621094 193.027344 136.289062 198.367188 136.289062 Z M 198.367188 136.289062 " fill-opacity="1" fill-rule="nonzero"/><path fill="#000000" d="M 176.601562 194.339844 C 176.601562 199.679688 172.269531 204.011719 166.925781 204.011719 C 161.582031 204.011719 157.25 199.679688 157.25 194.339844 C 157.25 188.996094 161.582031 184.664062 166.925781 184.664062 C 172.269531 184.664062 176.601562 188.996094 176.601562 194.339844 " fill-opacity="1" fill-rule="nonzero"/><path fill="#000000" d="M 210.460938 194.339844 C 210.460938 199.679688 206.128906 204.011719 200.789062 204.011719 C 195.445312 204.011719 191.113281 199.679688 191.113281 194.339844 C 191.113281 188.996094 195.445312 184.664062 200.789062 184.664062 C 206.128906 184.664062 210.460938 188.996094 210.460938 194.339844 " fill-opacity="1" fill-rule="nonzero"/><path fill="#000000" d="M 217.71875 220.945312 C 217.71875 211.59375 210.140625 204.011719 200.789062 204.011719 C 191.4375 204.011719 183.855469 211.59375 183.855469 220.945312 C 183.855469 211.59375 176.277344 204.011719 166.925781 204.011719 C 157.574219 204.011719 149.992188 211.59375 149.992188 220.945312 C 149.992188 211.59375 142.414062 204.011719 133.0625 204.011719 C 123.710938 204.011719 116.132812 211.59375 116.132812 220.945312 L 116.132812 228.199219 L 217.71875 228.199219 Z M 217.71875 220.945312 " fill-opacity="1" fill-rule="nonzero"/><path fill="#000000" d="M 142.738281 194.339844 C 142.738281 199.679688 138.40625 204.011719 133.0625 204.011719 C 127.71875 204.011719 123.386719 199.679688 123.386719 194.339844 C 123.386719 188.996094 127.71875 184.664062 133.0625 184.664062 C 138.40625 184.664062 142.738281 188.996094 142.738281 194.339844 " fill-opacity="1" fill-rule="nonzero"/><path fill="#000000" d="M 158.960938 158.058594 C 157.183594 155.164062 153.375 148.035156 154.125 138.707031 C 154.125 138.667969 154.132812 138.628906 154.132812 138.589844 C 154.578125 133.347656 157.09375 128.503906 160.882812 124.863281 L 161.503906 124.265625 L 164.925781 120.84375 L 170.054688 125.976562 L 171.761719 103.742188 L 149.53125 105.453125 L 154.660156 110.582031 L 149.53125 115.714844 C 144.285156 119.976562 142.628906 124.425781 142.03125 126.613281 C 139.152344 137.132812 145.765625 150.117188 158.960938 158.058594 Z M 158.960938 158.058594 " fill-opacity="1" fill-rule="nonzero"/><path fill="#000000" d="M 242.605469 159.496094 C 242.164062 164.734375 239.648438 169.578125 235.855469 173.222656 L 235.234375 173.816406 L 231.816406 177.238281 L 226.683594 172.109375 L 224.976562 194.339844 L 247.210938 192.628906 L 242.078125 187.5 L 247.210938 182.367188 C 252.457031 178.105469 254.109375 173.65625 254.710938 171.46875 C 257.585938 160.953125 250.972656 147.964844 237.777344 140.027344 C 239.554688 142.917969 243.363281 150.046875 242.617188 159.375 C 242.613281 159.414062 242.609375 159.453125 242.605469 159.496094 Z M 242.605469 159.496094 " fill-opacity="1" fill-rule="nonzero"/><path fill="#000000" d="M 241.90625 83.074219 C 231.222656 83.074219 222.554688 91.742188 222.554688 102.425781 C 222.554688 113.113281 231.222656 121.777344 241.90625 121.777344 C 252.59375 121.777344 261.257812 113.113281 261.257812 102.425781 C 261.257812 91.742188 252.59375 83.074219 241.90625 83.074219 Z M 241.34375 111.230469 C 240.910156 111.753906 240.277344 112.066406 239.597656 112.097656 C 239.558594 112.101562 239.523438 112.101562 239.488281 112.101562 C 238.847656 112.101562 238.230469 111.847656 237.777344 111.390625 L 230.519531 104.136719 L 233.941406 100.714844 L 239.324219 106.101562 L 249.722656 93.621094 L 253.4375 96.71875 Z M 241.34375 111.230469 " fill-opacity="1" fill-rule="nonzero"/><g fill="#000000" fill-opacity="1"><g transform="translate(114.462887, 297.112627)"><g><path d="M 12.640625 0.28125 C 10.585938 0.28125 8.75 -0.0507812 7.125 -0.71875 C 5.5 -1.382812 4.195312 -2.367188 3.21875 -3.671875 C 2.25 -4.984375 1.738281 -6.5625 1.6875 -8.40625 L 8.953125 -8.40625 C 9.066406 -7.363281 9.425781 -6.566406 10.03125 -6.015625 C 10.644531 -5.472656 11.445312 -5.203125 12.4375 -5.203125 C 13.445312 -5.203125 14.242188 -5.429688 14.828125 -5.890625 C 15.421875 -6.359375 15.71875 -7.007812 15.71875 -7.84375 C 15.71875 -8.53125 15.484375 -9.097656 15.015625 -9.546875 C 14.546875 -10.003906 13.972656 -10.378906 13.296875 -10.671875 C 12.617188 -10.972656 11.65625 -11.3125 10.40625 -11.6875 C 8.59375 -12.238281 7.109375 -12.796875 5.953125 -13.359375 C 4.804688 -13.921875 3.820312 -14.75 3 -15.84375 C 2.175781 -16.9375 1.765625 -18.363281 1.765625 -20.125 C 1.765625 -22.738281 2.707031 -24.785156 4.59375 -26.265625 C 6.488281 -27.742188 8.957031 -28.484375 12 -28.484375 C 15.09375 -28.484375 17.582031 -27.742188 19.46875 -26.265625 C 21.363281 -24.785156 22.378906 -22.722656 22.515625 -20.078125 L 15.125 -20.078125 C 15.070312 -20.984375 14.738281 -21.695312 14.125 -22.21875 C 13.507812 -22.738281 12.722656 -23 11.765625 -23 C 10.929688 -23 10.257812 -22.78125 9.75 -22.34375 C 9.25 -21.90625 9 -21.269531 9 -20.4375 C 9 -19.53125 9.425781 -18.820312 10.28125 -18.3125 C 11.132812 -17.8125 12.46875 -17.269531 14.28125 -16.6875 C 16.09375 -16.070312 17.566406 -15.484375 18.703125 -14.921875 C 19.835938 -14.359375 20.816406 -13.539062 21.640625 -12.46875 C 22.460938 -11.40625 22.875 -10.035156 22.875 -8.359375 C 22.875 -6.753906 22.46875 -5.300781 21.65625 -4 C 20.84375 -2.695312 19.660156 -1.65625 18.109375 -0.875 C 16.566406 -0.101562 14.742188 0.28125 12.640625 0.28125 Z M 12.640625 0.28125 "/></g></g></g><g fill="#000000" fill-opacity="1"><g transform="translate(139.060439, 297.112627)"><g><path d="M 1.3125 -14.078125 C 1.3125 -16.847656 1.910156 -19.320312 3.109375 -21.5 C 4.316406 -23.675781 5.992188 -25.367188 8.140625 -26.578125 C 10.285156 -27.796875 12.71875 -28.40625 15.4375 -28.40625 C 18.769531 -28.40625 21.625 -27.523438 24 -25.765625 C 26.375 -24.003906 27.960938 -21.601562 28.765625 -18.5625 L 21.234375 -18.5625 C 20.679688 -19.726562 19.890625 -20.617188 18.859375 -21.234375 C 17.828125 -21.847656 16.660156 -22.15625 15.359375 -22.15625 C 13.253906 -22.15625 11.546875 -21.421875 10.234375 -19.953125 C 8.929688 -18.492188 8.28125 -16.535156 8.28125 -14.078125 C 8.28125 -11.628906 8.929688 -9.671875 10.234375 -8.203125 C 11.546875 -6.734375 13.253906 -6 15.359375 -6 C 16.660156 -6 17.828125 -6.304688 18.859375 -6.921875 C 19.890625 -7.535156 20.679688 -8.425781 21.234375 -9.59375 L 28.765625 -9.59375 C 27.960938 -6.5625 26.375 -4.171875 24 -2.421875 C 21.625 -0.671875 18.769531 0.203125 15.4375 0.203125 C 12.71875 0.203125 10.285156 -0.398438 8.140625 -1.609375 C 5.992188 -2.828125 4.316406 -4.515625 3.109375 -6.671875 C 1.910156 -8.835938 1.3125 -11.304688 1.3125 -14.078125 Z M 1.3125 -14.078125 "/></g></g></g><g fill="#000000" fill-opacity="1"><g transform="translate(169.537416, 297.112627)"><g><path d="M 16.796875 0 L 10.953125 -10.59375 L 9.3125 -10.59375 L 9.3125 0 L 2.484375 0 L 2.484375 -28.078125 L 13.953125 -28.078125 C 16.171875 -28.078125 18.054688 -27.691406 19.609375 -26.921875 C 21.171875 -26.148438 22.335938 -25.085938 23.109375 -23.734375 C 23.890625 -22.390625 24.28125 -20.890625 24.28125 -19.234375 C 24.28125 -17.367188 23.753906 -15.703125 22.703125 -14.234375 C 21.648438 -12.773438 20.097656 -11.738281 18.046875 -11.125 L 24.515625 0 Z M 9.3125 -15.4375 L 13.5625 -15.4375 C 14.8125 -15.4375 15.75 -15.742188 16.375 -16.359375 C 17 -16.972656 17.3125 -17.835938 17.3125 -18.953125 C 17.3125 -20.023438 17 -20.867188 16.375 -21.484375 C 15.75 -22.097656 14.8125 -22.40625 13.5625 -22.40625 L 9.3125 -22.40625 Z M 9.3125 -15.4375 "/></g></g></g><g fill="#000000" fill-opacity="1"><g transform="translate(195.614825, 297.112627)"><g><path d="M 9.203125 -28.078125 L 9.203125 -11.28125 C 9.203125 -9.601562 9.613281 -8.3125 10.4375 -7.40625 C 11.269531 -6.5 12.484375 -6.046875 14.078125 -6.046875 C 15.679688 -6.046875 16.910156 -6.5 17.765625 -7.40625 C 18.617188 -8.3125 19.046875 -9.601562 19.046875 -11.28125 L 19.046875 -28.078125 L 25.875 -28.078125 L 25.875 -11.3125 C 25.875 -8.8125 25.34375 -6.691406 24.28125 -4.953125 C 23.21875 -3.222656 21.785156 -1.914062 19.984375 -1.03125 C 18.179688 -0.15625 16.171875 0.28125 13.953125 0.28125 C 11.742188 0.28125 9.765625 -0.148438 8.015625 -1.015625 C 6.273438 -1.878906 4.894531 -3.1875 3.875 -4.9375 C 2.863281 -6.6875 2.359375 -8.8125 2.359375 -11.3125 L 2.359375 -28.078125 Z M 9.203125 -28.078125 "/></g></g></g><g fill="#000000" fill-opacity="1"><g transform="translate(223.812024, 297.112627)"><g><path d="M 34.28125 -28.078125 L 34.28125 0 L 27.4375 0 L 27.4375 -16.84375 L 21.15625 0 L 15.640625 0 L 9.3125 -16.875 L 9.3125 0 L 2.484375 0 L 2.484375 -28.078125 L 10.5625 -28.078125 L 18.4375 -8.640625 L 26.234375 -28.078125 Z M 34.28125 -28.078125 "/></g></g></g></svg>