<svg xmlns="http://www.w3.org/2000/svg" xmlns:xlink="http://www.w3.org/1999/xlink" width="500" zoomAndPan="magnify" viewBox="0 0 375 374.999991" height="500" preserveAspectRatio="xMidYMid meet" version="1.0"><defs><g/><clipPath id="771c7f2552"><path d="M 0 25.566406 L 375 25.566406 L 375 349.566406 L 0 349.566406 Z M 0 25.566406 " clip-rule="nonzero"/></clipPath><clipPath id="a79387397f"><path d="M 374.351562 187.519531 L 280.890625 349.472656 L 93.988281 349.472656 L 0.527344 187.519531 L 93.988281 25.566406 L 280.914062 25.566406 Z M 374.351562 187.519531 " clip-rule="nonzero"/></clipPath><linearGradient x1="8.01119" gradientTransform="matrix(2.431377, 0, 0, 2.432433, 0.527129, 25.568209)" y1="-7.45232" x2="145.742983" gradientUnits="userSpaceOnUse" y2="140.608431" id="105bdb3ea9"><stop stop-opacity="1" stop-color="rgb(95.298767%, 45.098877%, 20.799255%)" offset="0"/><stop stop-opacity="1" stop-color="rgb(95.298767%, 45.098877%, 20.799255%)" offset="0.125"/><stop stop-opacity="1" stop-color="rgb(95.298767%, 45.098877%, 20.799255%)" offset="0.140625"/><stop stop-opacity="1" stop-color="rgb(95.318604%, 45.266724%, 20.788574%)" offset="0.148438"/><stop stop-opacity="1" stop-color="rgb(95.36438%, 45.652771%, 20.765686%)" offset="0.152344"/><stop stop-opacity="1" stop-color="rgb(95.39032%, 45.870972%, 20.753479%)" offset="0.15625"/><stop stop-opacity="1" stop-color="rgb(95.414734%, 46.087646%, 20.739746%)" offset="0.160156"/><stop stop-opacity="1" stop-color="rgb(95.440674%, 46.305847%, 20.726013%)" offset="0.164062"/><stop stop-opacity="1" stop-color="rgb(95.465088%, 46.522522%, 20.71228%)" offset="0.167969"/><stop stop-opacity="1" stop-color="rgb(95.491028%, 46.740723%, 20.700073%)" offset="0.171875"/><stop stop-opacity="1" stop-color="rgb(95.516968%, 46.957397%, 20.68634%)" offset="0.175781"/><stop stop-opacity="1" stop-color="rgb(95.542908%, 47.175598%, 20.674133%)" offset="0.179688"/><stop stop-opacity="1" stop-color="rgb(95.567322%, 47.392273%, 20.6604%)" offset="0.183594"/><stop stop-opacity="1" stop-color="rgb(95.593262%, 47.608948%, 20.648193%)" offset="0.1875"/><stop stop-opacity="1" stop-color="rgb(95.617676%, 47.825623%, 20.63446%)" offset="0.191406"/><stop stop-opacity="1" stop-color="rgb(95.643616%, 48.043823%, 20.622253%)" offset="0.195312"/><stop stop-opacity="1" stop-color="rgb(95.669556%, 48.260498%, 20.608521%)" offset="0.199219"/><stop stop-opacity="1" stop-color="rgb(95.695496%, 48.478699%, 20.596313%)" offset="0.203125"/><stop stop-opacity="1" stop-color="rgb(95.71991%, 48.695374%, 20.582581%)" offset="0.207031"/><stop stop-opacity="1" stop-color="rgb(95.74585%, 48.913574%, 20.570374%)" offset="0.210938"/><stop stop-opacity="1" stop-color="rgb(95.770264%, 49.130249%, 20.556641%)" offset="0.214844"/><stop stop-opacity="1" stop-color="rgb(95.796204%, 49.34845%, 20.544434%)" offset="0.21875"/><stop stop-opacity="1" stop-color="rgb(95.822144%, 49.565125%, 20.530701%)" offset="0.222656"/><stop stop-opacity="1" stop-color="rgb(95.848083%, 49.781799%, 20.518494%)" offset="0.226562"/><stop stop-opacity="1" stop-color="rgb(95.872498%, 49.998474%, 20.504761%)" offset="0.230469"/><stop stop-opacity="1" stop-color="rgb(95.898438%, 50.216675%, 20.492554%)" offset="0.234375"/><stop stop-opacity="1" stop-color="rgb(95.922852%, 50.43335%, 20.478821%)" offset="0.238281"/><stop stop-opacity="1" stop-color="rgb(95.948792%, 50.65155%, 20.465088%)" offset="0.242188"/><stop stop-opacity="1" stop-color="rgb(95.974731%, 50.868225%, 20.451355%)" offset="0.246094"/><stop stop-opacity="1" stop-color="rgb(96.000671%, 51.086426%, 20.439148%)" offset="0.25"/><stop stop-opacity="1" stop-color="rgb(96.025085%, 51.303101%, 20.425415%)" offset="0.253906"/><stop stop-opacity="1" stop-color="rgb(96.051025%, 51.521301%, 20.413208%)" offset="0.257812"/><stop stop-opacity="1" stop-color="rgb(96.076965%, 51.737976%, 20.399475%)" offset="0.261719"/><stop stop-opacity="1" stop-color="rgb(96.102905%, 51.954651%, 20.387268%)" offset="0.265625"/><stop stop-opacity="1" stop-color="rgb(96.127319%, 52.171326%, 20.373535%)" offset="0.269531"/><stop stop-opacity="1" stop-color="rgb(96.153259%, 52.389526%, 20.361328%)" offset="0.273438"/><stop stop-opacity="1" stop-color="rgb(96.177673%, 52.606201%, 20.347595%)" offset="0.277344"/><stop stop-opacity="1" stop-color="rgb(96.203613%, 52.824402%, 20.335388%)" offset="0.28125"/><stop stop-opacity="1" stop-color="rgb(96.229553%, 53.041077%, 20.321655%)" offset="0.285156"/><stop stop-opacity="1" stop-color="rgb(96.255493%, 53.259277%, 20.309448%)" offset="0.289063"/><stop stop-opacity="1" stop-color="rgb(96.279907%, 53.475952%, 20.295715%)" offset="0.292969"/><stop stop-opacity="1" stop-color="rgb(96.305847%, 53.694153%, 20.283508%)" offset="0.296875"/><stop stop-opacity="1" stop-color="rgb(96.330261%, 53.910828%, 20.269775%)" offset="0.300781"/><stop stop-opacity="1" stop-color="rgb(96.356201%, 54.129028%, 20.257568%)" offset="0.304688"/><stop stop-opacity="1" stop-color="rgb(96.382141%, 54.345703%, 20.243835%)" offset="0.308594"/><stop stop-opacity="1" stop-color="rgb(96.408081%, 54.562378%, 20.230103%)" offset="0.3125"/><stop stop-opacity="1" stop-color="rgb(96.432495%, 54.779053%, 20.21637%)" offset="0.316406"/><stop stop-opacity="1" stop-color="rgb(96.458435%, 54.997253%, 20.204163%)" offset="0.320313"/><stop stop-opacity="1" stop-color="rgb(96.482849%, 55.213928%, 20.19043%)" offset="0.324219"/><stop stop-opacity="1" stop-color="rgb(96.508789%, 55.432129%, 20.178223%)" offset="0.328125"/><stop stop-opacity="1" stop-color="rgb(96.534729%, 55.648804%, 20.16449%)" offset="0.332031"/><stop stop-opacity="1" stop-color="rgb(96.560669%, 55.867004%, 20.152283%)" offset="0.335938"/><stop stop-opacity="1" stop-color="rgb(96.585083%, 56.083679%, 20.13855%)" offset="0.339844"/><stop stop-opacity="1" stop-color="rgb(96.611023%, 56.30188%, 20.126343%)" offset="0.34375"/><stop stop-opacity="1" stop-color="rgb(96.635437%, 56.518555%, 20.11261%)" offset="0.347656"/><stop stop-opacity="1" stop-color="rgb(96.661377%, 56.735229%, 20.100403%)" offset="0.351563"/><stop stop-opacity="1" stop-color="rgb(96.687317%, 56.951904%, 20.08667%)" offset="0.355469"/><stop stop-opacity="1" stop-color="rgb(96.713257%, 57.170105%, 20.074463%)" offset="0.359375"/><stop stop-opacity="1" stop-color="rgb(96.737671%, 57.38678%, 20.06073%)" offset="0.363281"/><stop stop-opacity="1" stop-color="rgb(96.763611%, 57.60498%, 20.048523%)" offset="0.367188"/><stop stop-opacity="1" stop-color="rgb(96.789551%, 57.821655%, 20.03479%)" offset="0.371094"/><stop stop-opacity="1" stop-color="rgb(96.815491%, 58.039856%, 20.022583%)" offset="0.375"/><stop stop-opacity="1" stop-color="rgb(96.839905%, 58.256531%, 20.00885%)" offset="0.378906"/><stop stop-opacity="1" stop-color="rgb(96.865845%, 58.474731%, 19.996643%)" offset="0.382813"/><stop stop-opacity="1" stop-color="rgb(96.890259%, 58.691406%, 19.98291%)" offset="0.386719"/><stop stop-opacity="1" stop-color="rgb(96.916199%, 58.908081%, 19.969177%)" offset="0.390625"/><stop stop-opacity="1" stop-color="rgb(96.942139%, 59.124756%, 19.955444%)" offset="0.394531"/><stop stop-opacity="1" stop-color="rgb(96.968079%, 59.342957%, 19.943237%)" offset="0.398438"/><stop stop-opacity="1" stop-color="rgb(96.992493%, 59.559631%, 19.929504%)" offset="0.402344"/><stop stop-opacity="1" stop-color="rgb(97.018433%, 59.777832%, 19.917297%)" offset="0.40625"/><stop stop-opacity="1" stop-color="rgb(97.042847%, 59.994507%, 19.903564%)" offset="0.410156"/><stop stop-opacity="1" stop-color="rgb(97.068787%, 60.212708%, 19.891357%)" offset="0.414063"/><stop stop-opacity="1" stop-color="rgb(97.094727%, 60.429382%, 19.877625%)" offset="0.417969"/><stop stop-opacity="1" stop-color="rgb(97.120667%, 60.647583%, 19.865417%)" offset="0.421875"/><stop stop-opacity="1" stop-color="rgb(97.145081%, 60.864258%, 19.851685%)" offset="0.425781"/><stop stop-opacity="1" stop-color="rgb(97.171021%, 61.080933%, 19.839478%)" offset="0.429688"/><stop stop-opacity="1" stop-color="rgb(97.195435%, 61.297607%, 19.825745%)" offset="0.433594"/><stop stop-opacity="1" stop-color="rgb(97.221375%, 61.515808%, 19.813538%)" offset="0.4375"/><stop stop-opacity="1" stop-color="rgb(97.247314%, 61.732483%, 19.799805%)" offset="0.441406"/><stop stop-opacity="1" stop-color="rgb(97.273254%, 61.950684%, 19.787598%)" offset="0.445313"/><stop stop-opacity="1" stop-color="rgb(97.297668%, 62.167358%, 19.773865%)" offset="0.449219"/><stop stop-opacity="1" stop-color="rgb(97.323608%, 62.385559%, 19.761658%)" offset="0.453125"/><stop stop-opacity="1" stop-color="rgb(97.348022%, 62.602234%, 19.747925%)" offset="0.457031"/><stop stop-opacity="1" stop-color="rgb(97.373962%, 62.820435%, 19.734192%)" offset="0.460938"/><stop stop-opacity="1" stop-color="rgb(97.399902%, 63.037109%, 19.720459%)" offset="0.464844"/><stop stop-opacity="1" stop-color="rgb(97.425842%, 63.253784%, 19.708252%)" offset="0.46875"/><stop stop-opacity="1" stop-color="rgb(97.450256%, 63.470459%, 19.694519%)" offset="0.472656"/><stop stop-opacity="1" stop-color="rgb(97.476196%, 63.68866%, 19.682312%)" offset="0.476563"/><stop stop-opacity="1" stop-color="rgb(97.502136%, 63.905334%, 19.668579%)" offset="0.480469"/><stop stop-opacity="1" stop-color="rgb(97.528076%, 64.123535%, 19.656372%)" offset="0.484375"/><stop stop-opacity="1" stop-color="rgb(97.55249%, 64.34021%, 19.642639%)" offset="0.488281"/><stop stop-opacity="1" stop-color="rgb(97.57843%, 64.558411%, 19.630432%)" offset="0.492188"/><stop stop-opacity="1" stop-color="rgb(97.602844%, 64.775085%, 19.616699%)" offset="0.496094"/><stop stop-opacity="1" stop-color="rgb(97.628784%, 64.993286%, 19.604492%)" offset="0.5"/><stop stop-opacity="1" stop-color="rgb(97.654724%, 65.209961%, 19.590759%)" offset="0.503906"/><stop stop-opacity="1" stop-color="rgb(97.680664%, 65.426636%, 19.578552%)" offset="0.507813"/><stop stop-opacity="1" stop-color="rgb(97.705078%, 65.643311%, 19.564819%)" offset="0.511719"/><stop stop-opacity="1" stop-color="rgb(97.731018%, 65.861511%, 19.552612%)" offset="0.515625"/><stop stop-opacity="1" stop-color="rgb(97.755432%, 66.078186%, 19.538879%)" offset="0.519531"/><stop stop-opacity="1" stop-color="rgb(97.781372%, 66.296387%, 19.526672%)" offset="0.523438"/><stop stop-opacity="1" stop-color="rgb(97.807312%, 66.513062%, 19.512939%)" offset="0.527344"/><stop stop-opacity="1" stop-color="rgb(97.833252%, 66.731262%, 19.500732%)" offset="0.53125"/><stop stop-opacity="1" stop-color="rgb(97.857666%, 66.947937%, 19.487%)" offset="0.535156"/><stop stop-opacity="1" stop-color="rgb(97.883606%, 67.166138%, 19.473267%)" offset="0.539062"/><stop stop-opacity="1" stop-color="rgb(97.90802%, 67.382812%, 19.459534%)" offset="0.542969"/><stop stop-opacity="1" stop-color="rgb(97.93396%, 67.601013%, 19.447327%)" offset="0.546875"/><stop stop-opacity="1" stop-color="rgb(97.9599%, 67.817688%, 19.433594%)" offset="0.550781"/><stop stop-opacity="1" stop-color="rgb(97.98584%, 68.034363%, 19.421387%)" offset="0.554687"/><stop stop-opacity="1" stop-color="rgb(98.010254%, 68.251038%, 19.407654%)" offset="0.558594"/><stop stop-opacity="1" stop-color="rgb(98.036194%, 68.469238%, 19.395447%)" offset="0.5625"/><stop stop-opacity="1" stop-color="rgb(98.060608%, 68.685913%, 19.381714%)" offset="0.566406"/><stop stop-opacity="1" stop-color="rgb(98.086548%, 68.904114%, 19.369507%)" offset="0.570313"/><stop stop-opacity="1" stop-color="rgb(98.112488%, 69.120789%, 19.355774%)" offset="0.574219"/><stop stop-opacity="1" stop-color="rgb(98.138428%, 69.338989%, 19.343567%)" offset="0.578125"/><stop stop-opacity="1" stop-color="rgb(98.162842%, 69.555664%, 19.329834%)" offset="0.582031"/><stop stop-opacity="1" stop-color="rgb(98.188782%, 69.773865%, 19.317627%)" offset="0.585938"/><stop stop-opacity="1" stop-color="rgb(98.213196%, 69.99054%, 19.303894%)" offset="0.589844"/><stop stop-opacity="1" stop-color="rgb(98.239136%, 70.207214%, 19.291687%)" offset="0.59375"/><stop stop-opacity="1" stop-color="rgb(98.265076%, 70.423889%, 19.277954%)" offset="0.597656"/><stop stop-opacity="1" stop-color="rgb(98.291016%, 70.64209%, 19.265747%)" offset="0.601562"/><stop stop-opacity="1" stop-color="rgb(98.31543%, 70.858765%, 19.252014%)" offset="0.605469"/><stop stop-opacity="1" stop-color="rgb(98.34137%, 71.076965%, 19.238281%)" offset="0.609375"/><stop stop-opacity="1" stop-color="rgb(98.36731%, 71.29364%, 19.224548%)" offset="0.613281"/><stop stop-opacity="1" stop-color="rgb(98.39325%, 71.511841%, 19.212341%)" offset="0.617188"/><stop stop-opacity="1" stop-color="rgb(98.417664%, 71.728516%, 19.198608%)" offset="0.621094"/><stop stop-opacity="1" stop-color="rgb(98.443604%, 71.946716%, 19.186401%)" offset="0.625"/><stop stop-opacity="1" stop-color="rgb(98.468018%, 72.163391%, 19.172668%)" offset="0.628906"/><stop stop-opacity="1" stop-color="rgb(98.493958%, 72.380066%, 19.160461%)" offset="0.632812"/><stop stop-opacity="1" stop-color="rgb(98.519897%, 72.596741%, 19.146729%)" offset="0.636719"/><stop stop-opacity="1" stop-color="rgb(98.545837%, 72.814941%, 19.134521%)" offset="0.640625"/><stop stop-opacity="1" stop-color="rgb(98.570251%, 73.031616%, 19.120789%)" offset="0.644531"/><stop stop-opacity="1" stop-color="rgb(98.596191%, 73.249817%, 19.108582%)" offset="0.648438"/><stop stop-opacity="1" stop-color="rgb(98.620605%, 73.466492%, 19.094849%)" offset="0.652344"/><stop stop-opacity="1" stop-color="rgb(98.646545%, 73.684692%, 19.082642%)" offset="0.65625"/><stop stop-opacity="1" stop-color="rgb(98.672485%, 73.901367%, 19.068909%)" offset="0.660156"/><stop stop-opacity="1" stop-color="rgb(98.698425%, 74.119568%, 19.056702%)" offset="0.664062"/><stop stop-opacity="1" stop-color="rgb(98.722839%, 74.336243%, 19.042969%)" offset="0.667969"/><stop stop-opacity="1" stop-color="rgb(98.748779%, 74.552917%, 19.030762%)" offset="0.671875"/><stop stop-opacity="1" stop-color="rgb(98.773193%, 74.769592%, 19.017029%)" offset="0.675781"/><stop stop-opacity="1" stop-color="rgb(98.799133%, 74.987793%, 19.004822%)" offset="0.679687"/><stop stop-opacity="1" stop-color="rgb(98.825073%, 75.204468%, 18.991089%)" offset="0.683594"/><stop stop-opacity="1" stop-color="rgb(98.851013%, 75.422668%, 18.977356%)" offset="0.6875"/><stop stop-opacity="1" stop-color="rgb(98.875427%, 75.639343%, 18.963623%)" offset="0.691406"/><stop stop-opacity="1" stop-color="rgb(98.901367%, 75.857544%, 18.951416%)" offset="0.695313"/><stop stop-opacity="1" stop-color="rgb(98.925781%, 76.074219%, 18.937683%)" offset="0.699219"/><stop stop-opacity="1" stop-color="rgb(98.951721%, 76.292419%, 18.925476%)" offset="0.703125"/><stop stop-opacity="1" stop-color="rgb(98.977661%, 76.509094%, 18.911743%)" offset="0.707031"/><stop stop-opacity="1" stop-color="rgb(99.003601%, 76.725769%, 18.899536%)" offset="0.710938"/><stop stop-opacity="1" stop-color="rgb(99.028015%, 76.942444%, 18.885803%)" offset="0.714844"/><stop stop-opacity="1" stop-color="rgb(99.053955%, 77.160645%, 18.873596%)" offset="0.71875"/><stop stop-opacity="1" stop-color="rgb(99.079895%, 77.377319%, 18.859863%)" offset="0.722656"/><stop stop-opacity="1" stop-color="rgb(99.105835%, 77.59552%, 18.847656%)" offset="0.726562"/><stop stop-opacity="1" stop-color="rgb(99.130249%, 77.812195%, 18.833923%)" offset="0.730469"/><stop stop-opacity="1" stop-color="rgb(99.156189%, 78.030396%, 18.821716%)" offset="0.734375"/><stop stop-opacity="1" stop-color="rgb(99.177551%, 78.215027%, 18.809509%)" offset="0.75"/><stop stop-opacity="1" stop-color="rgb(99.198914%, 78.399658%, 18.798828%)" offset="1"/></linearGradient></defs><g clip-path="url(#771c7f2552)"><g clip-path="url(#a79387397f)"><path fill="url(#105bdb3ea9)" d="M 0.527344 25.566406 L 0.527344 349.472656 L 374.351562 349.472656 L 374.351562 25.566406 Z M 0.527344 25.566406 " fill-rule="nonzero"/></g></g><path fill="#000000" d="M 117.671875 83.738281 L 257.171875 83.738281 L 257.171875 223.238281 L 117.671875 223.238281 Z M 245.738281 189.96875 C 244.722656 183.605469 240.578125 178.257812 228.285156 173.265625 C 224.007812 171.257812 219.257812 169.871094 217.832031 166.648438 C 217.304688 164.726562 217.226562 163.6875 217.566406 162.546875 C 218.445312 158.796875 222.890625 157.671875 226.378906 158.710938 C 228.648438 159.410156 230.742188 161.152344 232.050781 163.949219 C 238.058594 160.023438 238.058594 160.023438 242.25 157.410156 C 240.679688 154.976562 239.894531 153.914062 238.847656 152.867188 C 235.183594 148.777344 230.300781 146.683594 222.371094 146.863281 L 218.28125 147.382812 C 214.351562 148.34375 210.601562 150.441406 208.335938 153.226562 C 201.710938 160.726562 203.625 173.800781 211.648438 179.21875 C 219.574219 185.148438 231.183594 186.449219 232.664062 192.027344 C 234.058594 198.832031 227.613281 201.011719 221.234375 200.230469 C 216.527344 199.175781 213.910156 196.828125 211.035156 192.464844 L 200.402344 198.570312 C 201.617188 201.351562 203.011719 202.578125 205.105469 205.019531 C 215.21875 215.21875 240.507812 214.699219 245.042969 199.175781 C 245.203125 198.65625 246.4375 195.082031 245.476562 189.585938 Z M 193.527344 147.855469 L 180.460938 147.855469 C 180.460938 159.113281 180.40625 170.3125 180.40625 181.597656 C 180.40625 188.757812 180.769531 195.332031 179.601562 197.351562 C 177.6875 201.359375 172.734375 200.847656 170.496094 200.136719 C 168.191406 199.003906 167.023438 197.429688 165.664062 195.167969 C 165.300781 194.5625 165.03125 194.035156 164.929688 194.035156 L 154.328125 200.578125 C 156.101562 204.242188 158.691406 207.390625 162.03125 209.390625 C 167 212.355469 173.671875 213.316406 180.664062 211.753906 C 185.21875 210.433594 189.148438 207.730469 191.1875 203.546875 C 194.164062 198.144531 193.527344 191.511719 193.503906 184.101562 C 193.566406 172.15625 193.503906 160.207031 193.503906 148.179688 Z M 193.527344 147.855469 " fill-opacity="1" fill-rule="nonzero"/><g fill="#000000" fill-opacity="1"><g transform="translate(76.904296, 291.166855)"><g><path d="M 17.5625 -24.5625 L 17.5625 -7.84375 C 17.5625 -5.25 16.832031 -3.25 15.375 -1.84375 C 13.914062 -0.445312 11.953125 0.25 9.484375 0.25 C 6.890625 0.25 4.8125 -0.484375 3.25 -1.953125 C 1.6875 -3.429688 0.90625 -5.519531 0.90625 -8.21875 L 6.859375 -8.21875 C 6.859375 -7.195312 7.066406 -6.421875 7.484375 -5.890625 C 7.910156 -5.367188 8.519531 -5.109375 9.3125 -5.109375 C 10.03125 -5.109375 10.585938 -5.34375 10.984375 -5.8125 C 11.378906 -6.28125 11.578125 -6.957031 11.578125 -7.84375 L 11.578125 -24.5625 Z M 17.5625 -24.5625 "/></g></g></g><g fill="#000000" fill-opacity="1"><g transform="translate(97.129724, 291.166855)"><g><path d="M 17.46875 -4.34375 L 8.296875 -4.34375 L 6.828125 0 L 0.5625 0 L 9.453125 -24.5625 L 16.375 -24.5625 L 25.265625 0 L 18.9375 0 Z M 15.921875 -8.953125 L 12.875 -17.953125 L 9.875 -8.953125 Z M 15.921875 -8.953125 "/></g></g></g><g fill="#000000" fill-opacity="1"><g transform="translate(122.918903, 291.166855)"><g><path d="M 25.234375 -24.5625 L 16.515625 0 L 9.03125 0 L 0.3125 -24.5625 L 6.6875 -24.5625 L 12.78125 -6.015625 L 18.90625 -24.5625 Z M 25.234375 -24.5625 "/></g></g></g><g fill="#000000" fill-opacity="1"><g transform="translate(148.463133, 291.166855)"><g><path d="M 17.46875 -4.34375 L 8.296875 -4.34375 L 6.828125 0 L 0.5625 0 L 9.453125 -24.5625 L 16.375 -24.5625 L 25.265625 0 L 18.9375 0 Z M 15.921875 -8.953125 L 12.875 -17.953125 L 9.875 -8.953125 Z M 15.921875 -8.953125 "/></g></g></g><g fill="#000000" fill-opacity="1"><g transform="translate(174.252311, 291.166855)"><g><path d="M 11.0625 0.25 C 9.257812 0.25 7.644531 -0.0390625 6.21875 -0.625 C 4.800781 -1.207031 3.664062 -2.070312 2.8125 -3.21875 C 1.96875 -4.363281 1.519531 -5.738281 1.46875 -7.34375 L 7.84375 -7.34375 C 7.9375 -6.4375 8.25 -5.742188 8.78125 -5.265625 C 9.320312 -4.785156 10.023438 -4.546875 10.890625 -4.546875 C 11.773438 -4.546875 12.472656 -4.75 12.984375 -5.15625 C 13.492188 -5.570312 13.75 -6.140625 13.75 -6.859375 C 13.75 -7.460938 13.546875 -7.960938 13.140625 -8.359375 C 12.734375 -8.753906 12.234375 -9.082031 11.640625 -9.34375 C 11.046875 -9.601562 10.195312 -9.894531 9.09375 -10.21875 C 7.507812 -10.707031 6.210938 -11.195312 5.203125 -11.6875 C 4.203125 -12.175781 3.34375 -12.898438 2.625 -13.859375 C 1.90625 -14.816406 1.546875 -16.066406 1.546875 -17.609375 C 1.546875 -19.890625 2.375 -21.675781 4.03125 -22.96875 C 5.6875 -24.269531 7.84375 -24.921875 10.5 -24.921875 C 13.207031 -24.921875 15.390625 -24.269531 17.046875 -22.96875 C 18.703125 -21.675781 19.585938 -19.875 19.703125 -17.5625 L 13.234375 -17.5625 C 13.179688 -18.363281 12.882812 -18.988281 12.34375 -19.4375 C 11.8125 -19.894531 11.128906 -20.125 10.296875 -20.125 C 9.566406 -20.125 8.976562 -19.929688 8.53125 -19.546875 C 8.09375 -19.160156 7.875 -18.609375 7.875 -17.890625 C 7.875 -17.085938 8.242188 -16.460938 8.984375 -16.015625 C 9.734375 -15.578125 10.90625 -15.101562 12.5 -14.59375 C 14.082031 -14.0625 15.367188 -13.546875 16.359375 -13.046875 C 17.347656 -12.554688 18.203125 -11.84375 18.921875 -10.90625 C 19.648438 -9.976562 20.015625 -8.78125 20.015625 -7.3125 C 20.015625 -5.914062 19.660156 -4.644531 18.953125 -3.5 C 18.242188 -2.351562 17.210938 -1.441406 15.859375 -0.765625 C 14.503906 -0.0859375 12.90625 0.25 11.0625 0.25 Z M 11.0625 0.25 "/></g></g></g><g fill="#000000" fill-opacity="1"><g transform="translate(195.772455, 291.166855)"><g><path d="M 1.15625 -12.3125 C 1.15625 -14.738281 1.679688 -16.90625 2.734375 -18.8125 C 3.785156 -20.71875 5.25 -22.195312 7.125 -23.25 C 9 -24.3125 11.128906 -24.84375 13.515625 -24.84375 C 16.429688 -24.84375 18.925781 -24.070312 21 -22.53125 C 23.070312 -21 24.460938 -18.898438 25.171875 -16.234375 L 18.578125 -16.234375 C 18.085938 -17.265625 17.394531 -18.046875 16.5 -18.578125 C 15.601562 -19.117188 14.582031 -19.390625 13.4375 -19.390625 C 11.59375 -19.390625 10.097656 -18.75 8.953125 -17.46875 C 7.816406 -16.1875 7.25 -14.46875 7.25 -12.3125 C 7.25 -10.164062 7.816406 -8.453125 8.953125 -7.171875 C 10.097656 -5.890625 11.59375 -5.25 13.4375 -5.25 C 14.582031 -5.25 15.601562 -5.515625 16.5 -6.046875 C 17.394531 -6.585938 18.085938 -7.375 18.578125 -8.40625 L 25.171875 -8.40625 C 24.460938 -5.738281 23.070312 -3.640625 21 -2.109375 C 18.925781 -0.585938 16.429688 0.171875 13.515625 0.171875 C 11.128906 0.171875 9 -0.359375 7.125 -1.421875 C 5.25 -2.484375 3.785156 -3.957031 2.734375 -5.84375 C 1.679688 -7.738281 1.15625 -9.894531 1.15625 -12.3125 Z M 1.15625 -12.3125 "/></g></g></g><g fill="#000000" fill-opacity="1"><g transform="translate(222.436432, 291.166855)"><g><path d="M 14.703125 0 L 9.59375 -9.28125 L 8.15625 -9.28125 L 8.15625 0 L 2.171875 0 L 2.171875 -24.5625 L 12.21875 -24.5625 C 14.15625 -24.5625 15.804688 -24.222656 17.171875 -23.546875 C 18.535156 -22.878906 19.554688 -21.953125 20.234375 -20.765625 C 20.910156 -19.585938 21.25 -18.273438 21.25 -16.828125 C 21.25 -15.203125 20.785156 -13.742188 19.859375 -12.453125 C 18.941406 -11.171875 17.582031 -10.265625 15.78125 -9.734375 L 21.453125 0 Z M 8.15625 -13.515625 L 11.859375 -13.515625 C 12.960938 -13.515625 13.785156 -13.78125 14.328125 -14.3125 C 14.878906 -14.851562 15.15625 -15.613281 15.15625 -16.59375 C 15.15625 -17.519531 14.878906 -18.25 14.328125 -18.78125 C 13.785156 -19.320312 12.960938 -19.59375 11.859375 -19.59375 L 8.15625 -19.59375 Z M 8.15625 -13.515625 "/></g></g></g><g fill="#000000" fill-opacity="1"><g transform="translate(245.25128, 291.166855)"><g><path d="M 8.15625 -24.5625 L 8.15625 0 L 2.171875 0 L 2.171875 -24.5625 Z M 8.15625 -24.5625 "/></g></g></g><g fill="#000000" fill-opacity="1"><g transform="translate(255.573953, 291.166855)"><g><path d="M 20.890625 -16.65625 C 20.890625 -15.238281 20.5625 -13.9375 19.90625 -12.75 C 19.257812 -11.570312 18.257812 -10.617188 16.90625 -9.890625 C 15.550781 -9.171875 13.867188 -8.8125 11.859375 -8.8125 L 8.15625 -8.8125 L 8.15625 0 L 2.171875 0 L 2.171875 -24.5625 L 11.859375 -24.5625 C 13.828125 -24.5625 15.484375 -24.222656 16.828125 -23.546875 C 18.179688 -22.878906 19.195312 -21.945312 19.875 -20.75 C 20.550781 -19.5625 20.890625 -18.195312 20.890625 -16.65625 Z M 11.40625 -13.578125 C 12.550781 -13.578125 13.40625 -13.84375 13.96875 -14.375 C 14.53125 -14.914062 14.8125 -15.675781 14.8125 -16.65625 C 14.8125 -17.632812 14.53125 -18.390625 13.96875 -18.921875 C 13.40625 -19.460938 12.550781 -19.734375 11.40625 -19.734375 L 8.15625 -19.734375 L 8.15625 -13.578125 Z M 11.40625 -13.578125 "/></g></g></g><g fill="#000000" fill-opacity="1"><g transform="translate(277.409027, 291.166855)"><g><path d="M 19.84375 -24.5625 L 19.84375 -19.78125 L 13.328125 -19.78125 L 13.328125 0 L 7.34375 0 L 7.34375 -19.78125 L 0.84375 -19.78125 L 0.84375 -24.5625 Z M 19.84375 -24.5625 "/></g></g></g></svg>