<svg xmlns="http://www.w3.org/2000/svg" xmlns:xlink="http://www.w3.org/1999/xlink" width="400" zoomAndPan="magnify" viewBox="0 0 300 44.999999" height="60" preserveAspectRatio="xMidYMid meet" version="1.0"><defs><g/><clipPath id="9592bd090e"><path d="M 182.703125 11.003906 L 228.054688 11.003906 L 228.054688 33.996094 L 182.703125 33.996094 Z M 182.703125 11.003906 " clip-rule="nonzero"/></clipPath><clipPath id="1b3da9cef6"><path d="M 186.453125 11.003906 L 224.328125 11.003906 C 226.398438 11.003906 228.078125 12.683594 228.078125 14.753906 L 228.078125 30.246094 C 228.078125 32.316406 226.398438 33.996094 224.328125 33.996094 L 186.453125 33.996094 C 184.382812 33.996094 182.703125 32.316406 182.703125 30.246094 L 182.703125 14.753906 C 182.703125 12.683594 184.382812 11.003906 186.453125 11.003906 " clip-rule="nonzero"/></clipPath><linearGradient x1="0.00000942132" gradientTransform="matrix(0.210937, 0, 0, 0.210937, 182.704559, 11.003471)" y1="0" x2="215" gradientUnits="userSpaceOnUse" y2="0" id="0e9ecc078a"><stop stop-opacity="1" stop-color="rgb(65.098572%, 65.098572%, 65.098572%)" offset="0"/><stop stop-opacity="1" stop-color="rgb(65.234375%, 65.234375%, 65.234375%)" offset="0.0078125"/><stop stop-opacity="1" stop-color="rgb(65.507507%, 65.507507%, 65.507507%)" offset="0.015625"/><stop stop-opacity="1" stop-color="rgb(65.78064%, 65.78064%, 65.78064%)" offset="0.0234375"/><stop stop-opacity="1" stop-color="rgb(66.052246%, 66.052246%, 66.052246%)" offset="0.03125"/><stop stop-opacity="1" stop-color="rgb(66.325378%, 66.325378%, 66.325378%)" offset="0.0390625"/><stop stop-opacity="1" stop-color="rgb(66.596985%, 66.596985%, 66.596985%)" offset="0.046875"/><stop stop-opacity="1" stop-color="rgb(66.870117%, 66.870117%, 66.870117%)" offset="0.0546875"/><stop stop-opacity="1" stop-color="rgb(67.14325%, 67.14325%, 67.14325%)" offset="0.0625"/><stop stop-opacity="1" stop-color="rgb(67.414856%, 67.414856%, 67.414856%)" offset="0.0703125"/><stop stop-opacity="1" stop-color="rgb(67.687988%, 67.687988%, 67.687988%)" offset="0.078125"/><stop stop-opacity="1" stop-color="rgb(67.961121%, 67.961121%, 67.961121%)" offset="0.0859375"/><stop stop-opacity="1" stop-color="rgb(68.232727%, 68.232727%, 68.232727%)" offset="0.09375"/><stop stop-opacity="1" stop-color="rgb(68.505859%, 68.505859%, 68.505859%)" offset="0.101562"/><stop stop-opacity="1" stop-color="rgb(68.777466%, 68.777466%, 68.777466%)" offset="0.109375"/><stop stop-opacity="1" stop-color="rgb(69.050598%, 69.050598%, 69.050598%)" offset="0.117188"/><stop stop-opacity="1" stop-color="rgb(69.32373%, 69.32373%, 69.32373%)" offset="0.125"/><stop stop-opacity="1" stop-color="rgb(69.595337%, 69.595337%, 69.595337%)" offset="0.132812"/><stop stop-opacity="1" stop-color="rgb(69.868469%, 69.868469%, 69.868469%)" offset="0.140625"/><stop stop-opacity="1" stop-color="rgb(70.140076%, 70.140076%, 70.140076%)" offset="0.148438"/><stop stop-opacity="1" stop-color="rgb(70.413208%, 70.413208%, 70.413208%)" offset="0.15625"/><stop stop-opacity="1" stop-color="rgb(70.68634%, 70.68634%, 70.68634%)" offset="0.164062"/><stop stop-opacity="1" stop-color="rgb(70.957947%, 70.957947%, 70.957947%)" offset="0.171875"/><stop stop-opacity="1" stop-color="rgb(71.231079%, 71.231079%, 71.231079%)" offset="0.179688"/><stop stop-opacity="1" stop-color="rgb(71.502686%, 71.502686%, 71.502686%)" offset="0.1875"/><stop stop-opacity="1" stop-color="rgb(71.775818%, 71.775818%, 71.775818%)" offset="0.195312"/><stop stop-opacity="1" stop-color="rgb(72.04895%, 72.04895%, 72.04895%)" offset="0.203125"/><stop stop-opacity="1" stop-color="rgb(72.320557%, 72.320557%, 72.320557%)" offset="0.210938"/><stop stop-opacity="1" stop-color="rgb(72.593689%, 72.593689%, 72.593689%)" offset="0.21875"/><stop stop-opacity="1" stop-color="rgb(72.866821%, 72.866821%, 72.866821%)" offset="0.226562"/><stop stop-opacity="1" stop-color="rgb(73.138428%, 73.138428%, 73.138428%)" offset="0.234375"/><stop stop-opacity="1" stop-color="rgb(73.41156%, 73.41156%, 73.41156%)" offset="0.242188"/><stop stop-opacity="1" stop-color="rgb(73.683167%, 73.683167%, 73.683167%)" offset="0.25"/><stop stop-opacity="1" stop-color="rgb(73.956299%, 73.956299%, 73.956299%)" offset="0.257812"/><stop stop-opacity="1" stop-color="rgb(74.229431%, 74.229431%, 74.229431%)" offset="0.265625"/><stop stop-opacity="1" stop-color="rgb(74.501038%, 74.501038%, 74.501038%)" offset="0.273438"/><stop stop-opacity="1" stop-color="rgb(74.77417%, 74.77417%, 74.77417%)" offset="0.28125"/><stop stop-opacity="1" stop-color="rgb(75.045776%, 75.045776%, 75.045776%)" offset="0.289062"/><stop stop-opacity="1" stop-color="rgb(75.318909%, 75.318909%, 75.318909%)" offset="0.296875"/><stop stop-opacity="1" stop-color="rgb(75.592041%, 75.592041%, 75.592041%)" offset="0.304688"/><stop stop-opacity="1" stop-color="rgb(75.863647%, 75.863647%, 75.863647%)" offset="0.3125"/><stop stop-opacity="1" stop-color="rgb(76.13678%, 76.13678%, 76.13678%)" offset="0.320312"/><stop stop-opacity="1" stop-color="rgb(76.408386%, 76.408386%, 76.408386%)" offset="0.328125"/><stop stop-opacity="1" stop-color="rgb(76.681519%, 76.681519%, 76.681519%)" offset="0.335938"/><stop stop-opacity="1" stop-color="rgb(76.954651%, 76.954651%, 76.954651%)" offset="0.34375"/><stop stop-opacity="1" stop-color="rgb(77.226257%, 77.226257%, 77.226257%)" offset="0.351562"/><stop stop-opacity="1" stop-color="rgb(77.49939%, 77.49939%, 77.49939%)" offset="0.359375"/><stop stop-opacity="1" stop-color="rgb(77.772522%, 77.772522%, 77.772522%)" offset="0.367188"/><stop stop-opacity="1" stop-color="rgb(78.044128%, 78.044128%, 78.044128%)" offset="0.375"/><stop stop-opacity="1" stop-color="rgb(78.317261%, 78.317261%, 78.317261%)" offset="0.382812"/><stop stop-opacity="1" stop-color="rgb(78.588867%, 78.588867%, 78.588867%)" offset="0.390625"/><stop stop-opacity="1" stop-color="rgb(78.862%, 78.862%, 78.862%)" offset="0.398438"/><stop stop-opacity="1" stop-color="rgb(79.135132%, 79.135132%, 79.135132%)" offset="0.40625"/><stop stop-opacity="1" stop-color="rgb(79.406738%, 79.406738%, 79.406738%)" offset="0.414062"/><stop stop-opacity="1" stop-color="rgb(79.679871%, 79.679871%, 79.679871%)" offset="0.421875"/><stop stop-opacity="1" stop-color="rgb(79.951477%, 79.951477%, 79.951477%)" offset="0.429688"/><stop stop-opacity="1" stop-color="rgb(80.224609%, 80.224609%, 80.224609%)" offset="0.4375"/><stop stop-opacity="1" stop-color="rgb(80.497742%, 80.497742%, 80.497742%)" offset="0.445312"/><stop stop-opacity="1" stop-color="rgb(80.769348%, 80.769348%, 80.769348%)" offset="0.453125"/><stop stop-opacity="1" stop-color="rgb(81.04248%, 81.04248%, 81.04248%)" offset="0.460938"/><stop stop-opacity="1" stop-color="rgb(81.314087%, 81.314087%, 81.314087%)" offset="0.46875"/><stop stop-opacity="1" stop-color="rgb(81.587219%, 81.587219%, 81.587219%)" offset="0.476562"/><stop stop-opacity="1" stop-color="rgb(81.860352%, 81.860352%, 81.860352%)" offset="0.484375"/><stop stop-opacity="1" stop-color="rgb(82.131958%, 82.131958%, 82.131958%)" offset="0.492188"/><stop stop-opacity="1" stop-color="rgb(82.40509%, 82.40509%, 82.40509%)" offset="0.5"/><stop stop-opacity="1" stop-color="rgb(82.676697%, 82.676697%, 82.676697%)" offset="0.507812"/><stop stop-opacity="1" stop-color="rgb(82.949829%, 82.949829%, 82.949829%)" offset="0.515625"/><stop stop-opacity="1" stop-color="rgb(83.222961%, 83.222961%, 83.222961%)" offset="0.523438"/><stop stop-opacity="1" stop-color="rgb(83.494568%, 83.494568%, 83.494568%)" offset="0.53125"/><stop stop-opacity="1" stop-color="rgb(83.7677%, 83.7677%, 83.7677%)" offset="0.539062"/><stop stop-opacity="1" stop-color="rgb(84.040833%, 84.040833%, 84.040833%)" offset="0.546875"/><stop stop-opacity="1" stop-color="rgb(84.312439%, 84.312439%, 84.312439%)" offset="0.554688"/><stop stop-opacity="1" stop-color="rgb(84.585571%, 84.585571%, 84.585571%)" offset="0.5625"/><stop stop-opacity="1" stop-color="rgb(84.857178%, 84.857178%, 84.857178%)" offset="0.570312"/><stop stop-opacity="1" stop-color="rgb(85.13031%, 85.13031%, 85.13031%)" offset="0.578125"/><stop stop-opacity="1" stop-color="rgb(85.403442%, 85.403442%, 85.403442%)" offset="0.585938"/><stop stop-opacity="1" stop-color="rgb(85.675049%, 85.675049%, 85.675049%)" offset="0.59375"/><stop stop-opacity="1" stop-color="rgb(85.948181%, 85.948181%, 85.948181%)" offset="0.601562"/><stop stop-opacity="1" stop-color="rgb(86.219788%, 86.219788%, 86.219788%)" offset="0.609375"/><stop stop-opacity="1" stop-color="rgb(86.49292%, 86.49292%, 86.49292%)" offset="0.617188"/><stop stop-opacity="1" stop-color="rgb(86.766052%, 86.766052%, 86.766052%)" offset="0.625"/><stop stop-opacity="1" stop-color="rgb(87.037659%, 87.037659%, 87.037659%)" offset="0.632812"/><stop stop-opacity="1" stop-color="rgb(87.310791%, 87.310791%, 87.310791%)" offset="0.640625"/><stop stop-opacity="1" stop-color="rgb(87.582397%, 87.582397%, 87.582397%)" offset="0.648438"/><stop stop-opacity="1" stop-color="rgb(87.85553%, 87.85553%, 87.85553%)" offset="0.65625"/><stop stop-opacity="1" stop-color="rgb(88.128662%, 88.128662%, 88.128662%)" offset="0.664062"/><stop stop-opacity="1" stop-color="rgb(88.400269%, 88.400269%, 88.400269%)" offset="0.671875"/><stop stop-opacity="1" stop-color="rgb(88.673401%, 88.673401%, 88.673401%)" offset="0.679688"/><stop stop-opacity="1" stop-color="rgb(88.946533%, 88.946533%, 88.946533%)" offset="0.6875"/><stop stop-opacity="1" stop-color="rgb(89.21814%, 89.21814%, 89.21814%)" offset="0.695312"/><stop stop-opacity="1" stop-color="rgb(89.491272%, 89.491272%, 89.491272%)" offset="0.703125"/><stop stop-opacity="1" stop-color="rgb(89.762878%, 89.762878%, 89.762878%)" offset="0.710938"/><stop stop-opacity="1" stop-color="rgb(90.036011%, 90.036011%, 90.036011%)" offset="0.71875"/><stop stop-opacity="1" stop-color="rgb(90.309143%, 90.309143%, 90.309143%)" offset="0.726562"/><stop stop-opacity="1" stop-color="rgb(90.58075%, 90.58075%, 90.58075%)" offset="0.734375"/><stop stop-opacity="1" stop-color="rgb(90.853882%, 90.853882%, 90.853882%)" offset="0.742188"/><stop stop-opacity="1" stop-color="rgb(91.125488%, 91.125488%, 91.125488%)" offset="0.75"/><stop stop-opacity="1" stop-color="rgb(91.398621%, 91.398621%, 91.398621%)" offset="0.757812"/><stop stop-opacity="1" stop-color="rgb(91.671753%, 91.671753%, 91.671753%)" offset="0.765625"/><stop stop-opacity="1" stop-color="rgb(91.943359%, 91.943359%, 91.943359%)" offset="0.773438"/><stop stop-opacity="1" stop-color="rgb(92.216492%, 92.216492%, 92.216492%)" offset="0.78125"/><stop stop-opacity="1" stop-color="rgb(92.488098%, 92.488098%, 92.488098%)" offset="0.789062"/><stop stop-opacity="1" stop-color="rgb(92.76123%, 92.76123%, 92.76123%)" offset="0.796875"/><stop stop-opacity="1" stop-color="rgb(93.034363%, 93.034363%, 93.034363%)" offset="0.804688"/><stop stop-opacity="1" stop-color="rgb(93.305969%, 93.305969%, 93.305969%)" offset="0.8125"/><stop stop-opacity="1" stop-color="rgb(93.579102%, 93.579102%, 93.579102%)" offset="0.820312"/><stop stop-opacity="1" stop-color="rgb(93.850708%, 93.850708%, 93.850708%)" offset="0.828125"/><stop stop-opacity="1" stop-color="rgb(94.12384%, 94.12384%, 94.12384%)" offset="0.835938"/><stop stop-opacity="1" stop-color="rgb(94.396973%, 94.396973%, 94.396973%)" offset="0.84375"/><stop stop-opacity="1" stop-color="rgb(94.668579%, 94.668579%, 94.668579%)" offset="0.851562"/><stop stop-opacity="1" stop-color="rgb(94.941711%, 94.941711%, 94.941711%)" offset="0.859375"/><stop stop-opacity="1" stop-color="rgb(95.214844%, 95.214844%, 95.214844%)" offset="0.867188"/><stop stop-opacity="1" stop-color="rgb(95.48645%, 95.48645%, 95.48645%)" offset="0.875"/><stop stop-opacity="1" stop-color="rgb(95.759583%, 95.759583%, 95.759583%)" offset="0.882812"/><stop stop-opacity="1" stop-color="rgb(96.031189%, 96.031189%, 96.031189%)" offset="0.890625"/><stop stop-opacity="1" stop-color="rgb(96.304321%, 96.304321%, 96.304321%)" offset="0.898438"/><stop stop-opacity="1" stop-color="rgb(96.577454%, 96.577454%, 96.577454%)" offset="0.90625"/><stop stop-opacity="1" stop-color="rgb(96.84906%, 96.84906%, 96.84906%)" offset="0.914062"/><stop stop-opacity="1" stop-color="rgb(97.122192%, 97.122192%, 97.122192%)" offset="0.921875"/><stop stop-opacity="1" stop-color="rgb(97.393799%, 97.393799%, 97.393799%)" offset="0.929688"/><stop stop-opacity="1" stop-color="rgb(97.666931%, 97.666931%, 97.666931%)" offset="0.9375"/><stop stop-opacity="1" stop-color="rgb(97.940063%, 97.940063%, 97.940063%)" offset="0.945312"/><stop stop-opacity="1" stop-color="rgb(98.21167%, 98.21167%, 98.21167%)" offset="0.953125"/><stop stop-opacity="1" stop-color="rgb(98.484802%, 98.484802%, 98.484802%)" offset="0.960938"/><stop stop-opacity="1" stop-color="rgb(98.756409%, 98.756409%, 98.756409%)" offset="0.96875"/><stop stop-opacity="1" stop-color="rgb(99.029541%, 99.029541%, 99.029541%)" offset="0.976562"/><stop stop-opacity="1" stop-color="rgb(99.302673%, 99.302673%, 99.302673%)" offset="0.984375"/><stop stop-opacity="1" stop-color="rgb(99.57428%, 99.57428%, 99.57428%)" offset="0.992188"/><stop stop-opacity="1" stop-color="rgb(99.847412%, 99.847412%, 99.847412%)" offset="1"/></linearGradient></defs><g clip-path="url(#9592bd090e)"><g clip-path="url(#1b3da9cef6)"><path fill="url(#0e9ecc078a)" d="M 182.703125 11.003906 L 182.703125 33.996094 L 228.054688 33.996094 L 228.054688 11.003906 Z M 182.703125 11.003906 " fill-rule="nonzero"/></g></g><g fill="#000000" fill-opacity="1"><g transform="translate(69.182643, 29.436822)"><g><path d="M 4.0625 -9.828125 L 4.0625 -7.359375 L 8.046875 -7.359375 L 8.046875 -5.0625 L 4.0625 -5.0625 L 4.0625 -2.390625 L 8.5625 -2.390625 L 8.5625 0 L 1.078125 0 L 1.078125 -12.21875 L 8.5625 -12.21875 L 8.5625 -9.828125 Z M 4.0625 -9.828125 "/></g></g></g><g fill="#000000" fill-opacity="1"><g transform="translate(78.593504, 29.436822)"><g><path d="M 5.5 0.125 C 4.601562 0.125 3.800781 -0.0195312 3.09375 -0.3125 C 2.382812 -0.601562 1.816406 -1.03125 1.390625 -1.59375 C 0.972656 -2.164062 0.753906 -2.851562 0.734375 -3.65625 L 3.90625 -3.65625 C 3.945312 -3.195312 4.097656 -2.847656 4.359375 -2.609375 C 4.628906 -2.378906 4.976562 -2.265625 5.40625 -2.265625 C 5.851562 -2.265625 6.203125 -2.363281 6.453125 -2.5625 C 6.710938 -2.769531 6.84375 -3.050781 6.84375 -3.40625 C 6.84375 -3.707031 6.738281 -3.957031 6.53125 -4.15625 C 6.332031 -4.351562 6.082031 -4.515625 5.78125 -4.640625 C 5.488281 -4.773438 5.070312 -4.921875 4.53125 -5.078125 C 3.738281 -5.328125 3.09375 -5.570312 2.59375 -5.8125 C 2.09375 -6.050781 1.660156 -6.410156 1.296875 -6.890625 C 0.941406 -7.367188 0.765625 -7.988281 0.765625 -8.75 C 0.765625 -9.894531 1.175781 -10.785156 2 -11.421875 C 2.820312 -12.066406 3.894531 -12.390625 5.21875 -12.390625 C 6.5625 -12.390625 7.644531 -12.066406 8.46875 -11.421875 C 9.300781 -10.785156 9.742188 -9.890625 9.796875 -8.734375 L 6.578125 -8.734375 C 6.554688 -9.128906 6.410156 -9.441406 6.140625 -9.671875 C 5.878906 -9.898438 5.539062 -10.015625 5.125 -10.015625 C 4.757812 -10.015625 4.46875 -9.914062 4.25 -9.71875 C 4.03125 -9.53125 3.921875 -9.253906 3.921875 -8.890625 C 3.921875 -8.492188 4.101562 -8.1875 4.46875 -7.96875 C 4.84375 -7.75 5.425781 -7.515625 6.21875 -7.265625 C 7 -6.992188 7.632812 -6.734375 8.125 -6.484375 C 8.625 -6.242188 9.050781 -5.890625 9.40625 -5.421875 C 9.769531 -4.960938 9.953125 -4.367188 9.953125 -3.640625 C 9.953125 -2.941406 9.773438 -2.304688 9.421875 -1.734375 C 9.066406 -1.171875 8.550781 -0.71875 7.875 -0.375 C 7.207031 -0.0390625 6.414062 0.125 5.5 0.125 Z M 5.5 0.125 "/></g></g></g><g fill="#000000" fill-opacity="1"><g transform="translate(89.29162, 29.436822)"><g><path d="M 9.875 -12.21875 L 9.875 -9.828125 L 6.625 -9.828125 L 6.625 0 L 3.65625 0 L 3.65625 -9.828125 L 0.421875 -9.828125 L 0.421875 -12.21875 Z M 9.875 -12.21875 "/></g></g></g><g fill="#000000" fill-opacity="1"><g transform="translate(99.572248, 29.436822)"><g><path d="M 4 -12.21875 L 4 -4.90625 C 4 -4.175781 4.175781 -3.613281 4.53125 -3.21875 C 4.894531 -2.820312 5.425781 -2.625 6.125 -2.625 C 6.820312 -2.625 7.351562 -2.820312 7.71875 -3.21875 C 8.09375 -3.613281 8.28125 -4.175781 8.28125 -4.90625 L 8.28125 -12.21875 L 11.265625 -12.21875 L 11.265625 -4.921875 C 11.265625 -3.835938 11.03125 -2.914062 10.5625 -2.15625 C 10.101562 -1.40625 9.476562 -0.835938 8.6875 -0.453125 C 7.90625 -0.0664062 7.035156 0.125 6.078125 0.125 C 5.109375 0.125 4.242188 -0.0625 3.484375 -0.4375 C 2.722656 -0.820312 2.125 -1.394531 1.6875 -2.15625 C 1.25 -2.914062 1.03125 -3.835938 1.03125 -4.921875 L 1.03125 -12.21875 Z M 4 -12.21875 "/></g></g></g><g fill="#000000" fill-opacity="1"><g transform="translate(111.835935, 29.436822)"><g><path d="M 5.65625 -12.21875 C 6.945312 -12.21875 8.070312 -11.960938 9.03125 -11.453125 C 10 -10.941406 10.742188 -10.222656 11.265625 -9.296875 C 11.796875 -8.378906 12.0625 -7.316406 12.0625 -6.109375 C 12.0625 -4.910156 11.796875 -3.847656 11.265625 -2.921875 C 10.742188 -1.992188 10 -1.273438 9.03125 -0.765625 C 8.0625 -0.253906 6.9375 0 5.65625 0 L 1.078125 0 L 1.078125 -12.21875 Z M 5.46875 -2.578125 C 6.59375 -2.578125 7.46875 -2.882812 8.09375 -3.5 C 8.71875 -4.113281 9.03125 -4.984375 9.03125 -6.109375 C 9.03125 -7.234375 8.71875 -8.109375 8.09375 -8.734375 C 7.46875 -9.359375 6.59375 -9.671875 5.46875 -9.671875 L 4.0625 -9.671875 L 4.0625 -2.578125 Z M 5.46875 -2.578125 "/></g></g></g><g fill="#000000" fill-opacity="1"><g transform="translate(124.482325, 29.436822)"><g><path d="M 8.6875 -2.15625 L 4.125 -2.15625 L 3.390625 0 L 0.28125 0 L 4.703125 -12.21875 L 8.140625 -12.21875 L 12.5625 0 L 9.421875 0 Z M 7.921875 -4.453125 L 6.40625 -8.921875 L 4.90625 -4.453125 Z M 7.921875 -4.453125 "/></g></g></g><g fill="#000000" fill-opacity="1"><g transform="translate(137.302662, 29.436822)"><g><path d="M 12.015625 0 L 9.03125 0 L 4.0625 -7.53125 L 4.0625 0 L 1.078125 0 L 1.078125 -12.21875 L 4.0625 -12.21875 L 9.03125 -4.640625 L 9.03125 -12.21875 L 12.015625 -12.21875 Z M 12.015625 0 "/></g></g></g><g fill="#000000" fill-opacity="1"><g transform="translate(150.383932, 29.436822)"><g><path d="M 5.65625 -12.21875 C 6.945312 -12.21875 8.070312 -11.960938 9.03125 -11.453125 C 10 -10.941406 10.742188 -10.222656 11.265625 -9.296875 C 11.796875 -8.378906 12.0625 -7.316406 12.0625 -6.109375 C 12.0625 -4.910156 11.796875 -3.847656 11.265625 -2.921875 C 10.742188 -1.992188 10 -1.273438 9.03125 -0.765625 C 8.0625 -0.253906 6.9375 0 5.65625 0 L 1.078125 0 L 1.078125 -12.21875 Z M 5.46875 -2.578125 C 6.59375 -2.578125 7.46875 -2.882812 8.09375 -3.5 C 8.71875 -4.113281 9.03125 -4.984375 9.03125 -6.109375 C 9.03125 -7.234375 8.71875 -8.109375 8.09375 -8.734375 C 7.46875 -9.359375 6.59375 -9.671875 5.46875 -9.671875 L 4.0625 -9.671875 L 4.0625 -2.578125 Z M 5.46875 -2.578125 "/></g></g></g><g fill="#000000" fill-opacity="1"><g transform="translate(163.030322, 29.436822)"><g><path d="M 6.859375 0.125 C 5.710938 0.125 4.660156 -0.140625 3.703125 -0.671875 C 2.742188 -1.210938 1.984375 -1.957031 1.421875 -2.90625 C 0.859375 -3.863281 0.578125 -4.941406 0.578125 -6.140625 C 0.578125 -7.335938 0.859375 -8.410156 1.421875 -9.359375 C 1.984375 -10.316406 2.742188 -11.0625 3.703125 -11.59375 C 4.660156 -12.125 5.710938 -12.390625 6.859375 -12.390625 C 8.003906 -12.390625 9.054688 -12.125 10.015625 -11.59375 C 10.972656 -11.0625 11.726562 -10.316406 12.28125 -9.359375 C 12.832031 -8.410156 13.109375 -7.335938 13.109375 -6.140625 C 13.109375 -4.941406 12.828125 -3.863281 12.265625 -2.90625 C 11.710938 -1.957031 10.957031 -1.210938 10 -0.671875 C 9.050781 -0.140625 8.003906 0.125 6.859375 0.125 Z M 6.859375 -2.59375 C 7.828125 -2.59375 8.601562 -2.914062 9.1875 -3.5625 C 9.78125 -4.21875 10.078125 -5.078125 10.078125 -6.140625 C 10.078125 -7.222656 9.78125 -8.082031 9.1875 -8.71875 C 8.601562 -9.363281 7.828125 -9.6875 6.859375 -9.6875 C 5.867188 -9.6875 5.082031 -9.367188 4.5 -8.734375 C 3.914062 -8.097656 3.625 -7.234375 3.625 -6.140625 C 3.625 -5.066406 3.914062 -4.207031 4.5 -3.5625 C 5.082031 -2.914062 5.867188 -2.59375 6.859375 -2.59375 Z M 6.859375 -2.59375 "/></g></g></g></svg>