<svg xmlns="http://www.w3.org/2000/svg" xmlns:xlink="http://www.w3.org/1999/xlink" width="400" zoomAndPan="magnify" viewBox="0 0 300 44.999999" height="60" preserveAspectRatio="xMidYMid meet" version="1.0"><defs><g/><clipPath id="1617886a9c"><path d="M 182.703125 11.003906 L 228.054688 11.003906 L 228.054688 33.996094 L 182.703125 33.996094 Z M 182.703125 11.003906 " clip-rule="nonzero"/></clipPath><clipPath id="4d29378256"><path d="M 186.453125 11.003906 L 224.328125 11.003906 C 226.398438 11.003906 228.078125 12.683594 228.078125 14.753906 L 228.078125 30.246094 C 228.078125 32.316406 226.398438 33.996094 224.328125 33.996094 L 186.453125 33.996094 C 184.382812 33.996094 182.703125 32.316406 182.703125 30.246094 L 182.703125 14.753906 C 182.703125 12.683594 184.382812 11.003906 186.453125 11.003906 " clip-rule="nonzero"/></clipPath><linearGradient x1="0.00000942132" gradientTransform="matrix(0.210937, 0, 0, 0.210937, 182.704559, 11.003467)" y1="0" x2="215" gradientUnits="userSpaceOnUse" y2="0" id="ecdf156ffc"><stop stop-opacity="1" stop-color="rgb(0%, 0%, 0%)" offset="0"/><stop stop-opacity="1" stop-color="rgb(0.175476%, 0.175476%, 0.175476%)" offset="0.0078125"/><stop stop-opacity="1" stop-color="rgb(0.526428%, 0.526428%, 0.526428%)" offset="0.015625"/><stop stop-opacity="1" stop-color="rgb(0.878906%, 0.878906%, 0.878906%)" offset="0.0234375"/><stop stop-opacity="1" stop-color="rgb(1.231384%, 1.231384%, 1.231384%)" offset="0.03125"/><stop stop-opacity="1" stop-color="rgb(1.583862%, 1.583862%, 1.583862%)" offset="0.0390625"/><stop stop-opacity="1" stop-color="rgb(1.93634%, 1.93634%, 1.93634%)" offset="0.046875"/><stop stop-opacity="1" stop-color="rgb(2.287292%, 2.287292%, 2.287292%)" offset="0.0546875"/><stop stop-opacity="1" stop-color="rgb(2.639771%, 2.639771%, 2.639771%)" offset="0.0625"/><stop stop-opacity="1" stop-color="rgb(2.992249%, 2.992249%, 2.992249%)" offset="0.0703125"/><stop stop-opacity="1" stop-color="rgb(3.344727%, 3.344727%, 3.344727%)" offset="0.078125"/><stop stop-opacity="1" stop-color="rgb(3.697205%, 3.697205%, 3.697205%)" offset="0.0859375"/><stop stop-opacity="1" stop-color="rgb(4.048157%, 4.048157%, 4.048157%)" offset="0.09375"/><stop stop-opacity="1" stop-color="rgb(4.400635%, 4.400635%, 4.400635%)" offset="0.101562"/><stop stop-opacity="1" stop-color="rgb(4.753113%, 4.753113%, 4.753113%)" offset="0.109375"/><stop stop-opacity="1" stop-color="rgb(5.105591%, 5.105591%, 5.105591%)" offset="0.117188"/><stop stop-opacity="1" stop-color="rgb(5.458069%, 5.458069%, 5.458069%)" offset="0.125"/><stop stop-opacity="1" stop-color="rgb(5.809021%, 5.809021%, 5.809021%)" offset="0.132812"/><stop stop-opacity="1" stop-color="rgb(6.161499%, 6.161499%, 6.161499%)" offset="0.140625"/><stop stop-opacity="1" stop-color="rgb(6.513977%, 6.513977%, 6.513977%)" offset="0.148438"/><stop stop-opacity="1" stop-color="rgb(6.866455%, 6.866455%, 6.866455%)" offset="0.15625"/><stop stop-opacity="1" stop-color="rgb(7.218933%, 7.218933%, 7.218933%)" offset="0.164062"/><stop stop-opacity="1" stop-color="rgb(7.571411%, 7.571411%, 7.571411%)" offset="0.171875"/><stop stop-opacity="1" stop-color="rgb(7.922363%, 7.922363%, 7.922363%)" offset="0.179688"/><stop stop-opacity="1" stop-color="rgb(8.274841%, 8.274841%, 8.274841%)" offset="0.1875"/><stop stop-opacity="1" stop-color="rgb(8.627319%, 8.627319%, 8.627319%)" offset="0.195312"/><stop stop-opacity="1" stop-color="rgb(8.979797%, 8.979797%, 8.979797%)" offset="0.203125"/><stop stop-opacity="1" stop-color="rgb(9.332275%, 9.332275%, 9.332275%)" offset="0.210938"/><stop stop-opacity="1" stop-color="rgb(9.683228%, 9.683228%, 9.683228%)" offset="0.21875"/><stop stop-opacity="1" stop-color="rgb(10.035706%, 10.035706%, 10.035706%)" offset="0.226562"/><stop stop-opacity="1" stop-color="rgb(10.388184%, 10.388184%, 10.388184%)" offset="0.234375"/><stop stop-opacity="1" stop-color="rgb(10.740662%, 10.740662%, 10.740662%)" offset="0.242188"/><stop stop-opacity="1" stop-color="rgb(11.09314%, 11.09314%, 11.09314%)" offset="0.25"/><stop stop-opacity="1" stop-color="rgb(11.444092%, 11.444092%, 11.444092%)" offset="0.257812"/><stop stop-opacity="1" stop-color="rgb(11.79657%, 11.79657%, 11.79657%)" offset="0.265625"/><stop stop-opacity="1" stop-color="rgb(12.149048%, 12.149048%, 12.149048%)" offset="0.273438"/><stop stop-opacity="1" stop-color="rgb(12.501526%, 12.501526%, 12.501526%)" offset="0.28125"/><stop stop-opacity="1" stop-color="rgb(12.854004%, 12.854004%, 12.854004%)" offset="0.289062"/><stop stop-opacity="1" stop-color="rgb(13.206482%, 13.206482%, 13.206482%)" offset="0.296875"/><stop stop-opacity="1" stop-color="rgb(13.557434%, 13.557434%, 13.557434%)" offset="0.304688"/><stop stop-opacity="1" stop-color="rgb(13.909912%, 13.909912%, 13.909912%)" offset="0.3125"/><stop stop-opacity="1" stop-color="rgb(14.26239%, 14.26239%, 14.26239%)" offset="0.320312"/><stop stop-opacity="1" stop-color="rgb(14.614868%, 14.614868%, 14.614868%)" offset="0.328125"/><stop stop-opacity="1" stop-color="rgb(14.967346%, 14.967346%, 14.967346%)" offset="0.335938"/><stop stop-opacity="1" stop-color="rgb(15.318298%, 15.318298%, 15.318298%)" offset="0.34375"/><stop stop-opacity="1" stop-color="rgb(15.670776%, 15.670776%, 15.670776%)" offset="0.351562"/><stop stop-opacity="1" stop-color="rgb(16.023254%, 16.023254%, 16.023254%)" offset="0.359375"/><stop stop-opacity="1" stop-color="rgb(16.375732%, 16.375732%, 16.375732%)" offset="0.367188"/><stop stop-opacity="1" stop-color="rgb(16.72821%, 16.72821%, 16.72821%)" offset="0.375"/><stop stop-opacity="1" stop-color="rgb(17.079163%, 17.079163%, 17.079163%)" offset="0.382812"/><stop stop-opacity="1" stop-color="rgb(17.431641%, 17.431641%, 17.431641%)" offset="0.390625"/><stop stop-opacity="1" stop-color="rgb(17.784119%, 17.784119%, 17.784119%)" offset="0.398438"/><stop stop-opacity="1" stop-color="rgb(18.136597%, 18.136597%, 18.136597%)" offset="0.40625"/><stop stop-opacity="1" stop-color="rgb(18.489075%, 18.489075%, 18.489075%)" offset="0.414062"/><stop stop-opacity="1" stop-color="rgb(18.841553%, 18.841553%, 18.841553%)" offset="0.421875"/><stop stop-opacity="1" stop-color="rgb(19.192505%, 19.192505%, 19.192505%)" offset="0.429688"/><stop stop-opacity="1" stop-color="rgb(19.544983%, 19.544983%, 19.544983%)" offset="0.4375"/><stop stop-opacity="1" stop-color="rgb(19.897461%, 19.897461%, 19.897461%)" offset="0.445312"/><stop stop-opacity="1" stop-color="rgb(20.249939%, 20.249939%, 20.249939%)" offset="0.453125"/><stop stop-opacity="1" stop-color="rgb(20.602417%, 20.602417%, 20.602417%)" offset="0.460938"/><stop stop-opacity="1" stop-color="rgb(20.953369%, 20.953369%, 20.953369%)" offset="0.46875"/><stop stop-opacity="1" stop-color="rgb(21.305847%, 21.305847%, 21.305847%)" offset="0.476562"/><stop stop-opacity="1" stop-color="rgb(21.658325%, 21.658325%, 21.658325%)" offset="0.484375"/><stop stop-opacity="1" stop-color="rgb(22.010803%, 22.010803%, 22.010803%)" offset="0.492188"/><stop stop-opacity="1" stop-color="rgb(22.363281%, 22.363281%, 22.363281%)" offset="0.5"/><stop stop-opacity="1" stop-color="rgb(22.714233%, 22.714233%, 22.714233%)" offset="0.507812"/><stop stop-opacity="1" stop-color="rgb(23.066711%, 23.066711%, 23.066711%)" offset="0.515625"/><stop stop-opacity="1" stop-color="rgb(23.419189%, 23.419189%, 23.419189%)" offset="0.523438"/><stop stop-opacity="1" stop-color="rgb(23.771667%, 23.771667%, 23.771667%)" offset="0.53125"/><stop stop-opacity="1" stop-color="rgb(24.124146%, 24.124146%, 24.124146%)" offset="0.539062"/><stop stop-opacity="1" stop-color="rgb(24.475098%, 24.475098%, 24.475098%)" offset="0.546875"/><stop stop-opacity="1" stop-color="rgb(24.827576%, 24.827576%, 24.827576%)" offset="0.554688"/><stop stop-opacity="1" stop-color="rgb(25.180054%, 25.180054%, 25.180054%)" offset="0.5625"/><stop stop-opacity="1" stop-color="rgb(25.532532%, 25.532532%, 25.532532%)" offset="0.570312"/><stop stop-opacity="1" stop-color="rgb(25.88501%, 25.88501%, 25.88501%)" offset="0.578125"/><stop stop-opacity="1" stop-color="rgb(26.237488%, 26.237488%, 26.237488%)" offset="0.585938"/><stop stop-opacity="1" stop-color="rgb(26.58844%, 26.58844%, 26.58844%)" offset="0.59375"/><stop stop-opacity="1" stop-color="rgb(26.940918%, 26.940918%, 26.940918%)" offset="0.601562"/><stop stop-opacity="1" stop-color="rgb(27.293396%, 27.293396%, 27.293396%)" offset="0.609375"/><stop stop-opacity="1" stop-color="rgb(27.645874%, 27.645874%, 27.645874%)" offset="0.617188"/><stop stop-opacity="1" stop-color="rgb(27.998352%, 27.998352%, 27.998352%)" offset="0.625"/><stop stop-opacity="1" stop-color="rgb(28.349304%, 28.349304%, 28.349304%)" offset="0.632812"/><stop stop-opacity="1" stop-color="rgb(28.701782%, 28.701782%, 28.701782%)" offset="0.640625"/><stop stop-opacity="1" stop-color="rgb(29.05426%, 29.05426%, 29.05426%)" offset="0.648438"/><stop stop-opacity="1" stop-color="rgb(29.406738%, 29.406738%, 29.406738%)" offset="0.65625"/><stop stop-opacity="1" stop-color="rgb(29.759216%, 29.759216%, 29.759216%)" offset="0.664062"/><stop stop-opacity="1" stop-color="rgb(30.110168%, 30.110168%, 30.110168%)" offset="0.671875"/><stop stop-opacity="1" stop-color="rgb(30.462646%, 30.462646%, 30.462646%)" offset="0.679688"/><stop stop-opacity="1" stop-color="rgb(30.815125%, 30.815125%, 30.815125%)" offset="0.6875"/><stop stop-opacity="1" stop-color="rgb(31.167603%, 31.167603%, 31.167603%)" offset="0.695312"/><stop stop-opacity="1" stop-color="rgb(31.520081%, 31.520081%, 31.520081%)" offset="0.703125"/><stop stop-opacity="1" stop-color="rgb(31.872559%, 31.872559%, 31.872559%)" offset="0.710938"/><stop stop-opacity="1" stop-color="rgb(32.223511%, 32.223511%, 32.223511%)" offset="0.71875"/><stop stop-opacity="1" stop-color="rgb(32.575989%, 32.575989%, 32.575989%)" offset="0.726562"/><stop stop-opacity="1" stop-color="rgb(32.928467%, 32.928467%, 32.928467%)" offset="0.734375"/><stop stop-opacity="1" stop-color="rgb(33.280945%, 33.280945%, 33.280945%)" offset="0.742188"/><stop stop-opacity="1" stop-color="rgb(33.633423%, 33.633423%, 33.633423%)" offset="0.75"/><stop stop-opacity="1" stop-color="rgb(33.984375%, 33.984375%, 33.984375%)" offset="0.757812"/><stop stop-opacity="1" stop-color="rgb(34.336853%, 34.336853%, 34.336853%)" offset="0.765625"/><stop stop-opacity="1" stop-color="rgb(34.689331%, 34.689331%, 34.689331%)" offset="0.773438"/><stop stop-opacity="1" stop-color="rgb(35.041809%, 35.041809%, 35.041809%)" offset="0.78125"/><stop stop-opacity="1" stop-color="rgb(35.394287%, 35.394287%, 35.394287%)" offset="0.789062"/><stop stop-opacity="1" stop-color="rgb(35.745239%, 35.745239%, 35.745239%)" offset="0.796875"/><stop stop-opacity="1" stop-color="rgb(36.097717%, 36.097717%, 36.097717%)" offset="0.804688"/><stop stop-opacity="1" stop-color="rgb(36.450195%, 36.450195%, 36.450195%)" offset="0.8125"/><stop stop-opacity="1" stop-color="rgb(36.802673%, 36.802673%, 36.802673%)" offset="0.820312"/><stop stop-opacity="1" stop-color="rgb(37.155151%, 37.155151%, 37.155151%)" offset="0.828125"/><stop stop-opacity="1" stop-color="rgb(37.507629%, 37.507629%, 37.507629%)" offset="0.835938"/><stop stop-opacity="1" stop-color="rgb(37.858582%, 37.858582%, 37.858582%)" offset="0.84375"/><stop stop-opacity="1" stop-color="rgb(38.21106%, 38.21106%, 38.21106%)" offset="0.851562"/><stop stop-opacity="1" stop-color="rgb(38.563538%, 38.563538%, 38.563538%)" offset="0.859375"/><stop stop-opacity="1" stop-color="rgb(38.916016%, 38.916016%, 38.916016%)" offset="0.867188"/><stop stop-opacity="1" stop-color="rgb(39.268494%, 39.268494%, 39.268494%)" offset="0.875"/><stop stop-opacity="1" stop-color="rgb(39.619446%, 39.619446%, 39.619446%)" offset="0.882812"/><stop stop-opacity="1" stop-color="rgb(39.971924%, 39.971924%, 39.971924%)" offset="0.890625"/><stop stop-opacity="1" stop-color="rgb(40.324402%, 40.324402%, 40.324402%)" offset="0.898438"/><stop stop-opacity="1" stop-color="rgb(40.67688%, 40.67688%, 40.67688%)" offset="0.90625"/><stop stop-opacity="1" stop-color="rgb(41.029358%, 41.029358%, 41.029358%)" offset="0.914062"/><stop stop-opacity="1" stop-color="rgb(41.38031%, 41.38031%, 41.38031%)" offset="0.921875"/><stop stop-opacity="1" stop-color="rgb(41.732788%, 41.732788%, 41.732788%)" offset="0.929688"/><stop stop-opacity="1" stop-color="rgb(42.085266%, 42.085266%, 42.085266%)" offset="0.9375"/><stop stop-opacity="1" stop-color="rgb(42.437744%, 42.437744%, 42.437744%)" offset="0.945312"/><stop stop-opacity="1" stop-color="rgb(42.790222%, 42.790222%, 42.790222%)" offset="0.953125"/><stop stop-opacity="1" stop-color="rgb(43.141174%, 43.141174%, 43.141174%)" offset="0.960938"/><stop stop-opacity="1" stop-color="rgb(43.493652%, 43.493652%, 43.493652%)" offset="0.96875"/><stop stop-opacity="1" stop-color="rgb(43.84613%, 43.84613%, 43.84613%)" offset="0.976562"/><stop stop-opacity="1" stop-color="rgb(44.198608%, 44.198608%, 44.198608%)" offset="0.984375"/><stop stop-opacity="1" stop-color="rgb(44.551086%, 44.551086%, 44.551086%)" offset="0.992188"/><stop stop-opacity="1" stop-color="rgb(44.903564%, 44.903564%, 44.903564%)" offset="1"/></linearGradient></defs><g clip-path="url(#1617886a9c)"><g clip-path="url(#4d29378256)"><path fill="url(#ecdf156ffc)" d="M 182.703125 11.003906 L 182.703125 33.996094 L 228.054688 33.996094 L 228.054688 11.003906 Z M 182.703125 11.003906 " fill-rule="nonzero"/></g></g><g fill="#000000" fill-opacity="1"><g transform="translate(68.423268, 26.999999)"><g><path d="M 9.9375 0 L 7.484375 0 L 3.359375 -6.234375 L 3.359375 0 L 0.890625 0 L 0.890625 -10.109375 L 3.359375 -10.109375 L 7.484375 -3.84375 L 7.484375 -10.109375 L 9.9375 -10.109375 Z M 9.9375 0 "/></g></g></g><g fill="#000000" fill-opacity="1"><g transform="translate(79.252093, 26.999999)"><g><path d="M 3.3125 -10.109375 L 3.3125 -4.0625 C 3.3125 -3.457031 3.457031 -2.988281 3.75 -2.65625 C 4.050781 -2.332031 4.492188 -2.171875 5.078125 -2.171875 C 5.648438 -2.171875 6.085938 -2.332031 6.390625 -2.65625 C 6.703125 -2.988281 6.859375 -3.457031 6.859375 -4.0625 L 6.859375 -10.109375 L 9.328125 -10.109375 L 9.328125 -4.078125 C 9.328125 -3.171875 9.132812 -2.40625 8.75 -1.78125 C 8.363281 -1.15625 7.84375 -0.6875 7.1875 -0.375 C 6.539062 -0.0625 5.820312 0.09375 5.03125 0.09375 C 4.226562 0.09375 3.507812 -0.0546875 2.875 -0.359375 C 2.25 -0.671875 1.753906 -1.140625 1.390625 -1.765625 C 1.023438 -2.398438 0.84375 -3.171875 0.84375 -4.078125 L 0.84375 -10.109375 Z M 3.3125 -10.109375 "/></g></g></g><g fill="#000000" fill-opacity="1"><g transform="translate(89.404113, 26.999999)"><g><path d="M 3.359375 -1.90625 L 6.578125 -1.90625 L 6.578125 0 L 0.890625 0 L 0.890625 -10.109375 L 3.359375 -10.109375 Z M 3.359375 -1.90625 "/></g></g></g><g fill="#000000" fill-opacity="1"><g transform="translate(96.27293, 26.999999)"><g><path d="M 5.671875 0.09375 C 4.722656 0.09375 3.851562 -0.125 3.0625 -0.5625 C 2.269531 -1 1.640625 -1.613281 1.171875 -2.40625 C 0.703125 -3.195312 0.46875 -4.085938 0.46875 -5.078125 C 0.46875 -6.066406 0.703125 -6.957031 1.171875 -7.75 C 1.640625 -8.539062 2.269531 -9.15625 3.0625 -9.59375 C 3.851562 -10.03125 4.722656 -10.25 5.671875 -10.25 C 6.628906 -10.25 7.503906 -10.03125 8.296875 -9.59375 C 9.085938 -9.15625 9.707031 -8.539062 10.15625 -7.75 C 10.613281 -6.957031 10.84375 -6.066406 10.84375 -5.078125 C 10.84375 -4.085938 10.613281 -3.195312 10.15625 -2.40625 C 9.695312 -1.613281 9.070312 -1 8.28125 -0.5625 C 7.5 -0.125 6.628906 0.09375 5.671875 0.09375 Z M 5.671875 -2.140625 C 6.484375 -2.140625 7.128906 -2.410156 7.609375 -2.953125 C 8.097656 -3.492188 8.34375 -4.203125 8.34375 -5.078125 C 8.34375 -5.972656 8.097656 -6.6875 7.609375 -7.21875 C 7.128906 -7.757812 6.484375 -8.03125 5.671875 -8.03125 C 4.859375 -8.03125 4.207031 -7.765625 3.71875 -7.234375 C 3.238281 -6.703125 3 -5.984375 3 -5.078125 C 3 -4.191406 3.238281 -3.476562 3.71875 -2.9375 C 4.207031 -2.40625 4.859375 -2.140625 5.671875 -2.140625 Z M 5.671875 -2.140625 "/></g></g></g><g fill="#000000" fill-opacity="1"><g transform="translate(107.591354, 26.999999)"><g><path d="M 6.375 -13.6875 L 2.515625 2.6875 L 0.140625 2.6875 L 4 -13.6875 Z M 6.375 -13.6875 "/></g></g></g><g fill="#000000" fill-opacity="1"><g transform="translate(114.114568, 26.999999)"><g><path d="M 9.9375 0 L 7.484375 0 L 3.359375 -6.234375 L 3.359375 0 L 0.890625 0 L 0.890625 -10.109375 L 3.359375 -10.109375 L 7.484375 -3.84375 L 7.484375 -10.109375 L 9.9375 -10.109375 Z M 9.9375 0 "/></g></g></g><g fill="#000000" fill-opacity="1"><g transform="translate(124.943394, 26.999999)"><g><path d="M 3.359375 -8.140625 L 3.359375 -6.09375 L 6.65625 -6.09375 L 6.65625 -4.1875 L 3.359375 -4.1875 L 3.359375 -1.96875 L 7.09375 -1.96875 L 7.09375 0 L 0.890625 0 L 0.890625 -10.109375 L 7.09375 -10.109375 L 7.09375 -8.140625 Z M 3.359375 -8.140625 "/></g></g></g><g fill="#000000" fill-opacity="1"><g transform="translate(132.733812, 26.999999)"><g><path d="M 9.9375 0 L 7.484375 0 L 3.359375 -6.234375 L 3.359375 0 L 0.890625 0 L 0.890625 -10.109375 L 3.359375 -10.109375 L 7.484375 -3.84375 L 7.484375 -10.109375 L 9.9375 -10.109375 Z M 9.9375 0 "/></g></g></g><g fill="#000000" fill-opacity="1"><g transform="translate(143.562637, 26.999999)"><g><path d="M 9.65625 -10.109375 L 9.65625 0 L 7.1875 0 L 7.1875 -4.15625 L 3.359375 -4.15625 L 3.359375 0 L 0.890625 0 L 0.890625 -10.109375 L 3.359375 -10.109375 L 3.359375 -6.15625 L 7.1875 -6.15625 L 7.1875 -10.109375 Z M 9.65625 -10.109375 "/></g></g></g><g fill="#000000" fill-opacity="1"><g transform="translate(154.089057, 26.999999)"><g><path d="M 3.3125 -10.109375 L 3.3125 -4.0625 C 3.3125 -3.457031 3.457031 -2.988281 3.75 -2.65625 C 4.050781 -2.332031 4.492188 -2.171875 5.078125 -2.171875 C 5.648438 -2.171875 6.085938 -2.332031 6.390625 -2.65625 C 6.703125 -2.988281 6.859375 -3.457031 6.859375 -4.0625 L 6.859375 -10.109375 L 9.328125 -10.109375 L 9.328125 -4.078125 C 9.328125 -3.171875 9.132812 -2.40625 8.75 -1.78125 C 8.363281 -1.15625 7.84375 -0.6875 7.1875 -0.375 C 6.539062 -0.0625 5.820312 0.09375 5.03125 0.09375 C 4.226562 0.09375 3.507812 -0.0546875 2.875 -0.359375 C 2.25 -0.671875 1.753906 -1.140625 1.390625 -1.765625 C 1.023438 -2.398438 0.84375 -3.171875 0.84375 -4.078125 L 0.84375 -10.109375 Z M 3.3125 -10.109375 "/></g></g></g><g fill="#000000" fill-opacity="1"><g transform="translate(164.241076, 26.999999)"><g><path d="M 12.34375 -10.109375 L 12.34375 0 L 9.875 0 L 9.875 -6.0625 L 7.625 0 L 5.640625 0 L 3.359375 -6.078125 L 3.359375 0 L 0.890625 0 L 0.890625 -10.109375 L 3.796875 -10.109375 L 6.640625 -3.109375 L 9.453125 -10.109375 Z M 12.34375 -10.109375 "/></g></g></g></svg>